M48
; DRILL file {KiCad 7.0.8} date 2024 October 11, Friday 08:25:24
; FORMAT={-:-/ absolute / metric / decimal}
; #@! TF.CreationDate,2024-10-11T08:25:24+09:00
; #@! TF.GenerationSoftware,Kicad,Pcbnew,7.0.8
; #@! TF.FileFunction,NonPlated,1,2,NPTH
FMAT,2
METRIC
; #@! TA.AperFunction,NonPlated,NPTH,ComponentDrill
T1C1.200
; #@! TA.AperFunction,NonPlated,NPTH,ComponentDrill
T2C1.900
; #@! TA.AperFunction,NonPlated,NPTH,ComponentDrill
T3C3.000
; #@! TA.AperFunction,NonPlated,NPTH,ComponentDrill
T4C5.000
%
G90
G05
T1
X95.12Y8.43
X95.12Y1.43
T2
X89.75Y-57.15
X100.75Y-57.15
X108.8Y0.0
X108.8Y-19.05
X108.8Y-38.1
X108.8Y-57.15
X119.8Y0.0
X119.8Y-19.05
X119.8Y-38.1
X119.8Y-57.15
X127.85Y0.0
X127.85Y-19.05
X127.85Y-38.1
X127.85Y-57.15
X138.85Y0.0
X138.85Y-19.05
X138.85Y-38.1
X138.85Y-57.15
X146.9Y0.0
X146.9Y-19.05
X146.9Y-38.1
X146.9Y-57.15
X157.9Y0.0
X157.9Y-19.05
X157.9Y-38.1
X157.9Y-57.15
X165.95Y0.0
X165.95Y-19.05
X165.95Y-38.1
X165.95Y-57.15
X176.95Y0.0
X176.95Y-19.05
X176.95Y-38.1
X176.95Y-57.15
X185.0Y0.0
X185.0Y-19.05
X185.0Y-38.1
X185.0Y-57.15
X196.0Y0.0
X196.0Y-19.05
X196.0Y-38.1
X196.0Y-57.15
T3
X90.25Y-60.85
X95.25Y-63.05
X109.3Y-3.7
X109.3Y-22.75
X109.3Y-41.8
X109.3Y-60.85
X114.3Y-5.9
X114.3Y-24.95
X114.3Y-44.0
X114.3Y-63.05
X128.35Y-3.7
X128.35Y-22.75
X128.35Y-41.8
X128.35Y-60.85
X133.35Y-5.9
X133.35Y-24.95
X133.35Y-44.0
X133.35Y-63.05
X147.4Y-3.7
X147.4Y-22.75
X147.4Y-41.8
X147.4Y-60.85
X152.4Y-5.9
X152.4Y-24.95
X152.4Y-44.0
X152.4Y-63.05
X166.45Y-3.7
X166.45Y-22.75
X166.45Y-41.8
X166.45Y-60.85
X171.45Y-5.9
X171.45Y-24.95
X171.45Y-44.0
X171.45Y-63.05
X185.5Y-3.7
X185.5Y-22.75
X185.5Y-41.8
X185.5Y-60.85
X190.5Y-5.9
X190.5Y-24.95
X190.5Y-44.0
X190.5Y-63.05
T4
X95.25Y-57.15
X114.3Y0.0
X114.3Y-19.05
X114.3Y-38.1
X114.3Y-57.15
X133.35Y0.0
X133.35Y-19.05
X133.35Y-38.1
X133.35Y-57.15
X152.4Y0.0
X152.4Y-19.05
X152.4Y-38.1
X152.4Y-57.15
X171.45Y0.0
X171.45Y-19.05
X171.45Y-38.1
X171.45Y-57.15
X190.5Y0.0
X190.5Y-19.05
X190.5Y-38.1
X190.5Y-57.15
T0
M30
