%TF.GenerationSoftware,KiCad,Pcbnew,7.0.8*%
%TF.CreationDate,2024-10-11T08:25:21+09:00*%
%TF.ProjectId,cool642r,636f6f6c-3634-4327-922e-6b696361645f,rev?*%
%TF.SameCoordinates,Original*%
%TF.FileFunction,Legend,Bot*%
%TF.FilePolarity,Positive*%
%FSLAX46Y46*%
G04 Gerber Fmt 4.6, Leading zero omitted, Abs format (unit mm)*
G04 Created by KiCad (PCBNEW 7.0.8) date 2024-10-11 08:25:21*
%MOMM*%
%LPD*%
G01*
G04 APERTURE LIST*
%ADD10C,0.150000*%
%ADD11C,0.125000*%
%ADD12C,0.120000*%
%ADD13C,1.524000*%
%ADD14R,1.524000X1.524000*%
G04 APERTURE END LIST*
D10*
X176344649Y-29962200D02*
X176439887Y-30009819D01*
X176439887Y-30009819D02*
X176630363Y-30009819D01*
X176630363Y-30009819D02*
X176725601Y-29962200D01*
X176725601Y-29962200D02*
X176773220Y-29914580D01*
X176773220Y-29914580D02*
X176820839Y-29819342D01*
X176820839Y-29819342D02*
X176820839Y-29533628D01*
X176820839Y-29533628D02*
X176773220Y-29438390D01*
X176773220Y-29438390D02*
X176725601Y-29390771D01*
X176725601Y-29390771D02*
X176630363Y-29343152D01*
X176630363Y-29343152D02*
X176439887Y-29343152D01*
X176439887Y-29343152D02*
X176344649Y-29390771D01*
X175773220Y-30009819D02*
X175868458Y-29962200D01*
X175868458Y-29962200D02*
X175916077Y-29914580D01*
X175916077Y-29914580D02*
X175963696Y-29819342D01*
X175963696Y-29819342D02*
X175963696Y-29533628D01*
X175963696Y-29533628D02*
X175916077Y-29438390D01*
X175916077Y-29438390D02*
X175868458Y-29390771D01*
X175868458Y-29390771D02*
X175773220Y-29343152D01*
X175773220Y-29343152D02*
X175630363Y-29343152D01*
X175630363Y-29343152D02*
X175535125Y-29390771D01*
X175535125Y-29390771D02*
X175487506Y-29438390D01*
X175487506Y-29438390D02*
X175439887Y-29533628D01*
X175439887Y-29533628D02*
X175439887Y-29819342D01*
X175439887Y-29819342D02*
X175487506Y-29914580D01*
X175487506Y-29914580D02*
X175535125Y-29962200D01*
X175535125Y-29962200D02*
X175630363Y-30009819D01*
X175630363Y-30009819D02*
X175773220Y-30009819D01*
X174868458Y-30009819D02*
X174963696Y-29962200D01*
X174963696Y-29962200D02*
X175011315Y-29914580D01*
X175011315Y-29914580D02*
X175058934Y-29819342D01*
X175058934Y-29819342D02*
X175058934Y-29533628D01*
X175058934Y-29533628D02*
X175011315Y-29438390D01*
X175011315Y-29438390D02*
X174963696Y-29390771D01*
X174963696Y-29390771D02*
X174868458Y-29343152D01*
X174868458Y-29343152D02*
X174725601Y-29343152D01*
X174725601Y-29343152D02*
X174630363Y-29390771D01*
X174630363Y-29390771D02*
X174582744Y-29438390D01*
X174582744Y-29438390D02*
X174535125Y-29533628D01*
X174535125Y-29533628D02*
X174535125Y-29819342D01*
X174535125Y-29819342D02*
X174582744Y-29914580D01*
X174582744Y-29914580D02*
X174630363Y-29962200D01*
X174630363Y-29962200D02*
X174725601Y-30009819D01*
X174725601Y-30009819D02*
X174868458Y-30009819D01*
X173963696Y-30009819D02*
X174058934Y-29962200D01*
X174058934Y-29962200D02*
X174106553Y-29866961D01*
X174106553Y-29866961D02*
X174106553Y-29009819D01*
X173154172Y-29009819D02*
X173344648Y-29009819D01*
X173344648Y-29009819D02*
X173439886Y-29057438D01*
X173439886Y-29057438D02*
X173487505Y-29105057D01*
X173487505Y-29105057D02*
X173582743Y-29247914D01*
X173582743Y-29247914D02*
X173630362Y-29438390D01*
X173630362Y-29438390D02*
X173630362Y-29819342D01*
X173630362Y-29819342D02*
X173582743Y-29914580D01*
X173582743Y-29914580D02*
X173535124Y-29962200D01*
X173535124Y-29962200D02*
X173439886Y-30009819D01*
X173439886Y-30009819D02*
X173249410Y-30009819D01*
X173249410Y-30009819D02*
X173154172Y-29962200D01*
X173154172Y-29962200D02*
X173106553Y-29914580D01*
X173106553Y-29914580D02*
X173058934Y-29819342D01*
X173058934Y-29819342D02*
X173058934Y-29581247D01*
X173058934Y-29581247D02*
X173106553Y-29486009D01*
X173106553Y-29486009D02*
X173154172Y-29438390D01*
X173154172Y-29438390D02*
X173249410Y-29390771D01*
X173249410Y-29390771D02*
X173439886Y-29390771D01*
X173439886Y-29390771D02*
X173535124Y-29438390D01*
X173535124Y-29438390D02*
X173582743Y-29486009D01*
X173582743Y-29486009D02*
X173630362Y-29581247D01*
X172201791Y-29343152D02*
X172201791Y-30009819D01*
X172439886Y-28962200D02*
X172677981Y-29676485D01*
X172677981Y-29676485D02*
X172058934Y-29676485D01*
X171725600Y-29105057D02*
X171677981Y-29057438D01*
X171677981Y-29057438D02*
X171582743Y-29009819D01*
X171582743Y-29009819D02*
X171344648Y-29009819D01*
X171344648Y-29009819D02*
X171249410Y-29057438D01*
X171249410Y-29057438D02*
X171201791Y-29105057D01*
X171201791Y-29105057D02*
X171154172Y-29200295D01*
X171154172Y-29200295D02*
X171154172Y-29295533D01*
X171154172Y-29295533D02*
X171201791Y-29438390D01*
X171201791Y-29438390D02*
X171773219Y-30009819D01*
X171773219Y-30009819D02*
X171154172Y-30009819D01*
X170725600Y-30009819D02*
X170725600Y-29343152D01*
X170725600Y-29533628D02*
X170677981Y-29438390D01*
X170677981Y-29438390D02*
X170630362Y-29390771D01*
X170630362Y-29390771D02*
X170535124Y-29343152D01*
X170535124Y-29343152D02*
X170439886Y-29343152D01*
X170106552Y-30009819D02*
X170106552Y-29343152D01*
X170106552Y-29009819D02*
X170154171Y-29057438D01*
X170154171Y-29057438D02*
X170106552Y-29105057D01*
X170106552Y-29105057D02*
X170058933Y-29057438D01*
X170058933Y-29057438D02*
X170106552Y-29009819D01*
X170106552Y-29009819D02*
X170106552Y-29105057D01*
X169201791Y-29343152D02*
X169201791Y-30152676D01*
X169201791Y-30152676D02*
X169249410Y-30247914D01*
X169249410Y-30247914D02*
X169297029Y-30295533D01*
X169297029Y-30295533D02*
X169392267Y-30343152D01*
X169392267Y-30343152D02*
X169535124Y-30343152D01*
X169535124Y-30343152D02*
X169630362Y-30295533D01*
X169201791Y-29962200D02*
X169297029Y-30009819D01*
X169297029Y-30009819D02*
X169487505Y-30009819D01*
X169487505Y-30009819D02*
X169582743Y-29962200D01*
X169582743Y-29962200D02*
X169630362Y-29914580D01*
X169630362Y-29914580D02*
X169677981Y-29819342D01*
X169677981Y-29819342D02*
X169677981Y-29533628D01*
X169677981Y-29533628D02*
X169630362Y-29438390D01*
X169630362Y-29438390D02*
X169582743Y-29390771D01*
X169582743Y-29390771D02*
X169487505Y-29343152D01*
X169487505Y-29343152D02*
X169297029Y-29343152D01*
X169297029Y-29343152D02*
X169201791Y-29390771D01*
X168725600Y-30009819D02*
X168725600Y-29009819D01*
X168297029Y-30009819D02*
X168297029Y-29486009D01*
X168297029Y-29486009D02*
X168344648Y-29390771D01*
X168344648Y-29390771D02*
X168439886Y-29343152D01*
X168439886Y-29343152D02*
X168582743Y-29343152D01*
X168582743Y-29343152D02*
X168677981Y-29390771D01*
X168677981Y-29390771D02*
X168725600Y-29438390D01*
X167963695Y-29343152D02*
X167582743Y-29343152D01*
X167820838Y-29009819D02*
X167820838Y-29866961D01*
X167820838Y-29866961D02*
X167773219Y-29962200D01*
X167773219Y-29962200D02*
X167677981Y-30009819D01*
X167677981Y-30009819D02*
X167582743Y-30009819D01*
X167297028Y-29962200D02*
X167201790Y-30009819D01*
X167201790Y-30009819D02*
X167011314Y-30009819D01*
X167011314Y-30009819D02*
X166916076Y-29962200D01*
X166916076Y-29962200D02*
X166868457Y-29866961D01*
X166868457Y-29866961D02*
X166868457Y-29819342D01*
X166868457Y-29819342D02*
X166916076Y-29724104D01*
X166916076Y-29724104D02*
X167011314Y-29676485D01*
X167011314Y-29676485D02*
X167154171Y-29676485D01*
X167154171Y-29676485D02*
X167249409Y-29628866D01*
X167249409Y-29628866D02*
X167297028Y-29533628D01*
X167297028Y-29533628D02*
X167297028Y-29486009D01*
X167297028Y-29486009D02*
X167249409Y-29390771D01*
X167249409Y-29390771D02*
X167154171Y-29343152D01*
X167154171Y-29343152D02*
X167011314Y-29343152D01*
X167011314Y-29343152D02*
X166916076Y-29390771D01*
X166439885Y-30009819D02*
X166439885Y-29343152D01*
X166439885Y-29009819D02*
X166487504Y-29057438D01*
X166487504Y-29057438D02*
X166439885Y-29105057D01*
X166439885Y-29105057D02*
X166392266Y-29057438D01*
X166392266Y-29057438D02*
X166439885Y-29009819D01*
X166439885Y-29009819D02*
X166439885Y-29105057D01*
X165535124Y-30009819D02*
X165535124Y-29009819D01*
X165535124Y-29962200D02*
X165630362Y-30009819D01*
X165630362Y-30009819D02*
X165820838Y-30009819D01*
X165820838Y-30009819D02*
X165916076Y-29962200D01*
X165916076Y-29962200D02*
X165963695Y-29914580D01*
X165963695Y-29914580D02*
X166011314Y-29819342D01*
X166011314Y-29819342D02*
X166011314Y-29533628D01*
X166011314Y-29533628D02*
X165963695Y-29438390D01*
X165963695Y-29438390D02*
X165916076Y-29390771D01*
X165916076Y-29390771D02*
X165820838Y-29343152D01*
X165820838Y-29343152D02*
X165630362Y-29343152D01*
X165630362Y-29343152D02*
X165535124Y-29390771D01*
X164677981Y-29962200D02*
X164773219Y-30009819D01*
X164773219Y-30009819D02*
X164963695Y-30009819D01*
X164963695Y-30009819D02*
X165058933Y-29962200D01*
X165058933Y-29962200D02*
X165106552Y-29866961D01*
X165106552Y-29866961D02*
X165106552Y-29486009D01*
X165106552Y-29486009D02*
X165058933Y-29390771D01*
X165058933Y-29390771D02*
X164963695Y-29343152D01*
X164963695Y-29343152D02*
X164773219Y-29343152D01*
X164773219Y-29343152D02*
X164677981Y-29390771D01*
X164677981Y-29390771D02*
X164630362Y-29486009D01*
X164630362Y-29486009D02*
X164630362Y-29581247D01*
X164630362Y-29581247D02*
X165106552Y-29676485D01*
X163011314Y-30009819D02*
X163011314Y-29009819D01*
X163011314Y-29962200D02*
X163106552Y-30009819D01*
X163106552Y-30009819D02*
X163297028Y-30009819D01*
X163297028Y-30009819D02*
X163392266Y-29962200D01*
X163392266Y-29962200D02*
X163439885Y-29914580D01*
X163439885Y-29914580D02*
X163487504Y-29819342D01*
X163487504Y-29819342D02*
X163487504Y-29533628D01*
X163487504Y-29533628D02*
X163439885Y-29438390D01*
X163439885Y-29438390D02*
X163392266Y-29390771D01*
X163392266Y-29390771D02*
X163297028Y-29343152D01*
X163297028Y-29343152D02*
X163106552Y-29343152D01*
X163106552Y-29343152D02*
X163011314Y-29390771D01*
X162154171Y-29962200D02*
X162249409Y-30009819D01*
X162249409Y-30009819D02*
X162439885Y-30009819D01*
X162439885Y-30009819D02*
X162535123Y-29962200D01*
X162535123Y-29962200D02*
X162582742Y-29866961D01*
X162582742Y-29866961D02*
X162582742Y-29486009D01*
X162582742Y-29486009D02*
X162535123Y-29390771D01*
X162535123Y-29390771D02*
X162439885Y-29343152D01*
X162439885Y-29343152D02*
X162249409Y-29343152D01*
X162249409Y-29343152D02*
X162154171Y-29390771D01*
X162154171Y-29390771D02*
X162106552Y-29486009D01*
X162106552Y-29486009D02*
X162106552Y-29581247D01*
X162106552Y-29581247D02*
X162582742Y-29676485D01*
X161725599Y-29962200D02*
X161630361Y-30009819D01*
X161630361Y-30009819D02*
X161439885Y-30009819D01*
X161439885Y-30009819D02*
X161344647Y-29962200D01*
X161344647Y-29962200D02*
X161297028Y-29866961D01*
X161297028Y-29866961D02*
X161297028Y-29819342D01*
X161297028Y-29819342D02*
X161344647Y-29724104D01*
X161344647Y-29724104D02*
X161439885Y-29676485D01*
X161439885Y-29676485D02*
X161582742Y-29676485D01*
X161582742Y-29676485D02*
X161677980Y-29628866D01*
X161677980Y-29628866D02*
X161725599Y-29533628D01*
X161725599Y-29533628D02*
X161725599Y-29486009D01*
X161725599Y-29486009D02*
X161677980Y-29390771D01*
X161677980Y-29390771D02*
X161582742Y-29343152D01*
X161582742Y-29343152D02*
X161439885Y-29343152D01*
X161439885Y-29343152D02*
X161344647Y-29390771D01*
X160868456Y-30009819D02*
X160868456Y-29343152D01*
X160868456Y-29009819D02*
X160916075Y-29057438D01*
X160916075Y-29057438D02*
X160868456Y-29105057D01*
X160868456Y-29105057D02*
X160820837Y-29057438D01*
X160820837Y-29057438D02*
X160868456Y-29009819D01*
X160868456Y-29009819D02*
X160868456Y-29105057D01*
X159963695Y-29343152D02*
X159963695Y-30152676D01*
X159963695Y-30152676D02*
X160011314Y-30247914D01*
X160011314Y-30247914D02*
X160058933Y-30295533D01*
X160058933Y-30295533D02*
X160154171Y-30343152D01*
X160154171Y-30343152D02*
X160297028Y-30343152D01*
X160297028Y-30343152D02*
X160392266Y-30295533D01*
X159963695Y-29962200D02*
X160058933Y-30009819D01*
X160058933Y-30009819D02*
X160249409Y-30009819D01*
X160249409Y-30009819D02*
X160344647Y-29962200D01*
X160344647Y-29962200D02*
X160392266Y-29914580D01*
X160392266Y-29914580D02*
X160439885Y-29819342D01*
X160439885Y-29819342D02*
X160439885Y-29533628D01*
X160439885Y-29533628D02*
X160392266Y-29438390D01*
X160392266Y-29438390D02*
X160344647Y-29390771D01*
X160344647Y-29390771D02*
X160249409Y-29343152D01*
X160249409Y-29343152D02*
X160058933Y-29343152D01*
X160058933Y-29343152D02*
X159963695Y-29390771D01*
X159487504Y-29343152D02*
X159487504Y-30009819D01*
X159487504Y-29438390D02*
X159439885Y-29390771D01*
X159439885Y-29390771D02*
X159344647Y-29343152D01*
X159344647Y-29343152D02*
X159201790Y-29343152D01*
X159201790Y-29343152D02*
X159106552Y-29390771D01*
X159106552Y-29390771D02*
X159058933Y-29486009D01*
X159058933Y-29486009D02*
X159058933Y-30009819D01*
X158201790Y-29962200D02*
X158297028Y-30009819D01*
X158297028Y-30009819D02*
X158487504Y-30009819D01*
X158487504Y-30009819D02*
X158582742Y-29962200D01*
X158582742Y-29962200D02*
X158630361Y-29866961D01*
X158630361Y-29866961D02*
X158630361Y-29486009D01*
X158630361Y-29486009D02*
X158582742Y-29390771D01*
X158582742Y-29390771D02*
X158487504Y-29343152D01*
X158487504Y-29343152D02*
X158297028Y-29343152D01*
X158297028Y-29343152D02*
X158201790Y-29390771D01*
X158201790Y-29390771D02*
X158154171Y-29486009D01*
X158154171Y-29486009D02*
X158154171Y-29581247D01*
X158154171Y-29581247D02*
X158630361Y-29676485D01*
X157297028Y-30009819D02*
X157297028Y-29009819D01*
X157297028Y-29962200D02*
X157392266Y-30009819D01*
X157392266Y-30009819D02*
X157582742Y-30009819D01*
X157582742Y-30009819D02*
X157677980Y-29962200D01*
X157677980Y-29962200D02*
X157725599Y-29914580D01*
X157725599Y-29914580D02*
X157773218Y-29819342D01*
X157773218Y-29819342D02*
X157773218Y-29533628D01*
X157773218Y-29533628D02*
X157725599Y-29438390D01*
X157725599Y-29438390D02*
X157677980Y-29390771D01*
X157677980Y-29390771D02*
X157582742Y-29343152D01*
X157582742Y-29343152D02*
X157392266Y-29343152D01*
X157392266Y-29343152D02*
X157297028Y-29390771D01*
X156058932Y-30009819D02*
X156058932Y-29009819D01*
X156058932Y-29390771D02*
X155963694Y-29343152D01*
X155963694Y-29343152D02*
X155773218Y-29343152D01*
X155773218Y-29343152D02*
X155677980Y-29390771D01*
X155677980Y-29390771D02*
X155630361Y-29438390D01*
X155630361Y-29438390D02*
X155582742Y-29533628D01*
X155582742Y-29533628D02*
X155582742Y-29819342D01*
X155582742Y-29819342D02*
X155630361Y-29914580D01*
X155630361Y-29914580D02*
X155677980Y-29962200D01*
X155677980Y-29962200D02*
X155773218Y-30009819D01*
X155773218Y-30009819D02*
X155963694Y-30009819D01*
X155963694Y-30009819D02*
X156058932Y-29962200D01*
X155249408Y-29343152D02*
X155011313Y-30009819D01*
X154773218Y-29343152D02*
X155011313Y-30009819D01*
X155011313Y-30009819D02*
X155106551Y-30247914D01*
X155106551Y-30247914D02*
X155154170Y-30295533D01*
X155154170Y-30295533D02*
X155249408Y-30343152D01*
X153630360Y-30009819D02*
X153630360Y-29343152D01*
X153630360Y-29438390D02*
X153582741Y-29390771D01*
X153582741Y-29390771D02*
X153487503Y-29343152D01*
X153487503Y-29343152D02*
X153344646Y-29343152D01*
X153344646Y-29343152D02*
X153249408Y-29390771D01*
X153249408Y-29390771D02*
X153201789Y-29486009D01*
X153201789Y-29486009D02*
X153201789Y-30009819D01*
X153201789Y-29486009D02*
X153154170Y-29390771D01*
X153154170Y-29390771D02*
X153058932Y-29343152D01*
X153058932Y-29343152D02*
X152916075Y-29343152D01*
X152916075Y-29343152D02*
X152820836Y-29390771D01*
X152820836Y-29390771D02*
X152773217Y-29486009D01*
X152773217Y-29486009D02*
X152773217Y-30009819D01*
X152297027Y-29914580D02*
X152249408Y-29962200D01*
X152249408Y-29962200D02*
X152297027Y-30009819D01*
X152297027Y-30009819D02*
X152344646Y-29962200D01*
X152344646Y-29962200D02*
X152297027Y-29914580D01*
X152297027Y-29914580D02*
X152297027Y-30009819D01*
X151820837Y-30009819D02*
X151820837Y-29009819D01*
X151725599Y-29628866D02*
X151439885Y-30009819D01*
X151439885Y-29343152D02*
X151820837Y-29724104D01*
X151011313Y-30009819D02*
X151011313Y-29343152D01*
X151011313Y-29009819D02*
X151058932Y-29057438D01*
X151058932Y-29057438D02*
X151011313Y-29105057D01*
X151011313Y-29105057D02*
X150963694Y-29057438D01*
X150963694Y-29057438D02*
X151011313Y-29009819D01*
X151011313Y-29009819D02*
X151011313Y-29105057D01*
X176868458Y-30953152D02*
X176630363Y-31619819D01*
X176630363Y-31619819D02*
X176392268Y-30953152D01*
X175630363Y-31572200D02*
X175725601Y-31619819D01*
X175725601Y-31619819D02*
X175916077Y-31619819D01*
X175916077Y-31619819D02*
X176011315Y-31572200D01*
X176011315Y-31572200D02*
X176058934Y-31476961D01*
X176058934Y-31476961D02*
X176058934Y-31096009D01*
X176058934Y-31096009D02*
X176011315Y-31000771D01*
X176011315Y-31000771D02*
X175916077Y-30953152D01*
X175916077Y-30953152D02*
X175725601Y-30953152D01*
X175725601Y-30953152D02*
X175630363Y-31000771D01*
X175630363Y-31000771D02*
X175582744Y-31096009D01*
X175582744Y-31096009D02*
X175582744Y-31191247D01*
X175582744Y-31191247D02*
X176058934Y-31286485D01*
X175154172Y-31619819D02*
X175154172Y-30953152D01*
X175154172Y-31143628D02*
X175106553Y-31048390D01*
X175106553Y-31048390D02*
X175058934Y-31000771D01*
X175058934Y-31000771D02*
X174963696Y-30953152D01*
X174963696Y-30953152D02*
X174868458Y-30953152D01*
X174535124Y-31524580D02*
X174487505Y-31572200D01*
X174487505Y-31572200D02*
X174535124Y-31619819D01*
X174535124Y-31619819D02*
X174582743Y-31572200D01*
X174582743Y-31572200D02*
X174535124Y-31524580D01*
X174535124Y-31524580D02*
X174535124Y-31619819D01*
X173535125Y-31619819D02*
X174106553Y-31619819D01*
X173820839Y-31619819D02*
X173820839Y-30619819D01*
X173820839Y-30619819D02*
X173916077Y-30762676D01*
X173916077Y-30762676D02*
X174011315Y-30857914D01*
X174011315Y-30857914D02*
X174106553Y-30905533D01*
X173106553Y-31524580D02*
X173058934Y-31572200D01*
X173058934Y-31572200D02*
X173106553Y-31619819D01*
X173106553Y-31619819D02*
X173154172Y-31572200D01*
X173154172Y-31572200D02*
X173106553Y-31524580D01*
X173106553Y-31524580D02*
X173106553Y-31619819D01*
X172439887Y-30619819D02*
X172344649Y-30619819D01*
X172344649Y-30619819D02*
X172249411Y-30667438D01*
X172249411Y-30667438D02*
X172201792Y-30715057D01*
X172201792Y-30715057D02*
X172154173Y-30810295D01*
X172154173Y-30810295D02*
X172106554Y-31000771D01*
X172106554Y-31000771D02*
X172106554Y-31238866D01*
X172106554Y-31238866D02*
X172154173Y-31429342D01*
X172154173Y-31429342D02*
X172201792Y-31524580D01*
X172201792Y-31524580D02*
X172249411Y-31572200D01*
X172249411Y-31572200D02*
X172344649Y-31619819D01*
X172344649Y-31619819D02*
X172439887Y-31619819D01*
X172439887Y-31619819D02*
X172535125Y-31572200D01*
X172535125Y-31572200D02*
X172582744Y-31524580D01*
X172582744Y-31524580D02*
X172630363Y-31429342D01*
X172630363Y-31429342D02*
X172677982Y-31238866D01*
X172677982Y-31238866D02*
X172677982Y-31000771D01*
X172677982Y-31000771D02*
X172630363Y-30810295D01*
X172630363Y-30810295D02*
X172582744Y-30715057D01*
X172582744Y-30715057D02*
X172535125Y-30667438D01*
X172535125Y-30667438D02*
X172439887Y-30619819D01*
X170487506Y-31619819D02*
X170487506Y-30619819D01*
X170487506Y-31572200D02*
X170582744Y-31619819D01*
X170582744Y-31619819D02*
X170773220Y-31619819D01*
X170773220Y-31619819D02*
X170868458Y-31572200D01*
X170868458Y-31572200D02*
X170916077Y-31524580D01*
X170916077Y-31524580D02*
X170963696Y-31429342D01*
X170963696Y-31429342D02*
X170963696Y-31143628D01*
X170963696Y-31143628D02*
X170916077Y-31048390D01*
X170916077Y-31048390D02*
X170868458Y-31000771D01*
X170868458Y-31000771D02*
X170773220Y-30953152D01*
X170773220Y-30953152D02*
X170582744Y-30953152D01*
X170582744Y-30953152D02*
X170487506Y-31000771D01*
X169582744Y-31619819D02*
X169582744Y-31096009D01*
X169582744Y-31096009D02*
X169630363Y-31000771D01*
X169630363Y-31000771D02*
X169725601Y-30953152D01*
X169725601Y-30953152D02*
X169916077Y-30953152D01*
X169916077Y-30953152D02*
X170011315Y-31000771D01*
X169582744Y-31572200D02*
X169677982Y-31619819D01*
X169677982Y-31619819D02*
X169916077Y-31619819D01*
X169916077Y-31619819D02*
X170011315Y-31572200D01*
X170011315Y-31572200D02*
X170058934Y-31476961D01*
X170058934Y-31476961D02*
X170058934Y-31381723D01*
X170058934Y-31381723D02*
X170011315Y-31286485D01*
X170011315Y-31286485D02*
X169916077Y-31238866D01*
X169916077Y-31238866D02*
X169677982Y-31238866D01*
X169677982Y-31238866D02*
X169582744Y-31191247D01*
X169249410Y-30953152D02*
X168868458Y-30953152D01*
X169106553Y-30619819D02*
X169106553Y-31476961D01*
X169106553Y-31476961D02*
X169058934Y-31572200D01*
X169058934Y-31572200D02*
X168963696Y-31619819D01*
X168963696Y-31619819D02*
X168868458Y-31619819D01*
X168106553Y-31619819D02*
X168106553Y-31096009D01*
X168106553Y-31096009D02*
X168154172Y-31000771D01*
X168154172Y-31000771D02*
X168249410Y-30953152D01*
X168249410Y-30953152D02*
X168439886Y-30953152D01*
X168439886Y-30953152D02*
X168535124Y-31000771D01*
X168106553Y-31572200D02*
X168201791Y-31619819D01*
X168201791Y-31619819D02*
X168439886Y-31619819D01*
X168439886Y-31619819D02*
X168535124Y-31572200D01*
X168535124Y-31572200D02*
X168582743Y-31476961D01*
X168582743Y-31476961D02*
X168582743Y-31381723D01*
X168582743Y-31381723D02*
X168535124Y-31286485D01*
X168535124Y-31286485D02*
X168439886Y-31238866D01*
X168439886Y-31238866D02*
X168201791Y-31238866D01*
X168201791Y-31238866D02*
X168106553Y-31191247D01*
X167677981Y-30715057D02*
X167630362Y-30667438D01*
X167630362Y-30667438D02*
X167535124Y-30619819D01*
X167535124Y-30619819D02*
X167297029Y-30619819D01*
X167297029Y-30619819D02*
X167201791Y-30667438D01*
X167201791Y-30667438D02*
X167154172Y-30715057D01*
X167154172Y-30715057D02*
X167106553Y-30810295D01*
X167106553Y-30810295D02*
X167106553Y-30905533D01*
X167106553Y-30905533D02*
X167154172Y-31048390D01*
X167154172Y-31048390D02*
X167725600Y-31619819D01*
X167725600Y-31619819D02*
X167106553Y-31619819D01*
X166487505Y-30619819D02*
X166392267Y-30619819D01*
X166392267Y-30619819D02*
X166297029Y-30667438D01*
X166297029Y-30667438D02*
X166249410Y-30715057D01*
X166249410Y-30715057D02*
X166201791Y-30810295D01*
X166201791Y-30810295D02*
X166154172Y-31000771D01*
X166154172Y-31000771D02*
X166154172Y-31238866D01*
X166154172Y-31238866D02*
X166201791Y-31429342D01*
X166201791Y-31429342D02*
X166249410Y-31524580D01*
X166249410Y-31524580D02*
X166297029Y-31572200D01*
X166297029Y-31572200D02*
X166392267Y-31619819D01*
X166392267Y-31619819D02*
X166487505Y-31619819D01*
X166487505Y-31619819D02*
X166582743Y-31572200D01*
X166582743Y-31572200D02*
X166630362Y-31524580D01*
X166630362Y-31524580D02*
X166677981Y-31429342D01*
X166677981Y-31429342D02*
X166725600Y-31238866D01*
X166725600Y-31238866D02*
X166725600Y-31000771D01*
X166725600Y-31000771D02*
X166677981Y-30810295D01*
X166677981Y-30810295D02*
X166630362Y-30715057D01*
X166630362Y-30715057D02*
X166582743Y-30667438D01*
X166582743Y-30667438D02*
X166487505Y-30619819D01*
X165773219Y-30715057D02*
X165725600Y-30667438D01*
X165725600Y-30667438D02*
X165630362Y-30619819D01*
X165630362Y-30619819D02*
X165392267Y-30619819D01*
X165392267Y-30619819D02*
X165297029Y-30667438D01*
X165297029Y-30667438D02*
X165249410Y-30715057D01*
X165249410Y-30715057D02*
X165201791Y-30810295D01*
X165201791Y-30810295D02*
X165201791Y-30905533D01*
X165201791Y-30905533D02*
X165249410Y-31048390D01*
X165249410Y-31048390D02*
X165820838Y-31619819D01*
X165820838Y-31619819D02*
X165201791Y-31619819D01*
X164344648Y-30953152D02*
X164344648Y-31619819D01*
X164582743Y-30572200D02*
X164820838Y-31286485D01*
X164820838Y-31286485D02*
X164201791Y-31286485D01*
X163297029Y-31619819D02*
X163868457Y-31619819D01*
X163582743Y-31619819D02*
X163582743Y-30619819D01*
X163582743Y-30619819D02*
X163677981Y-30762676D01*
X163677981Y-30762676D02*
X163773219Y-30857914D01*
X163773219Y-30857914D02*
X163868457Y-30905533D01*
X162677981Y-30619819D02*
X162582743Y-30619819D01*
X162582743Y-30619819D02*
X162487505Y-30667438D01*
X162487505Y-30667438D02*
X162439886Y-30715057D01*
X162439886Y-30715057D02*
X162392267Y-30810295D01*
X162392267Y-30810295D02*
X162344648Y-31000771D01*
X162344648Y-31000771D02*
X162344648Y-31238866D01*
X162344648Y-31238866D02*
X162392267Y-31429342D01*
X162392267Y-31429342D02*
X162439886Y-31524580D01*
X162439886Y-31524580D02*
X162487505Y-31572200D01*
X162487505Y-31572200D02*
X162582743Y-31619819D01*
X162582743Y-31619819D02*
X162677981Y-31619819D01*
X162677981Y-31619819D02*
X162773219Y-31572200D01*
X162773219Y-31572200D02*
X162820838Y-31524580D01*
X162820838Y-31524580D02*
X162868457Y-31429342D01*
X162868457Y-31429342D02*
X162916076Y-31238866D01*
X162916076Y-31238866D02*
X162916076Y-31000771D01*
X162916076Y-31000771D02*
X162868457Y-30810295D01*
X162868457Y-30810295D02*
X162820838Y-30715057D01*
X162820838Y-30715057D02*
X162773219Y-30667438D01*
X162773219Y-30667438D02*
X162677981Y-30619819D01*
X161392267Y-31619819D02*
X161963695Y-31619819D01*
X161677981Y-31619819D02*
X161677981Y-30619819D01*
X161677981Y-30619819D02*
X161773219Y-30762676D01*
X161773219Y-30762676D02*
X161868457Y-30857914D01*
X161868457Y-30857914D02*
X161963695Y-30905533D01*
X160439886Y-31619819D02*
X161011314Y-31619819D01*
X160725600Y-31619819D02*
X160725600Y-30619819D01*
X160725600Y-30619819D02*
X160820838Y-30762676D01*
X160820838Y-30762676D02*
X160916076Y-30857914D01*
X160916076Y-30857914D02*
X161011314Y-30905533D01*
X91319381Y-26754819D02*
X91652714Y-26278628D01*
X91890809Y-26754819D02*
X91890809Y-25754819D01*
X91890809Y-25754819D02*
X91509857Y-25754819D01*
X91509857Y-25754819D02*
X91414619Y-25802438D01*
X91414619Y-25802438D02*
X91367000Y-25850057D01*
X91367000Y-25850057D02*
X91319381Y-25945295D01*
X91319381Y-25945295D02*
X91319381Y-26088152D01*
X91319381Y-26088152D02*
X91367000Y-26183390D01*
X91367000Y-26183390D02*
X91414619Y-26231009D01*
X91414619Y-26231009D02*
X91509857Y-26278628D01*
X91509857Y-26278628D02*
X91890809Y-26278628D01*
X90890809Y-26231009D02*
X90557476Y-26231009D01*
X90414619Y-26754819D02*
X90890809Y-26754819D01*
X90890809Y-26754819D02*
X90890809Y-25754819D01*
X90890809Y-25754819D02*
X90414619Y-25754819D01*
X90033666Y-26707200D02*
X89890809Y-26754819D01*
X89890809Y-26754819D02*
X89652714Y-26754819D01*
X89652714Y-26754819D02*
X89557476Y-26707200D01*
X89557476Y-26707200D02*
X89509857Y-26659580D01*
X89509857Y-26659580D02*
X89462238Y-26564342D01*
X89462238Y-26564342D02*
X89462238Y-26469104D01*
X89462238Y-26469104D02*
X89509857Y-26373866D01*
X89509857Y-26373866D02*
X89557476Y-26326247D01*
X89557476Y-26326247D02*
X89652714Y-26278628D01*
X89652714Y-26278628D02*
X89843190Y-26231009D01*
X89843190Y-26231009D02*
X89938428Y-26183390D01*
X89938428Y-26183390D02*
X89986047Y-26135771D01*
X89986047Y-26135771D02*
X90033666Y-26040533D01*
X90033666Y-26040533D02*
X90033666Y-25945295D01*
X90033666Y-25945295D02*
X89986047Y-25850057D01*
X89986047Y-25850057D02*
X89938428Y-25802438D01*
X89938428Y-25802438D02*
X89843190Y-25754819D01*
X89843190Y-25754819D02*
X89605095Y-25754819D01*
X89605095Y-25754819D02*
X89462238Y-25802438D01*
X89033666Y-26231009D02*
X88700333Y-26231009D01*
X88557476Y-26754819D02*
X89033666Y-26754819D01*
X89033666Y-26754819D02*
X89033666Y-25754819D01*
X89033666Y-25754819D02*
X88557476Y-25754819D01*
X88271761Y-25754819D02*
X87700333Y-25754819D01*
X87986047Y-26754819D02*
X87986047Y-25754819D01*
D11*
X91159789Y-19645607D02*
X91064075Y-19681321D01*
X91064075Y-19681321D02*
X91032170Y-19717035D01*
X91032170Y-19717035D02*
X91000266Y-19788464D01*
X91000266Y-19788464D02*
X91000266Y-19895607D01*
X91000266Y-19895607D02*
X91032170Y-19967035D01*
X91032170Y-19967035D02*
X91064075Y-20002750D01*
X91064075Y-20002750D02*
X91127885Y-20038464D01*
X91127885Y-20038464D02*
X91383123Y-20038464D01*
X91383123Y-20038464D02*
X91383123Y-19288464D01*
X91383123Y-19288464D02*
X91159789Y-19288464D01*
X91159789Y-19288464D02*
X91095980Y-19324178D01*
X91095980Y-19324178D02*
X91064075Y-19359892D01*
X91064075Y-19359892D02*
X91032170Y-19431321D01*
X91032170Y-19431321D02*
X91032170Y-19502750D01*
X91032170Y-19502750D02*
X91064075Y-19574178D01*
X91064075Y-19574178D02*
X91095980Y-19609892D01*
X91095980Y-19609892D02*
X91159789Y-19645607D01*
X91159789Y-19645607D02*
X91383123Y-19645607D01*
X90425980Y-19538464D02*
X90425980Y-20038464D01*
X90585504Y-19252750D02*
X90745027Y-19788464D01*
X90745027Y-19788464D02*
X90330266Y-19788464D01*
X89596456Y-19252750D02*
X90170742Y-20217035D01*
X89277408Y-19609892D02*
X89341218Y-19574178D01*
X89341218Y-19574178D02*
X89373123Y-19538464D01*
X89373123Y-19538464D02*
X89405027Y-19467035D01*
X89405027Y-19467035D02*
X89405027Y-19431321D01*
X89405027Y-19431321D02*
X89373123Y-19359892D01*
X89373123Y-19359892D02*
X89341218Y-19324178D01*
X89341218Y-19324178D02*
X89277408Y-19288464D01*
X89277408Y-19288464D02*
X89149789Y-19288464D01*
X89149789Y-19288464D02*
X89085980Y-19324178D01*
X89085980Y-19324178D02*
X89054075Y-19359892D01*
X89054075Y-19359892D02*
X89022170Y-19431321D01*
X89022170Y-19431321D02*
X89022170Y-19467035D01*
X89022170Y-19467035D02*
X89054075Y-19538464D01*
X89054075Y-19538464D02*
X89085980Y-19574178D01*
X89085980Y-19574178D02*
X89149789Y-19609892D01*
X89149789Y-19609892D02*
X89277408Y-19609892D01*
X89277408Y-19609892D02*
X89341218Y-19645607D01*
X89341218Y-19645607D02*
X89373123Y-19681321D01*
X89373123Y-19681321D02*
X89405027Y-19752750D01*
X89405027Y-19752750D02*
X89405027Y-19895607D01*
X89405027Y-19895607D02*
X89373123Y-19967035D01*
X89373123Y-19967035D02*
X89341218Y-20002750D01*
X89341218Y-20002750D02*
X89277408Y-20038464D01*
X89277408Y-20038464D02*
X89149789Y-20038464D01*
X89149789Y-20038464D02*
X89085980Y-20002750D01*
X89085980Y-20002750D02*
X89054075Y-19967035D01*
X89054075Y-19967035D02*
X89022170Y-19895607D01*
X89022170Y-19895607D02*
X89022170Y-19752750D01*
X89022170Y-19752750D02*
X89054075Y-19681321D01*
X89054075Y-19681321D02*
X89085980Y-19645607D01*
X89085980Y-19645607D02*
X89149789Y-19609892D01*
X90594075Y-1574178D02*
X90657885Y-1538464D01*
X90657885Y-1538464D02*
X90753599Y-1538464D01*
X90753599Y-1538464D02*
X90849313Y-1574178D01*
X90849313Y-1574178D02*
X90913123Y-1645607D01*
X90913123Y-1645607D02*
X90945028Y-1717035D01*
X90945028Y-1717035D02*
X90976932Y-1859892D01*
X90976932Y-1859892D02*
X90976932Y-1967035D01*
X90976932Y-1967035D02*
X90945028Y-2109892D01*
X90945028Y-2109892D02*
X90913123Y-2181321D01*
X90913123Y-2181321D02*
X90849313Y-2252750D01*
X90849313Y-2252750D02*
X90753599Y-2288464D01*
X90753599Y-2288464D02*
X90689790Y-2288464D01*
X90689790Y-2288464D02*
X90594075Y-2252750D01*
X90594075Y-2252750D02*
X90562171Y-2217035D01*
X90562171Y-2217035D02*
X90562171Y-1967035D01*
X90562171Y-1967035D02*
X90689790Y-1967035D01*
X90275028Y-2288464D02*
X90275028Y-1538464D01*
X90275028Y-1538464D02*
X89892171Y-2288464D01*
X89892171Y-2288464D02*
X89892171Y-1538464D01*
X89573123Y-2288464D02*
X89573123Y-1538464D01*
X89573123Y-1538464D02*
X89413599Y-1538464D01*
X89413599Y-1538464D02*
X89317885Y-1574178D01*
X89317885Y-1574178D02*
X89254075Y-1645607D01*
X89254075Y-1645607D02*
X89222170Y-1717035D01*
X89222170Y-1717035D02*
X89190266Y-1859892D01*
X89190266Y-1859892D02*
X89190266Y-1967035D01*
X89190266Y-1967035D02*
X89222170Y-2109892D01*
X89222170Y-2109892D02*
X89254075Y-2181321D01*
X89254075Y-2181321D02*
X89317885Y-2252750D01*
X89317885Y-2252750D02*
X89413599Y-2288464D01*
X89413599Y-2288464D02*
X89573123Y-2288464D01*
X90594075Y875821D02*
X90657885Y911535D01*
X90657885Y911535D02*
X90753599Y911535D01*
X90753599Y911535D02*
X90849313Y875821D01*
X90849313Y875821D02*
X90913123Y804392D01*
X90913123Y804392D02*
X90945028Y732964D01*
X90945028Y732964D02*
X90976932Y590107D01*
X90976932Y590107D02*
X90976932Y482964D01*
X90976932Y482964D02*
X90945028Y340107D01*
X90945028Y340107D02*
X90913123Y268678D01*
X90913123Y268678D02*
X90849313Y197250D01*
X90849313Y197250D02*
X90753599Y161535D01*
X90753599Y161535D02*
X90689790Y161535D01*
X90689790Y161535D02*
X90594075Y197250D01*
X90594075Y197250D02*
X90562171Y232964D01*
X90562171Y232964D02*
X90562171Y482964D01*
X90562171Y482964D02*
X90689790Y482964D01*
X90275028Y161535D02*
X90275028Y911535D01*
X90275028Y911535D02*
X89892171Y161535D01*
X89892171Y161535D02*
X89892171Y911535D01*
X89573123Y161535D02*
X89573123Y911535D01*
X89573123Y911535D02*
X89413599Y911535D01*
X89413599Y911535D02*
X89317885Y875821D01*
X89317885Y875821D02*
X89254075Y804392D01*
X89254075Y804392D02*
X89222170Y732964D01*
X89222170Y732964D02*
X89190266Y590107D01*
X89190266Y590107D02*
X89190266Y482964D01*
X89190266Y482964D02*
X89222170Y340107D01*
X89222170Y340107D02*
X89254075Y268678D01*
X89254075Y268678D02*
X89317885Y197250D01*
X89317885Y197250D02*
X89413599Y161535D01*
X89413599Y161535D02*
X89573123Y161535D01*
X101039313Y-12224178D02*
X100720266Y-12224178D01*
X101103123Y-12438464D02*
X100879790Y-11688464D01*
X100879790Y-11688464D02*
X100656456Y-12438464D01*
X100305504Y-11688464D02*
X100241694Y-11688464D01*
X100241694Y-11688464D02*
X100177885Y-11724178D01*
X100177885Y-11724178D02*
X100145980Y-11759892D01*
X100145980Y-11759892D02*
X100114075Y-11831321D01*
X100114075Y-11831321D02*
X100082170Y-11974178D01*
X100082170Y-11974178D02*
X100082170Y-12152750D01*
X100082170Y-12152750D02*
X100114075Y-12295607D01*
X100114075Y-12295607D02*
X100145980Y-12367035D01*
X100145980Y-12367035D02*
X100177885Y-12402750D01*
X100177885Y-12402750D02*
X100241694Y-12438464D01*
X100241694Y-12438464D02*
X100305504Y-12438464D01*
X100305504Y-12438464D02*
X100369313Y-12402750D01*
X100369313Y-12402750D02*
X100401218Y-12367035D01*
X100401218Y-12367035D02*
X100433123Y-12295607D01*
X100433123Y-12295607D02*
X100465027Y-12152750D01*
X100465027Y-12152750D02*
X100465027Y-11974178D01*
X100465027Y-11974178D02*
X100433123Y-11831321D01*
X100433123Y-11831321D02*
X100401218Y-11759892D01*
X100401218Y-11759892D02*
X100369313Y-11724178D01*
X100369313Y-11724178D02*
X100305504Y-11688464D01*
X99316456Y-11652750D02*
X99890742Y-12617035D01*
X98869789Y-12045607D02*
X99093123Y-12045607D01*
X99093123Y-12438464D02*
X99093123Y-11688464D01*
X99093123Y-11688464D02*
X98774075Y-11688464D01*
X98582646Y-11688464D02*
X98135980Y-11688464D01*
X98135980Y-11688464D02*
X98423122Y-12438464D01*
X101039313Y-7174178D02*
X100720266Y-7174178D01*
X101103123Y-7388464D02*
X100879790Y-6638464D01*
X100879790Y-6638464D02*
X100656456Y-7388464D01*
X100465027Y-6709892D02*
X100433123Y-6674178D01*
X100433123Y-6674178D02*
X100369313Y-6638464D01*
X100369313Y-6638464D02*
X100209789Y-6638464D01*
X100209789Y-6638464D02*
X100145980Y-6674178D01*
X100145980Y-6674178D02*
X100114075Y-6709892D01*
X100114075Y-6709892D02*
X100082170Y-6781321D01*
X100082170Y-6781321D02*
X100082170Y-6852750D01*
X100082170Y-6852750D02*
X100114075Y-6959892D01*
X100114075Y-6959892D02*
X100496932Y-7388464D01*
X100496932Y-7388464D02*
X100082170Y-7388464D01*
X99316456Y-6602750D02*
X99890742Y-7567035D01*
X98869789Y-6995607D02*
X99093123Y-6995607D01*
X99093123Y-7388464D02*
X99093123Y-6638464D01*
X99093123Y-6638464D02*
X98774075Y-6638464D01*
X98199789Y-6638464D02*
X98518837Y-6638464D01*
X98518837Y-6638464D02*
X98550741Y-6995607D01*
X98550741Y-6995607D02*
X98518837Y-6959892D01*
X98518837Y-6959892D02*
X98455027Y-6924178D01*
X98455027Y-6924178D02*
X98295503Y-6924178D01*
X98295503Y-6924178D02*
X98231694Y-6959892D01*
X98231694Y-6959892D02*
X98199789Y-6995607D01*
X98199789Y-6995607D02*
X98167884Y-7067035D01*
X98167884Y-7067035D02*
X98167884Y-7245607D01*
X98167884Y-7245607D02*
X98199789Y-7317035D01*
X98199789Y-7317035D02*
X98231694Y-7352750D01*
X98231694Y-7352750D02*
X98295503Y-7388464D01*
X98295503Y-7388464D02*
X98455027Y-7388464D01*
X98455027Y-7388464D02*
X98518837Y-7352750D01*
X98518837Y-7352750D02*
X98550741Y-7317035D01*
X92857171Y2761535D02*
X92857171Y3511535D01*
X92857171Y3511535D02*
X92697647Y3511535D01*
X92697647Y3511535D02*
X92601933Y3475821D01*
X92601933Y3475821D02*
X92538123Y3404392D01*
X92538123Y3404392D02*
X92506218Y3332964D01*
X92506218Y3332964D02*
X92474314Y3190107D01*
X92474314Y3190107D02*
X92474314Y3082964D01*
X92474314Y3082964D02*
X92506218Y2940107D01*
X92506218Y2940107D02*
X92538123Y2868678D01*
X92538123Y2868678D02*
X92601933Y2797250D01*
X92601933Y2797250D02*
X92697647Y2761535D01*
X92697647Y2761535D02*
X92857171Y2761535D01*
X92219075Y3440107D02*
X92187171Y3475821D01*
X92187171Y3475821D02*
X92123361Y3511535D01*
X92123361Y3511535D02*
X91963837Y3511535D01*
X91963837Y3511535D02*
X91900028Y3475821D01*
X91900028Y3475821D02*
X91868123Y3440107D01*
X91868123Y3440107D02*
X91836218Y3368678D01*
X91836218Y3368678D02*
X91836218Y3297250D01*
X91836218Y3297250D02*
X91868123Y3190107D01*
X91868123Y3190107D02*
X92250980Y2761535D01*
X92250980Y2761535D02*
X91836218Y2761535D01*
X91070504Y3547250D02*
X91644790Y2582964D01*
X90464314Y2761535D02*
X90687647Y3118678D01*
X90847171Y2761535D02*
X90847171Y3511535D01*
X90847171Y3511535D02*
X90591933Y3511535D01*
X90591933Y3511535D02*
X90528123Y3475821D01*
X90528123Y3475821D02*
X90496218Y3440107D01*
X90496218Y3440107D02*
X90464314Y3368678D01*
X90464314Y3368678D02*
X90464314Y3261535D01*
X90464314Y3261535D02*
X90496218Y3190107D01*
X90496218Y3190107D02*
X90528123Y3154392D01*
X90528123Y3154392D02*
X90591933Y3118678D01*
X90591933Y3118678D02*
X90847171Y3118678D01*
X90240980Y3511535D02*
X89794314Y2761535D01*
X89794314Y3511535D02*
X90240980Y2761535D01*
X89188123Y2761535D02*
X89570980Y2761535D01*
X89379552Y2761535D02*
X89379552Y3511535D01*
X89379552Y3511535D02*
X89443361Y3404392D01*
X89443361Y3404392D02*
X89507171Y3332964D01*
X89507171Y3332964D02*
X89570980Y3297250D01*
X91383123Y-14938464D02*
X91383123Y-14188464D01*
X91383123Y-14188464D02*
X91223599Y-14188464D01*
X91223599Y-14188464D02*
X91127885Y-14224178D01*
X91127885Y-14224178D02*
X91064075Y-14295607D01*
X91064075Y-14295607D02*
X91032170Y-14367035D01*
X91032170Y-14367035D02*
X91000266Y-14509892D01*
X91000266Y-14509892D02*
X91000266Y-14617035D01*
X91000266Y-14617035D02*
X91032170Y-14759892D01*
X91032170Y-14759892D02*
X91064075Y-14831321D01*
X91064075Y-14831321D02*
X91127885Y-14902750D01*
X91127885Y-14902750D02*
X91223599Y-14938464D01*
X91223599Y-14938464D02*
X91383123Y-14938464D01*
X90776932Y-14188464D02*
X90330266Y-14188464D01*
X90330266Y-14188464D02*
X90617408Y-14938464D01*
X89596456Y-14152750D02*
X90170742Y-15117035D01*
X89085980Y-14188464D02*
X89213599Y-14188464D01*
X89213599Y-14188464D02*
X89277408Y-14224178D01*
X89277408Y-14224178D02*
X89309313Y-14259892D01*
X89309313Y-14259892D02*
X89373123Y-14367035D01*
X89373123Y-14367035D02*
X89405027Y-14509892D01*
X89405027Y-14509892D02*
X89405027Y-14795607D01*
X89405027Y-14795607D02*
X89373123Y-14867035D01*
X89373123Y-14867035D02*
X89341218Y-14902750D01*
X89341218Y-14902750D02*
X89277408Y-14938464D01*
X89277408Y-14938464D02*
X89149789Y-14938464D01*
X89149789Y-14938464D02*
X89085980Y-14902750D01*
X89085980Y-14902750D02*
X89054075Y-14867035D01*
X89054075Y-14867035D02*
X89022170Y-14795607D01*
X89022170Y-14795607D02*
X89022170Y-14617035D01*
X89022170Y-14617035D02*
X89054075Y-14545607D01*
X89054075Y-14545607D02*
X89085980Y-14509892D01*
X89085980Y-14509892D02*
X89149789Y-14474178D01*
X89149789Y-14474178D02*
X89277408Y-14474178D01*
X89277408Y-14474178D02*
X89341218Y-14509892D01*
X89341218Y-14509892D02*
X89373123Y-14545607D01*
X89373123Y-14545607D02*
X89405027Y-14617035D01*
X92777409Y5311535D02*
X92777409Y6061535D01*
X92777409Y6061535D02*
X92617885Y6061535D01*
X92617885Y6061535D02*
X92522171Y6025821D01*
X92522171Y6025821D02*
X92458361Y5954392D01*
X92458361Y5954392D02*
X92426456Y5882964D01*
X92426456Y5882964D02*
X92394552Y5740107D01*
X92394552Y5740107D02*
X92394552Y5632964D01*
X92394552Y5632964D02*
X92426456Y5490107D01*
X92426456Y5490107D02*
X92458361Y5418678D01*
X92458361Y5418678D02*
X92522171Y5347250D01*
X92522171Y5347250D02*
X92617885Y5311535D01*
X92617885Y5311535D02*
X92777409Y5311535D01*
X92171218Y6061535D02*
X91756456Y6061535D01*
X91756456Y6061535D02*
X91979790Y5775821D01*
X91979790Y5775821D02*
X91884075Y5775821D01*
X91884075Y5775821D02*
X91820266Y5740107D01*
X91820266Y5740107D02*
X91788361Y5704392D01*
X91788361Y5704392D02*
X91756456Y5632964D01*
X91756456Y5632964D02*
X91756456Y5454392D01*
X91756456Y5454392D02*
X91788361Y5382964D01*
X91788361Y5382964D02*
X91820266Y5347250D01*
X91820266Y5347250D02*
X91884075Y5311535D01*
X91884075Y5311535D02*
X92075504Y5311535D01*
X92075504Y5311535D02*
X92139313Y5347250D01*
X92139313Y5347250D02*
X92171218Y5382964D01*
X90990742Y6097250D02*
X91565028Y5132964D01*
X90863123Y6061535D02*
X90480266Y6061535D01*
X90671694Y5311535D02*
X90671694Y6061535D01*
X90320742Y6061535D02*
X89874076Y5311535D01*
X89874076Y6061535D02*
X90320742Y5311535D01*
X89491219Y6061535D02*
X89427409Y6061535D01*
X89427409Y6061535D02*
X89363600Y6025821D01*
X89363600Y6025821D02*
X89331695Y5990107D01*
X89331695Y5990107D02*
X89299790Y5918678D01*
X89299790Y5918678D02*
X89267885Y5775821D01*
X89267885Y5775821D02*
X89267885Y5597250D01*
X89267885Y5597250D02*
X89299790Y5454392D01*
X89299790Y5454392D02*
X89331695Y5382964D01*
X89331695Y5382964D02*
X89363600Y5347250D01*
X89363600Y5347250D02*
X89427409Y5311535D01*
X89427409Y5311535D02*
X89491219Y5311535D01*
X89491219Y5311535D02*
X89555028Y5347250D01*
X89555028Y5347250D02*
X89586933Y5382964D01*
X89586933Y5382964D02*
X89618838Y5454392D01*
X89618838Y5454392D02*
X89650742Y5597250D01*
X89650742Y5597250D02*
X89650742Y5775821D01*
X89650742Y5775821D02*
X89618838Y5918678D01*
X89618838Y5918678D02*
X89586933Y5990107D01*
X89586933Y5990107D02*
X89555028Y6025821D01*
X89555028Y6025821D02*
X89491219Y6061535D01*
X100590504Y261535D02*
X100813837Y618678D01*
X100973361Y261535D02*
X100973361Y1011535D01*
X100973361Y1011535D02*
X100718123Y1011535D01*
X100718123Y1011535D02*
X100654313Y975821D01*
X100654313Y975821D02*
X100622408Y940107D01*
X100622408Y940107D02*
X100590504Y868678D01*
X100590504Y868678D02*
X100590504Y761535D01*
X100590504Y761535D02*
X100622408Y690107D01*
X100622408Y690107D02*
X100654313Y654392D01*
X100654313Y654392D02*
X100718123Y618678D01*
X100718123Y618678D02*
X100973361Y618678D01*
X100335265Y297250D02*
X100239551Y261535D01*
X100239551Y261535D02*
X100080027Y261535D01*
X100080027Y261535D02*
X100016218Y297250D01*
X100016218Y297250D02*
X99984313Y332964D01*
X99984313Y332964D02*
X99952408Y404392D01*
X99952408Y404392D02*
X99952408Y475821D01*
X99952408Y475821D02*
X99984313Y547250D01*
X99984313Y547250D02*
X100016218Y582964D01*
X100016218Y582964D02*
X100080027Y618678D01*
X100080027Y618678D02*
X100207646Y654392D01*
X100207646Y654392D02*
X100271456Y690107D01*
X100271456Y690107D02*
X100303361Y725821D01*
X100303361Y725821D02*
X100335265Y797250D01*
X100335265Y797250D02*
X100335265Y868678D01*
X100335265Y868678D02*
X100303361Y940107D01*
X100303361Y940107D02*
X100271456Y975821D01*
X100271456Y975821D02*
X100207646Y1011535D01*
X100207646Y1011535D02*
X100048123Y1011535D01*
X100048123Y1011535D02*
X99952408Y975821D01*
X99760980Y1011535D02*
X99378123Y1011535D01*
X99569551Y261535D02*
X99569551Y1011535D01*
X101116933Y-1438464D02*
X100893600Y-2188464D01*
X100893600Y-2188464D02*
X100670266Y-1438464D01*
X100064076Y-2117035D02*
X100095980Y-2152750D01*
X100095980Y-2152750D02*
X100191695Y-2188464D01*
X100191695Y-2188464D02*
X100255504Y-2188464D01*
X100255504Y-2188464D02*
X100351218Y-2152750D01*
X100351218Y-2152750D02*
X100415028Y-2081321D01*
X100415028Y-2081321D02*
X100446933Y-2009892D01*
X100446933Y-2009892D02*
X100478837Y-1867035D01*
X100478837Y-1867035D02*
X100478837Y-1759892D01*
X100478837Y-1759892D02*
X100446933Y-1617035D01*
X100446933Y-1617035D02*
X100415028Y-1545607D01*
X100415028Y-1545607D02*
X100351218Y-1474178D01*
X100351218Y-1474178D02*
X100255504Y-1438464D01*
X100255504Y-1438464D02*
X100191695Y-1438464D01*
X100191695Y-1438464D02*
X100095980Y-1474178D01*
X100095980Y-1474178D02*
X100064076Y-1509892D01*
X99394076Y-2117035D02*
X99425980Y-2152750D01*
X99425980Y-2152750D02*
X99521695Y-2188464D01*
X99521695Y-2188464D02*
X99585504Y-2188464D01*
X99585504Y-2188464D02*
X99681218Y-2152750D01*
X99681218Y-2152750D02*
X99745028Y-2081321D01*
X99745028Y-2081321D02*
X99776933Y-2009892D01*
X99776933Y-2009892D02*
X99808837Y-1867035D01*
X99808837Y-1867035D02*
X99808837Y-1759892D01*
X99808837Y-1759892D02*
X99776933Y-1617035D01*
X99776933Y-1617035D02*
X99745028Y-1545607D01*
X99745028Y-1545607D02*
X99681218Y-1474178D01*
X99681218Y-1474178D02*
X99585504Y-1438464D01*
X99585504Y-1438464D02*
X99521695Y-1438464D01*
X99521695Y-1438464D02*
X99425980Y-1474178D01*
X99425980Y-1474178D02*
X99394076Y-1509892D01*
X100686219Y5361535D02*
X100909552Y5718678D01*
X101069076Y5361535D02*
X101069076Y6111535D01*
X101069076Y6111535D02*
X100813838Y6111535D01*
X100813838Y6111535D02*
X100750028Y6075821D01*
X100750028Y6075821D02*
X100718123Y6040107D01*
X100718123Y6040107D02*
X100686219Y5968678D01*
X100686219Y5968678D02*
X100686219Y5861535D01*
X100686219Y5861535D02*
X100718123Y5790107D01*
X100718123Y5790107D02*
X100750028Y5754392D01*
X100750028Y5754392D02*
X100813838Y5718678D01*
X100813838Y5718678D02*
X101069076Y5718678D01*
X100430980Y5575821D02*
X100111933Y5575821D01*
X100494790Y5361535D02*
X100271457Y6111535D01*
X100271457Y6111535D02*
X100048123Y5361535D01*
X99888599Y6111535D02*
X99729075Y5361535D01*
X99729075Y5361535D02*
X99601456Y5897250D01*
X99601456Y5897250D02*
X99473837Y5361535D01*
X99473837Y5361535D02*
X99314314Y6111535D01*
X100718123Y8174392D02*
X100622409Y8138678D01*
X100622409Y8138678D02*
X100590504Y8102964D01*
X100590504Y8102964D02*
X100558600Y8031535D01*
X100558600Y8031535D02*
X100558600Y7924392D01*
X100558600Y7924392D02*
X100590504Y7852964D01*
X100590504Y7852964D02*
X100622409Y7817250D01*
X100622409Y7817250D02*
X100686219Y7781535D01*
X100686219Y7781535D02*
X100941457Y7781535D01*
X100941457Y7781535D02*
X100941457Y8531535D01*
X100941457Y8531535D02*
X100718123Y8531535D01*
X100718123Y8531535D02*
X100654314Y8495821D01*
X100654314Y8495821D02*
X100622409Y8460107D01*
X100622409Y8460107D02*
X100590504Y8388678D01*
X100590504Y8388678D02*
X100590504Y8317250D01*
X100590504Y8317250D02*
X100622409Y8245821D01*
X100622409Y8245821D02*
X100654314Y8210107D01*
X100654314Y8210107D02*
X100718123Y8174392D01*
X100718123Y8174392D02*
X100941457Y8174392D01*
X100303361Y7995821D02*
X99984314Y7995821D01*
X100367171Y7781535D02*
X100143838Y8531535D01*
X100143838Y8531535D02*
X99920504Y7781535D01*
X99792885Y8531535D02*
X99410028Y8531535D01*
X99601456Y7781535D02*
X99601456Y8531535D01*
X100734075Y3525821D02*
X100797885Y3561535D01*
X100797885Y3561535D02*
X100893599Y3561535D01*
X100893599Y3561535D02*
X100989313Y3525821D01*
X100989313Y3525821D02*
X101053123Y3454392D01*
X101053123Y3454392D02*
X101085028Y3382964D01*
X101085028Y3382964D02*
X101116932Y3240107D01*
X101116932Y3240107D02*
X101116932Y3132964D01*
X101116932Y3132964D02*
X101085028Y2990107D01*
X101085028Y2990107D02*
X101053123Y2918678D01*
X101053123Y2918678D02*
X100989313Y2847250D01*
X100989313Y2847250D02*
X100893599Y2811535D01*
X100893599Y2811535D02*
X100829790Y2811535D01*
X100829790Y2811535D02*
X100734075Y2847250D01*
X100734075Y2847250D02*
X100702171Y2882964D01*
X100702171Y2882964D02*
X100702171Y3132964D01*
X100702171Y3132964D02*
X100829790Y3132964D01*
X100415028Y2811535D02*
X100415028Y3561535D01*
X100415028Y3561535D02*
X100032171Y2811535D01*
X100032171Y2811535D02*
X100032171Y3561535D01*
X99713123Y2811535D02*
X99713123Y3561535D01*
X99713123Y3561535D02*
X99553599Y3561535D01*
X99553599Y3561535D02*
X99457885Y3525821D01*
X99457885Y3525821D02*
X99394075Y3454392D01*
X99394075Y3454392D02*
X99362170Y3382964D01*
X99362170Y3382964D02*
X99330266Y3240107D01*
X99330266Y3240107D02*
X99330266Y3132964D01*
X99330266Y3132964D02*
X99362170Y2990107D01*
X99362170Y2990107D02*
X99394075Y2918678D01*
X99394075Y2918678D02*
X99457885Y2847250D01*
X99457885Y2847250D02*
X99553599Y2811535D01*
X99553599Y2811535D02*
X99713123Y2811535D01*
X101039313Y-9674178D02*
X100720266Y-9674178D01*
X101103123Y-9888464D02*
X100879790Y-9138464D01*
X100879790Y-9138464D02*
X100656456Y-9888464D01*
X100082170Y-9888464D02*
X100465027Y-9888464D01*
X100273599Y-9888464D02*
X100273599Y-9138464D01*
X100273599Y-9138464D02*
X100337408Y-9245607D01*
X100337408Y-9245607D02*
X100401218Y-9317035D01*
X100401218Y-9317035D02*
X100465027Y-9352750D01*
X99316456Y-9102750D02*
X99890742Y-10067035D01*
X98869789Y-9495607D02*
X99093123Y-9495607D01*
X99093123Y-9888464D02*
X99093123Y-9138464D01*
X99093123Y-9138464D02*
X98774075Y-9138464D01*
X98231694Y-9138464D02*
X98359313Y-9138464D01*
X98359313Y-9138464D02*
X98423122Y-9174178D01*
X98423122Y-9174178D02*
X98455027Y-9209892D01*
X98455027Y-9209892D02*
X98518837Y-9317035D01*
X98518837Y-9317035D02*
X98550741Y-9459892D01*
X98550741Y-9459892D02*
X98550741Y-9745607D01*
X98550741Y-9745607D02*
X98518837Y-9817035D01*
X98518837Y-9817035D02*
X98486932Y-9852750D01*
X98486932Y-9852750D02*
X98423122Y-9888464D01*
X98423122Y-9888464D02*
X98295503Y-9888464D01*
X98295503Y-9888464D02*
X98231694Y-9852750D01*
X98231694Y-9852750D02*
X98199789Y-9817035D01*
X98199789Y-9817035D02*
X98167884Y-9745607D01*
X98167884Y-9745607D02*
X98167884Y-9567035D01*
X98167884Y-9567035D02*
X98199789Y-9495607D01*
X98199789Y-9495607D02*
X98231694Y-9459892D01*
X98231694Y-9459892D02*
X98295503Y-9424178D01*
X98295503Y-9424178D02*
X98423122Y-9424178D01*
X98423122Y-9424178D02*
X98486932Y-9459892D01*
X98486932Y-9459892D02*
X98518837Y-9495607D01*
X98518837Y-9495607D02*
X98550741Y-9567035D01*
X101039313Y-4674178D02*
X100720266Y-4674178D01*
X101103123Y-4888464D02*
X100879790Y-4138464D01*
X100879790Y-4138464D02*
X100656456Y-4888464D01*
X100496932Y-4138464D02*
X100082170Y-4138464D01*
X100082170Y-4138464D02*
X100305504Y-4424178D01*
X100305504Y-4424178D02*
X100209789Y-4424178D01*
X100209789Y-4424178D02*
X100145980Y-4459892D01*
X100145980Y-4459892D02*
X100114075Y-4495607D01*
X100114075Y-4495607D02*
X100082170Y-4567035D01*
X100082170Y-4567035D02*
X100082170Y-4745607D01*
X100082170Y-4745607D02*
X100114075Y-4817035D01*
X100114075Y-4817035D02*
X100145980Y-4852750D01*
X100145980Y-4852750D02*
X100209789Y-4888464D01*
X100209789Y-4888464D02*
X100401218Y-4888464D01*
X100401218Y-4888464D02*
X100465027Y-4852750D01*
X100465027Y-4852750D02*
X100496932Y-4817035D01*
X99316456Y-4102750D02*
X99890742Y-5067035D01*
X98869789Y-4495607D02*
X99093123Y-4495607D01*
X99093123Y-4888464D02*
X99093123Y-4138464D01*
X99093123Y-4138464D02*
X98774075Y-4138464D01*
X98231694Y-4388464D02*
X98231694Y-4888464D01*
X98391218Y-4102750D02*
X98550741Y-4638464D01*
X98550741Y-4638464D02*
X98135980Y-4638464D01*
X100736218Y-17538464D02*
X101119075Y-17538464D01*
X100927647Y-17538464D02*
X100927647Y-16788464D01*
X100927647Y-16788464D02*
X100991456Y-16895607D01*
X100991456Y-16895607D02*
X101055266Y-16967035D01*
X101055266Y-16967035D02*
X101119075Y-17002750D01*
X100161933Y-17038464D02*
X100161933Y-17538464D01*
X100321457Y-16752750D02*
X100480980Y-17288464D01*
X100480980Y-17288464D02*
X100066219Y-17288464D01*
X99332409Y-16752750D02*
X99906695Y-17717035D01*
X98885742Y-17145607D02*
X98790028Y-17181321D01*
X98790028Y-17181321D02*
X98758123Y-17217035D01*
X98758123Y-17217035D02*
X98726219Y-17288464D01*
X98726219Y-17288464D02*
X98726219Y-17395607D01*
X98726219Y-17395607D02*
X98758123Y-17467035D01*
X98758123Y-17467035D02*
X98790028Y-17502750D01*
X98790028Y-17502750D02*
X98853838Y-17538464D01*
X98853838Y-17538464D02*
X99109076Y-17538464D01*
X99109076Y-17538464D02*
X99109076Y-16788464D01*
X99109076Y-16788464D02*
X98885742Y-16788464D01*
X98885742Y-16788464D02*
X98821933Y-16824178D01*
X98821933Y-16824178D02*
X98790028Y-16859892D01*
X98790028Y-16859892D02*
X98758123Y-16931321D01*
X98758123Y-16931321D02*
X98758123Y-17002750D01*
X98758123Y-17002750D02*
X98790028Y-17074178D01*
X98790028Y-17074178D02*
X98821933Y-17109892D01*
X98821933Y-17109892D02*
X98885742Y-17145607D01*
X98885742Y-17145607D02*
X99109076Y-17145607D01*
X98502885Y-16788464D02*
X98088123Y-16788464D01*
X98088123Y-16788464D02*
X98311457Y-17074178D01*
X98311457Y-17074178D02*
X98215742Y-17074178D01*
X98215742Y-17074178D02*
X98151933Y-17109892D01*
X98151933Y-17109892D02*
X98120028Y-17145607D01*
X98120028Y-17145607D02*
X98088123Y-17217035D01*
X98088123Y-17217035D02*
X98088123Y-17395607D01*
X98088123Y-17395607D02*
X98120028Y-17467035D01*
X98120028Y-17467035D02*
X98151933Y-17502750D01*
X98151933Y-17502750D02*
X98215742Y-17538464D01*
X98215742Y-17538464D02*
X98407171Y-17538464D01*
X98407171Y-17538464D02*
X98470980Y-17502750D01*
X98470980Y-17502750D02*
X98502885Y-17467035D01*
X91383123Y-9838464D02*
X91383123Y-9088464D01*
X91383123Y-9088464D02*
X91223599Y-9088464D01*
X91223599Y-9088464D02*
X91127885Y-9124178D01*
X91127885Y-9124178D02*
X91064075Y-9195607D01*
X91064075Y-9195607D02*
X91032170Y-9267035D01*
X91032170Y-9267035D02*
X91000266Y-9409892D01*
X91000266Y-9409892D02*
X91000266Y-9517035D01*
X91000266Y-9517035D02*
X91032170Y-9659892D01*
X91032170Y-9659892D02*
X91064075Y-9731321D01*
X91064075Y-9731321D02*
X91127885Y-9802750D01*
X91127885Y-9802750D02*
X91223599Y-9838464D01*
X91223599Y-9838464D02*
X91383123Y-9838464D01*
X90425980Y-9338464D02*
X90425980Y-9838464D01*
X90585504Y-9052750D02*
X90745027Y-9588464D01*
X90745027Y-9588464D02*
X90330266Y-9588464D01*
X89596456Y-9052750D02*
X90170742Y-10017035D01*
X89085980Y-9338464D02*
X89085980Y-9838464D01*
X89245504Y-9052750D02*
X89405027Y-9588464D01*
X89405027Y-9588464D02*
X88990266Y-9588464D01*
X100736218Y-14988464D02*
X101119075Y-14988464D01*
X100927647Y-14988464D02*
X100927647Y-14238464D01*
X100927647Y-14238464D02*
X100991456Y-14345607D01*
X100991456Y-14345607D02*
X101055266Y-14417035D01*
X101055266Y-14417035D02*
X101119075Y-14452750D01*
X100130028Y-14238464D02*
X100449076Y-14238464D01*
X100449076Y-14238464D02*
X100480980Y-14595607D01*
X100480980Y-14595607D02*
X100449076Y-14559892D01*
X100449076Y-14559892D02*
X100385266Y-14524178D01*
X100385266Y-14524178D02*
X100225742Y-14524178D01*
X100225742Y-14524178D02*
X100161933Y-14559892D01*
X100161933Y-14559892D02*
X100130028Y-14595607D01*
X100130028Y-14595607D02*
X100098123Y-14667035D01*
X100098123Y-14667035D02*
X100098123Y-14845607D01*
X100098123Y-14845607D02*
X100130028Y-14917035D01*
X100130028Y-14917035D02*
X100161933Y-14952750D01*
X100161933Y-14952750D02*
X100225742Y-14988464D01*
X100225742Y-14988464D02*
X100385266Y-14988464D01*
X100385266Y-14988464D02*
X100449076Y-14952750D01*
X100449076Y-14952750D02*
X100480980Y-14917035D01*
X99332409Y-14202750D02*
X99906695Y-15167035D01*
X98885742Y-14595607D02*
X98790028Y-14631321D01*
X98790028Y-14631321D02*
X98758123Y-14667035D01*
X98758123Y-14667035D02*
X98726219Y-14738464D01*
X98726219Y-14738464D02*
X98726219Y-14845607D01*
X98726219Y-14845607D02*
X98758123Y-14917035D01*
X98758123Y-14917035D02*
X98790028Y-14952750D01*
X98790028Y-14952750D02*
X98853838Y-14988464D01*
X98853838Y-14988464D02*
X99109076Y-14988464D01*
X99109076Y-14988464D02*
X99109076Y-14238464D01*
X99109076Y-14238464D02*
X98885742Y-14238464D01*
X98885742Y-14238464D02*
X98821933Y-14274178D01*
X98821933Y-14274178D02*
X98790028Y-14309892D01*
X98790028Y-14309892D02*
X98758123Y-14381321D01*
X98758123Y-14381321D02*
X98758123Y-14452750D01*
X98758123Y-14452750D02*
X98790028Y-14524178D01*
X98790028Y-14524178D02*
X98821933Y-14559892D01*
X98821933Y-14559892D02*
X98885742Y-14595607D01*
X98885742Y-14595607D02*
X99109076Y-14595607D01*
X98088123Y-14988464D02*
X98470980Y-14988464D01*
X98279552Y-14988464D02*
X98279552Y-14238464D01*
X98279552Y-14238464D02*
X98343361Y-14345607D01*
X98343361Y-14345607D02*
X98407171Y-14417035D01*
X98407171Y-14417035D02*
X98470980Y-14452750D01*
X94097170Y-4902750D02*
X94001456Y-4938464D01*
X94001456Y-4938464D02*
X93841932Y-4938464D01*
X93841932Y-4938464D02*
X93778123Y-4902750D01*
X93778123Y-4902750D02*
X93746218Y-4867035D01*
X93746218Y-4867035D02*
X93714313Y-4795607D01*
X93714313Y-4795607D02*
X93714313Y-4724178D01*
X93714313Y-4724178D02*
X93746218Y-4652750D01*
X93746218Y-4652750D02*
X93778123Y-4617035D01*
X93778123Y-4617035D02*
X93841932Y-4581321D01*
X93841932Y-4581321D02*
X93969551Y-4545607D01*
X93969551Y-4545607D02*
X94033361Y-4509892D01*
X94033361Y-4509892D02*
X94065266Y-4474178D01*
X94065266Y-4474178D02*
X94097170Y-4402750D01*
X94097170Y-4402750D02*
X94097170Y-4331321D01*
X94097170Y-4331321D02*
X94065266Y-4259892D01*
X94065266Y-4259892D02*
X94033361Y-4224178D01*
X94033361Y-4224178D02*
X93969551Y-4188464D01*
X93969551Y-4188464D02*
X93810028Y-4188464D01*
X93810028Y-4188464D02*
X93714313Y-4224178D01*
X93427171Y-4938464D02*
X93427171Y-4188464D01*
X93427171Y-4188464D02*
X93267647Y-4188464D01*
X93267647Y-4188464D02*
X93171933Y-4224178D01*
X93171933Y-4224178D02*
X93108123Y-4295607D01*
X93108123Y-4295607D02*
X93076218Y-4367035D01*
X93076218Y-4367035D02*
X93044314Y-4509892D01*
X93044314Y-4509892D02*
X93044314Y-4617035D01*
X93044314Y-4617035D02*
X93076218Y-4759892D01*
X93076218Y-4759892D02*
X93108123Y-4831321D01*
X93108123Y-4831321D02*
X93171933Y-4902750D01*
X93171933Y-4902750D02*
X93267647Y-4938464D01*
X93267647Y-4938464D02*
X93427171Y-4938464D01*
X92789075Y-4724178D02*
X92470028Y-4724178D01*
X92852885Y-4938464D02*
X92629552Y-4188464D01*
X92629552Y-4188464D02*
X92406218Y-4938464D01*
X91704313Y-4152750D02*
X92278599Y-5117035D01*
X91480980Y-4938464D02*
X91480980Y-4188464D01*
X91480980Y-4188464D02*
X91321456Y-4188464D01*
X91321456Y-4188464D02*
X91225742Y-4224178D01*
X91225742Y-4224178D02*
X91161932Y-4295607D01*
X91161932Y-4295607D02*
X91130027Y-4367035D01*
X91130027Y-4367035D02*
X91098123Y-4509892D01*
X91098123Y-4509892D02*
X91098123Y-4617035D01*
X91098123Y-4617035D02*
X91130027Y-4759892D01*
X91130027Y-4759892D02*
X91161932Y-4831321D01*
X91161932Y-4831321D02*
X91225742Y-4902750D01*
X91225742Y-4902750D02*
X91321456Y-4938464D01*
X91321456Y-4938464D02*
X91480980Y-4938464D01*
X90460027Y-4938464D02*
X90842884Y-4938464D01*
X90651456Y-4938464D02*
X90651456Y-4188464D01*
X90651456Y-4188464D02*
X90715265Y-4295607D01*
X90715265Y-4295607D02*
X90779075Y-4367035D01*
X90779075Y-4367035D02*
X90842884Y-4402750D01*
X89694313Y-4152750D02*
X90268599Y-5117035D01*
X89502884Y-4259892D02*
X89470980Y-4224178D01*
X89470980Y-4224178D02*
X89407170Y-4188464D01*
X89407170Y-4188464D02*
X89247646Y-4188464D01*
X89247646Y-4188464D02*
X89183837Y-4224178D01*
X89183837Y-4224178D02*
X89151932Y-4259892D01*
X89151932Y-4259892D02*
X89120027Y-4331321D01*
X89120027Y-4331321D02*
X89120027Y-4402750D01*
X89120027Y-4402750D02*
X89151932Y-4509892D01*
X89151932Y-4509892D02*
X89534789Y-4938464D01*
X89534789Y-4938464D02*
X89120027Y-4938464D01*
X91000266Y-12317035D02*
X91032170Y-12352750D01*
X91032170Y-12352750D02*
X91127885Y-12388464D01*
X91127885Y-12388464D02*
X91191694Y-12388464D01*
X91191694Y-12388464D02*
X91287408Y-12352750D01*
X91287408Y-12352750D02*
X91351218Y-12281321D01*
X91351218Y-12281321D02*
X91383123Y-12209892D01*
X91383123Y-12209892D02*
X91415027Y-12067035D01*
X91415027Y-12067035D02*
X91415027Y-11959892D01*
X91415027Y-11959892D02*
X91383123Y-11817035D01*
X91383123Y-11817035D02*
X91351218Y-11745607D01*
X91351218Y-11745607D02*
X91287408Y-11674178D01*
X91287408Y-11674178D02*
X91191694Y-11638464D01*
X91191694Y-11638464D02*
X91127885Y-11638464D01*
X91127885Y-11638464D02*
X91032170Y-11674178D01*
X91032170Y-11674178D02*
X91000266Y-11709892D01*
X90425980Y-11638464D02*
X90553599Y-11638464D01*
X90553599Y-11638464D02*
X90617408Y-11674178D01*
X90617408Y-11674178D02*
X90649313Y-11709892D01*
X90649313Y-11709892D02*
X90713123Y-11817035D01*
X90713123Y-11817035D02*
X90745027Y-11959892D01*
X90745027Y-11959892D02*
X90745027Y-12245607D01*
X90745027Y-12245607D02*
X90713123Y-12317035D01*
X90713123Y-12317035D02*
X90681218Y-12352750D01*
X90681218Y-12352750D02*
X90617408Y-12388464D01*
X90617408Y-12388464D02*
X90489789Y-12388464D01*
X90489789Y-12388464D02*
X90425980Y-12352750D01*
X90425980Y-12352750D02*
X90394075Y-12317035D01*
X90394075Y-12317035D02*
X90362170Y-12245607D01*
X90362170Y-12245607D02*
X90362170Y-12067035D01*
X90362170Y-12067035D02*
X90394075Y-11995607D01*
X90394075Y-11995607D02*
X90425980Y-11959892D01*
X90425980Y-11959892D02*
X90489789Y-11924178D01*
X90489789Y-11924178D02*
X90617408Y-11924178D01*
X90617408Y-11924178D02*
X90681218Y-11959892D01*
X90681218Y-11959892D02*
X90713123Y-11995607D01*
X90713123Y-11995607D02*
X90745027Y-12067035D01*
X89596456Y-11602750D02*
X90170742Y-12567035D01*
X89054075Y-11638464D02*
X89373123Y-11638464D01*
X89373123Y-11638464D02*
X89405027Y-11995607D01*
X89405027Y-11995607D02*
X89373123Y-11959892D01*
X89373123Y-11959892D02*
X89309313Y-11924178D01*
X89309313Y-11924178D02*
X89149789Y-11924178D01*
X89149789Y-11924178D02*
X89085980Y-11959892D01*
X89085980Y-11959892D02*
X89054075Y-11995607D01*
X89054075Y-11995607D02*
X89022170Y-12067035D01*
X89022170Y-12067035D02*
X89022170Y-12245607D01*
X89022170Y-12245607D02*
X89054075Y-12317035D01*
X89054075Y-12317035D02*
X89085980Y-12352750D01*
X89085980Y-12352750D02*
X89149789Y-12388464D01*
X89149789Y-12388464D02*
X89309313Y-12388464D01*
X89309313Y-12388464D02*
X89373123Y-12352750D01*
X89373123Y-12352750D02*
X89405027Y-12317035D01*
X94081218Y-7402750D02*
X93985504Y-7438464D01*
X93985504Y-7438464D02*
X93825980Y-7438464D01*
X93825980Y-7438464D02*
X93762171Y-7402750D01*
X93762171Y-7402750D02*
X93730266Y-7367035D01*
X93730266Y-7367035D02*
X93698361Y-7295607D01*
X93698361Y-7295607D02*
X93698361Y-7224178D01*
X93698361Y-7224178D02*
X93730266Y-7152750D01*
X93730266Y-7152750D02*
X93762171Y-7117035D01*
X93762171Y-7117035D02*
X93825980Y-7081321D01*
X93825980Y-7081321D02*
X93953599Y-7045607D01*
X93953599Y-7045607D02*
X94017409Y-7009892D01*
X94017409Y-7009892D02*
X94049314Y-6974178D01*
X94049314Y-6974178D02*
X94081218Y-6902750D01*
X94081218Y-6902750D02*
X94081218Y-6831321D01*
X94081218Y-6831321D02*
X94049314Y-6759892D01*
X94049314Y-6759892D02*
X94017409Y-6724178D01*
X94017409Y-6724178D02*
X93953599Y-6688464D01*
X93953599Y-6688464D02*
X93794076Y-6688464D01*
X93794076Y-6688464D02*
X93698361Y-6724178D01*
X93028362Y-7367035D02*
X93060266Y-7402750D01*
X93060266Y-7402750D02*
X93155981Y-7438464D01*
X93155981Y-7438464D02*
X93219790Y-7438464D01*
X93219790Y-7438464D02*
X93315504Y-7402750D01*
X93315504Y-7402750D02*
X93379314Y-7331321D01*
X93379314Y-7331321D02*
X93411219Y-7259892D01*
X93411219Y-7259892D02*
X93443123Y-7117035D01*
X93443123Y-7117035D02*
X93443123Y-7009892D01*
X93443123Y-7009892D02*
X93411219Y-6867035D01*
X93411219Y-6867035D02*
X93379314Y-6795607D01*
X93379314Y-6795607D02*
X93315504Y-6724178D01*
X93315504Y-6724178D02*
X93219790Y-6688464D01*
X93219790Y-6688464D02*
X93155981Y-6688464D01*
X93155981Y-6688464D02*
X93060266Y-6724178D01*
X93060266Y-6724178D02*
X93028362Y-6759892D01*
X92422171Y-7438464D02*
X92741219Y-7438464D01*
X92741219Y-7438464D02*
X92741219Y-6688464D01*
X91720266Y-6652750D02*
X92294552Y-7617035D01*
X91496933Y-7438464D02*
X91496933Y-6688464D01*
X91496933Y-6688464D02*
X91337409Y-6688464D01*
X91337409Y-6688464D02*
X91241695Y-6724178D01*
X91241695Y-6724178D02*
X91177885Y-6795607D01*
X91177885Y-6795607D02*
X91145980Y-6867035D01*
X91145980Y-6867035D02*
X91114076Y-7009892D01*
X91114076Y-7009892D02*
X91114076Y-7117035D01*
X91114076Y-7117035D02*
X91145980Y-7259892D01*
X91145980Y-7259892D02*
X91177885Y-7331321D01*
X91177885Y-7331321D02*
X91241695Y-7402750D01*
X91241695Y-7402750D02*
X91337409Y-7438464D01*
X91337409Y-7438464D02*
X91496933Y-7438464D01*
X90699314Y-6688464D02*
X90635504Y-6688464D01*
X90635504Y-6688464D02*
X90571695Y-6724178D01*
X90571695Y-6724178D02*
X90539790Y-6759892D01*
X90539790Y-6759892D02*
X90507885Y-6831321D01*
X90507885Y-6831321D02*
X90475980Y-6974178D01*
X90475980Y-6974178D02*
X90475980Y-7152750D01*
X90475980Y-7152750D02*
X90507885Y-7295607D01*
X90507885Y-7295607D02*
X90539790Y-7367035D01*
X90539790Y-7367035D02*
X90571695Y-7402750D01*
X90571695Y-7402750D02*
X90635504Y-7438464D01*
X90635504Y-7438464D02*
X90699314Y-7438464D01*
X90699314Y-7438464D02*
X90763123Y-7402750D01*
X90763123Y-7402750D02*
X90795028Y-7367035D01*
X90795028Y-7367035D02*
X90826933Y-7295607D01*
X90826933Y-7295607D02*
X90858837Y-7152750D01*
X90858837Y-7152750D02*
X90858837Y-6974178D01*
X90858837Y-6974178D02*
X90826933Y-6831321D01*
X90826933Y-6831321D02*
X90795028Y-6759892D01*
X90795028Y-6759892D02*
X90763123Y-6724178D01*
X90763123Y-6724178D02*
X90699314Y-6688464D01*
X89710266Y-6652750D02*
X90284552Y-7617035D01*
X89550742Y-6688464D02*
X89135980Y-6688464D01*
X89135980Y-6688464D02*
X89359314Y-6974178D01*
X89359314Y-6974178D02*
X89263599Y-6974178D01*
X89263599Y-6974178D02*
X89199790Y-7009892D01*
X89199790Y-7009892D02*
X89167885Y-7045607D01*
X89167885Y-7045607D02*
X89135980Y-7117035D01*
X89135980Y-7117035D02*
X89135980Y-7295607D01*
X89135980Y-7295607D02*
X89167885Y-7367035D01*
X89167885Y-7367035D02*
X89199790Y-7402750D01*
X89199790Y-7402750D02*
X89263599Y-7438464D01*
X89263599Y-7438464D02*
X89455028Y-7438464D01*
X89455028Y-7438464D02*
X89518837Y-7402750D01*
X89518837Y-7402750D02*
X89550742Y-7367035D01*
X100736218Y-22588464D02*
X101119075Y-22588464D01*
X100927647Y-22588464D02*
X100927647Y-21838464D01*
X100927647Y-21838464D02*
X100991456Y-21945607D01*
X100991456Y-21945607D02*
X101055266Y-22017035D01*
X101055266Y-22017035D02*
X101119075Y-22052750D01*
X100321457Y-21838464D02*
X100257647Y-21838464D01*
X100257647Y-21838464D02*
X100193838Y-21874178D01*
X100193838Y-21874178D02*
X100161933Y-21909892D01*
X100161933Y-21909892D02*
X100130028Y-21981321D01*
X100130028Y-21981321D02*
X100098123Y-22124178D01*
X100098123Y-22124178D02*
X100098123Y-22302750D01*
X100098123Y-22302750D02*
X100130028Y-22445607D01*
X100130028Y-22445607D02*
X100161933Y-22517035D01*
X100161933Y-22517035D02*
X100193838Y-22552750D01*
X100193838Y-22552750D02*
X100257647Y-22588464D01*
X100257647Y-22588464D02*
X100321457Y-22588464D01*
X100321457Y-22588464D02*
X100385266Y-22552750D01*
X100385266Y-22552750D02*
X100417171Y-22517035D01*
X100417171Y-22517035D02*
X100449076Y-22445607D01*
X100449076Y-22445607D02*
X100480980Y-22302750D01*
X100480980Y-22302750D02*
X100480980Y-22124178D01*
X100480980Y-22124178D02*
X100449076Y-21981321D01*
X100449076Y-21981321D02*
X100417171Y-21909892D01*
X100417171Y-21909892D02*
X100385266Y-21874178D01*
X100385266Y-21874178D02*
X100321457Y-21838464D01*
X99332409Y-21802750D02*
X99906695Y-22767035D01*
X98885742Y-22195607D02*
X98790028Y-22231321D01*
X98790028Y-22231321D02*
X98758123Y-22267035D01*
X98758123Y-22267035D02*
X98726219Y-22338464D01*
X98726219Y-22338464D02*
X98726219Y-22445607D01*
X98726219Y-22445607D02*
X98758123Y-22517035D01*
X98758123Y-22517035D02*
X98790028Y-22552750D01*
X98790028Y-22552750D02*
X98853838Y-22588464D01*
X98853838Y-22588464D02*
X99109076Y-22588464D01*
X99109076Y-22588464D02*
X99109076Y-21838464D01*
X99109076Y-21838464D02*
X98885742Y-21838464D01*
X98885742Y-21838464D02*
X98821933Y-21874178D01*
X98821933Y-21874178D02*
X98790028Y-21909892D01*
X98790028Y-21909892D02*
X98758123Y-21981321D01*
X98758123Y-21981321D02*
X98758123Y-22052750D01*
X98758123Y-22052750D02*
X98790028Y-22124178D01*
X98790028Y-22124178D02*
X98821933Y-22159892D01*
X98821933Y-22159892D02*
X98885742Y-22195607D01*
X98885742Y-22195607D02*
X99109076Y-22195607D01*
X98151933Y-21838464D02*
X98279552Y-21838464D01*
X98279552Y-21838464D02*
X98343361Y-21874178D01*
X98343361Y-21874178D02*
X98375266Y-21909892D01*
X98375266Y-21909892D02*
X98439076Y-22017035D01*
X98439076Y-22017035D02*
X98470980Y-22159892D01*
X98470980Y-22159892D02*
X98470980Y-22445607D01*
X98470980Y-22445607D02*
X98439076Y-22517035D01*
X98439076Y-22517035D02*
X98407171Y-22552750D01*
X98407171Y-22552750D02*
X98343361Y-22588464D01*
X98343361Y-22588464D02*
X98215742Y-22588464D01*
X98215742Y-22588464D02*
X98151933Y-22552750D01*
X98151933Y-22552750D02*
X98120028Y-22517035D01*
X98120028Y-22517035D02*
X98088123Y-22445607D01*
X98088123Y-22445607D02*
X98088123Y-22267035D01*
X98088123Y-22267035D02*
X98120028Y-22195607D01*
X98120028Y-22195607D02*
X98151933Y-22159892D01*
X98151933Y-22159892D02*
X98215742Y-22124178D01*
X98215742Y-22124178D02*
X98343361Y-22124178D01*
X98343361Y-22124178D02*
X98407171Y-22159892D01*
X98407171Y-22159892D02*
X98439076Y-22195607D01*
X98439076Y-22195607D02*
X98470980Y-22267035D01*
X91159789Y-22145607D02*
X91064075Y-22181321D01*
X91064075Y-22181321D02*
X91032170Y-22217035D01*
X91032170Y-22217035D02*
X91000266Y-22288464D01*
X91000266Y-22288464D02*
X91000266Y-22395607D01*
X91000266Y-22395607D02*
X91032170Y-22467035D01*
X91032170Y-22467035D02*
X91064075Y-22502750D01*
X91064075Y-22502750D02*
X91127885Y-22538464D01*
X91127885Y-22538464D02*
X91383123Y-22538464D01*
X91383123Y-22538464D02*
X91383123Y-21788464D01*
X91383123Y-21788464D02*
X91159789Y-21788464D01*
X91159789Y-21788464D02*
X91095980Y-21824178D01*
X91095980Y-21824178D02*
X91064075Y-21859892D01*
X91064075Y-21859892D02*
X91032170Y-21931321D01*
X91032170Y-21931321D02*
X91032170Y-22002750D01*
X91032170Y-22002750D02*
X91064075Y-22074178D01*
X91064075Y-22074178D02*
X91095980Y-22109892D01*
X91095980Y-22109892D02*
X91159789Y-22145607D01*
X91159789Y-22145607D02*
X91383123Y-22145607D01*
X90394075Y-21788464D02*
X90713123Y-21788464D01*
X90713123Y-21788464D02*
X90745027Y-22145607D01*
X90745027Y-22145607D02*
X90713123Y-22109892D01*
X90713123Y-22109892D02*
X90649313Y-22074178D01*
X90649313Y-22074178D02*
X90489789Y-22074178D01*
X90489789Y-22074178D02*
X90425980Y-22109892D01*
X90425980Y-22109892D02*
X90394075Y-22145607D01*
X90394075Y-22145607D02*
X90362170Y-22217035D01*
X90362170Y-22217035D02*
X90362170Y-22395607D01*
X90362170Y-22395607D02*
X90394075Y-22467035D01*
X90394075Y-22467035D02*
X90425980Y-22502750D01*
X90425980Y-22502750D02*
X90489789Y-22538464D01*
X90489789Y-22538464D02*
X90649313Y-22538464D01*
X90649313Y-22538464D02*
X90713123Y-22502750D01*
X90713123Y-22502750D02*
X90745027Y-22467035D01*
X89596456Y-21752750D02*
X90170742Y-22717035D01*
X89341218Y-22538464D02*
X89213599Y-22538464D01*
X89213599Y-22538464D02*
X89149789Y-22502750D01*
X89149789Y-22502750D02*
X89117885Y-22467035D01*
X89117885Y-22467035D02*
X89054075Y-22359892D01*
X89054075Y-22359892D02*
X89022170Y-22217035D01*
X89022170Y-22217035D02*
X89022170Y-21931321D01*
X89022170Y-21931321D02*
X89054075Y-21859892D01*
X89054075Y-21859892D02*
X89085980Y-21824178D01*
X89085980Y-21824178D02*
X89149789Y-21788464D01*
X89149789Y-21788464D02*
X89277408Y-21788464D01*
X89277408Y-21788464D02*
X89341218Y-21824178D01*
X89341218Y-21824178D02*
X89373123Y-21859892D01*
X89373123Y-21859892D02*
X89405027Y-21931321D01*
X89405027Y-21931321D02*
X89405027Y-22109892D01*
X89405027Y-22109892D02*
X89373123Y-22181321D01*
X89373123Y-22181321D02*
X89341218Y-22217035D01*
X89341218Y-22217035D02*
X89277408Y-22252750D01*
X89277408Y-22252750D02*
X89149789Y-22252750D01*
X89149789Y-22252750D02*
X89085980Y-22217035D01*
X89085980Y-22217035D02*
X89054075Y-22181321D01*
X89054075Y-22181321D02*
X89022170Y-22109892D01*
X100736218Y-20088464D02*
X101119075Y-20088464D01*
X100927647Y-20088464D02*
X100927647Y-19338464D01*
X100927647Y-19338464D02*
X100991456Y-19445607D01*
X100991456Y-19445607D02*
X101055266Y-19517035D01*
X101055266Y-19517035D02*
X101119075Y-19552750D01*
X100161933Y-19338464D02*
X100289552Y-19338464D01*
X100289552Y-19338464D02*
X100353361Y-19374178D01*
X100353361Y-19374178D02*
X100385266Y-19409892D01*
X100385266Y-19409892D02*
X100449076Y-19517035D01*
X100449076Y-19517035D02*
X100480980Y-19659892D01*
X100480980Y-19659892D02*
X100480980Y-19945607D01*
X100480980Y-19945607D02*
X100449076Y-20017035D01*
X100449076Y-20017035D02*
X100417171Y-20052750D01*
X100417171Y-20052750D02*
X100353361Y-20088464D01*
X100353361Y-20088464D02*
X100225742Y-20088464D01*
X100225742Y-20088464D02*
X100161933Y-20052750D01*
X100161933Y-20052750D02*
X100130028Y-20017035D01*
X100130028Y-20017035D02*
X100098123Y-19945607D01*
X100098123Y-19945607D02*
X100098123Y-19767035D01*
X100098123Y-19767035D02*
X100130028Y-19695607D01*
X100130028Y-19695607D02*
X100161933Y-19659892D01*
X100161933Y-19659892D02*
X100225742Y-19624178D01*
X100225742Y-19624178D02*
X100353361Y-19624178D01*
X100353361Y-19624178D02*
X100417171Y-19659892D01*
X100417171Y-19659892D02*
X100449076Y-19695607D01*
X100449076Y-19695607D02*
X100480980Y-19767035D01*
X99332409Y-19302750D02*
X99906695Y-20267035D01*
X98885742Y-19695607D02*
X98790028Y-19731321D01*
X98790028Y-19731321D02*
X98758123Y-19767035D01*
X98758123Y-19767035D02*
X98726219Y-19838464D01*
X98726219Y-19838464D02*
X98726219Y-19945607D01*
X98726219Y-19945607D02*
X98758123Y-20017035D01*
X98758123Y-20017035D02*
X98790028Y-20052750D01*
X98790028Y-20052750D02*
X98853838Y-20088464D01*
X98853838Y-20088464D02*
X99109076Y-20088464D01*
X99109076Y-20088464D02*
X99109076Y-19338464D01*
X99109076Y-19338464D02*
X98885742Y-19338464D01*
X98885742Y-19338464D02*
X98821933Y-19374178D01*
X98821933Y-19374178D02*
X98790028Y-19409892D01*
X98790028Y-19409892D02*
X98758123Y-19481321D01*
X98758123Y-19481321D02*
X98758123Y-19552750D01*
X98758123Y-19552750D02*
X98790028Y-19624178D01*
X98790028Y-19624178D02*
X98821933Y-19659892D01*
X98821933Y-19659892D02*
X98885742Y-19695607D01*
X98885742Y-19695607D02*
X99109076Y-19695607D01*
X98470980Y-19409892D02*
X98439076Y-19374178D01*
X98439076Y-19374178D02*
X98375266Y-19338464D01*
X98375266Y-19338464D02*
X98215742Y-19338464D01*
X98215742Y-19338464D02*
X98151933Y-19374178D01*
X98151933Y-19374178D02*
X98120028Y-19409892D01*
X98120028Y-19409892D02*
X98088123Y-19481321D01*
X98088123Y-19481321D02*
X98088123Y-19552750D01*
X98088123Y-19552750D02*
X98120028Y-19659892D01*
X98120028Y-19659892D02*
X98502885Y-20088464D01*
X98502885Y-20088464D02*
X98088123Y-20088464D01*
X90594075Y8495821D02*
X90657885Y8531535D01*
X90657885Y8531535D02*
X90753599Y8531535D01*
X90753599Y8531535D02*
X90849313Y8495821D01*
X90849313Y8495821D02*
X90913123Y8424392D01*
X90913123Y8424392D02*
X90945028Y8352964D01*
X90945028Y8352964D02*
X90976932Y8210107D01*
X90976932Y8210107D02*
X90976932Y8102964D01*
X90976932Y8102964D02*
X90945028Y7960107D01*
X90945028Y7960107D02*
X90913123Y7888678D01*
X90913123Y7888678D02*
X90849313Y7817250D01*
X90849313Y7817250D02*
X90753599Y7781535D01*
X90753599Y7781535D02*
X90689790Y7781535D01*
X90689790Y7781535D02*
X90594075Y7817250D01*
X90594075Y7817250D02*
X90562171Y7852964D01*
X90562171Y7852964D02*
X90562171Y8102964D01*
X90562171Y8102964D02*
X90689790Y8102964D01*
X90275028Y7781535D02*
X90275028Y8531535D01*
X90275028Y8531535D02*
X89892171Y7781535D01*
X89892171Y7781535D02*
X89892171Y8531535D01*
X89573123Y7781535D02*
X89573123Y8531535D01*
X89573123Y8531535D02*
X89413599Y8531535D01*
X89413599Y8531535D02*
X89317885Y8495821D01*
X89317885Y8495821D02*
X89254075Y8424392D01*
X89254075Y8424392D02*
X89222170Y8352964D01*
X89222170Y8352964D02*
X89190266Y8210107D01*
X89190266Y8210107D02*
X89190266Y8102964D01*
X89190266Y8102964D02*
X89222170Y7960107D01*
X89222170Y7960107D02*
X89254075Y7888678D01*
X89254075Y7888678D02*
X89317885Y7817250D01*
X89317885Y7817250D02*
X89413599Y7781535D01*
X89413599Y7781535D02*
X89573123Y7781535D01*
X91351218Y-17095607D02*
X91127884Y-17095607D01*
X91032170Y-17488464D02*
X91351218Y-17488464D01*
X91351218Y-17488464D02*
X91351218Y-16738464D01*
X91351218Y-16738464D02*
X91032170Y-16738464D01*
X90457885Y-16738464D02*
X90585504Y-16738464D01*
X90585504Y-16738464D02*
X90649313Y-16774178D01*
X90649313Y-16774178D02*
X90681218Y-16809892D01*
X90681218Y-16809892D02*
X90745028Y-16917035D01*
X90745028Y-16917035D02*
X90776932Y-17059892D01*
X90776932Y-17059892D02*
X90776932Y-17345607D01*
X90776932Y-17345607D02*
X90745028Y-17417035D01*
X90745028Y-17417035D02*
X90713123Y-17452750D01*
X90713123Y-17452750D02*
X90649313Y-17488464D01*
X90649313Y-17488464D02*
X90521694Y-17488464D01*
X90521694Y-17488464D02*
X90457885Y-17452750D01*
X90457885Y-17452750D02*
X90425980Y-17417035D01*
X90425980Y-17417035D02*
X90394075Y-17345607D01*
X90394075Y-17345607D02*
X90394075Y-17167035D01*
X90394075Y-17167035D02*
X90425980Y-17095607D01*
X90425980Y-17095607D02*
X90457885Y-17059892D01*
X90457885Y-17059892D02*
X90521694Y-17024178D01*
X90521694Y-17024178D02*
X90649313Y-17024178D01*
X90649313Y-17024178D02*
X90713123Y-17059892D01*
X90713123Y-17059892D02*
X90745028Y-17095607D01*
X90745028Y-17095607D02*
X90776932Y-17167035D01*
X89628361Y-16702750D02*
X90202647Y-17667035D01*
X89468837Y-16738464D02*
X89022171Y-16738464D01*
X89022171Y-16738464D02*
X89309313Y-17488464D01*
D10*
%TO.C,SW26*%
X107150000Y-43600000D02*
X107150000Y-40000000D01*
X107300000Y-43800000D02*
X107300000Y-39800000D01*
X107450000Y-43900000D02*
X107450000Y-39700000D01*
X107600000Y-44000000D02*
X107600000Y-39600000D01*
X107750000Y-44050000D02*
X107750000Y-39550000D01*
X107900000Y-44100000D02*
X107900000Y-39550000D01*
X108050000Y-44100000D02*
X108050000Y-39500000D01*
X108200000Y-44100000D02*
X108200000Y-39500000D01*
X108350000Y-44100000D02*
X108350000Y-39500000D01*
X108500000Y-44100000D02*
X108500000Y-39500000D01*
X108650000Y-44100000D02*
X108650000Y-39500000D01*
X108800000Y-44100000D02*
X108800000Y-39500000D01*
X108950000Y-44100000D02*
X108950000Y-39500000D01*
X109100000Y-44100000D02*
X109100000Y-39500000D01*
X109250000Y-44100000D02*
X109250000Y-39500000D01*
X109400000Y-44100000D02*
X109400000Y-39500000D01*
X109550000Y-44100000D02*
X109550000Y-39500000D01*
D12*
X109650000Y-44000000D02*
X109650000Y-39500000D01*
D10*
X109700000Y-44100000D02*
X109700000Y-39500000D01*
X109850000Y-44100000D02*
X109850000Y-39500000D01*
X110000000Y-44100000D02*
X110000000Y-39500000D01*
X110000000Y-44125000D02*
X108025000Y-44125000D01*
X110150000Y-44100000D02*
X110150000Y-39550000D01*
X110300000Y-44150000D02*
X110300000Y-39500000D01*
X110450000Y-44150000D02*
X110450000Y-39500000D01*
X110575000Y-39475000D02*
X108025000Y-39475000D01*
X110575000Y-39475000D02*
X111850000Y-40500000D01*
X110600000Y-44150000D02*
X110600000Y-39550000D01*
X110750000Y-44200000D02*
X110750000Y-39650000D01*
X110900000Y-44300000D02*
X110900000Y-39750000D01*
X111050000Y-44350000D02*
X111050000Y-39900000D01*
X111200000Y-44450000D02*
X111200000Y-40000000D01*
X111350000Y-44550000D02*
X111350000Y-40150000D01*
X111500000Y-44650000D02*
X111500000Y-40250000D01*
X111650000Y-44800000D02*
X111650000Y-40350000D01*
X111800000Y-44950000D02*
X111800000Y-40500000D01*
X111900000Y-45150000D02*
X111900000Y-41000000D01*
X112000000Y-45300000D02*
X112000000Y-41150000D01*
X112100000Y-45500000D02*
X112100000Y-41350000D01*
X112200000Y-45650000D02*
X112200000Y-41450000D01*
X112300000Y-45900000D02*
X112300000Y-41500000D01*
X112400000Y-46050000D02*
X112400000Y-41550000D01*
D12*
X112500000Y-41700000D02*
X109650000Y-44000000D01*
X112500000Y-46050000D02*
X112500000Y-41700000D01*
D10*
X112550000Y-46150000D02*
X112550000Y-41600000D01*
X112700000Y-46250000D02*
X112700000Y-41700000D01*
X112850000Y-46300000D02*
X112850000Y-41700000D01*
X113000000Y-46300000D02*
X113000000Y-41700000D01*
X113150000Y-46300000D02*
X113150000Y-41750000D01*
X113300000Y-46300000D02*
X113300000Y-41700000D01*
X113450000Y-46300000D02*
X113450000Y-41700000D01*
X113600000Y-46300000D02*
X113600000Y-41700000D01*
X113750000Y-46300000D02*
X113750000Y-41700000D01*
X113900000Y-46300000D02*
X113900000Y-41700000D01*
X114050000Y-46300000D02*
X114050000Y-41700000D01*
X114200000Y-46300000D02*
X114200000Y-41700000D01*
X114350000Y-46300000D02*
X114350000Y-41700000D01*
X114500000Y-46300000D02*
X114500000Y-41700000D01*
X114650000Y-46300000D02*
X114650000Y-41700000D01*
X114800000Y-46300000D02*
X114800000Y-41700000D01*
X114950000Y-46300000D02*
X114950000Y-41700000D01*
X115100000Y-46300000D02*
X115100000Y-41700000D01*
D12*
X115200000Y-41750000D02*
X112500000Y-46050000D01*
X115200000Y-46200000D02*
X115200000Y-41750000D01*
D10*
X115250000Y-46300000D02*
X115250000Y-41700000D01*
X115400000Y-46300000D02*
X115400000Y-41700000D01*
X115550000Y-46300000D02*
X115550000Y-41700000D01*
X115600000Y-41675000D02*
X113025000Y-41675000D01*
X115600000Y-41675000D02*
X116625000Y-42700000D01*
X115600000Y-46325000D02*
X113000000Y-46325000D01*
X115600000Y-46325000D02*
X116625000Y-45300000D01*
X115700000Y-46200000D02*
X115700000Y-41800000D01*
X115850000Y-46050000D02*
X115850000Y-41950000D01*
X116000000Y-45900000D02*
X116000000Y-42100000D01*
X116150000Y-45750000D02*
X116150000Y-42250000D01*
X116250000Y-45650000D02*
X116250000Y-42350000D01*
X116350000Y-45550000D02*
X116350000Y-42450000D01*
X116450000Y-45450000D02*
X116450000Y-42550000D01*
X116600000Y-42675000D02*
X116600000Y-45325000D01*
X108025000Y-39475000D02*
G75*
G03*
X107025000Y-40475000I-1J-999999D01*
G01*
X107025000Y-43125000D02*
G75*
G03*
X108025000Y-44125000I999999J-1D01*
G01*
X112137801Y-45621904D02*
G75*
G03*
X110000000Y-44125000I-2137802J-778098D01*
G01*
X112137802Y-45621904D02*
G75*
G03*
X112999005Y-46323790I899999J225000D01*
G01*
X111850000Y-40500000D02*
G75*
G03*
X113025000Y-41675000I1175002J2D01*
G01*
%TO.C,SW38*%
X145250000Y-62650000D02*
X145250000Y-59050000D01*
X145400000Y-62850000D02*
X145400000Y-58850000D01*
X145550000Y-62950000D02*
X145550000Y-58750000D01*
X145700000Y-63050000D02*
X145700000Y-58650000D01*
X145850000Y-63100000D02*
X145850000Y-58600000D01*
X146000000Y-63150000D02*
X146000000Y-58600000D01*
X146150000Y-63150000D02*
X146150000Y-58550000D01*
X146300000Y-63150000D02*
X146300000Y-58550000D01*
X146450000Y-63150000D02*
X146450000Y-58550000D01*
X146600000Y-63150000D02*
X146600000Y-58550000D01*
X146750000Y-63150000D02*
X146750000Y-58550000D01*
X146900000Y-63150000D02*
X146900000Y-58550000D01*
X147050000Y-63150000D02*
X147050000Y-58550000D01*
X147200000Y-63150000D02*
X147200000Y-58550000D01*
X147350000Y-63150000D02*
X147350000Y-58550000D01*
X147500000Y-63150000D02*
X147500000Y-58550000D01*
X147650000Y-63150000D02*
X147650000Y-58550000D01*
D12*
X147750000Y-63050000D02*
X147750000Y-58550000D01*
D10*
X147800000Y-63150000D02*
X147800000Y-58550000D01*
X147950000Y-63150000D02*
X147950000Y-58550000D01*
X148100000Y-63150000D02*
X148100000Y-58550000D01*
X148100000Y-63175000D02*
X146125000Y-63175000D01*
X148250000Y-63150000D02*
X148250000Y-58600000D01*
X148400000Y-63200000D02*
X148400000Y-58550000D01*
X148550000Y-63200000D02*
X148550000Y-58550000D01*
X148675000Y-58525000D02*
X146125000Y-58525000D01*
X148675000Y-58525000D02*
X149950000Y-59550000D01*
X148700000Y-63200000D02*
X148700000Y-58600000D01*
X148850000Y-63250000D02*
X148850000Y-58700000D01*
X149000000Y-63350000D02*
X149000000Y-58800000D01*
X149150000Y-63400000D02*
X149150000Y-58950000D01*
X149300000Y-63500000D02*
X149300000Y-59050000D01*
X149450000Y-63600000D02*
X149450000Y-59200000D01*
X149600000Y-63700000D02*
X149600000Y-59300000D01*
X149750000Y-63850000D02*
X149750000Y-59400000D01*
X149900000Y-64000000D02*
X149900000Y-59550000D01*
X150000000Y-64200000D02*
X150000000Y-60050000D01*
X150100000Y-64350000D02*
X150100000Y-60200000D01*
X150200000Y-64550000D02*
X150200000Y-60400000D01*
X150300000Y-64700000D02*
X150300000Y-60500000D01*
X150400000Y-64950000D02*
X150400000Y-60550000D01*
X150500000Y-65100000D02*
X150500000Y-60600000D01*
D12*
X150600000Y-60750000D02*
X147750000Y-63050000D01*
X150600000Y-65100000D02*
X150600000Y-60750000D01*
D10*
X150650000Y-65200000D02*
X150650000Y-60650000D01*
X150800000Y-65300000D02*
X150800000Y-60750000D01*
X150950000Y-65350000D02*
X150950000Y-60750000D01*
X151100000Y-65350000D02*
X151100000Y-60750000D01*
X151250000Y-65350000D02*
X151250000Y-60800000D01*
X151400000Y-65350000D02*
X151400000Y-60750000D01*
X151550000Y-65350000D02*
X151550000Y-60750000D01*
X151700000Y-65350000D02*
X151700000Y-60750000D01*
X151850000Y-65350000D02*
X151850000Y-60750000D01*
X152000000Y-65350000D02*
X152000000Y-60750000D01*
X152150000Y-65350000D02*
X152150000Y-60750000D01*
X152300000Y-65350000D02*
X152300000Y-60750000D01*
X152450000Y-65350000D02*
X152450000Y-60750000D01*
X152600000Y-65350000D02*
X152600000Y-60750000D01*
X152750000Y-65350000D02*
X152750000Y-60750000D01*
X152900000Y-65350000D02*
X152900000Y-60750000D01*
X153050000Y-65350000D02*
X153050000Y-60750000D01*
X153200000Y-65350000D02*
X153200000Y-60750000D01*
D12*
X153300000Y-60800000D02*
X150600000Y-65100000D01*
X153300000Y-65250000D02*
X153300000Y-60800000D01*
D10*
X153350000Y-65350000D02*
X153350000Y-60750000D01*
X153500000Y-65350000D02*
X153500000Y-60750000D01*
X153650000Y-65350000D02*
X153650000Y-60750000D01*
X153700000Y-60725000D02*
X151125000Y-60725000D01*
X153700000Y-60725000D02*
X154725000Y-61750000D01*
X153700000Y-65375000D02*
X151100000Y-65375000D01*
X153700000Y-65375000D02*
X154725000Y-64350000D01*
X153800000Y-65250000D02*
X153800000Y-60850000D01*
X153950000Y-65100000D02*
X153950000Y-61000000D01*
X154100000Y-64950000D02*
X154100000Y-61150000D01*
X154250000Y-64800000D02*
X154250000Y-61300000D01*
X154350000Y-64700000D02*
X154350000Y-61400000D01*
X154450000Y-64600000D02*
X154450000Y-61500000D01*
X154550000Y-64500000D02*
X154550000Y-61600000D01*
X154700000Y-61725000D02*
X154700000Y-64375000D01*
X146125000Y-58525000D02*
G75*
G03*
X145125000Y-59525000I-1J-999999D01*
G01*
X145125000Y-62175000D02*
G75*
G03*
X146125000Y-63175000I999999J-1D01*
G01*
X150237801Y-64671904D02*
G75*
G03*
X148100000Y-63175000I-2137802J-778098D01*
G01*
X150237802Y-64671904D02*
G75*
G03*
X151099005Y-65373790I899999J225000D01*
G01*
X149950000Y-59550000D02*
G75*
G03*
X151125000Y-60725000I1175002J2D01*
G01*
%TO.C,D10*%
X194380000Y-7760000D02*
X194380000Y-9260000D01*
X194380000Y-9260000D02*
X199780000Y-9260000D01*
X196580000Y-8010000D02*
X196580000Y-9010000D01*
X196680000Y-8510000D02*
X197580000Y-8010000D01*
X197580000Y-8010000D02*
X197580000Y-9010000D01*
X197580000Y-9010000D02*
X196680000Y-8510000D01*
X199780000Y-7760000D02*
X194380000Y-7760000D01*
X199780000Y-9260000D02*
X199780000Y-7760000D01*
%TO.C,SW10*%
X183350000Y-5500000D02*
X183350000Y-1900000D01*
X183500000Y-5700000D02*
X183500000Y-1700000D01*
X183650000Y-5800000D02*
X183650000Y-1600000D01*
X183800000Y-5900000D02*
X183800000Y-1500000D01*
X183950000Y-5950000D02*
X183950000Y-1450000D01*
X184100000Y-6000000D02*
X184100000Y-1450000D01*
X184250000Y-6000000D02*
X184250000Y-1400000D01*
X184400000Y-6000000D02*
X184400000Y-1400000D01*
X184550000Y-6000000D02*
X184550000Y-1400000D01*
X184700000Y-6000000D02*
X184700000Y-1400000D01*
X184850000Y-6000000D02*
X184850000Y-1400000D01*
X185000000Y-6000000D02*
X185000000Y-1400000D01*
X185150000Y-6000000D02*
X185150000Y-1400000D01*
X185300000Y-6000000D02*
X185300000Y-1400000D01*
X185450000Y-6000000D02*
X185450000Y-1400000D01*
X185600000Y-6000000D02*
X185600000Y-1400000D01*
X185750000Y-6000000D02*
X185750000Y-1400000D01*
D12*
X185850000Y-5900000D02*
X185850000Y-1400000D01*
D10*
X185900000Y-6000000D02*
X185900000Y-1400000D01*
X186050000Y-6000000D02*
X186050000Y-1400000D01*
X186200000Y-6000000D02*
X186200000Y-1400000D01*
X186200000Y-6025000D02*
X184225000Y-6025000D01*
X186350000Y-6000000D02*
X186350000Y-1450000D01*
X186500000Y-6050000D02*
X186500000Y-1400000D01*
X186650000Y-6050000D02*
X186650000Y-1400000D01*
X186775000Y-1375000D02*
X184225000Y-1375000D01*
X186775000Y-1375000D02*
X188050000Y-2400000D01*
X186800000Y-6050000D02*
X186800000Y-1450000D01*
X186950000Y-6100000D02*
X186950000Y-1550000D01*
X187100000Y-6200000D02*
X187100000Y-1650000D01*
X187250000Y-6250000D02*
X187250000Y-1800000D01*
X187400000Y-6350000D02*
X187400000Y-1900000D01*
X187550000Y-6450000D02*
X187550000Y-2050000D01*
X187700000Y-6550000D02*
X187700000Y-2150000D01*
X187850000Y-6700000D02*
X187850000Y-2250000D01*
X188000000Y-6850000D02*
X188000000Y-2400000D01*
X188100000Y-7050000D02*
X188100000Y-2900000D01*
X188200000Y-7200000D02*
X188200000Y-3050000D01*
X188300000Y-7400000D02*
X188300000Y-3250000D01*
X188400000Y-7550000D02*
X188400000Y-3350000D01*
X188500000Y-7800000D02*
X188500000Y-3400000D01*
X188600000Y-7950000D02*
X188600000Y-3450000D01*
D12*
X188700000Y-3600000D02*
X185850000Y-5900000D01*
X188700000Y-7950000D02*
X188700000Y-3600000D01*
D10*
X188750000Y-8050000D02*
X188750000Y-3500000D01*
X188900000Y-8150000D02*
X188900000Y-3600000D01*
X189050000Y-8200000D02*
X189050000Y-3600000D01*
X189200000Y-8200000D02*
X189200000Y-3600000D01*
X189350000Y-8200000D02*
X189350000Y-3650000D01*
X189500000Y-8200000D02*
X189500000Y-3600000D01*
X189650000Y-8200000D02*
X189650000Y-3600000D01*
X189800000Y-8200000D02*
X189800000Y-3600000D01*
X189950000Y-8200000D02*
X189950000Y-3600000D01*
X190100000Y-8200000D02*
X190100000Y-3600000D01*
X190250000Y-8200000D02*
X190250000Y-3600000D01*
X190400000Y-8200000D02*
X190400000Y-3600000D01*
X190550000Y-8200000D02*
X190550000Y-3600000D01*
X190700000Y-8200000D02*
X190700000Y-3600000D01*
X190850000Y-8200000D02*
X190850000Y-3600000D01*
X191000000Y-8200000D02*
X191000000Y-3600000D01*
X191150000Y-8200000D02*
X191150000Y-3600000D01*
X191300000Y-8200000D02*
X191300000Y-3600000D01*
D12*
X191400000Y-3650000D02*
X188700000Y-7950000D01*
X191400000Y-8100000D02*
X191400000Y-3650000D01*
D10*
X191450000Y-8200000D02*
X191450000Y-3600000D01*
X191600000Y-8200000D02*
X191600000Y-3600000D01*
X191750000Y-8200000D02*
X191750000Y-3600000D01*
X191800000Y-3575000D02*
X189225000Y-3575000D01*
X191800000Y-3575000D02*
X192825000Y-4600000D01*
X191800000Y-8225000D02*
X189200000Y-8225000D01*
X191800000Y-8225000D02*
X192825000Y-7200000D01*
X191900000Y-8100000D02*
X191900000Y-3700000D01*
X192050000Y-7950000D02*
X192050000Y-3850000D01*
X192200000Y-7800000D02*
X192200000Y-4000000D01*
X192350000Y-7650000D02*
X192350000Y-4150000D01*
X192450000Y-7550000D02*
X192450000Y-4250000D01*
X192550000Y-7450000D02*
X192550000Y-4350000D01*
X192650000Y-7350000D02*
X192650000Y-4450000D01*
X192800000Y-4575000D02*
X192800000Y-7225000D01*
X184225000Y-1375000D02*
G75*
G03*
X183225000Y-2375000I-1J-999999D01*
G01*
X183225000Y-5025000D02*
G75*
G03*
X184225000Y-6025000I999999J-1D01*
G01*
X188337801Y-7521904D02*
G75*
G03*
X186200000Y-6025000I-2137802J-778098D01*
G01*
X188337802Y-7521904D02*
G75*
G03*
X189199005Y-8223790I899999J225000D01*
G01*
X188050000Y-2400000D02*
G75*
G03*
X189225000Y-3575000I1175002J2D01*
G01*
%TO.C,D19*%
X175330000Y-26840000D02*
X175330000Y-28340000D01*
X175330000Y-28340000D02*
X180730000Y-28340000D01*
X177530000Y-27090000D02*
X177530000Y-28090000D01*
X177630000Y-27590000D02*
X178530000Y-27090000D01*
X178530000Y-27090000D02*
X178530000Y-28090000D01*
X178530000Y-28090000D02*
X177630000Y-27590000D01*
X180730000Y-26840000D02*
X175330000Y-26840000D01*
X180730000Y-28340000D02*
X180730000Y-26840000D01*
%TO.C,D17*%
X137250000Y-26850000D02*
X137250000Y-28350000D01*
X137250000Y-28350000D02*
X142650000Y-28350000D01*
X139450000Y-27100000D02*
X139450000Y-28100000D01*
X139550000Y-27600000D02*
X140450000Y-27100000D01*
X140450000Y-27100000D02*
X140450000Y-28100000D01*
X140450000Y-28100000D02*
X139550000Y-27600000D01*
X142650000Y-26850000D02*
X137250000Y-26850000D01*
X142650000Y-28350000D02*
X142650000Y-26850000D01*
%TO.C,SW6*%
X107150000Y-5500000D02*
X107150000Y-1900000D01*
X107300000Y-5700000D02*
X107300000Y-1700000D01*
X107450000Y-5800000D02*
X107450000Y-1600000D01*
X107600000Y-5900000D02*
X107600000Y-1500000D01*
X107750000Y-5950000D02*
X107750000Y-1450000D01*
X107900000Y-6000000D02*
X107900000Y-1450000D01*
X108050000Y-6000000D02*
X108050000Y-1400000D01*
X108200000Y-6000000D02*
X108200000Y-1400000D01*
X108350000Y-6000000D02*
X108350000Y-1400000D01*
X108500000Y-6000000D02*
X108500000Y-1400000D01*
X108650000Y-6000000D02*
X108650000Y-1400000D01*
X108800000Y-6000000D02*
X108800000Y-1400000D01*
X108950000Y-6000000D02*
X108950000Y-1400000D01*
X109100000Y-6000000D02*
X109100000Y-1400000D01*
X109250000Y-6000000D02*
X109250000Y-1400000D01*
X109400000Y-6000000D02*
X109400000Y-1400000D01*
X109550000Y-6000000D02*
X109550000Y-1400000D01*
D12*
X109650000Y-5900000D02*
X109650000Y-1400000D01*
D10*
X109700000Y-6000000D02*
X109700000Y-1400000D01*
X109850000Y-6000000D02*
X109850000Y-1400000D01*
X110000000Y-6000000D02*
X110000000Y-1400000D01*
X110000000Y-6025000D02*
X108025000Y-6025000D01*
X110150000Y-6000000D02*
X110150000Y-1450000D01*
X110300000Y-6050000D02*
X110300000Y-1400000D01*
X110450000Y-6050000D02*
X110450000Y-1400000D01*
X110575000Y-1375000D02*
X108025000Y-1375000D01*
X110575000Y-1375000D02*
X111850000Y-2400000D01*
X110600000Y-6050000D02*
X110600000Y-1450000D01*
X110750000Y-6100000D02*
X110750000Y-1550000D01*
X110900000Y-6200000D02*
X110900000Y-1650000D01*
X111050000Y-6250000D02*
X111050000Y-1800000D01*
X111200000Y-6350000D02*
X111200000Y-1900000D01*
X111350000Y-6450000D02*
X111350000Y-2050000D01*
X111500000Y-6550000D02*
X111500000Y-2150000D01*
X111650000Y-6700000D02*
X111650000Y-2250000D01*
X111800000Y-6850000D02*
X111800000Y-2400000D01*
X111900000Y-7050000D02*
X111900000Y-2900000D01*
X112000000Y-7200000D02*
X112000000Y-3050000D01*
X112100000Y-7400000D02*
X112100000Y-3250000D01*
X112200000Y-7550000D02*
X112200000Y-3350000D01*
X112300000Y-7800000D02*
X112300000Y-3400000D01*
X112400000Y-7950000D02*
X112400000Y-3450000D01*
D12*
X112500000Y-3600000D02*
X109650000Y-5900000D01*
X112500000Y-7950000D02*
X112500000Y-3600000D01*
D10*
X112550000Y-8050000D02*
X112550000Y-3500000D01*
X112700000Y-8150000D02*
X112700000Y-3600000D01*
X112850000Y-8200000D02*
X112850000Y-3600000D01*
X113000000Y-8200000D02*
X113000000Y-3600000D01*
X113150000Y-8200000D02*
X113150000Y-3650000D01*
X113300000Y-8200000D02*
X113300000Y-3600000D01*
X113450000Y-8200000D02*
X113450000Y-3600000D01*
X113600000Y-8200000D02*
X113600000Y-3600000D01*
X113750000Y-8200000D02*
X113750000Y-3600000D01*
X113900000Y-8200000D02*
X113900000Y-3600000D01*
X114050000Y-8200000D02*
X114050000Y-3600000D01*
X114200000Y-8200000D02*
X114200000Y-3600000D01*
X114350000Y-8200000D02*
X114350000Y-3600000D01*
X114500000Y-8200000D02*
X114500000Y-3600000D01*
X114650000Y-8200000D02*
X114650000Y-3600000D01*
X114800000Y-8200000D02*
X114800000Y-3600000D01*
X114950000Y-8200000D02*
X114950000Y-3600000D01*
X115100000Y-8200000D02*
X115100000Y-3600000D01*
D12*
X115200000Y-3650000D02*
X112500000Y-7950000D01*
X115200000Y-8100000D02*
X115200000Y-3650000D01*
D10*
X115250000Y-8200000D02*
X115250000Y-3600000D01*
X115400000Y-8200000D02*
X115400000Y-3600000D01*
X115550000Y-8200000D02*
X115550000Y-3600000D01*
X115600000Y-3575000D02*
X113025000Y-3575000D01*
X115600000Y-3575000D02*
X116625000Y-4600000D01*
X115600000Y-8225000D02*
X113000000Y-8225000D01*
X115600000Y-8225000D02*
X116625000Y-7200000D01*
X115700000Y-8100000D02*
X115700000Y-3700000D01*
X115850000Y-7950000D02*
X115850000Y-3850000D01*
X116000000Y-7800000D02*
X116000000Y-4000000D01*
X116150000Y-7650000D02*
X116150000Y-4150000D01*
X116250000Y-7550000D02*
X116250000Y-4250000D01*
X116350000Y-7450000D02*
X116350000Y-4350000D01*
X116450000Y-7350000D02*
X116450000Y-4450000D01*
X116600000Y-4575000D02*
X116600000Y-7225000D01*
X108025000Y-1375000D02*
G75*
G03*
X107025000Y-2375000I-1J-999999D01*
G01*
X107025000Y-5025000D02*
G75*
G03*
X108025000Y-6025000I999999J-1D01*
G01*
X112137801Y-7521904D02*
G75*
G03*
X110000000Y-6025000I-2137802J-778098D01*
G01*
X112137802Y-7521904D02*
G75*
G03*
X112999005Y-8223790I899999J225000D01*
G01*
X111850000Y-2400000D02*
G75*
G03*
X113025000Y-3575000I1175002J2D01*
G01*
%TO.C,D20*%
X194380000Y-26850000D02*
X194380000Y-28350000D01*
X194380000Y-28350000D02*
X199780000Y-28350000D01*
X196580000Y-27100000D02*
X196580000Y-28100000D01*
X196680000Y-27600000D02*
X197580000Y-27100000D01*
X197580000Y-27100000D02*
X197580000Y-28100000D01*
X197580000Y-28100000D02*
X196680000Y-27600000D01*
X199780000Y-26850000D02*
X194380000Y-26850000D01*
X199780000Y-28350000D02*
X199780000Y-26850000D01*
%TO.C,SW9*%
X164300000Y-5500000D02*
X164300000Y-1900000D01*
X164450000Y-5700000D02*
X164450000Y-1700000D01*
X164600000Y-5800000D02*
X164600000Y-1600000D01*
X164750000Y-5900000D02*
X164750000Y-1500000D01*
X164900000Y-5950000D02*
X164900000Y-1450000D01*
X165050000Y-6000000D02*
X165050000Y-1450000D01*
X165200000Y-6000000D02*
X165200000Y-1400000D01*
X165350000Y-6000000D02*
X165350000Y-1400000D01*
X165500000Y-6000000D02*
X165500000Y-1400000D01*
X165650000Y-6000000D02*
X165650000Y-1400000D01*
X165800000Y-6000000D02*
X165800000Y-1400000D01*
X165950000Y-6000000D02*
X165950000Y-1400000D01*
X166100000Y-6000000D02*
X166100000Y-1400000D01*
X166250000Y-6000000D02*
X166250000Y-1400000D01*
X166400000Y-6000000D02*
X166400000Y-1400000D01*
X166550000Y-6000000D02*
X166550000Y-1400000D01*
X166700000Y-6000000D02*
X166700000Y-1400000D01*
D12*
X166800000Y-5900000D02*
X166800000Y-1400000D01*
D10*
X166850000Y-6000000D02*
X166850000Y-1400000D01*
X167000000Y-6000000D02*
X167000000Y-1400000D01*
X167150000Y-6000000D02*
X167150000Y-1400000D01*
X167150000Y-6025000D02*
X165175000Y-6025000D01*
X167300000Y-6000000D02*
X167300000Y-1450000D01*
X167450000Y-6050000D02*
X167450000Y-1400000D01*
X167600000Y-6050000D02*
X167600000Y-1400000D01*
X167725000Y-1375000D02*
X165175000Y-1375000D01*
X167725000Y-1375000D02*
X169000000Y-2400000D01*
X167750000Y-6050000D02*
X167750000Y-1450000D01*
X167900000Y-6100000D02*
X167900000Y-1550000D01*
X168050000Y-6200000D02*
X168050000Y-1650000D01*
X168200000Y-6250000D02*
X168200000Y-1800000D01*
X168350000Y-6350000D02*
X168350000Y-1900000D01*
X168500000Y-6450000D02*
X168500000Y-2050000D01*
X168650000Y-6550000D02*
X168650000Y-2150000D01*
X168800000Y-6700000D02*
X168800000Y-2250000D01*
X168950000Y-6850000D02*
X168950000Y-2400000D01*
X169050000Y-7050000D02*
X169050000Y-2900000D01*
X169150000Y-7200000D02*
X169150000Y-3050000D01*
X169250000Y-7400000D02*
X169250000Y-3250000D01*
X169350000Y-7550000D02*
X169350000Y-3350000D01*
X169450000Y-7800000D02*
X169450000Y-3400000D01*
X169550000Y-7950000D02*
X169550000Y-3450000D01*
D12*
X169650000Y-3600000D02*
X166800000Y-5900000D01*
X169650000Y-7950000D02*
X169650000Y-3600000D01*
D10*
X169700000Y-8050000D02*
X169700000Y-3500000D01*
X169850000Y-8150000D02*
X169850000Y-3600000D01*
X170000000Y-8200000D02*
X170000000Y-3600000D01*
X170150000Y-8200000D02*
X170150000Y-3600000D01*
X170300000Y-8200000D02*
X170300000Y-3650000D01*
X170450000Y-8200000D02*
X170450000Y-3600000D01*
X170600000Y-8200000D02*
X170600000Y-3600000D01*
X170750000Y-8200000D02*
X170750000Y-3600000D01*
X170900000Y-8200000D02*
X170900000Y-3600000D01*
X171050000Y-8200000D02*
X171050000Y-3600000D01*
X171200000Y-8200000D02*
X171200000Y-3600000D01*
X171350000Y-8200000D02*
X171350000Y-3600000D01*
X171500000Y-8200000D02*
X171500000Y-3600000D01*
X171650000Y-8200000D02*
X171650000Y-3600000D01*
X171800000Y-8200000D02*
X171800000Y-3600000D01*
X171950000Y-8200000D02*
X171950000Y-3600000D01*
X172100000Y-8200000D02*
X172100000Y-3600000D01*
X172250000Y-8200000D02*
X172250000Y-3600000D01*
D12*
X172350000Y-3650000D02*
X169650000Y-7950000D01*
X172350000Y-8100000D02*
X172350000Y-3650000D01*
D10*
X172400000Y-8200000D02*
X172400000Y-3600000D01*
X172550000Y-8200000D02*
X172550000Y-3600000D01*
X172700000Y-8200000D02*
X172700000Y-3600000D01*
X172750000Y-3575000D02*
X170175000Y-3575000D01*
X172750000Y-3575000D02*
X173775000Y-4600000D01*
X172750000Y-8225000D02*
X170150000Y-8225000D01*
X172750000Y-8225000D02*
X173775000Y-7200000D01*
X172850000Y-8100000D02*
X172850000Y-3700000D01*
X173000000Y-7950000D02*
X173000000Y-3850000D01*
X173150000Y-7800000D02*
X173150000Y-4000000D01*
X173300000Y-7650000D02*
X173300000Y-4150000D01*
X173400000Y-7550000D02*
X173400000Y-4250000D01*
X173500000Y-7450000D02*
X173500000Y-4350000D01*
X173600000Y-7350000D02*
X173600000Y-4450000D01*
X173750000Y-4575000D02*
X173750000Y-7225000D01*
X165175000Y-1375000D02*
G75*
G03*
X164175000Y-2375000I-1J-999999D01*
G01*
X164175000Y-5025000D02*
G75*
G03*
X165175000Y-6025000I999999J-1D01*
G01*
X169287801Y-7521904D02*
G75*
G03*
X167150000Y-6025000I-2137802J-778098D01*
G01*
X169287802Y-7521904D02*
G75*
G03*
X170149005Y-8223790I899999J225000D01*
G01*
X169000000Y-2400000D02*
G75*
G03*
X170175000Y-3575000I1175002J2D01*
G01*
%TO.C,D6*%
X106585000Y-7920000D02*
X106585000Y-9420000D01*
X106585000Y-9420000D02*
X111985000Y-9420000D01*
X108785000Y-8170000D02*
X108785000Y-9170000D01*
X108885000Y-8670000D02*
X109785000Y-8170000D01*
X109785000Y-8170000D02*
X109785000Y-9170000D01*
X109785000Y-9170000D02*
X108885000Y-8670000D01*
X111985000Y-7920000D02*
X106585000Y-7920000D01*
X111985000Y-9420000D02*
X111985000Y-7920000D01*
%TO.C,SW37*%
X126200000Y-62650000D02*
X126200000Y-59050000D01*
X126350000Y-62850000D02*
X126350000Y-58850000D01*
X126500000Y-62950000D02*
X126500000Y-58750000D01*
X126650000Y-63050000D02*
X126650000Y-58650000D01*
X126800000Y-63100000D02*
X126800000Y-58600000D01*
X126950000Y-63150000D02*
X126950000Y-58600000D01*
X127100000Y-63150000D02*
X127100000Y-58550000D01*
X127250000Y-63150000D02*
X127250000Y-58550000D01*
X127400000Y-63150000D02*
X127400000Y-58550000D01*
X127550000Y-63150000D02*
X127550000Y-58550000D01*
X127700000Y-63150000D02*
X127700000Y-58550000D01*
X127850000Y-63150000D02*
X127850000Y-58550000D01*
X128000000Y-63150000D02*
X128000000Y-58550000D01*
X128150000Y-63150000D02*
X128150000Y-58550000D01*
X128300000Y-63150000D02*
X128300000Y-58550000D01*
X128450000Y-63150000D02*
X128450000Y-58550000D01*
X128600000Y-63150000D02*
X128600000Y-58550000D01*
D12*
X128700000Y-63050000D02*
X128700000Y-58550000D01*
D10*
X128750000Y-63150000D02*
X128750000Y-58550000D01*
X128900000Y-63150000D02*
X128900000Y-58550000D01*
X129050000Y-63150000D02*
X129050000Y-58550000D01*
X129050000Y-63175000D02*
X127075000Y-63175000D01*
X129200000Y-63150000D02*
X129200000Y-58600000D01*
X129350000Y-63200000D02*
X129350000Y-58550000D01*
X129500000Y-63200000D02*
X129500000Y-58550000D01*
X129625000Y-58525000D02*
X127075000Y-58525000D01*
X129625000Y-58525000D02*
X130900000Y-59550000D01*
X129650000Y-63200000D02*
X129650000Y-58600000D01*
X129800000Y-63250000D02*
X129800000Y-58700000D01*
X129950000Y-63350000D02*
X129950000Y-58800000D01*
X130100000Y-63400000D02*
X130100000Y-58950000D01*
X130250000Y-63500000D02*
X130250000Y-59050000D01*
X130400000Y-63600000D02*
X130400000Y-59200000D01*
X130550000Y-63700000D02*
X130550000Y-59300000D01*
X130700000Y-63850000D02*
X130700000Y-59400000D01*
X130850000Y-64000000D02*
X130850000Y-59550000D01*
X130950000Y-64200000D02*
X130950000Y-60050000D01*
X131050000Y-64350000D02*
X131050000Y-60200000D01*
X131150000Y-64550000D02*
X131150000Y-60400000D01*
X131250000Y-64700000D02*
X131250000Y-60500000D01*
X131350000Y-64950000D02*
X131350000Y-60550000D01*
X131450000Y-65100000D02*
X131450000Y-60600000D01*
D12*
X131550000Y-60750000D02*
X128700000Y-63050000D01*
X131550000Y-65100000D02*
X131550000Y-60750000D01*
D10*
X131600000Y-65200000D02*
X131600000Y-60650000D01*
X131750000Y-65300000D02*
X131750000Y-60750000D01*
X131900000Y-65350000D02*
X131900000Y-60750000D01*
X132050000Y-65350000D02*
X132050000Y-60750000D01*
X132200000Y-65350000D02*
X132200000Y-60800000D01*
X132350000Y-65350000D02*
X132350000Y-60750000D01*
X132500000Y-65350000D02*
X132500000Y-60750000D01*
X132650000Y-65350000D02*
X132650000Y-60750000D01*
X132800000Y-65350000D02*
X132800000Y-60750000D01*
X132950000Y-65350000D02*
X132950000Y-60750000D01*
X133100000Y-65350000D02*
X133100000Y-60750000D01*
X133250000Y-65350000D02*
X133250000Y-60750000D01*
X133400000Y-65350000D02*
X133400000Y-60750000D01*
X133550000Y-65350000D02*
X133550000Y-60750000D01*
X133700000Y-65350000D02*
X133700000Y-60750000D01*
X133850000Y-65350000D02*
X133850000Y-60750000D01*
X134000000Y-65350000D02*
X134000000Y-60750000D01*
X134150000Y-65350000D02*
X134150000Y-60750000D01*
D12*
X134250000Y-60800000D02*
X131550000Y-65100000D01*
X134250000Y-65250000D02*
X134250000Y-60800000D01*
D10*
X134300000Y-65350000D02*
X134300000Y-60750000D01*
X134450000Y-65350000D02*
X134450000Y-60750000D01*
X134600000Y-65350000D02*
X134600000Y-60750000D01*
X134650000Y-60725000D02*
X132075000Y-60725000D01*
X134650000Y-60725000D02*
X135675000Y-61750000D01*
X134650000Y-65375000D02*
X132050000Y-65375000D01*
X134650000Y-65375000D02*
X135675000Y-64350000D01*
X134750000Y-65250000D02*
X134750000Y-60850000D01*
X134900000Y-65100000D02*
X134900000Y-61000000D01*
X135050000Y-64950000D02*
X135050000Y-61150000D01*
X135200000Y-64800000D02*
X135200000Y-61300000D01*
X135300000Y-64700000D02*
X135300000Y-61400000D01*
X135400000Y-64600000D02*
X135400000Y-61500000D01*
X135500000Y-64500000D02*
X135500000Y-61600000D01*
X135650000Y-61725000D02*
X135650000Y-64375000D01*
X127075000Y-58525000D02*
G75*
G03*
X126075000Y-59525000I-1J-999999D01*
G01*
X126075000Y-62175000D02*
G75*
G03*
X127075000Y-63175000I999999J-1D01*
G01*
X131187801Y-64671904D02*
G75*
G03*
X129050000Y-63175000I-2137802J-778098D01*
G01*
X131187802Y-64671904D02*
G75*
G03*
X132049005Y-65373790I899999J225000D01*
G01*
X130900000Y-59550000D02*
G75*
G03*
X132075000Y-60725000I1175002J2D01*
G01*
%TO.C,SW7*%
X126200000Y-5500000D02*
X126200000Y-1900000D01*
X126350000Y-5700000D02*
X126350000Y-1700000D01*
X126500000Y-5800000D02*
X126500000Y-1600000D01*
X126650000Y-5900000D02*
X126650000Y-1500000D01*
X126800000Y-5950000D02*
X126800000Y-1450000D01*
X126950000Y-6000000D02*
X126950000Y-1450000D01*
X127100000Y-6000000D02*
X127100000Y-1400000D01*
X127250000Y-6000000D02*
X127250000Y-1400000D01*
X127400000Y-6000000D02*
X127400000Y-1400000D01*
X127550000Y-6000000D02*
X127550000Y-1400000D01*
X127700000Y-6000000D02*
X127700000Y-1400000D01*
X127850000Y-6000000D02*
X127850000Y-1400000D01*
X128000000Y-6000000D02*
X128000000Y-1400000D01*
X128150000Y-6000000D02*
X128150000Y-1400000D01*
X128300000Y-6000000D02*
X128300000Y-1400000D01*
X128450000Y-6000000D02*
X128450000Y-1400000D01*
X128600000Y-6000000D02*
X128600000Y-1400000D01*
D12*
X128700000Y-5900000D02*
X128700000Y-1400000D01*
D10*
X128750000Y-6000000D02*
X128750000Y-1400000D01*
X128900000Y-6000000D02*
X128900000Y-1400000D01*
X129050000Y-6000000D02*
X129050000Y-1400000D01*
X129050000Y-6025000D02*
X127075000Y-6025000D01*
X129200000Y-6000000D02*
X129200000Y-1450000D01*
X129350000Y-6050000D02*
X129350000Y-1400000D01*
X129500000Y-6050000D02*
X129500000Y-1400000D01*
X129625000Y-1375000D02*
X127075000Y-1375000D01*
X129625000Y-1375000D02*
X130900000Y-2400000D01*
X129650000Y-6050000D02*
X129650000Y-1450000D01*
X129800000Y-6100000D02*
X129800000Y-1550000D01*
X129950000Y-6200000D02*
X129950000Y-1650000D01*
X130100000Y-6250000D02*
X130100000Y-1800000D01*
X130250000Y-6350000D02*
X130250000Y-1900000D01*
X130400000Y-6450000D02*
X130400000Y-2050000D01*
X130550000Y-6550000D02*
X130550000Y-2150000D01*
X130700000Y-6700000D02*
X130700000Y-2250000D01*
X130850000Y-6850000D02*
X130850000Y-2400000D01*
X130950000Y-7050000D02*
X130950000Y-2900000D01*
X131050000Y-7200000D02*
X131050000Y-3050000D01*
X131150000Y-7400000D02*
X131150000Y-3250000D01*
X131250000Y-7550000D02*
X131250000Y-3350000D01*
X131350000Y-7800000D02*
X131350000Y-3400000D01*
X131450000Y-7950000D02*
X131450000Y-3450000D01*
D12*
X131550000Y-3600000D02*
X128700000Y-5900000D01*
X131550000Y-7950000D02*
X131550000Y-3600000D01*
D10*
X131600000Y-8050000D02*
X131600000Y-3500000D01*
X131750000Y-8150000D02*
X131750000Y-3600000D01*
X131900000Y-8200000D02*
X131900000Y-3600000D01*
X132050000Y-8200000D02*
X132050000Y-3600000D01*
X132200000Y-8200000D02*
X132200000Y-3650000D01*
X132350000Y-8200000D02*
X132350000Y-3600000D01*
X132500000Y-8200000D02*
X132500000Y-3600000D01*
X132650000Y-8200000D02*
X132650000Y-3600000D01*
X132800000Y-8200000D02*
X132800000Y-3600000D01*
X132950000Y-8200000D02*
X132950000Y-3600000D01*
X133100000Y-8200000D02*
X133100000Y-3600000D01*
X133250000Y-8200000D02*
X133250000Y-3600000D01*
X133400000Y-8200000D02*
X133400000Y-3600000D01*
X133550000Y-8200000D02*
X133550000Y-3600000D01*
X133700000Y-8200000D02*
X133700000Y-3600000D01*
X133850000Y-8200000D02*
X133850000Y-3600000D01*
X134000000Y-8200000D02*
X134000000Y-3600000D01*
X134150000Y-8200000D02*
X134150000Y-3600000D01*
D12*
X134250000Y-3650000D02*
X131550000Y-7950000D01*
X134250000Y-8100000D02*
X134250000Y-3650000D01*
D10*
X134300000Y-8200000D02*
X134300000Y-3600000D01*
X134450000Y-8200000D02*
X134450000Y-3600000D01*
X134600000Y-8200000D02*
X134600000Y-3600000D01*
X134650000Y-3575000D02*
X132075000Y-3575000D01*
X134650000Y-3575000D02*
X135675000Y-4600000D01*
X134650000Y-8225000D02*
X132050000Y-8225000D01*
X134650000Y-8225000D02*
X135675000Y-7200000D01*
X134750000Y-8100000D02*
X134750000Y-3700000D01*
X134900000Y-7950000D02*
X134900000Y-3850000D01*
X135050000Y-7800000D02*
X135050000Y-4000000D01*
X135200000Y-7650000D02*
X135200000Y-4150000D01*
X135300000Y-7550000D02*
X135300000Y-4250000D01*
X135400000Y-7450000D02*
X135400000Y-4350000D01*
X135500000Y-7350000D02*
X135500000Y-4450000D01*
X135650000Y-4575000D02*
X135650000Y-7225000D01*
X127075000Y-1375000D02*
G75*
G03*
X126075000Y-2375000I-1J-999999D01*
G01*
X126075000Y-5025000D02*
G75*
G03*
X127075000Y-6025000I999999J-1D01*
G01*
X131187801Y-7521904D02*
G75*
G03*
X129050000Y-6025000I-2137802J-778098D01*
G01*
X131187802Y-7521904D02*
G75*
G03*
X132049005Y-8223790I899999J225000D01*
G01*
X130900000Y-2400000D02*
G75*
G03*
X132075000Y-3575000I1175002J2D01*
G01*
%TO.C,SW36*%
X107150000Y-62650000D02*
X107150000Y-59050000D01*
X107300000Y-62850000D02*
X107300000Y-58850000D01*
X107450000Y-62950000D02*
X107450000Y-58750000D01*
X107600000Y-63050000D02*
X107600000Y-58650000D01*
X107750000Y-63100000D02*
X107750000Y-58600000D01*
X107900000Y-63150000D02*
X107900000Y-58600000D01*
X108050000Y-63150000D02*
X108050000Y-58550000D01*
X108200000Y-63150000D02*
X108200000Y-58550000D01*
X108350000Y-63150000D02*
X108350000Y-58550000D01*
X108500000Y-63150000D02*
X108500000Y-58550000D01*
X108650000Y-63150000D02*
X108650000Y-58550000D01*
X108800000Y-63150000D02*
X108800000Y-58550000D01*
X108950000Y-63150000D02*
X108950000Y-58550000D01*
X109100000Y-63150000D02*
X109100000Y-58550000D01*
X109250000Y-63150000D02*
X109250000Y-58550000D01*
X109400000Y-63150000D02*
X109400000Y-58550000D01*
X109550000Y-63150000D02*
X109550000Y-58550000D01*
D12*
X109650000Y-63050000D02*
X109650000Y-58550000D01*
D10*
X109700000Y-63150000D02*
X109700000Y-58550000D01*
X109850000Y-63150000D02*
X109850000Y-58550000D01*
X110000000Y-63150000D02*
X110000000Y-58550000D01*
X110000000Y-63175000D02*
X108025000Y-63175000D01*
X110150000Y-63150000D02*
X110150000Y-58600000D01*
X110300000Y-63200000D02*
X110300000Y-58550000D01*
X110450000Y-63200000D02*
X110450000Y-58550000D01*
X110575000Y-58525000D02*
X108025000Y-58525000D01*
X110575000Y-58525000D02*
X111850000Y-59550000D01*
X110600000Y-63200000D02*
X110600000Y-58600000D01*
X110750000Y-63250000D02*
X110750000Y-58700000D01*
X110900000Y-63350000D02*
X110900000Y-58800000D01*
X111050000Y-63400000D02*
X111050000Y-58950000D01*
X111200000Y-63500000D02*
X111200000Y-59050000D01*
X111350000Y-63600000D02*
X111350000Y-59200000D01*
X111500000Y-63700000D02*
X111500000Y-59300000D01*
X111650000Y-63850000D02*
X111650000Y-59400000D01*
X111800000Y-64000000D02*
X111800000Y-59550000D01*
X111900000Y-64200000D02*
X111900000Y-60050000D01*
X112000000Y-64350000D02*
X112000000Y-60200000D01*
X112100000Y-64550000D02*
X112100000Y-60400000D01*
X112200000Y-64700000D02*
X112200000Y-60500000D01*
X112300000Y-64950000D02*
X112300000Y-60550000D01*
X112400000Y-65100000D02*
X112400000Y-60600000D01*
D12*
X112500000Y-60750000D02*
X109650000Y-63050000D01*
X112500000Y-65100000D02*
X112500000Y-60750000D01*
D10*
X112550000Y-65200000D02*
X112550000Y-60650000D01*
X112700000Y-65300000D02*
X112700000Y-60750000D01*
X112850000Y-65350000D02*
X112850000Y-60750000D01*
X113000000Y-65350000D02*
X113000000Y-60750000D01*
X113150000Y-65350000D02*
X113150000Y-60800000D01*
X113300000Y-65350000D02*
X113300000Y-60750000D01*
X113450000Y-65350000D02*
X113450000Y-60750000D01*
X113600000Y-65350000D02*
X113600000Y-60750000D01*
X113750000Y-65350000D02*
X113750000Y-60750000D01*
X113900000Y-65350000D02*
X113900000Y-60750000D01*
X114050000Y-65350000D02*
X114050000Y-60750000D01*
X114200000Y-65350000D02*
X114200000Y-60750000D01*
X114350000Y-65350000D02*
X114350000Y-60750000D01*
X114500000Y-65350000D02*
X114500000Y-60750000D01*
X114650000Y-65350000D02*
X114650000Y-60750000D01*
X114800000Y-65350000D02*
X114800000Y-60750000D01*
X114950000Y-65350000D02*
X114950000Y-60750000D01*
X115100000Y-65350000D02*
X115100000Y-60750000D01*
D12*
X115200000Y-60800000D02*
X112500000Y-65100000D01*
X115200000Y-65250000D02*
X115200000Y-60800000D01*
D10*
X115250000Y-65350000D02*
X115250000Y-60750000D01*
X115400000Y-65350000D02*
X115400000Y-60750000D01*
X115550000Y-65350000D02*
X115550000Y-60750000D01*
X115600000Y-60725000D02*
X113025000Y-60725000D01*
X115600000Y-60725000D02*
X116625000Y-61750000D01*
X115600000Y-65375000D02*
X113000000Y-65375000D01*
X115600000Y-65375000D02*
X116625000Y-64350000D01*
X115700000Y-65250000D02*
X115700000Y-60850000D01*
X115850000Y-65100000D02*
X115850000Y-61000000D01*
X116000000Y-64950000D02*
X116000000Y-61150000D01*
X116150000Y-64800000D02*
X116150000Y-61300000D01*
X116250000Y-64700000D02*
X116250000Y-61400000D01*
X116350000Y-64600000D02*
X116350000Y-61500000D01*
X116450000Y-64500000D02*
X116450000Y-61600000D01*
X116600000Y-61725000D02*
X116600000Y-64375000D01*
X108025000Y-58525000D02*
G75*
G03*
X107025000Y-59525000I-1J-999999D01*
G01*
X107025000Y-62175000D02*
G75*
G03*
X108025000Y-63175000I999999J-1D01*
G01*
X112137801Y-64671904D02*
G75*
G03*
X110000000Y-63175000I-2137802J-778098D01*
G01*
X112137802Y-64671904D02*
G75*
G03*
X112999005Y-65373790I899999J225000D01*
G01*
X111850000Y-59550000D02*
G75*
G03*
X113025000Y-60725000I1175002J2D01*
G01*
%TO.C,D26*%
X106440000Y-45850000D02*
X106440000Y-47350000D01*
X106440000Y-47350000D02*
X111840000Y-47350000D01*
X108640000Y-46100000D02*
X108640000Y-47100000D01*
X108740000Y-46600000D02*
X109640000Y-46100000D01*
X109640000Y-46100000D02*
X109640000Y-47100000D01*
X109640000Y-47100000D02*
X108740000Y-46600000D01*
X111840000Y-45850000D02*
X106440000Y-45850000D01*
X111840000Y-47350000D02*
X111840000Y-45850000D01*
%TO.C,SW41*%
X86740000Y-24550000D02*
X92740000Y-24550000D01*
X86740000Y-24800000D02*
X86740000Y-24550000D01*
X86740000Y-28050000D02*
X86740000Y-27800000D01*
X92740000Y-24550000D02*
X92740000Y-24800000D01*
X92740000Y-27800000D02*
X92740000Y-28050000D01*
X92740000Y-28050000D02*
X86740000Y-28050000D01*
%TO.C,D39*%
X175420000Y-64890000D02*
X175420000Y-66390000D01*
X175420000Y-66390000D02*
X180820000Y-66390000D01*
X177620000Y-65140000D02*
X177620000Y-66140000D01*
X177720000Y-65640000D02*
X178620000Y-65140000D01*
X178620000Y-65140000D02*
X178620000Y-66140000D01*
X178620000Y-66140000D02*
X177720000Y-65640000D01*
X180820000Y-64890000D02*
X175420000Y-64890000D01*
X180820000Y-66390000D02*
X180820000Y-64890000D01*
%TO.C,D18*%
X156300000Y-26840000D02*
X156300000Y-28340000D01*
X156300000Y-28340000D02*
X161700000Y-28340000D01*
X158500000Y-27090000D02*
X158500000Y-28090000D01*
X158600000Y-27590000D02*
X159500000Y-27090000D01*
X159500000Y-27090000D02*
X159500000Y-28090000D01*
X159500000Y-28090000D02*
X158600000Y-27590000D01*
X161700000Y-26840000D02*
X156300000Y-26840000D01*
X161700000Y-28340000D02*
X161700000Y-26840000D01*
%TO.C,SW39*%
X164300000Y-62650000D02*
X164300000Y-59050000D01*
X164450000Y-62850000D02*
X164450000Y-58850000D01*
X164600000Y-62950000D02*
X164600000Y-58750000D01*
X164750000Y-63050000D02*
X164750000Y-58650000D01*
X164900000Y-63100000D02*
X164900000Y-58600000D01*
X165050000Y-63150000D02*
X165050000Y-58600000D01*
X165200000Y-63150000D02*
X165200000Y-58550000D01*
X165350000Y-63150000D02*
X165350000Y-58550000D01*
X165500000Y-63150000D02*
X165500000Y-58550000D01*
X165650000Y-63150000D02*
X165650000Y-58550000D01*
X165800000Y-63150000D02*
X165800000Y-58550000D01*
X165950000Y-63150000D02*
X165950000Y-58550000D01*
X166100000Y-63150000D02*
X166100000Y-58550000D01*
X166250000Y-63150000D02*
X166250000Y-58550000D01*
X166400000Y-63150000D02*
X166400000Y-58550000D01*
X166550000Y-63150000D02*
X166550000Y-58550000D01*
X166700000Y-63150000D02*
X166700000Y-58550000D01*
D12*
X166800000Y-63050000D02*
X166800000Y-58550000D01*
D10*
X166850000Y-63150000D02*
X166850000Y-58550000D01*
X167000000Y-63150000D02*
X167000000Y-58550000D01*
X167150000Y-63150000D02*
X167150000Y-58550000D01*
X167150000Y-63175000D02*
X165175000Y-63175000D01*
X167300000Y-63150000D02*
X167300000Y-58600000D01*
X167450000Y-63200000D02*
X167450000Y-58550000D01*
X167600000Y-63200000D02*
X167600000Y-58550000D01*
X167725000Y-58525000D02*
X165175000Y-58525000D01*
X167725000Y-58525000D02*
X169000000Y-59550000D01*
X167750000Y-63200000D02*
X167750000Y-58600000D01*
X167900000Y-63250000D02*
X167900000Y-58700000D01*
X168050000Y-63350000D02*
X168050000Y-58800000D01*
X168200000Y-63400000D02*
X168200000Y-58950000D01*
X168350000Y-63500000D02*
X168350000Y-59050000D01*
X168500000Y-63600000D02*
X168500000Y-59200000D01*
X168650000Y-63700000D02*
X168650000Y-59300000D01*
X168800000Y-63850000D02*
X168800000Y-59400000D01*
X168950000Y-64000000D02*
X168950000Y-59550000D01*
X169050000Y-64200000D02*
X169050000Y-60050000D01*
X169150000Y-64350000D02*
X169150000Y-60200000D01*
X169250000Y-64550000D02*
X169250000Y-60400000D01*
X169350000Y-64700000D02*
X169350000Y-60500000D01*
X169450000Y-64950000D02*
X169450000Y-60550000D01*
X169550000Y-65100000D02*
X169550000Y-60600000D01*
D12*
X169650000Y-60750000D02*
X166800000Y-63050000D01*
X169650000Y-65100000D02*
X169650000Y-60750000D01*
D10*
X169700000Y-65200000D02*
X169700000Y-60650000D01*
X169850000Y-65300000D02*
X169850000Y-60750000D01*
X170000000Y-65350000D02*
X170000000Y-60750000D01*
X170150000Y-65350000D02*
X170150000Y-60750000D01*
X170300000Y-65350000D02*
X170300000Y-60800000D01*
X170450000Y-65350000D02*
X170450000Y-60750000D01*
X170600000Y-65350000D02*
X170600000Y-60750000D01*
X170750000Y-65350000D02*
X170750000Y-60750000D01*
X170900000Y-65350000D02*
X170900000Y-60750000D01*
X171050000Y-65350000D02*
X171050000Y-60750000D01*
X171200000Y-65350000D02*
X171200000Y-60750000D01*
X171350000Y-65350000D02*
X171350000Y-60750000D01*
X171500000Y-65350000D02*
X171500000Y-60750000D01*
X171650000Y-65350000D02*
X171650000Y-60750000D01*
X171800000Y-65350000D02*
X171800000Y-60750000D01*
X171950000Y-65350000D02*
X171950000Y-60750000D01*
X172100000Y-65350000D02*
X172100000Y-60750000D01*
X172250000Y-65350000D02*
X172250000Y-60750000D01*
D12*
X172350000Y-60800000D02*
X169650000Y-65100000D01*
X172350000Y-65250000D02*
X172350000Y-60800000D01*
D10*
X172400000Y-65350000D02*
X172400000Y-60750000D01*
X172550000Y-65350000D02*
X172550000Y-60750000D01*
X172700000Y-65350000D02*
X172700000Y-60750000D01*
X172750000Y-60725000D02*
X170175000Y-60725000D01*
X172750000Y-60725000D02*
X173775000Y-61750000D01*
X172750000Y-65375000D02*
X170150000Y-65375000D01*
X172750000Y-65375000D02*
X173775000Y-64350000D01*
X172850000Y-65250000D02*
X172850000Y-60850000D01*
X173000000Y-65100000D02*
X173000000Y-61000000D01*
X173150000Y-64950000D02*
X173150000Y-61150000D01*
X173300000Y-64800000D02*
X173300000Y-61300000D01*
X173400000Y-64700000D02*
X173400000Y-61400000D01*
X173500000Y-64600000D02*
X173500000Y-61500000D01*
X173600000Y-64500000D02*
X173600000Y-61600000D01*
X173750000Y-61725000D02*
X173750000Y-64375000D01*
X165175000Y-58525000D02*
G75*
G03*
X164175000Y-59525000I-1J-999999D01*
G01*
X164175000Y-62175000D02*
G75*
G03*
X165175000Y-63175000I999999J-1D01*
G01*
X169287801Y-64671904D02*
G75*
G03*
X167150000Y-63175000I-2137802J-778098D01*
G01*
X169287802Y-64671904D02*
G75*
G03*
X170149005Y-65373790I899999J225000D01*
G01*
X169000000Y-59550000D02*
G75*
G03*
X170175000Y-60725000I1175002J2D01*
G01*
%TO.C,SW20*%
X183350000Y-24550000D02*
X183350000Y-20950000D01*
X183500000Y-24750000D02*
X183500000Y-20750000D01*
X183650000Y-24850000D02*
X183650000Y-20650000D01*
X183800000Y-24950000D02*
X183800000Y-20550000D01*
X183950000Y-25000000D02*
X183950000Y-20500000D01*
X184100000Y-25050000D02*
X184100000Y-20500000D01*
X184250000Y-25050000D02*
X184250000Y-20450000D01*
X184400000Y-25050000D02*
X184400000Y-20450000D01*
X184550000Y-25050000D02*
X184550000Y-20450000D01*
X184700000Y-25050000D02*
X184700000Y-20450000D01*
X184850000Y-25050000D02*
X184850000Y-20450000D01*
X185000000Y-25050000D02*
X185000000Y-20450000D01*
X185150000Y-25050000D02*
X185150000Y-20450000D01*
X185300000Y-25050000D02*
X185300000Y-20450000D01*
X185450000Y-25050000D02*
X185450000Y-20450000D01*
X185600000Y-25050000D02*
X185600000Y-20450000D01*
X185750000Y-25050000D02*
X185750000Y-20450000D01*
D12*
X185850000Y-24950000D02*
X185850000Y-20450000D01*
D10*
X185900000Y-25050000D02*
X185900000Y-20450000D01*
X186050000Y-25050000D02*
X186050000Y-20450000D01*
X186200000Y-25050000D02*
X186200000Y-20450000D01*
X186200000Y-25075000D02*
X184225000Y-25075000D01*
X186350000Y-25050000D02*
X186350000Y-20500000D01*
X186500000Y-25100000D02*
X186500000Y-20450000D01*
X186650000Y-25100000D02*
X186650000Y-20450000D01*
X186775000Y-20425000D02*
X184225000Y-20425000D01*
X186775000Y-20425000D02*
X188050000Y-21450000D01*
X186800000Y-25100000D02*
X186800000Y-20500000D01*
X186950000Y-25150000D02*
X186950000Y-20600000D01*
X187100000Y-25250000D02*
X187100000Y-20700000D01*
X187250000Y-25300000D02*
X187250000Y-20850000D01*
X187400000Y-25400000D02*
X187400000Y-20950000D01*
X187550000Y-25500000D02*
X187550000Y-21100000D01*
X187700000Y-25600000D02*
X187700000Y-21200000D01*
X187850000Y-25750000D02*
X187850000Y-21300000D01*
X188000000Y-25900000D02*
X188000000Y-21450000D01*
X188100000Y-26100000D02*
X188100000Y-21950000D01*
X188200000Y-26250000D02*
X188200000Y-22100000D01*
X188300000Y-26450000D02*
X188300000Y-22300000D01*
X188400000Y-26600000D02*
X188400000Y-22400000D01*
X188500000Y-26850000D02*
X188500000Y-22450000D01*
X188600000Y-27000000D02*
X188600000Y-22500000D01*
D12*
X188700000Y-22650000D02*
X185850000Y-24950000D01*
X188700000Y-27000000D02*
X188700000Y-22650000D01*
D10*
X188750000Y-27100000D02*
X188750000Y-22550000D01*
X188900000Y-27200000D02*
X188900000Y-22650000D01*
X189050000Y-27250000D02*
X189050000Y-22650000D01*
X189200000Y-27250000D02*
X189200000Y-22650000D01*
X189350000Y-27250000D02*
X189350000Y-22700000D01*
X189500000Y-27250000D02*
X189500000Y-22650000D01*
X189650000Y-27250000D02*
X189650000Y-22650000D01*
X189800000Y-27250000D02*
X189800000Y-22650000D01*
X189950000Y-27250000D02*
X189950000Y-22650000D01*
X190100000Y-27250000D02*
X190100000Y-22650000D01*
X190250000Y-27250000D02*
X190250000Y-22650000D01*
X190400000Y-27250000D02*
X190400000Y-22650000D01*
X190550000Y-27250000D02*
X190550000Y-22650000D01*
X190700000Y-27250000D02*
X190700000Y-22650000D01*
X190850000Y-27250000D02*
X190850000Y-22650000D01*
X191000000Y-27250000D02*
X191000000Y-22650000D01*
X191150000Y-27250000D02*
X191150000Y-22650000D01*
X191300000Y-27250000D02*
X191300000Y-22650000D01*
D12*
X191400000Y-22700000D02*
X188700000Y-27000000D01*
X191400000Y-27150000D02*
X191400000Y-22700000D01*
D10*
X191450000Y-27250000D02*
X191450000Y-22650000D01*
X191600000Y-27250000D02*
X191600000Y-22650000D01*
X191750000Y-27250000D02*
X191750000Y-22650000D01*
X191800000Y-22625000D02*
X189225000Y-22625000D01*
X191800000Y-22625000D02*
X192825000Y-23650000D01*
X191800000Y-27275000D02*
X189200000Y-27275000D01*
X191800000Y-27275000D02*
X192825000Y-26250000D01*
X191900000Y-27150000D02*
X191900000Y-22750000D01*
X192050000Y-27000000D02*
X192050000Y-22900000D01*
X192200000Y-26850000D02*
X192200000Y-23050000D01*
X192350000Y-26700000D02*
X192350000Y-23200000D01*
X192450000Y-26600000D02*
X192450000Y-23300000D01*
X192550000Y-26500000D02*
X192550000Y-23400000D01*
X192650000Y-26400000D02*
X192650000Y-23500000D01*
X192800000Y-23625000D02*
X192800000Y-26275000D01*
X184225000Y-20425000D02*
G75*
G03*
X183225000Y-21425000I-1J-999999D01*
G01*
X183225000Y-24075000D02*
G75*
G03*
X184225000Y-25075000I999999J-1D01*
G01*
X188337801Y-26571904D02*
G75*
G03*
X186200000Y-25075000I-2137802J-778098D01*
G01*
X188337802Y-26571904D02*
G75*
G03*
X189199005Y-27273790I899999J225000D01*
G01*
X188050000Y-21450000D02*
G75*
G03*
X189225000Y-22625000I1175002J2D01*
G01*
%TO.C,D35*%
X99280000Y-64960000D02*
X99280000Y-66460000D01*
X99280000Y-66460000D02*
X104680000Y-66460000D01*
X101480000Y-65210000D02*
X101480000Y-66210000D01*
X101580000Y-65710000D02*
X102480000Y-65210000D01*
X102480000Y-65210000D02*
X102480000Y-66210000D01*
X102480000Y-66210000D02*
X101580000Y-65710000D01*
X104680000Y-64960000D02*
X99280000Y-64960000D01*
X104680000Y-66460000D02*
X104680000Y-64960000D01*
%TO.C,SW19*%
X164300000Y-24550000D02*
X164300000Y-20950000D01*
X164450000Y-24750000D02*
X164450000Y-20750000D01*
X164600000Y-24850000D02*
X164600000Y-20650000D01*
X164750000Y-24950000D02*
X164750000Y-20550000D01*
X164900000Y-25000000D02*
X164900000Y-20500000D01*
X165050000Y-25050000D02*
X165050000Y-20500000D01*
X165200000Y-25050000D02*
X165200000Y-20450000D01*
X165350000Y-25050000D02*
X165350000Y-20450000D01*
X165500000Y-25050000D02*
X165500000Y-20450000D01*
X165650000Y-25050000D02*
X165650000Y-20450000D01*
X165800000Y-25050000D02*
X165800000Y-20450000D01*
X165950000Y-25050000D02*
X165950000Y-20450000D01*
X166100000Y-25050000D02*
X166100000Y-20450000D01*
X166250000Y-25050000D02*
X166250000Y-20450000D01*
X166400000Y-25050000D02*
X166400000Y-20450000D01*
X166550000Y-25050000D02*
X166550000Y-20450000D01*
X166700000Y-25050000D02*
X166700000Y-20450000D01*
D12*
X166800000Y-24950000D02*
X166800000Y-20450000D01*
D10*
X166850000Y-25050000D02*
X166850000Y-20450000D01*
X167000000Y-25050000D02*
X167000000Y-20450000D01*
X167150000Y-25050000D02*
X167150000Y-20450000D01*
X167150000Y-25075000D02*
X165175000Y-25075000D01*
X167300000Y-25050000D02*
X167300000Y-20500000D01*
X167450000Y-25100000D02*
X167450000Y-20450000D01*
X167600000Y-25100000D02*
X167600000Y-20450000D01*
X167725000Y-20425000D02*
X165175000Y-20425000D01*
X167725000Y-20425000D02*
X169000000Y-21450000D01*
X167750000Y-25100000D02*
X167750000Y-20500000D01*
X167900000Y-25150000D02*
X167900000Y-20600000D01*
X168050000Y-25250000D02*
X168050000Y-20700000D01*
X168200000Y-25300000D02*
X168200000Y-20850000D01*
X168350000Y-25400000D02*
X168350000Y-20950000D01*
X168500000Y-25500000D02*
X168500000Y-21100000D01*
X168650000Y-25600000D02*
X168650000Y-21200000D01*
X168800000Y-25750000D02*
X168800000Y-21300000D01*
X168950000Y-25900000D02*
X168950000Y-21450000D01*
X169050000Y-26100000D02*
X169050000Y-21950000D01*
X169150000Y-26250000D02*
X169150000Y-22100000D01*
X169250000Y-26450000D02*
X169250000Y-22300000D01*
X169350000Y-26600000D02*
X169350000Y-22400000D01*
X169450000Y-26850000D02*
X169450000Y-22450000D01*
X169550000Y-27000000D02*
X169550000Y-22500000D01*
D12*
X169650000Y-22650000D02*
X166800000Y-24950000D01*
X169650000Y-27000000D02*
X169650000Y-22650000D01*
D10*
X169700000Y-27100000D02*
X169700000Y-22550000D01*
X169850000Y-27200000D02*
X169850000Y-22650000D01*
X170000000Y-27250000D02*
X170000000Y-22650000D01*
X170150000Y-27250000D02*
X170150000Y-22650000D01*
X170300000Y-27250000D02*
X170300000Y-22700000D01*
X170450000Y-27250000D02*
X170450000Y-22650000D01*
X170600000Y-27250000D02*
X170600000Y-22650000D01*
X170750000Y-27250000D02*
X170750000Y-22650000D01*
X170900000Y-27250000D02*
X170900000Y-22650000D01*
X171050000Y-27250000D02*
X171050000Y-22650000D01*
X171200000Y-27250000D02*
X171200000Y-22650000D01*
X171350000Y-27250000D02*
X171350000Y-22650000D01*
X171500000Y-27250000D02*
X171500000Y-22650000D01*
X171650000Y-27250000D02*
X171650000Y-22650000D01*
X171800000Y-27250000D02*
X171800000Y-22650000D01*
X171950000Y-27250000D02*
X171950000Y-22650000D01*
X172100000Y-27250000D02*
X172100000Y-22650000D01*
X172250000Y-27250000D02*
X172250000Y-22650000D01*
D12*
X172350000Y-22700000D02*
X169650000Y-27000000D01*
X172350000Y-27150000D02*
X172350000Y-22700000D01*
D10*
X172400000Y-27250000D02*
X172400000Y-22650000D01*
X172550000Y-27250000D02*
X172550000Y-22650000D01*
X172700000Y-27250000D02*
X172700000Y-22650000D01*
X172750000Y-22625000D02*
X170175000Y-22625000D01*
X172750000Y-22625000D02*
X173775000Y-23650000D01*
X172750000Y-27275000D02*
X170150000Y-27275000D01*
X172750000Y-27275000D02*
X173775000Y-26250000D01*
X172850000Y-27150000D02*
X172850000Y-22750000D01*
X173000000Y-27000000D02*
X173000000Y-22900000D01*
X173150000Y-26850000D02*
X173150000Y-23050000D01*
X173300000Y-26700000D02*
X173300000Y-23200000D01*
X173400000Y-26600000D02*
X173400000Y-23300000D01*
X173500000Y-26500000D02*
X173500000Y-23400000D01*
X173600000Y-26400000D02*
X173600000Y-23500000D01*
X173750000Y-23625000D02*
X173750000Y-26275000D01*
X165175000Y-20425000D02*
G75*
G03*
X164175000Y-21425000I-1J-999999D01*
G01*
X164175000Y-24075000D02*
G75*
G03*
X165175000Y-25075000I999999J-1D01*
G01*
X169287801Y-26571904D02*
G75*
G03*
X167150000Y-25075000I-2137802J-778098D01*
G01*
X169287802Y-26571904D02*
G75*
G03*
X170149005Y-27273790I899999J225000D01*
G01*
X169000000Y-21450000D02*
G75*
G03*
X170175000Y-22625000I1175002J2D01*
G01*
%TO.C,D29*%
X175390000Y-45860000D02*
X175390000Y-47360000D01*
X175390000Y-47360000D02*
X180790000Y-47360000D01*
X177590000Y-46110000D02*
X177590000Y-47110000D01*
X177690000Y-46610000D02*
X178590000Y-46110000D01*
X178590000Y-46110000D02*
X178590000Y-47110000D01*
X178590000Y-47110000D02*
X177690000Y-46610000D01*
X180790000Y-45860000D02*
X175390000Y-45860000D01*
X180790000Y-47360000D02*
X180790000Y-45860000D01*
%TO.C,D38*%
X156360000Y-65000000D02*
X156360000Y-66500000D01*
X156360000Y-66500000D02*
X161760000Y-66500000D01*
X158560000Y-65250000D02*
X158560000Y-66250000D01*
X158660000Y-65750000D02*
X159560000Y-65250000D01*
X159560000Y-65250000D02*
X159560000Y-66250000D01*
X159560000Y-66250000D02*
X158660000Y-65750000D01*
X161760000Y-65000000D02*
X156360000Y-65000000D01*
X161760000Y-66500000D02*
X161760000Y-65000000D01*
%TO.C,D9*%
X175410000Y-7830000D02*
X175410000Y-9330000D01*
X175410000Y-9330000D02*
X180810000Y-9330000D01*
X177610000Y-8080000D02*
X177610000Y-9080000D01*
X177710000Y-8580000D02*
X178610000Y-8080000D01*
X178610000Y-8080000D02*
X178610000Y-9080000D01*
X178610000Y-9080000D02*
X177710000Y-8580000D01*
X180810000Y-7830000D02*
X175410000Y-7830000D01*
X180810000Y-9330000D02*
X180810000Y-7830000D01*
%TO.C,D8*%
X143615000Y-7870000D02*
X143615000Y-9370000D01*
X143615000Y-9370000D02*
X149015000Y-9370000D01*
X145815000Y-8120000D02*
X145815000Y-9120000D01*
X145915000Y-8620000D02*
X146815000Y-8120000D01*
X146815000Y-8120000D02*
X146815000Y-9120000D01*
X146815000Y-9120000D02*
X145915000Y-8620000D01*
X149015000Y-7870000D02*
X143615000Y-7870000D01*
X149015000Y-9370000D02*
X149015000Y-7870000D01*
%TO.C,D27*%
X136765000Y-45810000D02*
X136765000Y-47310000D01*
X136765000Y-47310000D02*
X142165000Y-47310000D01*
X138965000Y-46060000D02*
X138965000Y-47060000D01*
X139065000Y-46560000D02*
X139965000Y-46060000D01*
X139965000Y-46060000D02*
X139965000Y-47060000D01*
X139965000Y-47060000D02*
X139065000Y-46560000D01*
X142165000Y-45810000D02*
X136765000Y-45810000D01*
X142165000Y-47310000D02*
X142165000Y-45810000D01*
%TO.C,SW27*%
X126200000Y-43600000D02*
X126200000Y-40000000D01*
X126350000Y-43800000D02*
X126350000Y-39800000D01*
X126500000Y-43900000D02*
X126500000Y-39700000D01*
X126650000Y-44000000D02*
X126650000Y-39600000D01*
X126800000Y-44050000D02*
X126800000Y-39550000D01*
X126950000Y-44100000D02*
X126950000Y-39550000D01*
X127100000Y-44100000D02*
X127100000Y-39500000D01*
X127250000Y-44100000D02*
X127250000Y-39500000D01*
X127400000Y-44100000D02*
X127400000Y-39500000D01*
X127550000Y-44100000D02*
X127550000Y-39500000D01*
X127700000Y-44100000D02*
X127700000Y-39500000D01*
X127850000Y-44100000D02*
X127850000Y-39500000D01*
X128000000Y-44100000D02*
X128000000Y-39500000D01*
X128150000Y-44100000D02*
X128150000Y-39500000D01*
X128300000Y-44100000D02*
X128300000Y-39500000D01*
X128450000Y-44100000D02*
X128450000Y-39500000D01*
X128600000Y-44100000D02*
X128600000Y-39500000D01*
D12*
X128700000Y-44000000D02*
X128700000Y-39500000D01*
D10*
X128750000Y-44100000D02*
X128750000Y-39500000D01*
X128900000Y-44100000D02*
X128900000Y-39500000D01*
X129050000Y-44100000D02*
X129050000Y-39500000D01*
X129050000Y-44125000D02*
X127075000Y-44125000D01*
X129200000Y-44100000D02*
X129200000Y-39550000D01*
X129350000Y-44150000D02*
X129350000Y-39500000D01*
X129500000Y-44150000D02*
X129500000Y-39500000D01*
X129625000Y-39475000D02*
X127075000Y-39475000D01*
X129625000Y-39475000D02*
X130900000Y-40500000D01*
X129650000Y-44150000D02*
X129650000Y-39550000D01*
X129800000Y-44200000D02*
X129800000Y-39650000D01*
X129950000Y-44300000D02*
X129950000Y-39750000D01*
X130100000Y-44350000D02*
X130100000Y-39900000D01*
X130250000Y-44450000D02*
X130250000Y-40000000D01*
X130400000Y-44550000D02*
X130400000Y-40150000D01*
X130550000Y-44650000D02*
X130550000Y-40250000D01*
X130700000Y-44800000D02*
X130700000Y-40350000D01*
X130850000Y-44950000D02*
X130850000Y-40500000D01*
X130950000Y-45150000D02*
X130950000Y-41000000D01*
X131050000Y-45300000D02*
X131050000Y-41150000D01*
X131150000Y-45500000D02*
X131150000Y-41350000D01*
X131250000Y-45650000D02*
X131250000Y-41450000D01*
X131350000Y-45900000D02*
X131350000Y-41500000D01*
X131450000Y-46050000D02*
X131450000Y-41550000D01*
D12*
X131550000Y-41700000D02*
X128700000Y-44000000D01*
X131550000Y-46050000D02*
X131550000Y-41700000D01*
D10*
X131600000Y-46150000D02*
X131600000Y-41600000D01*
X131750000Y-46250000D02*
X131750000Y-41700000D01*
X131900000Y-46300000D02*
X131900000Y-41700000D01*
X132050000Y-46300000D02*
X132050000Y-41700000D01*
X132200000Y-46300000D02*
X132200000Y-41750000D01*
X132350000Y-46300000D02*
X132350000Y-41700000D01*
X132500000Y-46300000D02*
X132500000Y-41700000D01*
X132650000Y-46300000D02*
X132650000Y-41700000D01*
X132800000Y-46300000D02*
X132800000Y-41700000D01*
X132950000Y-46300000D02*
X132950000Y-41700000D01*
X133100000Y-46300000D02*
X133100000Y-41700000D01*
X133250000Y-46300000D02*
X133250000Y-41700000D01*
X133400000Y-46300000D02*
X133400000Y-41700000D01*
X133550000Y-46300000D02*
X133550000Y-41700000D01*
X133700000Y-46300000D02*
X133700000Y-41700000D01*
X133850000Y-46300000D02*
X133850000Y-41700000D01*
X134000000Y-46300000D02*
X134000000Y-41700000D01*
X134150000Y-46300000D02*
X134150000Y-41700000D01*
D12*
X134250000Y-41750000D02*
X131550000Y-46050000D01*
X134250000Y-46200000D02*
X134250000Y-41750000D01*
D10*
X134300000Y-46300000D02*
X134300000Y-41700000D01*
X134450000Y-46300000D02*
X134450000Y-41700000D01*
X134600000Y-46300000D02*
X134600000Y-41700000D01*
X134650000Y-41675000D02*
X132075000Y-41675000D01*
X134650000Y-41675000D02*
X135675000Y-42700000D01*
X134650000Y-46325000D02*
X132050000Y-46325000D01*
X134650000Y-46325000D02*
X135675000Y-45300000D01*
X134750000Y-46200000D02*
X134750000Y-41800000D01*
X134900000Y-46050000D02*
X134900000Y-41950000D01*
X135050000Y-45900000D02*
X135050000Y-42100000D01*
X135200000Y-45750000D02*
X135200000Y-42250000D01*
X135300000Y-45650000D02*
X135300000Y-42350000D01*
X135400000Y-45550000D02*
X135400000Y-42450000D01*
X135500000Y-45450000D02*
X135500000Y-42550000D01*
X135650000Y-42675000D02*
X135650000Y-45325000D01*
X127075000Y-39475000D02*
G75*
G03*
X126075000Y-40475000I-1J-999999D01*
G01*
X126075000Y-43125000D02*
G75*
G03*
X127075000Y-44125000I999999J-1D01*
G01*
X131187801Y-45621904D02*
G75*
G03*
X129050000Y-44125000I-2137802J-778098D01*
G01*
X131187802Y-45621904D02*
G75*
G03*
X132049005Y-46323790I899999J225000D01*
G01*
X130900000Y-40500000D02*
G75*
G03*
X132075000Y-41675000I1175002J2D01*
G01*
%TO.C,D36*%
X118340000Y-64810000D02*
X118340000Y-66310000D01*
X118340000Y-66310000D02*
X123740000Y-66310000D01*
X120540000Y-65060000D02*
X120540000Y-66060000D01*
X120640000Y-65560000D02*
X121540000Y-65060000D01*
X121540000Y-65060000D02*
X121540000Y-66060000D01*
X121540000Y-66060000D02*
X120640000Y-65560000D01*
X123740000Y-64810000D02*
X118340000Y-64810000D01*
X123740000Y-66310000D02*
X123740000Y-64810000D01*
%TO.C,SW16*%
X107150000Y-24550000D02*
X107150000Y-20950000D01*
X107300000Y-24750000D02*
X107300000Y-20750000D01*
X107450000Y-24850000D02*
X107450000Y-20650000D01*
X107600000Y-24950000D02*
X107600000Y-20550000D01*
X107750000Y-25000000D02*
X107750000Y-20500000D01*
X107900000Y-25050000D02*
X107900000Y-20500000D01*
X108050000Y-25050000D02*
X108050000Y-20450000D01*
X108200000Y-25050000D02*
X108200000Y-20450000D01*
X108350000Y-25050000D02*
X108350000Y-20450000D01*
X108500000Y-25050000D02*
X108500000Y-20450000D01*
X108650000Y-25050000D02*
X108650000Y-20450000D01*
X108800000Y-25050000D02*
X108800000Y-20450000D01*
X108950000Y-25050000D02*
X108950000Y-20450000D01*
X109100000Y-25050000D02*
X109100000Y-20450000D01*
X109250000Y-25050000D02*
X109250000Y-20450000D01*
X109400000Y-25050000D02*
X109400000Y-20450000D01*
X109550000Y-25050000D02*
X109550000Y-20450000D01*
D12*
X109650000Y-24950000D02*
X109650000Y-20450000D01*
D10*
X109700000Y-25050000D02*
X109700000Y-20450000D01*
X109850000Y-25050000D02*
X109850000Y-20450000D01*
X110000000Y-25050000D02*
X110000000Y-20450000D01*
X110000000Y-25075000D02*
X108025000Y-25075000D01*
X110150000Y-25050000D02*
X110150000Y-20500000D01*
X110300000Y-25100000D02*
X110300000Y-20450000D01*
X110450000Y-25100000D02*
X110450000Y-20450000D01*
X110575000Y-20425000D02*
X108025000Y-20425000D01*
X110575000Y-20425000D02*
X111850000Y-21450000D01*
X110600000Y-25100000D02*
X110600000Y-20500000D01*
X110750000Y-25150000D02*
X110750000Y-20600000D01*
X110900000Y-25250000D02*
X110900000Y-20700000D01*
X111050000Y-25300000D02*
X111050000Y-20850000D01*
X111200000Y-25400000D02*
X111200000Y-20950000D01*
X111350000Y-25500000D02*
X111350000Y-21100000D01*
X111500000Y-25600000D02*
X111500000Y-21200000D01*
X111650000Y-25750000D02*
X111650000Y-21300000D01*
X111800000Y-25900000D02*
X111800000Y-21450000D01*
X111900000Y-26100000D02*
X111900000Y-21950000D01*
X112000000Y-26250000D02*
X112000000Y-22100000D01*
X112100000Y-26450000D02*
X112100000Y-22300000D01*
X112200000Y-26600000D02*
X112200000Y-22400000D01*
X112300000Y-26850000D02*
X112300000Y-22450000D01*
X112400000Y-27000000D02*
X112400000Y-22500000D01*
D12*
X112500000Y-22650000D02*
X109650000Y-24950000D01*
X112500000Y-27000000D02*
X112500000Y-22650000D01*
D10*
X112550000Y-27100000D02*
X112550000Y-22550000D01*
X112700000Y-27200000D02*
X112700000Y-22650000D01*
X112850000Y-27250000D02*
X112850000Y-22650000D01*
X113000000Y-27250000D02*
X113000000Y-22650000D01*
X113150000Y-27250000D02*
X113150000Y-22700000D01*
X113300000Y-27250000D02*
X113300000Y-22650000D01*
X113450000Y-27250000D02*
X113450000Y-22650000D01*
X113600000Y-27250000D02*
X113600000Y-22650000D01*
X113750000Y-27250000D02*
X113750000Y-22650000D01*
X113900000Y-27250000D02*
X113900000Y-22650000D01*
X114050000Y-27250000D02*
X114050000Y-22650000D01*
X114200000Y-27250000D02*
X114200000Y-22650000D01*
X114350000Y-27250000D02*
X114350000Y-22650000D01*
X114500000Y-27250000D02*
X114500000Y-22650000D01*
X114650000Y-27250000D02*
X114650000Y-22650000D01*
X114800000Y-27250000D02*
X114800000Y-22650000D01*
X114950000Y-27250000D02*
X114950000Y-22650000D01*
X115100000Y-27250000D02*
X115100000Y-22650000D01*
D12*
X115200000Y-22700000D02*
X112500000Y-27000000D01*
X115200000Y-27150000D02*
X115200000Y-22700000D01*
D10*
X115250000Y-27250000D02*
X115250000Y-22650000D01*
X115400000Y-27250000D02*
X115400000Y-22650000D01*
X115550000Y-27250000D02*
X115550000Y-22650000D01*
X115600000Y-22625000D02*
X113025000Y-22625000D01*
X115600000Y-22625000D02*
X116625000Y-23650000D01*
X115600000Y-27275000D02*
X113000000Y-27275000D01*
X115600000Y-27275000D02*
X116625000Y-26250000D01*
X115700000Y-27150000D02*
X115700000Y-22750000D01*
X115850000Y-27000000D02*
X115850000Y-22900000D01*
X116000000Y-26850000D02*
X116000000Y-23050000D01*
X116150000Y-26700000D02*
X116150000Y-23200000D01*
X116250000Y-26600000D02*
X116250000Y-23300000D01*
X116350000Y-26500000D02*
X116350000Y-23400000D01*
X116450000Y-26400000D02*
X116450000Y-23500000D01*
X116600000Y-23625000D02*
X116600000Y-26275000D01*
X108025000Y-20425000D02*
G75*
G03*
X107025000Y-21425000I-1J-999999D01*
G01*
X107025000Y-24075000D02*
G75*
G03*
X108025000Y-25075000I999999J-1D01*
G01*
X112137801Y-26571904D02*
G75*
G03*
X110000000Y-25075000I-2137802J-778098D01*
G01*
X112137802Y-26571904D02*
G75*
G03*
X112999005Y-27273790I899999J225000D01*
G01*
X111850000Y-21450000D02*
G75*
G03*
X113025000Y-22625000I1175002J2D01*
G01*
%TO.C,D16*%
X118180000Y-26820000D02*
X118180000Y-28320000D01*
X118180000Y-28320000D02*
X123580000Y-28320000D01*
X120380000Y-27070000D02*
X120380000Y-28070000D01*
X120480000Y-27570000D02*
X121380000Y-27070000D01*
X121380000Y-27070000D02*
X121380000Y-28070000D01*
X121380000Y-28070000D02*
X120480000Y-27570000D01*
X123580000Y-26820000D02*
X118180000Y-26820000D01*
X123580000Y-28320000D02*
X123580000Y-26820000D01*
%TO.C,D37*%
X137300000Y-65000000D02*
X137300000Y-66500000D01*
X137300000Y-66500000D02*
X142700000Y-66500000D01*
X139500000Y-65250000D02*
X139500000Y-66250000D01*
X139600000Y-65750000D02*
X140500000Y-65250000D01*
X140500000Y-65250000D02*
X140500000Y-66250000D01*
X140500000Y-66250000D02*
X139600000Y-65750000D01*
X142700000Y-65000000D02*
X137300000Y-65000000D01*
X142700000Y-66500000D02*
X142700000Y-65000000D01*
%TO.C,D30*%
X194440000Y-45950000D02*
X194440000Y-47450000D01*
X194440000Y-47450000D02*
X199840000Y-47450000D01*
X196640000Y-46200000D02*
X196640000Y-47200000D01*
X196740000Y-46700000D02*
X197640000Y-46200000D01*
X197640000Y-46200000D02*
X197640000Y-47200000D01*
X197640000Y-47200000D02*
X196740000Y-46700000D01*
X199840000Y-45950000D02*
X194440000Y-45950000D01*
X199840000Y-47450000D02*
X199840000Y-45950000D01*
%TO.C,D40*%
X194430000Y-64950000D02*
X194430000Y-66450000D01*
X194430000Y-66450000D02*
X199830000Y-66450000D01*
X196630000Y-65200000D02*
X196630000Y-66200000D01*
X196730000Y-65700000D02*
X197630000Y-65200000D01*
X197630000Y-65200000D02*
X197630000Y-66200000D01*
X197630000Y-66200000D02*
X196730000Y-65700000D01*
X199830000Y-64950000D02*
X194430000Y-64950000D01*
X199830000Y-66450000D02*
X199830000Y-64950000D01*
%TO.C,SW29*%
X164300000Y-43600000D02*
X164300000Y-40000000D01*
X164450000Y-43800000D02*
X164450000Y-39800000D01*
X164600000Y-43900000D02*
X164600000Y-39700000D01*
X164750000Y-44000000D02*
X164750000Y-39600000D01*
X164900000Y-44050000D02*
X164900000Y-39550000D01*
X165050000Y-44100000D02*
X165050000Y-39550000D01*
X165200000Y-44100000D02*
X165200000Y-39500000D01*
X165350000Y-44100000D02*
X165350000Y-39500000D01*
X165500000Y-44100000D02*
X165500000Y-39500000D01*
X165650000Y-44100000D02*
X165650000Y-39500000D01*
X165800000Y-44100000D02*
X165800000Y-39500000D01*
X165950000Y-44100000D02*
X165950000Y-39500000D01*
X166100000Y-44100000D02*
X166100000Y-39500000D01*
X166250000Y-44100000D02*
X166250000Y-39500000D01*
X166400000Y-44100000D02*
X166400000Y-39500000D01*
X166550000Y-44100000D02*
X166550000Y-39500000D01*
X166700000Y-44100000D02*
X166700000Y-39500000D01*
D12*
X166800000Y-44000000D02*
X166800000Y-39500000D01*
D10*
X166850000Y-44100000D02*
X166850000Y-39500000D01*
X167000000Y-44100000D02*
X167000000Y-39500000D01*
X167150000Y-44100000D02*
X167150000Y-39500000D01*
X167150000Y-44125000D02*
X165175000Y-44125000D01*
X167300000Y-44100000D02*
X167300000Y-39550000D01*
X167450000Y-44150000D02*
X167450000Y-39500000D01*
X167600000Y-44150000D02*
X167600000Y-39500000D01*
X167725000Y-39475000D02*
X165175000Y-39475000D01*
X167725000Y-39475000D02*
X169000000Y-40500000D01*
X167750000Y-44150000D02*
X167750000Y-39550000D01*
X167900000Y-44200000D02*
X167900000Y-39650000D01*
X168050000Y-44300000D02*
X168050000Y-39750000D01*
X168200000Y-44350000D02*
X168200000Y-39900000D01*
X168350000Y-44450000D02*
X168350000Y-40000000D01*
X168500000Y-44550000D02*
X168500000Y-40150000D01*
X168650000Y-44650000D02*
X168650000Y-40250000D01*
X168800000Y-44800000D02*
X168800000Y-40350000D01*
X168950000Y-44950000D02*
X168950000Y-40500000D01*
X169050000Y-45150000D02*
X169050000Y-41000000D01*
X169150000Y-45300000D02*
X169150000Y-41150000D01*
X169250000Y-45500000D02*
X169250000Y-41350000D01*
X169350000Y-45650000D02*
X169350000Y-41450000D01*
X169450000Y-45900000D02*
X169450000Y-41500000D01*
X169550000Y-46050000D02*
X169550000Y-41550000D01*
D12*
X169650000Y-41700000D02*
X166800000Y-44000000D01*
X169650000Y-46050000D02*
X169650000Y-41700000D01*
D10*
X169700000Y-46150000D02*
X169700000Y-41600000D01*
X169850000Y-46250000D02*
X169850000Y-41700000D01*
X170000000Y-46300000D02*
X170000000Y-41700000D01*
X170150000Y-46300000D02*
X170150000Y-41700000D01*
X170300000Y-46300000D02*
X170300000Y-41750000D01*
X170450000Y-46300000D02*
X170450000Y-41700000D01*
X170600000Y-46300000D02*
X170600000Y-41700000D01*
X170750000Y-46300000D02*
X170750000Y-41700000D01*
X170900000Y-46300000D02*
X170900000Y-41700000D01*
X171050000Y-46300000D02*
X171050000Y-41700000D01*
X171200000Y-46300000D02*
X171200000Y-41700000D01*
X171350000Y-46300000D02*
X171350000Y-41700000D01*
X171500000Y-46300000D02*
X171500000Y-41700000D01*
X171650000Y-46300000D02*
X171650000Y-41700000D01*
X171800000Y-46300000D02*
X171800000Y-41700000D01*
X171950000Y-46300000D02*
X171950000Y-41700000D01*
X172100000Y-46300000D02*
X172100000Y-41700000D01*
X172250000Y-46300000D02*
X172250000Y-41700000D01*
D12*
X172350000Y-41750000D02*
X169650000Y-46050000D01*
X172350000Y-46200000D02*
X172350000Y-41750000D01*
D10*
X172400000Y-46300000D02*
X172400000Y-41700000D01*
X172550000Y-46300000D02*
X172550000Y-41700000D01*
X172700000Y-46300000D02*
X172700000Y-41700000D01*
X172750000Y-41675000D02*
X170175000Y-41675000D01*
X172750000Y-41675000D02*
X173775000Y-42700000D01*
X172750000Y-46325000D02*
X170150000Y-46325000D01*
X172750000Y-46325000D02*
X173775000Y-45300000D01*
X172850000Y-46200000D02*
X172850000Y-41800000D01*
X173000000Y-46050000D02*
X173000000Y-41950000D01*
X173150000Y-45900000D02*
X173150000Y-42100000D01*
X173300000Y-45750000D02*
X173300000Y-42250000D01*
X173400000Y-45650000D02*
X173400000Y-42350000D01*
X173500000Y-45550000D02*
X173500000Y-42450000D01*
X173600000Y-45450000D02*
X173600000Y-42550000D01*
X173750000Y-42675000D02*
X173750000Y-45325000D01*
X165175000Y-39475000D02*
G75*
G03*
X164175000Y-40475000I-1J-999999D01*
G01*
X164175000Y-43125000D02*
G75*
G03*
X165175000Y-44125000I999999J-1D01*
G01*
X169287801Y-45621904D02*
G75*
G03*
X167150000Y-44125000I-2137802J-778098D01*
G01*
X169287802Y-45621904D02*
G75*
G03*
X170149005Y-46323790I899999J225000D01*
G01*
X169000000Y-40500000D02*
G75*
G03*
X170175000Y-41675000I1175002J2D01*
G01*
%TO.C,SW8*%
X145250000Y-5500000D02*
X145250000Y-1900000D01*
X145400000Y-5700000D02*
X145400000Y-1700000D01*
X145550000Y-5800000D02*
X145550000Y-1600000D01*
X145700000Y-5900000D02*
X145700000Y-1500000D01*
X145850000Y-5950000D02*
X145850000Y-1450000D01*
X146000000Y-6000000D02*
X146000000Y-1450000D01*
X146150000Y-6000000D02*
X146150000Y-1400000D01*
X146300000Y-6000000D02*
X146300000Y-1400000D01*
X146450000Y-6000000D02*
X146450000Y-1400000D01*
X146600000Y-6000000D02*
X146600000Y-1400000D01*
X146750000Y-6000000D02*
X146750000Y-1400000D01*
X146900000Y-6000000D02*
X146900000Y-1400000D01*
X147050000Y-6000000D02*
X147050000Y-1400000D01*
X147200000Y-6000000D02*
X147200000Y-1400000D01*
X147350000Y-6000000D02*
X147350000Y-1400000D01*
X147500000Y-6000000D02*
X147500000Y-1400000D01*
X147650000Y-6000000D02*
X147650000Y-1400000D01*
D12*
X147750000Y-5900000D02*
X147750000Y-1400000D01*
D10*
X147800000Y-6000000D02*
X147800000Y-1400000D01*
X147950000Y-6000000D02*
X147950000Y-1400000D01*
X148100000Y-6000000D02*
X148100000Y-1400000D01*
X148100000Y-6025000D02*
X146125000Y-6025000D01*
X148250000Y-6000000D02*
X148250000Y-1450000D01*
X148400000Y-6050000D02*
X148400000Y-1400000D01*
X148550000Y-6050000D02*
X148550000Y-1400000D01*
X148675000Y-1375000D02*
X146125000Y-1375000D01*
X148675000Y-1375000D02*
X149950000Y-2400000D01*
X148700000Y-6050000D02*
X148700000Y-1450000D01*
X148850000Y-6100000D02*
X148850000Y-1550000D01*
X149000000Y-6200000D02*
X149000000Y-1650000D01*
X149150000Y-6250000D02*
X149150000Y-1800000D01*
X149300000Y-6350000D02*
X149300000Y-1900000D01*
X149450000Y-6450000D02*
X149450000Y-2050000D01*
X149600000Y-6550000D02*
X149600000Y-2150000D01*
X149750000Y-6700000D02*
X149750000Y-2250000D01*
X149900000Y-6850000D02*
X149900000Y-2400000D01*
X150000000Y-7050000D02*
X150000000Y-2900000D01*
X150100000Y-7200000D02*
X150100000Y-3050000D01*
X150200000Y-7400000D02*
X150200000Y-3250000D01*
X150300000Y-7550000D02*
X150300000Y-3350000D01*
X150400000Y-7800000D02*
X150400000Y-3400000D01*
X150500000Y-7950000D02*
X150500000Y-3450000D01*
D12*
X150600000Y-3600000D02*
X147750000Y-5900000D01*
X150600000Y-7950000D02*
X150600000Y-3600000D01*
D10*
X150650000Y-8050000D02*
X150650000Y-3500000D01*
X150800000Y-8150000D02*
X150800000Y-3600000D01*
X150950000Y-8200000D02*
X150950000Y-3600000D01*
X151100000Y-8200000D02*
X151100000Y-3600000D01*
X151250000Y-8200000D02*
X151250000Y-3650000D01*
X151400000Y-8200000D02*
X151400000Y-3600000D01*
X151550000Y-8200000D02*
X151550000Y-3600000D01*
X151700000Y-8200000D02*
X151700000Y-3600000D01*
X151850000Y-8200000D02*
X151850000Y-3600000D01*
X152000000Y-8200000D02*
X152000000Y-3600000D01*
X152150000Y-8200000D02*
X152150000Y-3600000D01*
X152300000Y-8200000D02*
X152300000Y-3600000D01*
X152450000Y-8200000D02*
X152450000Y-3600000D01*
X152600000Y-8200000D02*
X152600000Y-3600000D01*
X152750000Y-8200000D02*
X152750000Y-3600000D01*
X152900000Y-8200000D02*
X152900000Y-3600000D01*
X153050000Y-8200000D02*
X153050000Y-3600000D01*
X153200000Y-8200000D02*
X153200000Y-3600000D01*
D12*
X153300000Y-3650000D02*
X150600000Y-7950000D01*
X153300000Y-8100000D02*
X153300000Y-3650000D01*
D10*
X153350000Y-8200000D02*
X153350000Y-3600000D01*
X153500000Y-8200000D02*
X153500000Y-3600000D01*
X153650000Y-8200000D02*
X153650000Y-3600000D01*
X153700000Y-3575000D02*
X151125000Y-3575000D01*
X153700000Y-3575000D02*
X154725000Y-4600000D01*
X153700000Y-8225000D02*
X151100000Y-8225000D01*
X153700000Y-8225000D02*
X154725000Y-7200000D01*
X153800000Y-8100000D02*
X153800000Y-3700000D01*
X153950000Y-7950000D02*
X153950000Y-3850000D01*
X154100000Y-7800000D02*
X154100000Y-4000000D01*
X154250000Y-7650000D02*
X154250000Y-4150000D01*
X154350000Y-7550000D02*
X154350000Y-4250000D01*
X154450000Y-7450000D02*
X154450000Y-4350000D01*
X154550000Y-7350000D02*
X154550000Y-4450000D01*
X154700000Y-4575000D02*
X154700000Y-7225000D01*
X146125000Y-1375000D02*
G75*
G03*
X145125000Y-2375000I-1J-999999D01*
G01*
X145125000Y-5025000D02*
G75*
G03*
X146125000Y-6025000I999999J-1D01*
G01*
X150237801Y-7521904D02*
G75*
G03*
X148100000Y-6025000I-2137802J-778098D01*
G01*
X150237802Y-7521904D02*
G75*
G03*
X151099005Y-8223790I899999J225000D01*
G01*
X149950000Y-2400000D02*
G75*
G03*
X151125000Y-3575000I1175002J2D01*
G01*
%TO.C,SW30*%
X183350000Y-43600000D02*
X183350000Y-40000000D01*
X183500000Y-43800000D02*
X183500000Y-39800000D01*
X183650000Y-43900000D02*
X183650000Y-39700000D01*
X183800000Y-44000000D02*
X183800000Y-39600000D01*
X183950000Y-44050000D02*
X183950000Y-39550000D01*
X184100000Y-44100000D02*
X184100000Y-39550000D01*
X184250000Y-44100000D02*
X184250000Y-39500000D01*
X184400000Y-44100000D02*
X184400000Y-39500000D01*
X184550000Y-44100000D02*
X184550000Y-39500000D01*
X184700000Y-44100000D02*
X184700000Y-39500000D01*
X184850000Y-44100000D02*
X184850000Y-39500000D01*
X185000000Y-44100000D02*
X185000000Y-39500000D01*
X185150000Y-44100000D02*
X185150000Y-39500000D01*
X185300000Y-44100000D02*
X185300000Y-39500000D01*
X185450000Y-44100000D02*
X185450000Y-39500000D01*
X185600000Y-44100000D02*
X185600000Y-39500000D01*
X185750000Y-44100000D02*
X185750000Y-39500000D01*
D12*
X185850000Y-44000000D02*
X185850000Y-39500000D01*
D10*
X185900000Y-44100000D02*
X185900000Y-39500000D01*
X186050000Y-44100000D02*
X186050000Y-39500000D01*
X186200000Y-44100000D02*
X186200000Y-39500000D01*
X186200000Y-44125000D02*
X184225000Y-44125000D01*
X186350000Y-44100000D02*
X186350000Y-39550000D01*
X186500000Y-44150000D02*
X186500000Y-39500000D01*
X186650000Y-44150000D02*
X186650000Y-39500000D01*
X186775000Y-39475000D02*
X184225000Y-39475000D01*
X186775000Y-39475000D02*
X188050000Y-40500000D01*
X186800000Y-44150000D02*
X186800000Y-39550000D01*
X186950000Y-44200000D02*
X186950000Y-39650000D01*
X187100000Y-44300000D02*
X187100000Y-39750000D01*
X187250000Y-44350000D02*
X187250000Y-39900000D01*
X187400000Y-44450000D02*
X187400000Y-40000000D01*
X187550000Y-44550000D02*
X187550000Y-40150000D01*
X187700000Y-44650000D02*
X187700000Y-40250000D01*
X187850000Y-44800000D02*
X187850000Y-40350000D01*
X188000000Y-44950000D02*
X188000000Y-40500000D01*
X188100000Y-45150000D02*
X188100000Y-41000000D01*
X188200000Y-45300000D02*
X188200000Y-41150000D01*
X188300000Y-45500000D02*
X188300000Y-41350000D01*
X188400000Y-45650000D02*
X188400000Y-41450000D01*
X188500000Y-45900000D02*
X188500000Y-41500000D01*
X188600000Y-46050000D02*
X188600000Y-41550000D01*
D12*
X188700000Y-41700000D02*
X185850000Y-44000000D01*
X188700000Y-46050000D02*
X188700000Y-41700000D01*
D10*
X188750000Y-46150000D02*
X188750000Y-41600000D01*
X188900000Y-46250000D02*
X188900000Y-41700000D01*
X189050000Y-46300000D02*
X189050000Y-41700000D01*
X189200000Y-46300000D02*
X189200000Y-41700000D01*
X189350000Y-46300000D02*
X189350000Y-41750000D01*
X189500000Y-46300000D02*
X189500000Y-41700000D01*
X189650000Y-46300000D02*
X189650000Y-41700000D01*
X189800000Y-46300000D02*
X189800000Y-41700000D01*
X189950000Y-46300000D02*
X189950000Y-41700000D01*
X190100000Y-46300000D02*
X190100000Y-41700000D01*
X190250000Y-46300000D02*
X190250000Y-41700000D01*
X190400000Y-46300000D02*
X190400000Y-41700000D01*
X190550000Y-46300000D02*
X190550000Y-41700000D01*
X190700000Y-46300000D02*
X190700000Y-41700000D01*
X190850000Y-46300000D02*
X190850000Y-41700000D01*
X191000000Y-46300000D02*
X191000000Y-41700000D01*
X191150000Y-46300000D02*
X191150000Y-41700000D01*
X191300000Y-46300000D02*
X191300000Y-41700000D01*
D12*
X191400000Y-41750000D02*
X188700000Y-46050000D01*
X191400000Y-46200000D02*
X191400000Y-41750000D01*
D10*
X191450000Y-46300000D02*
X191450000Y-41700000D01*
X191600000Y-46300000D02*
X191600000Y-41700000D01*
X191750000Y-46300000D02*
X191750000Y-41700000D01*
X191800000Y-41675000D02*
X189225000Y-41675000D01*
X191800000Y-41675000D02*
X192825000Y-42700000D01*
X191800000Y-46325000D02*
X189200000Y-46325000D01*
X191800000Y-46325000D02*
X192825000Y-45300000D01*
X191900000Y-46200000D02*
X191900000Y-41800000D01*
X192050000Y-46050000D02*
X192050000Y-41950000D01*
X192200000Y-45900000D02*
X192200000Y-42100000D01*
X192350000Y-45750000D02*
X192350000Y-42250000D01*
X192450000Y-45650000D02*
X192450000Y-42350000D01*
X192550000Y-45550000D02*
X192550000Y-42450000D01*
X192650000Y-45450000D02*
X192650000Y-42550000D01*
X192800000Y-42675000D02*
X192800000Y-45325000D01*
X184225000Y-39475000D02*
G75*
G03*
X183225000Y-40475000I-1J-999999D01*
G01*
X183225000Y-43125000D02*
G75*
G03*
X184225000Y-44125000I999999J-1D01*
G01*
X188337801Y-45621904D02*
G75*
G03*
X186200000Y-44125000I-2137802J-778098D01*
G01*
X188337802Y-45621904D02*
G75*
G03*
X189199005Y-46323790I899999J225000D01*
G01*
X188050000Y-40500000D02*
G75*
G03*
X189225000Y-41675000I1175002J2D01*
G01*
%TO.C,SW35*%
X88100000Y-62650000D02*
X88100000Y-59050000D01*
X88250000Y-62850000D02*
X88250000Y-58850000D01*
X88400000Y-62950000D02*
X88400000Y-58750000D01*
X88550000Y-63050000D02*
X88550000Y-58650000D01*
X88700000Y-63100000D02*
X88700000Y-58600000D01*
X88850000Y-63150000D02*
X88850000Y-58600000D01*
X89000000Y-63150000D02*
X89000000Y-58550000D01*
X89150000Y-63150000D02*
X89150000Y-58550000D01*
X89300000Y-63150000D02*
X89300000Y-58550000D01*
X89450000Y-63150000D02*
X89450000Y-58550000D01*
X89600000Y-63150000D02*
X89600000Y-58550000D01*
X89750000Y-63150000D02*
X89750000Y-58550000D01*
X89900000Y-63150000D02*
X89900000Y-58550000D01*
X90050000Y-63150000D02*
X90050000Y-58550000D01*
X90200000Y-63150000D02*
X90200000Y-58550000D01*
X90350000Y-63150000D02*
X90350000Y-58550000D01*
X90500000Y-63150000D02*
X90500000Y-58550000D01*
D12*
X90600000Y-63050000D02*
X90600000Y-58550000D01*
D10*
X90650000Y-63150000D02*
X90650000Y-58550000D01*
X90800000Y-63150000D02*
X90800000Y-58550000D01*
X90950000Y-63150000D02*
X90950000Y-58550000D01*
X90950000Y-63175000D02*
X88975000Y-63175000D01*
X91100000Y-63150000D02*
X91100000Y-58600000D01*
X91250000Y-63200000D02*
X91250000Y-58550000D01*
X91400000Y-63200000D02*
X91400000Y-58550000D01*
X91525000Y-58525000D02*
X88975000Y-58525000D01*
X91525000Y-58525000D02*
X92800000Y-59550000D01*
X91550000Y-63200000D02*
X91550000Y-58600000D01*
X91700000Y-63250000D02*
X91700000Y-58700000D01*
X91850000Y-63350000D02*
X91850000Y-58800000D01*
X92000000Y-63400000D02*
X92000000Y-58950000D01*
X92150000Y-63500000D02*
X92150000Y-59050000D01*
X92300000Y-63600000D02*
X92300000Y-59200000D01*
X92450000Y-63700000D02*
X92450000Y-59300000D01*
X92600000Y-63850000D02*
X92600000Y-59400000D01*
X92750000Y-64000000D02*
X92750000Y-59550000D01*
X92850000Y-64200000D02*
X92850000Y-60050000D01*
X92950000Y-64350000D02*
X92950000Y-60200000D01*
X93050000Y-64550000D02*
X93050000Y-60400000D01*
X93150000Y-64700000D02*
X93150000Y-60500000D01*
X93250000Y-64950000D02*
X93250000Y-60550000D01*
X93350000Y-65100000D02*
X93350000Y-60600000D01*
D12*
X93450000Y-60750000D02*
X90600000Y-63050000D01*
X93450000Y-65100000D02*
X93450000Y-60750000D01*
D10*
X93500000Y-65200000D02*
X93500000Y-60650000D01*
X93650000Y-65300000D02*
X93650000Y-60750000D01*
X93800000Y-65350000D02*
X93800000Y-60750000D01*
X93950000Y-65350000D02*
X93950000Y-60750000D01*
X94100000Y-65350000D02*
X94100000Y-60800000D01*
X94250000Y-65350000D02*
X94250000Y-60750000D01*
X94400000Y-65350000D02*
X94400000Y-60750000D01*
X94550000Y-65350000D02*
X94550000Y-60750000D01*
X94700000Y-65350000D02*
X94700000Y-60750000D01*
X94850000Y-65350000D02*
X94850000Y-60750000D01*
X95000000Y-65350000D02*
X95000000Y-60750000D01*
X95150000Y-65350000D02*
X95150000Y-60750000D01*
X95300000Y-65350000D02*
X95300000Y-60750000D01*
X95450000Y-65350000D02*
X95450000Y-60750000D01*
X95600000Y-65350000D02*
X95600000Y-60750000D01*
X95750000Y-65350000D02*
X95750000Y-60750000D01*
X95900000Y-65350000D02*
X95900000Y-60750000D01*
X96050000Y-65350000D02*
X96050000Y-60750000D01*
D12*
X96150000Y-60800000D02*
X93450000Y-65100000D01*
X96150000Y-65250000D02*
X96150000Y-60800000D01*
D10*
X96200000Y-65350000D02*
X96200000Y-60750000D01*
X96350000Y-65350000D02*
X96350000Y-60750000D01*
X96500000Y-65350000D02*
X96500000Y-60750000D01*
X96550000Y-60725000D02*
X93975000Y-60725000D01*
X96550000Y-60725000D02*
X97575000Y-61750000D01*
X96550000Y-65375000D02*
X93950000Y-65375000D01*
X96550000Y-65375000D02*
X97575000Y-64350000D01*
X96650000Y-65250000D02*
X96650000Y-60850000D01*
X96800000Y-65100000D02*
X96800000Y-61000000D01*
X96950000Y-64950000D02*
X96950000Y-61150000D01*
X97100000Y-64800000D02*
X97100000Y-61300000D01*
X97200000Y-64700000D02*
X97200000Y-61400000D01*
X97300000Y-64600000D02*
X97300000Y-61500000D01*
X97400000Y-64500000D02*
X97400000Y-61600000D01*
X97550000Y-61725000D02*
X97550000Y-64375000D01*
X88975000Y-58525000D02*
G75*
G03*
X87975000Y-59525000I-1J-999999D01*
G01*
X87975000Y-62175000D02*
G75*
G03*
X88975000Y-63175000I999999J-1D01*
G01*
X93087801Y-64671904D02*
G75*
G03*
X90950000Y-63175000I-2137802J-778098D01*
G01*
X93087802Y-64671904D02*
G75*
G03*
X93949005Y-65373790I899999J225000D01*
G01*
X92800000Y-59550000D02*
G75*
G03*
X93975000Y-60725000I1175002J2D01*
G01*
%TO.C,SW18*%
X145250000Y-24550000D02*
X145250000Y-20950000D01*
X145400000Y-24750000D02*
X145400000Y-20750000D01*
X145550000Y-24850000D02*
X145550000Y-20650000D01*
X145700000Y-24950000D02*
X145700000Y-20550000D01*
X145850000Y-25000000D02*
X145850000Y-20500000D01*
X146000000Y-25050000D02*
X146000000Y-20500000D01*
X146150000Y-25050000D02*
X146150000Y-20450000D01*
X146300000Y-25050000D02*
X146300000Y-20450000D01*
X146450000Y-25050000D02*
X146450000Y-20450000D01*
X146600000Y-25050000D02*
X146600000Y-20450000D01*
X146750000Y-25050000D02*
X146750000Y-20450000D01*
X146900000Y-25050000D02*
X146900000Y-20450000D01*
X147050000Y-25050000D02*
X147050000Y-20450000D01*
X147200000Y-25050000D02*
X147200000Y-20450000D01*
X147350000Y-25050000D02*
X147350000Y-20450000D01*
X147500000Y-25050000D02*
X147500000Y-20450000D01*
X147650000Y-25050000D02*
X147650000Y-20450000D01*
D12*
X147750000Y-24950000D02*
X147750000Y-20450000D01*
D10*
X147800000Y-25050000D02*
X147800000Y-20450000D01*
X147950000Y-25050000D02*
X147950000Y-20450000D01*
X148100000Y-25050000D02*
X148100000Y-20450000D01*
X148100000Y-25075000D02*
X146125000Y-25075000D01*
X148250000Y-25050000D02*
X148250000Y-20500000D01*
X148400000Y-25100000D02*
X148400000Y-20450000D01*
X148550000Y-25100000D02*
X148550000Y-20450000D01*
X148675000Y-20425000D02*
X146125000Y-20425000D01*
X148675000Y-20425000D02*
X149950000Y-21450000D01*
X148700000Y-25100000D02*
X148700000Y-20500000D01*
X148850000Y-25150000D02*
X148850000Y-20600000D01*
X149000000Y-25250000D02*
X149000000Y-20700000D01*
X149150000Y-25300000D02*
X149150000Y-20850000D01*
X149300000Y-25400000D02*
X149300000Y-20950000D01*
X149450000Y-25500000D02*
X149450000Y-21100000D01*
X149600000Y-25600000D02*
X149600000Y-21200000D01*
X149750000Y-25750000D02*
X149750000Y-21300000D01*
X149900000Y-25900000D02*
X149900000Y-21450000D01*
X150000000Y-26100000D02*
X150000000Y-21950000D01*
X150100000Y-26250000D02*
X150100000Y-22100000D01*
X150200000Y-26450000D02*
X150200000Y-22300000D01*
X150300000Y-26600000D02*
X150300000Y-22400000D01*
X150400000Y-26850000D02*
X150400000Y-22450000D01*
X150500000Y-27000000D02*
X150500000Y-22500000D01*
D12*
X150600000Y-22650000D02*
X147750000Y-24950000D01*
X150600000Y-27000000D02*
X150600000Y-22650000D01*
D10*
X150650000Y-27100000D02*
X150650000Y-22550000D01*
X150800000Y-27200000D02*
X150800000Y-22650000D01*
X150950000Y-27250000D02*
X150950000Y-22650000D01*
X151100000Y-27250000D02*
X151100000Y-22650000D01*
X151250000Y-27250000D02*
X151250000Y-22700000D01*
X151400000Y-27250000D02*
X151400000Y-22650000D01*
X151550000Y-27250000D02*
X151550000Y-22650000D01*
X151700000Y-27250000D02*
X151700000Y-22650000D01*
X151850000Y-27250000D02*
X151850000Y-22650000D01*
X152000000Y-27250000D02*
X152000000Y-22650000D01*
X152150000Y-27250000D02*
X152150000Y-22650000D01*
X152300000Y-27250000D02*
X152300000Y-22650000D01*
X152450000Y-27250000D02*
X152450000Y-22650000D01*
X152600000Y-27250000D02*
X152600000Y-22650000D01*
X152750000Y-27250000D02*
X152750000Y-22650000D01*
X152900000Y-27250000D02*
X152900000Y-22650000D01*
X153050000Y-27250000D02*
X153050000Y-22650000D01*
X153200000Y-27250000D02*
X153200000Y-22650000D01*
D12*
X153300000Y-22700000D02*
X150600000Y-27000000D01*
X153300000Y-27150000D02*
X153300000Y-22700000D01*
D10*
X153350000Y-27250000D02*
X153350000Y-22650000D01*
X153500000Y-27250000D02*
X153500000Y-22650000D01*
X153650000Y-27250000D02*
X153650000Y-22650000D01*
X153700000Y-22625000D02*
X151125000Y-22625000D01*
X153700000Y-22625000D02*
X154725000Y-23650000D01*
X153700000Y-27275000D02*
X151100000Y-27275000D01*
X153700000Y-27275000D02*
X154725000Y-26250000D01*
X153800000Y-27150000D02*
X153800000Y-22750000D01*
X153950000Y-27000000D02*
X153950000Y-22900000D01*
X154100000Y-26850000D02*
X154100000Y-23050000D01*
X154250000Y-26700000D02*
X154250000Y-23200000D01*
X154350000Y-26600000D02*
X154350000Y-23300000D01*
X154450000Y-26500000D02*
X154450000Y-23400000D01*
X154550000Y-26400000D02*
X154550000Y-23500000D01*
X154700000Y-23625000D02*
X154700000Y-26275000D01*
X146125000Y-20425000D02*
G75*
G03*
X145125000Y-21425000I-1J-999999D01*
G01*
X145125000Y-24075000D02*
G75*
G03*
X146125000Y-25075000I999999J-1D01*
G01*
X150237801Y-26571904D02*
G75*
G03*
X148100000Y-25075000I-2137802J-778098D01*
G01*
X150237802Y-26571904D02*
G75*
G03*
X151099005Y-27273790I899999J225000D01*
G01*
X149950000Y-21450000D02*
G75*
G03*
X151125000Y-22625000I1175002J2D01*
G01*
%TO.C,D28*%
X143030000Y-45920000D02*
X143030000Y-47420000D01*
X143030000Y-47420000D02*
X148430000Y-47420000D01*
X145230000Y-46170000D02*
X145230000Y-47170000D01*
X145330000Y-46670000D02*
X146230000Y-46170000D01*
X146230000Y-46170000D02*
X146230000Y-47170000D01*
X146230000Y-47170000D02*
X145330000Y-46670000D01*
X148430000Y-45920000D02*
X143030000Y-45920000D01*
X148430000Y-47420000D02*
X148430000Y-45920000D01*
%TO.C,SW40*%
X183350000Y-62650000D02*
X183350000Y-59050000D01*
X183500000Y-62850000D02*
X183500000Y-58850000D01*
X183650000Y-62950000D02*
X183650000Y-58750000D01*
X183800000Y-63050000D02*
X183800000Y-58650000D01*
X183950000Y-63100000D02*
X183950000Y-58600000D01*
X184100000Y-63150000D02*
X184100000Y-58600000D01*
X184250000Y-63150000D02*
X184250000Y-58550000D01*
X184400000Y-63150000D02*
X184400000Y-58550000D01*
X184550000Y-63150000D02*
X184550000Y-58550000D01*
X184700000Y-63150000D02*
X184700000Y-58550000D01*
X184850000Y-63150000D02*
X184850000Y-58550000D01*
X185000000Y-63150000D02*
X185000000Y-58550000D01*
X185150000Y-63150000D02*
X185150000Y-58550000D01*
X185300000Y-63150000D02*
X185300000Y-58550000D01*
X185450000Y-63150000D02*
X185450000Y-58550000D01*
X185600000Y-63150000D02*
X185600000Y-58550000D01*
X185750000Y-63150000D02*
X185750000Y-58550000D01*
D12*
X185850000Y-63050000D02*
X185850000Y-58550000D01*
D10*
X185900000Y-63150000D02*
X185900000Y-58550000D01*
X186050000Y-63150000D02*
X186050000Y-58550000D01*
X186200000Y-63150000D02*
X186200000Y-58550000D01*
X186200000Y-63175000D02*
X184225000Y-63175000D01*
X186350000Y-63150000D02*
X186350000Y-58600000D01*
X186500000Y-63200000D02*
X186500000Y-58550000D01*
X186650000Y-63200000D02*
X186650000Y-58550000D01*
X186775000Y-58525000D02*
X184225000Y-58525000D01*
X186775000Y-58525000D02*
X188050000Y-59550000D01*
X186800000Y-63200000D02*
X186800000Y-58600000D01*
X186950000Y-63250000D02*
X186950000Y-58700000D01*
X187100000Y-63350000D02*
X187100000Y-58800000D01*
X187250000Y-63400000D02*
X187250000Y-58950000D01*
X187400000Y-63500000D02*
X187400000Y-59050000D01*
X187550000Y-63600000D02*
X187550000Y-59200000D01*
X187700000Y-63700000D02*
X187700000Y-59300000D01*
X187850000Y-63850000D02*
X187850000Y-59400000D01*
X188000000Y-64000000D02*
X188000000Y-59550000D01*
X188100000Y-64200000D02*
X188100000Y-60050000D01*
X188200000Y-64350000D02*
X188200000Y-60200000D01*
X188300000Y-64550000D02*
X188300000Y-60400000D01*
X188400000Y-64700000D02*
X188400000Y-60500000D01*
X188500000Y-64950000D02*
X188500000Y-60550000D01*
X188600000Y-65100000D02*
X188600000Y-60600000D01*
D12*
X188700000Y-60750000D02*
X185850000Y-63050000D01*
X188700000Y-65100000D02*
X188700000Y-60750000D01*
D10*
X188750000Y-65200000D02*
X188750000Y-60650000D01*
X188900000Y-65300000D02*
X188900000Y-60750000D01*
X189050000Y-65350000D02*
X189050000Y-60750000D01*
X189200000Y-65350000D02*
X189200000Y-60750000D01*
X189350000Y-65350000D02*
X189350000Y-60800000D01*
X189500000Y-65350000D02*
X189500000Y-60750000D01*
X189650000Y-65350000D02*
X189650000Y-60750000D01*
X189800000Y-65350000D02*
X189800000Y-60750000D01*
X189950000Y-65350000D02*
X189950000Y-60750000D01*
X190100000Y-65350000D02*
X190100000Y-60750000D01*
X190250000Y-65350000D02*
X190250000Y-60750000D01*
X190400000Y-65350000D02*
X190400000Y-60750000D01*
X190550000Y-65350000D02*
X190550000Y-60750000D01*
X190700000Y-65350000D02*
X190700000Y-60750000D01*
X190850000Y-65350000D02*
X190850000Y-60750000D01*
X191000000Y-65350000D02*
X191000000Y-60750000D01*
X191150000Y-65350000D02*
X191150000Y-60750000D01*
X191300000Y-65350000D02*
X191300000Y-60750000D01*
D12*
X191400000Y-60800000D02*
X188700000Y-65100000D01*
X191400000Y-65250000D02*
X191400000Y-60800000D01*
D10*
X191450000Y-65350000D02*
X191450000Y-60750000D01*
X191600000Y-65350000D02*
X191600000Y-60750000D01*
X191750000Y-65350000D02*
X191750000Y-60750000D01*
X191800000Y-60725000D02*
X189225000Y-60725000D01*
X191800000Y-60725000D02*
X192825000Y-61750000D01*
X191800000Y-65375000D02*
X189200000Y-65375000D01*
X191800000Y-65375000D02*
X192825000Y-64350000D01*
X191900000Y-65250000D02*
X191900000Y-60850000D01*
X192050000Y-65100000D02*
X192050000Y-61000000D01*
X192200000Y-64950000D02*
X192200000Y-61150000D01*
X192350000Y-64800000D02*
X192350000Y-61300000D01*
X192450000Y-64700000D02*
X192450000Y-61400000D01*
X192550000Y-64600000D02*
X192550000Y-61500000D01*
X192650000Y-64500000D02*
X192650000Y-61600000D01*
X192800000Y-61725000D02*
X192800000Y-64375000D01*
X184225000Y-58525000D02*
G75*
G03*
X183225000Y-59525000I-1J-999999D01*
G01*
X183225000Y-62175000D02*
G75*
G03*
X184225000Y-63175000I999999J-1D01*
G01*
X188337801Y-64671904D02*
G75*
G03*
X186200000Y-63175000I-2137802J-778098D01*
G01*
X188337802Y-64671904D02*
G75*
G03*
X189199005Y-65373790I899999J225000D01*
G01*
X188050000Y-59550000D02*
G75*
G03*
X189225000Y-60725000I1175002J2D01*
G01*
%TO.C,SW28*%
X145250000Y-43600000D02*
X145250000Y-40000000D01*
X145400000Y-43800000D02*
X145400000Y-39800000D01*
X145550000Y-43900000D02*
X145550000Y-39700000D01*
X145700000Y-44000000D02*
X145700000Y-39600000D01*
X145850000Y-44050000D02*
X145850000Y-39550000D01*
X146000000Y-44100000D02*
X146000000Y-39550000D01*
X146150000Y-44100000D02*
X146150000Y-39500000D01*
X146300000Y-44100000D02*
X146300000Y-39500000D01*
X146450000Y-44100000D02*
X146450000Y-39500000D01*
X146600000Y-44100000D02*
X146600000Y-39500000D01*
X146750000Y-44100000D02*
X146750000Y-39500000D01*
X146900000Y-44100000D02*
X146900000Y-39500000D01*
X147050000Y-44100000D02*
X147050000Y-39500000D01*
X147200000Y-44100000D02*
X147200000Y-39500000D01*
X147350000Y-44100000D02*
X147350000Y-39500000D01*
X147500000Y-44100000D02*
X147500000Y-39500000D01*
X147650000Y-44100000D02*
X147650000Y-39500000D01*
D12*
X147750000Y-44000000D02*
X147750000Y-39500000D01*
D10*
X147800000Y-44100000D02*
X147800000Y-39500000D01*
X147950000Y-44100000D02*
X147950000Y-39500000D01*
X148100000Y-44100000D02*
X148100000Y-39500000D01*
X148100000Y-44125000D02*
X146125000Y-44125000D01*
X148250000Y-44100000D02*
X148250000Y-39550000D01*
X148400000Y-44150000D02*
X148400000Y-39500000D01*
X148550000Y-44150000D02*
X148550000Y-39500000D01*
X148675000Y-39475000D02*
X146125000Y-39475000D01*
X148675000Y-39475000D02*
X149950000Y-40500000D01*
X148700000Y-44150000D02*
X148700000Y-39550000D01*
X148850000Y-44200000D02*
X148850000Y-39650000D01*
X149000000Y-44300000D02*
X149000000Y-39750000D01*
X149150000Y-44350000D02*
X149150000Y-39900000D01*
X149300000Y-44450000D02*
X149300000Y-40000000D01*
X149450000Y-44550000D02*
X149450000Y-40150000D01*
X149600000Y-44650000D02*
X149600000Y-40250000D01*
X149750000Y-44800000D02*
X149750000Y-40350000D01*
X149900000Y-44950000D02*
X149900000Y-40500000D01*
X150000000Y-45150000D02*
X150000000Y-41000000D01*
X150100000Y-45300000D02*
X150100000Y-41150000D01*
X150200000Y-45500000D02*
X150200000Y-41350000D01*
X150300000Y-45650000D02*
X150300000Y-41450000D01*
X150400000Y-45900000D02*
X150400000Y-41500000D01*
X150500000Y-46050000D02*
X150500000Y-41550000D01*
D12*
X150600000Y-41700000D02*
X147750000Y-44000000D01*
X150600000Y-46050000D02*
X150600000Y-41700000D01*
D10*
X150650000Y-46150000D02*
X150650000Y-41600000D01*
X150800000Y-46250000D02*
X150800000Y-41700000D01*
X150950000Y-46300000D02*
X150950000Y-41700000D01*
X151100000Y-46300000D02*
X151100000Y-41700000D01*
X151250000Y-46300000D02*
X151250000Y-41750000D01*
X151400000Y-46300000D02*
X151400000Y-41700000D01*
X151550000Y-46300000D02*
X151550000Y-41700000D01*
X151700000Y-46300000D02*
X151700000Y-41700000D01*
X151850000Y-46300000D02*
X151850000Y-41700000D01*
X152000000Y-46300000D02*
X152000000Y-41700000D01*
X152150000Y-46300000D02*
X152150000Y-41700000D01*
X152300000Y-46300000D02*
X152300000Y-41700000D01*
X152450000Y-46300000D02*
X152450000Y-41700000D01*
X152600000Y-46300000D02*
X152600000Y-41700000D01*
X152750000Y-46300000D02*
X152750000Y-41700000D01*
X152900000Y-46300000D02*
X152900000Y-41700000D01*
X153050000Y-46300000D02*
X153050000Y-41700000D01*
X153200000Y-46300000D02*
X153200000Y-41700000D01*
D12*
X153300000Y-41750000D02*
X150600000Y-46050000D01*
X153300000Y-46200000D02*
X153300000Y-41750000D01*
D10*
X153350000Y-46300000D02*
X153350000Y-41700000D01*
X153500000Y-46300000D02*
X153500000Y-41700000D01*
X153650000Y-46300000D02*
X153650000Y-41700000D01*
X153700000Y-41675000D02*
X151125000Y-41675000D01*
X153700000Y-41675000D02*
X154725000Y-42700000D01*
X153700000Y-46325000D02*
X151100000Y-46325000D01*
X153700000Y-46325000D02*
X154725000Y-45300000D01*
X153800000Y-46200000D02*
X153800000Y-41800000D01*
X153950000Y-46050000D02*
X153950000Y-41950000D01*
X154100000Y-45900000D02*
X154100000Y-42100000D01*
X154250000Y-45750000D02*
X154250000Y-42250000D01*
X154350000Y-45650000D02*
X154350000Y-42350000D01*
X154450000Y-45550000D02*
X154450000Y-42450000D01*
X154550000Y-45450000D02*
X154550000Y-42550000D01*
X154700000Y-42675000D02*
X154700000Y-45325000D01*
X146125000Y-39475000D02*
G75*
G03*
X145125000Y-40475000I-1J-999999D01*
G01*
X145125000Y-43125000D02*
G75*
G03*
X146125000Y-44125000I999999J-1D01*
G01*
X150237801Y-45621904D02*
G75*
G03*
X148100000Y-44125000I-2137802J-778098D01*
G01*
X150237802Y-45621904D02*
G75*
G03*
X151099005Y-46323790I899999J225000D01*
G01*
X149950000Y-40500000D02*
G75*
G03*
X151125000Y-41675000I1175002J2D01*
G01*
%TO.C,D7*%
X137310000Y-7890000D02*
X137310000Y-9390000D01*
X137310000Y-9390000D02*
X142710000Y-9390000D01*
X139510000Y-8140000D02*
X139510000Y-9140000D01*
X139610000Y-8640000D02*
X140510000Y-8140000D01*
X140510000Y-8140000D02*
X140510000Y-9140000D01*
X140510000Y-9140000D02*
X139610000Y-8640000D01*
X142710000Y-7890000D02*
X137310000Y-7890000D01*
X142710000Y-9390000D02*
X142710000Y-7890000D01*
%TO.C,SW17*%
X126200000Y-24550000D02*
X126200000Y-20950000D01*
X126350000Y-24750000D02*
X126350000Y-20750000D01*
X126500000Y-24850000D02*
X126500000Y-20650000D01*
X126650000Y-24950000D02*
X126650000Y-20550000D01*
X126800000Y-25000000D02*
X126800000Y-20500000D01*
X126950000Y-25050000D02*
X126950000Y-20500000D01*
X127100000Y-25050000D02*
X127100000Y-20450000D01*
X127250000Y-25050000D02*
X127250000Y-20450000D01*
X127400000Y-25050000D02*
X127400000Y-20450000D01*
X127550000Y-25050000D02*
X127550000Y-20450000D01*
X127700000Y-25050000D02*
X127700000Y-20450000D01*
X127850000Y-25050000D02*
X127850000Y-20450000D01*
X128000000Y-25050000D02*
X128000000Y-20450000D01*
X128150000Y-25050000D02*
X128150000Y-20450000D01*
X128300000Y-25050000D02*
X128300000Y-20450000D01*
X128450000Y-25050000D02*
X128450000Y-20450000D01*
X128600000Y-25050000D02*
X128600000Y-20450000D01*
D12*
X128700000Y-24950000D02*
X128700000Y-20450000D01*
D10*
X128750000Y-25050000D02*
X128750000Y-20450000D01*
X128900000Y-25050000D02*
X128900000Y-20450000D01*
X129050000Y-25050000D02*
X129050000Y-20450000D01*
X129050000Y-25075000D02*
X127075000Y-25075000D01*
X129200000Y-25050000D02*
X129200000Y-20500000D01*
X129350000Y-25100000D02*
X129350000Y-20450000D01*
X129500000Y-25100000D02*
X129500000Y-20450000D01*
X129625000Y-20425000D02*
X127075000Y-20425000D01*
X129625000Y-20425000D02*
X130900000Y-21450000D01*
X129650000Y-25100000D02*
X129650000Y-20500000D01*
X129800000Y-25150000D02*
X129800000Y-20600000D01*
X129950000Y-25250000D02*
X129950000Y-20700000D01*
X130100000Y-25300000D02*
X130100000Y-20850000D01*
X130250000Y-25400000D02*
X130250000Y-20950000D01*
X130400000Y-25500000D02*
X130400000Y-21100000D01*
X130550000Y-25600000D02*
X130550000Y-21200000D01*
X130700000Y-25750000D02*
X130700000Y-21300000D01*
X130850000Y-25900000D02*
X130850000Y-21450000D01*
X130950000Y-26100000D02*
X130950000Y-21950000D01*
X131050000Y-26250000D02*
X131050000Y-22100000D01*
X131150000Y-26450000D02*
X131150000Y-22300000D01*
X131250000Y-26600000D02*
X131250000Y-22400000D01*
X131350000Y-26850000D02*
X131350000Y-22450000D01*
X131450000Y-27000000D02*
X131450000Y-22500000D01*
D12*
X131550000Y-22650000D02*
X128700000Y-24950000D01*
X131550000Y-27000000D02*
X131550000Y-22650000D01*
D10*
X131600000Y-27100000D02*
X131600000Y-22550000D01*
X131750000Y-27200000D02*
X131750000Y-22650000D01*
X131900000Y-27250000D02*
X131900000Y-22650000D01*
X132050000Y-27250000D02*
X132050000Y-22650000D01*
X132200000Y-27250000D02*
X132200000Y-22700000D01*
X132350000Y-27250000D02*
X132350000Y-22650000D01*
X132500000Y-27250000D02*
X132500000Y-22650000D01*
X132650000Y-27250000D02*
X132650000Y-22650000D01*
X132800000Y-27250000D02*
X132800000Y-22650000D01*
X132950000Y-27250000D02*
X132950000Y-22650000D01*
X133100000Y-27250000D02*
X133100000Y-22650000D01*
X133250000Y-27250000D02*
X133250000Y-22650000D01*
X133400000Y-27250000D02*
X133400000Y-22650000D01*
X133550000Y-27250000D02*
X133550000Y-22650000D01*
X133700000Y-27250000D02*
X133700000Y-22650000D01*
X133850000Y-27250000D02*
X133850000Y-22650000D01*
X134000000Y-27250000D02*
X134000000Y-22650000D01*
X134150000Y-27250000D02*
X134150000Y-22650000D01*
D12*
X134250000Y-22700000D02*
X131550000Y-27000000D01*
X134250000Y-27150000D02*
X134250000Y-22700000D01*
D10*
X134300000Y-27250000D02*
X134300000Y-22650000D01*
X134450000Y-27250000D02*
X134450000Y-22650000D01*
X134600000Y-27250000D02*
X134600000Y-22650000D01*
X134650000Y-22625000D02*
X132075000Y-22625000D01*
X134650000Y-22625000D02*
X135675000Y-23650000D01*
X134650000Y-27275000D02*
X132050000Y-27275000D01*
X134650000Y-27275000D02*
X135675000Y-26250000D01*
X134750000Y-27150000D02*
X134750000Y-22750000D01*
X134900000Y-27000000D02*
X134900000Y-22900000D01*
X135050000Y-26850000D02*
X135050000Y-23050000D01*
X135200000Y-26700000D02*
X135200000Y-23200000D01*
X135300000Y-26600000D02*
X135300000Y-23300000D01*
X135400000Y-26500000D02*
X135400000Y-23400000D01*
X135500000Y-26400000D02*
X135500000Y-23500000D01*
X135650000Y-23625000D02*
X135650000Y-26275000D01*
X127075000Y-20425000D02*
G75*
G03*
X126075000Y-21425000I-1J-999999D01*
G01*
X126075000Y-24075000D02*
G75*
G03*
X127075000Y-25075000I999999J-1D01*
G01*
X131187801Y-26571904D02*
G75*
G03*
X129050000Y-25075000I-2137802J-778098D01*
G01*
X131187802Y-26571904D02*
G75*
G03*
X132049005Y-27273790I899999J225000D01*
G01*
X130900000Y-21450000D02*
G75*
G03*
X132075000Y-22625000I1175002J2D01*
G01*
D12*
%TO.C,C1*%
X104138000Y-27674000D02*
X95502000Y-27674000D01*
X104138000Y-24626000D02*
X104138000Y-27674000D01*
X95502000Y-27674000D02*
X95502000Y-24626000D01*
X95502000Y-24626000D02*
X104138000Y-24626000D01*
D10*
%TO.C,BT1*%
X101400000Y-36900000D02*
G75*
G03*
X89400000Y-36900000I-6000000J0D01*
G01*
%TO.C,U2*%
X104008600Y-23548000D02*
X103008600Y-23548000D01*
X104008600Y-22498000D02*
X104008600Y-23548000D01*
X104008600Y9502000D02*
X104008600Y8502000D01*
X104008600Y9502000D02*
X103008600Y9502000D01*
X86208600Y-23548000D02*
X87218600Y-23548000D01*
X86208600Y-22548000D02*
X86208600Y-23548000D01*
X86208600Y9502000D02*
X87158600Y9502000D01*
X86208600Y9502000D02*
X86208600Y8502000D01*
%TD*%
D13*
%TO.C,U2*%
X87497200Y5680000D03*
X87497200Y3140000D03*
X87497200Y600000D03*
X87497200Y-1940000D03*
X87497200Y-4480000D03*
X87497200Y-7020000D03*
X87497200Y-9560000D03*
X87497200Y-12100000D03*
X87497200Y-14640000D03*
X87497200Y-17180000D03*
X87497200Y-19720000D03*
X87497200Y-22260000D03*
X102717200Y-22260000D03*
X102717200Y-19720000D03*
X102717200Y-17180000D03*
X102717200Y-14640000D03*
X102717200Y-12100000D03*
X102717200Y-9560000D03*
X102717200Y-7020000D03*
X102717200Y-4480000D03*
X102717200Y-1940000D03*
X102717200Y600000D03*
X102717200Y3140000D03*
X102717200Y5680000D03*
D14*
X102717200Y8220000D03*
D13*
X87497200Y8220000D03*
%TD*%
M02*
