M48
; DRILL file {KiCad 7.0.8} date 2024 October 11, Friday 08:25:24
; FORMAT={-:-/ absolute / metric / decimal}
; #@! TF.CreationDate,2024-10-11T08:25:24+09:00
; #@! TF.GenerationSoftware,Kicad,Pcbnew,7.0.8
; #@! TF.FileFunction,Plated,1,2,PTH
FMAT,2
METRIC
; #@! TA.AperFunction,Plated,PTH,ComponentDrill
T1C0.300
; #@! TA.AperFunction,Plated,PTH,ViaDrill
T2C0.400
; #@! TA.AperFunction,Plated,PTH,ComponentDrill
T3C0.500
; #@! TA.AperFunction,Plated,PTH,ComponentDrill
T4C0.813
; #@! TA.AperFunction,Plated,PTH,ComponentDrill
T5C1.000
; #@! TA.AperFunction,Plated,PTH,ComponentDrill
T6C1.300
; #@! TA.AperFunction,Plated,PTH,ComponentDrill
T7C1.850
%
G90
G05
T2
X89.65Y-29.15
X92.67Y-11.013
X97.32Y-28.18
X100.75Y-63.78
X100.76Y-60.91
X101.69Y-48.08
X107.37Y-48.08
X107.52Y-11.013
X119.16Y-29.15
X124.81Y-16.16
X137.69Y-48.08
X138.24Y-11.013
X138.27Y-29.15
X140.47Y-31.32
X141.86Y6.75
X143.96Y-48.08
X144.09Y-6.01
X144.56Y-11.013
X157.29Y-29.15
X164.79Y-12.0
X176.2Y-29.15
X176.39Y-10.15
X176.42Y-48.26
X182.19Y2.9
X195.31Y-10.15
X195.36Y-48.26
X195.42Y-29.15
T4
X87.497Y8.22
X87.497Y5.68
X87.497Y3.14
X87.497Y0.6
X87.497Y-1.94
X87.497Y-4.48
X87.497Y-7.02
X87.497Y-9.56
X87.497Y-12.1
X87.497Y-14.64
X87.497Y-17.18
X87.497Y-19.72
X87.497Y-22.26
X102.717Y8.22
X102.717Y5.68
X102.717Y3.14
X102.717Y0.6
X102.717Y-1.94
X102.717Y-4.48
X102.717Y-7.02
X102.717Y-9.56
X102.717Y-12.1
X102.717Y-14.64
X102.717Y-17.18
X102.717Y-19.72
X102.717Y-22.26
T6
X86.49Y-26.3
X92.99Y-26.3
T7
X86.95Y-36.9
X103.85Y-36.9
T1
G00X101.15Y-52.15
M15
G01X100.45Y-52.15
M16
G05
G00X120.2Y5.0
M15
G01X119.5Y5.0
M16
G05
G00X120.2Y-14.05
M15
G01X119.5Y-14.05
M16
G05
G00X120.2Y-33.1
M15
G01X119.5Y-33.1
M16
G05
G00X120.2Y-52.15
M15
G01X119.5Y-52.15
M16
G05
G00X139.25Y5.0
M15
G01X138.55Y5.0
M16
G05
G00X139.25Y-14.05
M15
G01X138.55Y-14.05
M16
G05
G00X139.25Y-33.1
M15
G01X138.55Y-33.1
M16
G05
G00X139.25Y-52.15
M15
G01X138.55Y-52.15
M16
G05
G00X158.3Y5.0
M15
G01X157.6Y5.0
M16
G05
G00X158.3Y-14.05
M15
G01X157.6Y-14.05
M16
G05
G00X158.3Y-33.1
M15
G01X157.6Y-33.1
M16
G05
G00X158.3Y-52.15
M15
G01X157.6Y-52.15
M16
G05
G00X177.35Y5.0
M15
G01X176.65Y5.0
M16
G05
G00X177.35Y-14.05
M15
G01X176.65Y-14.05
M16
G05
G00X177.35Y-33.1
M15
G01X176.65Y-33.1
M16
G05
G00X177.35Y-52.15
M15
G01X176.65Y-52.15
M16
G05
G00X196.4Y-14.05
M15
G01X195.7Y-14.05
M16
G05
G00X196.4Y-33.1
M15
G01X195.7Y-33.1
M16
G05
G00X196.4Y-52.15
M15
G01X195.7Y-52.15
M16
G05
T3
G00X197.48Y7.66
M15
G01X197.48Y7.36
M16
G05
G00X197.48Y5.16
M15
G01X197.48Y4.86
M16
G05
G00X197.48Y2.66
M15
G01X197.48Y2.36
M16
G05
T5
G00X93.02Y-1.62
M15
G01X93.02Y-2.12
M16
G05
G00X97.22Y6.88
M15
G01X97.22Y6.38
M16
G05
G00X97.22Y3.88
M15
G01X97.22Y3.38
M16
G05
G00X97.22Y-0.12
M15
G01X97.22Y-0.62
M16
G05
T0
M30
