%TF.GenerationSoftware,KiCad,Pcbnew,7.0.8*%
%TF.CreationDate,2024-10-11T08:25:21+09:00*%
%TF.ProjectId,cool642r,636f6f6c-3634-4327-922e-6b696361645f,rev?*%
%TF.SameCoordinates,Original*%
%TF.FileFunction,Copper,L2,Bot*%
%TF.FilePolarity,Positive*%
%FSLAX46Y46*%
G04 Gerber Fmt 4.6, Leading zero omitted, Abs format (unit mm)*
G04 Created by KiCad (PCBNEW 7.0.8) date 2024-10-11 08:25:21*
%MOMM*%
%LPD*%
G01*
G04 APERTURE LIST*
%TA.AperFunction,ComponentPad*%
%ADD10O,2.200000X1.500000*%
%TD*%
%TA.AperFunction,SMDPad,CuDef*%
%ADD11R,2.600000X2.600000*%
%TD*%
%TA.AperFunction,ComponentPad*%
%ADD12O,1.700000X2.500000*%
%TD*%
%TA.AperFunction,SMDPad,CuDef*%
%ADD13R,1.300000X0.950000*%
%TD*%
%TA.AperFunction,ComponentPad*%
%ADD14O,1.000000X1.300000*%
%TD*%
%TA.AperFunction,ComponentPad*%
%ADD15C,2.000000*%
%TD*%
%TA.AperFunction,SMDPad,CuDef*%
%ADD16R,3.000000X2.600000*%
%TD*%
%TA.AperFunction,ComponentPad*%
%ADD17C,2.850000*%
%TD*%
%TA.AperFunction,SMDPad,CuDef*%
%ADD18C,10.000000*%
%TD*%
%TA.AperFunction,ComponentPad*%
%ADD19C,1.524000*%
%TD*%
%TA.AperFunction,ComponentPad*%
%ADD20R,1.524000X1.524000*%
%TD*%
%TA.AperFunction,ViaPad*%
%ADD21C,0.800000*%
%TD*%
%TA.AperFunction,Conductor*%
%ADD22C,0.250000*%
%TD*%
G04 APERTURE END LIST*
D10*
%TO.P,SW26,*%
%TO.N,*%
X119850000Y-33100000D03*
D11*
%TO.P,SW26,1,1*%
%TO.N,col5*%
X106000000Y-41800000D03*
%TO.P,SW26,2,2*%
%TO.N,Net-(D26-A)*%
X117600000Y-44000000D03*
%TD*%
D10*
%TO.P,SW38,*%
%TO.N,*%
X157950000Y-52150000D03*
D11*
%TO.P,SW38,1,1*%
%TO.N,col7*%
X144100000Y-60850000D03*
%TO.P,SW38,2,2*%
%TO.N,Net-(D38-A)*%
X155700000Y-63050000D03*
%TD*%
D12*
%TO.P,J1,A*%
%TO.N,unconnected-(J1-PadA)*%
X93020000Y-1870000D03*
%TO.P,J1,B*%
%TO.N,data*%
X97220000Y6630000D03*
%TO.P,J1,C*%
%TO.N,GND*%
X97220000Y3630000D03*
%TO.P,J1,D*%
%TO.N,VCC*%
X97220000Y-370000D03*
%TD*%
D13*
%TO.P,D10,1,K*%
%TO.N,row0*%
X195305000Y-8510000D03*
%TO.P,D10,2,A*%
%TO.N,Net-(D10-A)*%
X198855000Y-8510000D03*
%TD*%
D11*
%TO.P,SW10,1,1*%
%TO.N,col9*%
X182200000Y-3700000D03*
%TO.P,SW10,2,2*%
%TO.N,Net-(D10-A)*%
X193800000Y-5900000D03*
%TD*%
D13*
%TO.P,D19,1,K*%
%TO.N,row1*%
X176255000Y-27590000D03*
%TO.P,D19,2,A*%
%TO.N,Net-(D19-A)*%
X179805000Y-27590000D03*
%TD*%
%TO.P,D17,1,K*%
%TO.N,row1*%
X138175000Y-27600000D03*
%TO.P,D17,2,A*%
%TO.N,Net-(D17-A)*%
X141725000Y-27600000D03*
%TD*%
D10*
%TO.P,SW6,*%
%TO.N,*%
X119850000Y5000000D03*
D11*
%TO.P,SW6,1,1*%
%TO.N,col5*%
X106000000Y-3700000D03*
%TO.P,SW6,2,2*%
%TO.N,Net-(D6-A)*%
X117600000Y-5900000D03*
%TD*%
D13*
%TO.P,D20,1,K*%
%TO.N,row1*%
X195305000Y-27600000D03*
%TO.P,D20,2,A*%
%TO.N,Net-(D20-A)*%
X198855000Y-27600000D03*
%TD*%
D10*
%TO.P,SW9,*%
%TO.N,*%
X177000000Y5000000D03*
D11*
%TO.P,SW9,1,1*%
%TO.N,col8*%
X163150000Y-3700000D03*
%TO.P,SW9,2,2*%
%TO.N,Net-(D9-A)*%
X174750000Y-5900000D03*
%TD*%
D13*
%TO.P,D6,1,K*%
%TO.N,row0*%
X107510000Y-8670000D03*
%TO.P,D6,2,A*%
%TO.N,Net-(D6-A)*%
X111060000Y-8670000D03*
%TD*%
D14*
%TO.P,SW42,1,1*%
%TO.N,Net-(U2-BAT)*%
X197480000Y7510000D03*
%TO.P,SW42,2,2*%
%TO.N,BAT+*%
X197480000Y5010000D03*
%TO.P,SW42,3*%
%TO.N,N/C*%
X197480000Y2510000D03*
%TD*%
D10*
%TO.P,SW37,*%
%TO.N,*%
X138900000Y-52150000D03*
D11*
%TO.P,SW37,1,1*%
%TO.N,col6*%
X125050000Y-60850000D03*
%TO.P,SW37,2,2*%
%TO.N,Net-(D37-A)*%
X136650000Y-63050000D03*
%TD*%
D10*
%TO.P,SW7,*%
%TO.N,*%
X138900000Y5000000D03*
D11*
%TO.P,SW7,1,1*%
%TO.N,col6*%
X125050000Y-3700000D03*
%TO.P,SW7,2,2*%
%TO.N,Net-(D7-A)*%
X136650000Y-5900000D03*
%TD*%
D10*
%TO.P,SW36,*%
%TO.N,*%
X119850000Y-52150000D03*
D11*
%TO.P,SW36,1,1*%
%TO.N,col5*%
X106000000Y-60850000D03*
%TO.P,SW36,2,2*%
%TO.N,Net-(D36-A)*%
X117600000Y-63050000D03*
%TD*%
D13*
%TO.P,D26,1,K*%
%TO.N,row2*%
X107365000Y-46600000D03*
%TO.P,D26,2,A*%
%TO.N,Net-(D26-A)*%
X110915000Y-46600000D03*
%TD*%
D15*
%TO.P,SW41,1,1*%
%TO.N,Net-(U2-BOOT(RST))*%
X92990000Y-26300000D03*
%TO.P,SW41,2,2*%
%TO.N,GND*%
X86490000Y-26300000D03*
%TD*%
D13*
%TO.P,D39,1,K*%
%TO.N,row3*%
X176345000Y-65640000D03*
%TO.P,D39,2,A*%
%TO.N,Net-(D39-A)*%
X179895000Y-65640000D03*
%TD*%
%TO.P,D18,1,K*%
%TO.N,row1*%
X157225000Y-27590000D03*
%TO.P,D18,2,A*%
%TO.N,Net-(D18-A)*%
X160775000Y-27590000D03*
%TD*%
D10*
%TO.P,SW39,*%
%TO.N,*%
X177000000Y-52150000D03*
D11*
%TO.P,SW39,1,1*%
%TO.N,col8*%
X163150000Y-60850000D03*
%TO.P,SW39,2,2*%
%TO.N,Net-(D39-A)*%
X174750000Y-63050000D03*
%TD*%
D10*
%TO.P,SW20,*%
%TO.N,*%
X196050000Y-14050000D03*
D11*
%TO.P,SW20,1,1*%
%TO.N,col9*%
X182200000Y-22750000D03*
%TO.P,SW20,2,2*%
%TO.N,Net-(D20-A)*%
X193800000Y-24950000D03*
%TD*%
D13*
%TO.P,D35,1,K*%
%TO.N,row3*%
X100205000Y-65710000D03*
%TO.P,D35,2,A*%
%TO.N,Net-(D35-A)*%
X103755000Y-65710000D03*
%TD*%
D10*
%TO.P,SW19,*%
%TO.N,*%
X177000000Y-14050000D03*
D11*
%TO.P,SW19,1,1*%
%TO.N,col8*%
X163150000Y-22750000D03*
%TO.P,SW19,2,2*%
%TO.N,Net-(D19-A)*%
X174750000Y-24950000D03*
%TD*%
D13*
%TO.P,D29,1,K*%
%TO.N,row2*%
X176315000Y-46610000D03*
%TO.P,D29,2,A*%
%TO.N,Net-(D29-A)*%
X179865000Y-46610000D03*
%TD*%
%TO.P,D38,1,K*%
%TO.N,row3*%
X157285000Y-65750000D03*
%TO.P,D38,2,A*%
%TO.N,Net-(D38-A)*%
X160835000Y-65750000D03*
%TD*%
%TO.P,D9,1,K*%
%TO.N,row0*%
X176335000Y-8580000D03*
%TO.P,D9,2,A*%
%TO.N,Net-(D9-A)*%
X179885000Y-8580000D03*
%TD*%
%TO.P,D8,1,K*%
%TO.N,row0*%
X144540000Y-8620000D03*
%TO.P,D8,2,A*%
%TO.N,Net-(D8-A)*%
X148090000Y-8620000D03*
%TD*%
%TO.P,D27,1,K*%
%TO.N,row2*%
X137690000Y-46560000D03*
%TO.P,D27,2,A*%
%TO.N,Net-(D27-A)*%
X141240000Y-46560000D03*
%TD*%
D10*
%TO.P,SW27,*%
%TO.N,*%
X138900000Y-33100000D03*
D11*
%TO.P,SW27,1,1*%
%TO.N,col6*%
X125050000Y-41800000D03*
%TO.P,SW27,2,2*%
%TO.N,Net-(D27-A)*%
X136650000Y-44000000D03*
%TD*%
D13*
%TO.P,D36,1,K*%
%TO.N,row3*%
X119265000Y-65560000D03*
%TO.P,D36,2,A*%
%TO.N,Net-(D36-A)*%
X122815000Y-65560000D03*
%TD*%
D10*
%TO.P,SW16,*%
%TO.N,*%
X119850000Y-14050000D03*
D11*
%TO.P,SW16,1,1*%
%TO.N,col5*%
X106000000Y-22750000D03*
%TO.P,SW16,2,2*%
%TO.N,Net-(D16-A)*%
X117600000Y-24950000D03*
%TD*%
D13*
%TO.P,D16,1,K*%
%TO.N,row1*%
X119105000Y-27570000D03*
%TO.P,D16,2,A*%
%TO.N,Net-(D16-A)*%
X122655000Y-27570000D03*
%TD*%
%TO.P,D37,1,K*%
%TO.N,row3*%
X138225000Y-65750000D03*
%TO.P,D37,2,A*%
%TO.N,Net-(D37-A)*%
X141775000Y-65750000D03*
%TD*%
%TO.P,D30,1,K*%
%TO.N,row2*%
X195365000Y-46700000D03*
%TO.P,D30,2,A*%
%TO.N,Net-(D30-A)*%
X198915000Y-46700000D03*
%TD*%
%TO.P,D40,1,K*%
%TO.N,row3*%
X195355000Y-65700000D03*
%TO.P,D40,2,A*%
%TO.N,Net-(D40-A)*%
X198905000Y-65700000D03*
%TD*%
D10*
%TO.P,SW29,*%
%TO.N,*%
X177000000Y-33100000D03*
D11*
%TO.P,SW29,1,1*%
%TO.N,col8*%
X163150000Y-41800000D03*
%TO.P,SW29,2,2*%
%TO.N,Net-(D29-A)*%
X174750000Y-44000000D03*
%TD*%
D10*
%TO.P,SW8,*%
%TO.N,*%
X157950000Y5000000D03*
D11*
%TO.P,SW8,1,1*%
%TO.N,col7*%
X144100000Y-3700000D03*
%TO.P,SW8,2,2*%
%TO.N,Net-(D8-A)*%
X155700000Y-5900000D03*
%TD*%
D10*
%TO.P,SW30,*%
%TO.N,*%
X196050000Y-33100000D03*
D11*
%TO.P,SW30,1,1*%
%TO.N,col9*%
X182200000Y-41800000D03*
%TO.P,SW30,2,2*%
%TO.N,Net-(D30-A)*%
X193800000Y-44000000D03*
%TD*%
D10*
%TO.P,SW35,*%
%TO.N,*%
X100800000Y-52150000D03*
D11*
%TO.P,SW35,1,1*%
%TO.N,col4*%
X86950000Y-60850000D03*
%TO.P,SW35,2,2*%
%TO.N,Net-(D35-A)*%
X98550000Y-63050000D03*
%TD*%
D10*
%TO.P,SW18,*%
%TO.N,*%
X157950000Y-14050000D03*
D11*
%TO.P,SW18,1,1*%
%TO.N,col7*%
X144100000Y-22750000D03*
%TO.P,SW18,2,2*%
%TO.N,Net-(D18-A)*%
X155700000Y-24950000D03*
%TD*%
D13*
%TO.P,D28,1,K*%
%TO.N,row2*%
X143955000Y-46670000D03*
%TO.P,D28,2,A*%
%TO.N,Net-(D28-A)*%
X147505000Y-46670000D03*
%TD*%
D10*
%TO.P,SW40,*%
%TO.N,*%
X196050000Y-52150000D03*
D11*
%TO.P,SW40,1,1*%
%TO.N,col9*%
X182200000Y-60850000D03*
%TO.P,SW40,2,2*%
%TO.N,Net-(D40-A)*%
X193800000Y-63050000D03*
%TD*%
D10*
%TO.P,SW28,*%
%TO.N,*%
X157950000Y-33100000D03*
D11*
%TO.P,SW28,1,1*%
%TO.N,col7*%
X144100000Y-41800000D03*
%TO.P,SW28,2,2*%
%TO.N,Net-(D28-A)*%
X155700000Y-44000000D03*
%TD*%
D13*
%TO.P,D7,1,K*%
%TO.N,row0*%
X138235000Y-8640000D03*
%TO.P,D7,2,A*%
%TO.N,Net-(D7-A)*%
X141785000Y-8640000D03*
%TD*%
D10*
%TO.P,SW17,*%
%TO.N,*%
X138900000Y-14050000D03*
D11*
%TO.P,SW17,1,1*%
%TO.N,col6*%
X125050000Y-22750000D03*
%TO.P,SW17,2,2*%
%TO.N,Net-(D17-A)*%
X136650000Y-24950000D03*
%TD*%
D16*
%TO.P,C1,1*%
%TO.N,BAT+*%
X102320000Y-26150000D03*
%TO.P,C1,2*%
%TO.N,GND*%
X97320000Y-26150000D03*
%TD*%
D17*
%TO.P,BT1,1,+*%
%TO.N,BAT+*%
X86950000Y-36900000D03*
X103850000Y-36900000D03*
D18*
%TO.P,BT1,2,-*%
%TO.N,GND*%
X95400000Y-36900000D03*
%TD*%
D19*
%TO.P,U2,1,PIN1*%
%TO.N,data*%
X87497200Y5680000D03*
%TO.P,U2,2,PIN2*%
%TO.N,unconnected-(U2-PIN2-Pad2)*%
X87497200Y3140000D03*
%TO.P,U2,3,GND*%
%TO.N,GND*%
X87497200Y600000D03*
%TO.P,U2,4,GND*%
X87497200Y-1940000D03*
%TO.P,U2,5,PIN5*%
%TO.N,row0*%
X87497200Y-4480000D03*
%TO.P,U2,6,PIN6*%
%TO.N,row1*%
X87497200Y-7020000D03*
%TO.P,U2,7,PIN7*%
%TO.N,col0*%
X87497200Y-9560000D03*
%TO.P,U2,8,PIN8*%
%TO.N,col1*%
X87497200Y-12100000D03*
%TO.P,U2,9,PIN9*%
%TO.N,col2*%
X87497200Y-14640000D03*
%TO.P,U2,10,PIN10*%
%TO.N,col3*%
X87497200Y-17180000D03*
%TO.P,U2,11,PIN11*%
%TO.N,col4*%
X87497200Y-19720000D03*
%TO.P,U2,12,PIN12*%
%TO.N,unconnected-(U2-PIN12-Pad12)*%
X87497200Y-22260000D03*
%TO.P,U2,13,PIN13*%
%TO.N,unconnected-(U2-PIN13-Pad13)*%
X102717200Y-22260000D03*
%TO.P,U2,14,PIN14*%
%TO.N,row3*%
X102717200Y-19720000D03*
%TO.P,U2,15,PIN15*%
%TO.N,row2*%
X102717200Y-17180000D03*
%TO.P,U2,16,PIN16*%
%TO.N,col5*%
X102717200Y-14640000D03*
%TO.P,U2,17,PIN17*%
%TO.N,col6*%
X102717200Y-12100000D03*
%TO.P,U2,18,PIN18*%
%TO.N,col8*%
X102717200Y-9560000D03*
%TO.P,U2,19,PIN19*%
%TO.N,col7*%
X102717200Y-7020000D03*
%TO.P,U2,20,PIN20*%
%TO.N,col9*%
X102717200Y-4480000D03*
%TO.P,U2,21,+4.3V*%
%TO.N,unconnected-(U2-+4.3V-Pad21)*%
X102717200Y-1940000D03*
%TO.P,U2,22,BOOT(RST)*%
%TO.N,Net-(U2-BOOT(RST))*%
X102717200Y600000D03*
%TO.P,U2,23,GND*%
%TO.N,GND*%
X102717200Y3140000D03*
%TO.P,U2,24,+5V*%
%TO.N,VCC*%
X102717200Y5680000D03*
D20*
%TO.P,U2,25,BAT*%
%TO.N,Net-(U2-BAT)*%
X102717200Y8220000D03*
D19*
%TO.P,U2,26*%
%TO.N,N/C*%
X87497200Y8220000D03*
%TD*%
D21*
%TO.N,row2*%
X143960000Y-48080000D03*
%TO.N,row0*%
X144560000Y-11013000D03*
%TO.N,col7*%
X144090000Y-6010000D03*
%TO.N,col8*%
X164790000Y-12000000D03*
%TO.N,col6*%
X124810000Y-16160000D03*
%TO.N,row0*%
X107520000Y-11013000D03*
X138240000Y-11013000D03*
%TO.N,row2*%
X137690000Y-48080000D03*
X107370000Y-48080000D03*
%TO.N,BAT+*%
X140470000Y-31320000D03*
X141860000Y6750000D03*
%TO.N,GND*%
X97320000Y-28180000D03*
%TO.N,row0*%
X92670000Y-11013000D03*
X176390000Y-10150000D03*
X195310000Y-10150000D03*
%TO.N,row1*%
X138270000Y-29150000D03*
X89650000Y-29150000D03*
X119160000Y-29150000D03*
X157290000Y-29150000D03*
X195420000Y-29150000D03*
X176200000Y-29150000D03*
%TO.N,row2*%
X195360000Y-48260000D03*
X176420000Y-48260000D03*
X101690000Y-48080000D03*
%TO.N,row3*%
X100760000Y-60910000D03*
X100750000Y-63780000D03*
%TO.N,col9*%
X182190000Y2900000D03*
%TD*%
D22*
%TO.N,row3*%
X102717200Y-19720000D02*
X100495000Y-21942200D01*
X101520000Y-40260000D02*
X98670000Y-43110000D01*
X100495000Y-21942200D02*
X100495000Y-34466093D01*
X100495000Y-34466093D02*
X101520000Y-35491093D01*
X101520000Y-35491093D02*
X101520000Y-40260000D01*
X98670000Y-43110000D02*
X98670000Y-58820000D01*
X98670000Y-58820000D02*
X100760000Y-60910000D01*
%TO.N,col5*%
X106000000Y-14510000D02*
X106000000Y-14640000D01*
X106000000Y-3700000D02*
X106000000Y-14510000D01*
X106000000Y-14510000D02*
X106000000Y-22750000D01*
%TO.N,row2*%
X143955000Y-48075000D02*
X143960000Y-48080000D01*
X143955000Y-46670000D02*
X143955000Y-48075000D01*
%TO.N,col7*%
X144100000Y-41800000D02*
X142500000Y-43400000D01*
X142500000Y-43400000D02*
X142500000Y-53487406D01*
X142500000Y-53487406D02*
X144100000Y-55087405D01*
X144100000Y-55087405D02*
X144100000Y-60850000D01*
%TO.N,Net-(D28-A)*%
X147505000Y-46670000D02*
X153030000Y-46670000D01*
X153030000Y-46670000D02*
X155700000Y-44000000D01*
%TO.N,col8*%
X163150000Y-41800000D02*
X163150000Y-45050000D01*
X163150000Y-45050000D02*
X165520000Y-47420000D01*
X165520000Y-47420000D02*
X165520000Y-49060000D01*
X165520000Y-49060000D02*
X163150000Y-51430000D01*
X163150000Y-51430000D02*
X163150000Y-60850000D01*
%TO.N,Net-(D8-A)*%
X148090000Y-8620000D02*
X152980000Y-8620000D01*
X152980000Y-8620000D02*
X155700000Y-5900000D01*
%TO.N,row0*%
X144540000Y-8620000D02*
X144540000Y-10993000D01*
X144540000Y-10993000D02*
X144560000Y-11013000D01*
%TO.N,col7*%
X144090000Y-6010000D02*
X143220000Y-6880000D01*
X143220000Y-6880000D02*
X143220000Y-19260000D01*
X143220000Y-19260000D02*
X144100000Y-20140000D01*
%TO.N,BAT+*%
X141860000Y6750000D02*
X140420000Y5310000D01*
X140420000Y-23010000D02*
X143530000Y-26120000D01*
X140420000Y5310000D02*
X140420000Y-4410000D01*
X140420000Y-4410000D02*
X142760000Y-6750000D01*
X142760000Y-6750000D02*
X142760000Y-11960000D01*
X143530000Y-26120000D02*
X143530000Y-28260000D01*
X142760000Y-11960000D02*
X140420000Y-14300000D01*
X140420000Y-14300000D02*
X140420000Y-23010000D01*
X143530000Y-28260000D02*
X140470000Y-31320000D01*
%TO.N,col7*%
X144100000Y-3700000D02*
X144100000Y-6000000D01*
X144100000Y-6000000D02*
X144090000Y-6010000D01*
%TO.N,col8*%
X164790000Y-7820000D02*
X164790000Y-12000000D01*
X164790000Y-12000000D02*
X164790000Y-13420000D01*
X163150000Y-6180000D02*
X164790000Y-7820000D01*
X164790000Y-13420000D02*
X163150000Y-15060000D01*
X163150000Y-3700000D02*
X163150000Y-6180000D01*
X163150000Y-22750000D02*
X163150000Y-15060000D01*
%TO.N,col6*%
X125050000Y-7150000D02*
X126440000Y-8540000D01*
X126440000Y-14530000D02*
X124810000Y-16160000D01*
X125050000Y-3700000D02*
X125050000Y-7150000D01*
X126440000Y-8540000D02*
X126440000Y-14530000D01*
X124810000Y-22510000D02*
X124810000Y-16160000D01*
%TO.N,row0*%
X107510000Y-8670000D02*
X107510000Y-11003000D01*
X107510000Y-11003000D02*
X107520000Y-11013000D01*
%TO.N,Net-(D6-A)*%
X111060000Y-8670000D02*
X114830000Y-8670000D01*
X114830000Y-8670000D02*
X117600000Y-5900000D01*
%TO.N,row0*%
X138235000Y-11008000D02*
X138240000Y-11013000D01*
X138235000Y-8640000D02*
X138235000Y-11008000D01*
%TO.N,Net-(D7-A)*%
X136650000Y-5900000D02*
X139045000Y-5900000D01*
X139045000Y-5900000D02*
X141785000Y-8640000D01*
%TO.N,row2*%
X137690000Y-46560000D02*
X137690000Y-48080000D01*
X107365000Y-46600000D02*
X107365000Y-48075000D01*
X107365000Y-48075000D02*
X107370000Y-48080000D01*
%TO.N,col6*%
X125050000Y-44560000D02*
X126630000Y-46140000D01*
X125050000Y-41800000D02*
X125050000Y-44560000D01*
X124700000Y-60500000D02*
X124700000Y-52170000D01*
X126630000Y-46140000D02*
X126630000Y-50240000D01*
X126630000Y-50240000D02*
X124700000Y-52170000D01*
%TO.N,Net-(D26-A)*%
X110915000Y-46600000D02*
X115000000Y-46600000D01*
X115000000Y-46600000D02*
X117600000Y-44000000D01*
%TO.N,Net-(D27-A)*%
X136650000Y-44000000D02*
X138680000Y-44000000D01*
X138680000Y-44000000D02*
X141240000Y-46560000D01*
%TO.N,BAT+*%
X102320000Y-26150000D02*
X102320000Y-35370000D01*
X102320000Y-35370000D02*
X103850000Y-36900000D01*
%TO.N,GND*%
X97320000Y-34980000D02*
X95400000Y-36900000D01*
X85782893Y-25592893D02*
X85782893Y-3654307D01*
X85782893Y-3654307D02*
X87497200Y-1940000D01*
X97320000Y-28180000D02*
X97320000Y-34980000D01*
X87497200Y600000D02*
X87497200Y-1940000D01*
X97170000Y-26300000D02*
X97320000Y-26150000D01*
X97320000Y-26150000D02*
X97320000Y-28180000D01*
X86490000Y-26300000D02*
X85782893Y-25592893D01*
%TO.N,row0*%
X195305000Y-8510000D02*
X195305000Y-10145000D01*
X92000000Y-4480000D02*
X92670000Y-5150000D01*
X176335000Y-10095000D02*
X176390000Y-10150000D01*
X92670000Y-5150000D02*
X92670000Y-11013000D01*
X87497200Y-4480000D02*
X92000000Y-4480000D01*
X195305000Y-10145000D02*
X195310000Y-10150000D01*
X176335000Y-8580000D02*
X176335000Y-10095000D01*
%TO.N,Net-(D9-A)*%
X174750000Y-5900000D02*
X177205000Y-5900000D01*
X177205000Y-5900000D02*
X179885000Y-8580000D01*
%TO.N,Net-(D10-A)*%
X193800000Y-5900000D02*
X196245000Y-5900000D01*
X196245000Y-5900000D02*
X198855000Y-8510000D01*
%TO.N,row1*%
X89650000Y-9172800D02*
X89650000Y-29150000D01*
X119105000Y-27570000D02*
X119105000Y-29095000D01*
X195305000Y-27600000D02*
X195305000Y-29035000D01*
X195305000Y-29035000D02*
X195420000Y-29150000D01*
X138175000Y-27600000D02*
X138175000Y-29055000D01*
X119105000Y-29095000D02*
X119160000Y-29150000D01*
X138175000Y-29055000D02*
X138270000Y-29150000D01*
X157225000Y-27590000D02*
X157225000Y-29085000D01*
X87497200Y-7020000D02*
X89650000Y-9172800D01*
X176255000Y-27590000D02*
X176255000Y-29095000D01*
X176255000Y-29095000D02*
X176200000Y-29150000D01*
X157225000Y-29085000D02*
X157290000Y-29150000D01*
%TO.N,Net-(D16-A)*%
X117600000Y-24950000D02*
X120035000Y-24950000D01*
X120035000Y-24950000D02*
X122655000Y-27570000D01*
%TO.N,Net-(D17-A)*%
X136650000Y-24950000D02*
X139075000Y-24950000D01*
X139075000Y-24950000D02*
X141725000Y-27600000D01*
%TO.N,Net-(D18-A)*%
X155700000Y-24950000D02*
X158135000Y-24950000D01*
X158135000Y-24950000D02*
X160775000Y-27590000D01*
%TO.N,Net-(D19-A)*%
X174750000Y-24950000D02*
X177165000Y-24950000D01*
X177165000Y-24950000D02*
X179805000Y-27590000D01*
%TO.N,Net-(D20-A)*%
X193800000Y-24950000D02*
X196205000Y-24950000D01*
X196205000Y-24950000D02*
X198855000Y-27600000D01*
%TO.N,row2*%
X195365000Y-48255000D02*
X195360000Y-48260000D01*
X176420000Y-46715000D02*
X176315000Y-46610000D01*
X105600000Y-34420000D02*
X105600000Y-39140380D01*
X101750000Y-42990380D02*
X101750000Y-48020000D01*
X104375000Y-18837800D02*
X104375000Y-33195000D01*
X104375000Y-33195000D02*
X105600000Y-34420000D01*
X176420000Y-48260000D02*
X176420000Y-46715000D01*
X195365000Y-46700000D02*
X195365000Y-48255000D01*
X101750000Y-48020000D02*
X101690000Y-48080000D01*
X105600000Y-39140380D02*
X101750000Y-42990380D01*
X102717200Y-17180000D02*
X104375000Y-18837800D01*
%TO.N,row3*%
X177145000Y-66440000D02*
X194615000Y-66440000D01*
X120065000Y-66360000D02*
X137615000Y-66360000D01*
X175435000Y-66550000D02*
X158085000Y-66550000D01*
X139025000Y-66550000D02*
X156485000Y-66550000D01*
X137615000Y-66360000D02*
X138225000Y-65750000D01*
X119265000Y-65560000D02*
X120065000Y-66360000D01*
X100205000Y-65710000D02*
X101005000Y-66510000D01*
X176345000Y-65640000D02*
X177145000Y-66440000D01*
X118315000Y-66510000D02*
X119265000Y-65560000D01*
X158085000Y-66550000D02*
X157285000Y-65750000D01*
X194615000Y-66440000D02*
X195355000Y-65700000D01*
X100205000Y-64325000D02*
X100750000Y-63780000D01*
X176345000Y-65640000D02*
X175435000Y-66550000D01*
X156485000Y-66550000D02*
X157285000Y-65750000D01*
X101005000Y-66510000D02*
X118315000Y-66510000D01*
X138225000Y-65750000D02*
X139025000Y-66550000D01*
X100205000Y-65710000D02*
X100205000Y-64325000D01*
X137435000Y-66540000D02*
X138225000Y-65750000D01*
%TO.N,Net-(D29-A)*%
X174750000Y-44000000D02*
X177255000Y-44000000D01*
X177255000Y-44000000D02*
X179865000Y-46610000D01*
%TO.N,Net-(D30-A)*%
X193800000Y-44000000D02*
X196215000Y-44000000D01*
X196215000Y-44000000D02*
X198915000Y-46700000D01*
%TO.N,Net-(D35-A)*%
X103755000Y-65710000D02*
X101095000Y-63050000D01*
X101095000Y-63050000D02*
X98550000Y-63050000D01*
%TO.N,Net-(D36-A)*%
X120305000Y-63050000D02*
X117600000Y-63050000D01*
X122815000Y-65560000D02*
X120305000Y-63050000D01*
X117975000Y-63425000D02*
X117600000Y-63050000D01*
%TO.N,Net-(D37-A)*%
X139075000Y-63050000D02*
X141775000Y-65750000D01*
X136650000Y-63050000D02*
X139075000Y-63050000D01*
%TO.N,Net-(D38-A)*%
X158135000Y-63050000D02*
X160835000Y-65750000D01*
X155700000Y-63050000D02*
X158135000Y-63050000D01*
%TO.N,Net-(D39-A)*%
X179755000Y-65640000D02*
X177165000Y-63050000D01*
X174750000Y-63050000D02*
X177165000Y-63050000D01*
X179895000Y-65640000D02*
X179755000Y-65640000D01*
%TO.N,Net-(D40-A)*%
X196255000Y-63050000D02*
X198905000Y-65700000D01*
X193800000Y-63050000D02*
X196255000Y-63050000D01*
%TO.N,col4*%
X85200000Y-59100000D02*
X85200000Y-29463834D01*
X88584200Y-20807000D02*
X87497200Y-19720000D01*
X86950000Y-60850000D02*
X85200000Y-59100000D01*
X85200000Y-29463834D02*
X88584200Y-26079634D01*
X88584200Y-26079634D02*
X88584200Y-20807000D01*
%TO.N,col5*%
X106000000Y-60850000D02*
X106000000Y-41800000D01*
X106000000Y-41800000D02*
X106000000Y-39850000D01*
X107250000Y-38600000D02*
X107250000Y-28220000D01*
X102717200Y-14640000D02*
X106000000Y-14640000D01*
X107250000Y-28220000D02*
X106000000Y-26970000D01*
X106000000Y-26970000D02*
X106000000Y-22750000D01*
X106000000Y-39850000D02*
X107250000Y-38600000D01*
%TO.N,col6*%
X125050000Y-41800000D02*
X125050000Y-22750000D01*
X125050000Y-60850000D02*
X124700000Y-60500000D01*
X125050000Y-22750000D02*
X124810000Y-22510000D01*
%TO.N,col7*%
X144100000Y-22750000D02*
X144100000Y-41800000D01*
X144100000Y-20140000D02*
X144100000Y-22750000D01*
%TO.N,col8*%
X163150000Y-41800000D02*
X163150000Y-22750000D01*
%TO.N,col9*%
X182200000Y2890000D02*
X182200000Y-3700000D01*
X182200000Y-3700000D02*
X182200000Y-22750000D01*
X182190000Y2900000D02*
X182200000Y2890000D01*
X182200000Y-41800000D02*
X182200000Y-60850000D01*
X182200000Y-22750000D02*
X182200000Y-41800000D01*
%TO.N,Net-(U2-BOOT(RST))*%
X97910000Y-21380000D02*
X97910000Y-4207200D01*
X97910000Y-4207200D02*
X102717200Y600000D01*
X92990000Y-26300000D02*
X97910000Y-21380000D01*
%TO.N,VCC*%
X102717200Y5680000D02*
X97220000Y182800D01*
X97220000Y182800D02*
X97220000Y-370000D01*
%TO.N,data*%
X96270000Y5680000D02*
X87497200Y5680000D01*
X97220000Y6630000D02*
X96270000Y5680000D01*
%TD*%
M02*
