%TF.GenerationSoftware,KiCad,Pcbnew,7.0.8*%
%TF.CreationDate,2024-10-11T08:32:43+09:00*%
%TF.ProjectId,cool642,636f6f6c-3634-4322-9e6b-696361645f70,rev?*%
%TF.SameCoordinates,Original*%
%TF.FileFunction,Legend,Top*%
%TF.FilePolarity,Positive*%
%FSLAX46Y46*%
G04 Gerber Fmt 4.6, Leading zero omitted, Abs format (unit mm)*
G04 Created by KiCad (PCBNEW 7.0.8) date 2024-10-11 08:32:43*
%MOMM*%
%LPD*%
G01*
G04 APERTURE LIST*
%ADD10C,0.150000*%
%ADD11C,0.125000*%
%ADD12O,2.200000X1.500000*%
%ADD13C,2.000000*%
%ADD14C,1.524000*%
%ADD15R,1.524000X1.524000*%
G04 APERTURE END LIST*
D10*
X88287618Y-26754819D02*
X87954285Y-26278628D01*
X87716190Y-26754819D02*
X87716190Y-25754819D01*
X87716190Y-25754819D02*
X88097142Y-25754819D01*
X88097142Y-25754819D02*
X88192380Y-25802438D01*
X88192380Y-25802438D02*
X88239999Y-25850057D01*
X88239999Y-25850057D02*
X88287618Y-25945295D01*
X88287618Y-25945295D02*
X88287618Y-26088152D01*
X88287618Y-26088152D02*
X88239999Y-26183390D01*
X88239999Y-26183390D02*
X88192380Y-26231009D01*
X88192380Y-26231009D02*
X88097142Y-26278628D01*
X88097142Y-26278628D02*
X87716190Y-26278628D01*
X88716190Y-26231009D02*
X89049523Y-26231009D01*
X89192380Y-26754819D02*
X88716190Y-26754819D01*
X88716190Y-26754819D02*
X88716190Y-25754819D01*
X88716190Y-25754819D02*
X89192380Y-25754819D01*
X89573333Y-26707200D02*
X89716190Y-26754819D01*
X89716190Y-26754819D02*
X89954285Y-26754819D01*
X89954285Y-26754819D02*
X90049523Y-26707200D01*
X90049523Y-26707200D02*
X90097142Y-26659580D01*
X90097142Y-26659580D02*
X90144761Y-26564342D01*
X90144761Y-26564342D02*
X90144761Y-26469104D01*
X90144761Y-26469104D02*
X90097142Y-26373866D01*
X90097142Y-26373866D02*
X90049523Y-26326247D01*
X90049523Y-26326247D02*
X89954285Y-26278628D01*
X89954285Y-26278628D02*
X89763809Y-26231009D01*
X89763809Y-26231009D02*
X89668571Y-26183390D01*
X89668571Y-26183390D02*
X89620952Y-26135771D01*
X89620952Y-26135771D02*
X89573333Y-26040533D01*
X89573333Y-26040533D02*
X89573333Y-25945295D01*
X89573333Y-25945295D02*
X89620952Y-25850057D01*
X89620952Y-25850057D02*
X89668571Y-25802438D01*
X89668571Y-25802438D02*
X89763809Y-25754819D01*
X89763809Y-25754819D02*
X90001904Y-25754819D01*
X90001904Y-25754819D02*
X90144761Y-25802438D01*
X90573333Y-26231009D02*
X90906666Y-26231009D01*
X91049523Y-26754819D02*
X90573333Y-26754819D01*
X90573333Y-26754819D02*
X90573333Y-25754819D01*
X90573333Y-25754819D02*
X91049523Y-25754819D01*
X91335238Y-25754819D02*
X91906666Y-25754819D01*
X91620952Y-26754819D02*
X91620952Y-25754819D01*
X92518095Y4055180D02*
X93089523Y4055180D01*
X92803809Y3055180D02*
X92803809Y4055180D01*
X93994285Y3055180D02*
X93660952Y3531371D01*
X93422857Y3055180D02*
X93422857Y4055180D01*
X93422857Y4055180D02*
X93803809Y4055180D01*
X93803809Y4055180D02*
X93899047Y4007561D01*
X93899047Y4007561D02*
X93946666Y3959942D01*
X93946666Y3959942D02*
X93994285Y3864704D01*
X93994285Y3864704D02*
X93994285Y3721847D01*
X93994285Y3721847D02*
X93946666Y3626609D01*
X93946666Y3626609D02*
X93899047Y3578990D01*
X93899047Y3578990D02*
X93803809Y3531371D01*
X93803809Y3531371D02*
X93422857Y3531371D01*
X94994285Y3055180D02*
X94660952Y3531371D01*
X94422857Y3055180D02*
X94422857Y4055180D01*
X94422857Y4055180D02*
X94803809Y4055180D01*
X94803809Y4055180D02*
X94899047Y4007561D01*
X94899047Y4007561D02*
X94946666Y3959942D01*
X94946666Y3959942D02*
X94994285Y3864704D01*
X94994285Y3864704D02*
X94994285Y3721847D01*
X94994285Y3721847D02*
X94946666Y3626609D01*
X94946666Y3626609D02*
X94899047Y3578990D01*
X94899047Y3578990D02*
X94803809Y3531371D01*
X94803809Y3531371D02*
X94422857Y3531371D01*
X95375238Y3102800D02*
X95518095Y3055180D01*
X95518095Y3055180D02*
X95756190Y3055180D01*
X95756190Y3055180D02*
X95851428Y3102800D01*
X95851428Y3102800D02*
X95899047Y3150419D01*
X95899047Y3150419D02*
X95946666Y3245657D01*
X95946666Y3245657D02*
X95946666Y3340895D01*
X95946666Y3340895D02*
X95899047Y3436133D01*
X95899047Y3436133D02*
X95851428Y3483752D01*
X95851428Y3483752D02*
X95756190Y3531371D01*
X95756190Y3531371D02*
X95565714Y3578990D01*
X95565714Y3578990D02*
X95470476Y3626609D01*
X95470476Y3626609D02*
X95422857Y3674228D01*
X95422857Y3674228D02*
X95375238Y3769466D01*
X95375238Y3769466D02*
X95375238Y3864704D01*
X95375238Y3864704D02*
X95422857Y3959942D01*
X95422857Y3959942D02*
X95470476Y4007561D01*
X95470476Y4007561D02*
X95565714Y4055180D01*
X95565714Y4055180D02*
X95803809Y4055180D01*
X95803809Y4055180D02*
X95946666Y4007561D01*
D11*
X98167886Y-4674178D02*
X98486933Y-4674178D01*
X98104076Y-4888464D02*
X98327409Y-4138464D01*
X98327409Y-4138464D02*
X98550743Y-4888464D01*
X98710267Y-4138464D02*
X99125029Y-4138464D01*
X99125029Y-4138464D02*
X98901695Y-4424178D01*
X98901695Y-4424178D02*
X98997410Y-4424178D01*
X98997410Y-4424178D02*
X99061219Y-4459892D01*
X99061219Y-4459892D02*
X99093124Y-4495607D01*
X99093124Y-4495607D02*
X99125029Y-4567035D01*
X99125029Y-4567035D02*
X99125029Y-4745607D01*
X99125029Y-4745607D02*
X99093124Y-4817035D01*
X99093124Y-4817035D02*
X99061219Y-4852750D01*
X99061219Y-4852750D02*
X98997410Y-4888464D01*
X98997410Y-4888464D02*
X98805981Y-4888464D01*
X98805981Y-4888464D02*
X98742172Y-4852750D01*
X98742172Y-4852750D02*
X98710267Y-4817035D01*
X99890743Y-4102750D02*
X99316457Y-5067035D01*
X100337410Y-4495607D02*
X100114076Y-4495607D01*
X100114076Y-4888464D02*
X100114076Y-4138464D01*
X100114076Y-4138464D02*
X100433124Y-4138464D01*
X100975505Y-4388464D02*
X100975505Y-4888464D01*
X100815981Y-4102750D02*
X100656458Y-4638464D01*
X100656458Y-4638464D02*
X101071219Y-4638464D01*
X89054076Y-9838464D02*
X89054076Y-9088464D01*
X89054076Y-9088464D02*
X89213600Y-9088464D01*
X89213600Y-9088464D02*
X89309314Y-9124178D01*
X89309314Y-9124178D02*
X89373124Y-9195607D01*
X89373124Y-9195607D02*
X89405029Y-9267035D01*
X89405029Y-9267035D02*
X89436933Y-9409892D01*
X89436933Y-9409892D02*
X89436933Y-9517035D01*
X89436933Y-9517035D02*
X89405029Y-9659892D01*
X89405029Y-9659892D02*
X89373124Y-9731321D01*
X89373124Y-9731321D02*
X89309314Y-9802750D01*
X89309314Y-9802750D02*
X89213600Y-9838464D01*
X89213600Y-9838464D02*
X89054076Y-9838464D01*
X90011219Y-9338464D02*
X90011219Y-9838464D01*
X89851695Y-9052750D02*
X89692172Y-9588464D01*
X89692172Y-9588464D02*
X90106933Y-9588464D01*
X90840743Y-9052750D02*
X90266457Y-10017035D01*
X91351219Y-9338464D02*
X91351219Y-9838464D01*
X91191695Y-9052750D02*
X91032172Y-9588464D01*
X91032172Y-9588464D02*
X91446933Y-9588464D01*
X89220028Y2761535D02*
X89220028Y3511535D01*
X89220028Y3511535D02*
X89379552Y3511535D01*
X89379552Y3511535D02*
X89475266Y3475821D01*
X89475266Y3475821D02*
X89539076Y3404392D01*
X89539076Y3404392D02*
X89570981Y3332964D01*
X89570981Y3332964D02*
X89602885Y3190107D01*
X89602885Y3190107D02*
X89602885Y3082964D01*
X89602885Y3082964D02*
X89570981Y2940107D01*
X89570981Y2940107D02*
X89539076Y2868678D01*
X89539076Y2868678D02*
X89475266Y2797250D01*
X89475266Y2797250D02*
X89379552Y2761535D01*
X89379552Y2761535D02*
X89220028Y2761535D01*
X89858124Y3440107D02*
X89890028Y3475821D01*
X89890028Y3475821D02*
X89953838Y3511535D01*
X89953838Y3511535D02*
X90113362Y3511535D01*
X90113362Y3511535D02*
X90177171Y3475821D01*
X90177171Y3475821D02*
X90209076Y3440107D01*
X90209076Y3440107D02*
X90240981Y3368678D01*
X90240981Y3368678D02*
X90240981Y3297250D01*
X90240981Y3297250D02*
X90209076Y3190107D01*
X90209076Y3190107D02*
X89826219Y2761535D01*
X89826219Y2761535D02*
X90240981Y2761535D01*
X91006695Y3547250D02*
X90432409Y2582964D01*
X91612885Y2761535D02*
X91389552Y3118678D01*
X91230028Y2761535D02*
X91230028Y3511535D01*
X91230028Y3511535D02*
X91485266Y3511535D01*
X91485266Y3511535D02*
X91549076Y3475821D01*
X91549076Y3475821D02*
X91580981Y3440107D01*
X91580981Y3440107D02*
X91612885Y3368678D01*
X91612885Y3368678D02*
X91612885Y3261535D01*
X91612885Y3261535D02*
X91580981Y3190107D01*
X91580981Y3190107D02*
X91549076Y3154392D01*
X91549076Y3154392D02*
X91485266Y3118678D01*
X91485266Y3118678D02*
X91230028Y3118678D01*
X91836219Y3511535D02*
X92282885Y2761535D01*
X92282885Y3511535D02*
X91836219Y2761535D01*
X92889076Y2761535D02*
X92506219Y2761535D01*
X92697647Y2761535D02*
X92697647Y3511535D01*
X92697647Y3511535D02*
X92633838Y3404392D01*
X92633838Y3404392D02*
X92570028Y3332964D01*
X92570028Y3332964D02*
X92506219Y3297250D01*
X99713124Y3525821D02*
X99649314Y3561535D01*
X99649314Y3561535D02*
X99553600Y3561535D01*
X99553600Y3561535D02*
X99457886Y3525821D01*
X99457886Y3525821D02*
X99394076Y3454392D01*
X99394076Y3454392D02*
X99362171Y3382964D01*
X99362171Y3382964D02*
X99330267Y3240107D01*
X99330267Y3240107D02*
X99330267Y3132964D01*
X99330267Y3132964D02*
X99362171Y2990107D01*
X99362171Y2990107D02*
X99394076Y2918678D01*
X99394076Y2918678D02*
X99457886Y2847250D01*
X99457886Y2847250D02*
X99553600Y2811535D01*
X99553600Y2811535D02*
X99617409Y2811535D01*
X99617409Y2811535D02*
X99713124Y2847250D01*
X99713124Y2847250D02*
X99745028Y2882964D01*
X99745028Y2882964D02*
X99745028Y3132964D01*
X99745028Y3132964D02*
X99617409Y3132964D01*
X100032171Y2811535D02*
X100032171Y3561535D01*
X100032171Y3561535D02*
X100415028Y2811535D01*
X100415028Y2811535D02*
X100415028Y3561535D01*
X100734076Y2811535D02*
X100734076Y3561535D01*
X100734076Y3561535D02*
X100893600Y3561535D01*
X100893600Y3561535D02*
X100989314Y3525821D01*
X100989314Y3525821D02*
X101053124Y3454392D01*
X101053124Y3454392D02*
X101085029Y3382964D01*
X101085029Y3382964D02*
X101116933Y3240107D01*
X101116933Y3240107D02*
X101116933Y3132964D01*
X101116933Y3132964D02*
X101085029Y2990107D01*
X101085029Y2990107D02*
X101053124Y2918678D01*
X101053124Y2918678D02*
X100989314Y2847250D01*
X100989314Y2847250D02*
X100893600Y2811535D01*
X100893600Y2811535D02*
X100734076Y2811535D01*
X89085981Y-17095607D02*
X89309315Y-17095607D01*
X89405029Y-17488464D02*
X89085981Y-17488464D01*
X89085981Y-17488464D02*
X89085981Y-16738464D01*
X89085981Y-16738464D02*
X89405029Y-16738464D01*
X89979314Y-16738464D02*
X89851695Y-16738464D01*
X89851695Y-16738464D02*
X89787886Y-16774178D01*
X89787886Y-16774178D02*
X89755981Y-16809892D01*
X89755981Y-16809892D02*
X89692171Y-16917035D01*
X89692171Y-16917035D02*
X89660267Y-17059892D01*
X89660267Y-17059892D02*
X89660267Y-17345607D01*
X89660267Y-17345607D02*
X89692171Y-17417035D01*
X89692171Y-17417035D02*
X89724076Y-17452750D01*
X89724076Y-17452750D02*
X89787886Y-17488464D01*
X89787886Y-17488464D02*
X89915505Y-17488464D01*
X89915505Y-17488464D02*
X89979314Y-17452750D01*
X89979314Y-17452750D02*
X90011219Y-17417035D01*
X90011219Y-17417035D02*
X90043124Y-17345607D01*
X90043124Y-17345607D02*
X90043124Y-17167035D01*
X90043124Y-17167035D02*
X90011219Y-17095607D01*
X90011219Y-17095607D02*
X89979314Y-17059892D01*
X89979314Y-17059892D02*
X89915505Y-17024178D01*
X89915505Y-17024178D02*
X89787886Y-17024178D01*
X89787886Y-17024178D02*
X89724076Y-17059892D01*
X89724076Y-17059892D02*
X89692171Y-17095607D01*
X89692171Y-17095607D02*
X89660267Y-17167035D01*
X90808838Y-16702750D02*
X90234552Y-17667035D01*
X90968362Y-16738464D02*
X91415028Y-16738464D01*
X91415028Y-16738464D02*
X91127886Y-17488464D01*
X89436933Y-12317035D02*
X89405029Y-12352750D01*
X89405029Y-12352750D02*
X89309314Y-12388464D01*
X89309314Y-12388464D02*
X89245505Y-12388464D01*
X89245505Y-12388464D02*
X89149791Y-12352750D01*
X89149791Y-12352750D02*
X89085981Y-12281321D01*
X89085981Y-12281321D02*
X89054076Y-12209892D01*
X89054076Y-12209892D02*
X89022172Y-12067035D01*
X89022172Y-12067035D02*
X89022172Y-11959892D01*
X89022172Y-11959892D02*
X89054076Y-11817035D01*
X89054076Y-11817035D02*
X89085981Y-11745607D01*
X89085981Y-11745607D02*
X89149791Y-11674178D01*
X89149791Y-11674178D02*
X89245505Y-11638464D01*
X89245505Y-11638464D02*
X89309314Y-11638464D01*
X89309314Y-11638464D02*
X89405029Y-11674178D01*
X89405029Y-11674178D02*
X89436933Y-11709892D01*
X90011219Y-11638464D02*
X89883600Y-11638464D01*
X89883600Y-11638464D02*
X89819791Y-11674178D01*
X89819791Y-11674178D02*
X89787886Y-11709892D01*
X89787886Y-11709892D02*
X89724076Y-11817035D01*
X89724076Y-11817035D02*
X89692172Y-11959892D01*
X89692172Y-11959892D02*
X89692172Y-12245607D01*
X89692172Y-12245607D02*
X89724076Y-12317035D01*
X89724076Y-12317035D02*
X89755981Y-12352750D01*
X89755981Y-12352750D02*
X89819791Y-12388464D01*
X89819791Y-12388464D02*
X89947410Y-12388464D01*
X89947410Y-12388464D02*
X90011219Y-12352750D01*
X90011219Y-12352750D02*
X90043124Y-12317035D01*
X90043124Y-12317035D02*
X90075029Y-12245607D01*
X90075029Y-12245607D02*
X90075029Y-12067035D01*
X90075029Y-12067035D02*
X90043124Y-11995607D01*
X90043124Y-11995607D02*
X90011219Y-11959892D01*
X90011219Y-11959892D02*
X89947410Y-11924178D01*
X89947410Y-11924178D02*
X89819791Y-11924178D01*
X89819791Y-11924178D02*
X89755981Y-11959892D01*
X89755981Y-11959892D02*
X89724076Y-11995607D01*
X89724076Y-11995607D02*
X89692172Y-12067035D01*
X90840743Y-11602750D02*
X90266457Y-12567035D01*
X91383124Y-11638464D02*
X91064076Y-11638464D01*
X91064076Y-11638464D02*
X91032172Y-11995607D01*
X91032172Y-11995607D02*
X91064076Y-11959892D01*
X91064076Y-11959892D02*
X91127886Y-11924178D01*
X91127886Y-11924178D02*
X91287410Y-11924178D01*
X91287410Y-11924178D02*
X91351219Y-11959892D01*
X91351219Y-11959892D02*
X91383124Y-11995607D01*
X91383124Y-11995607D02*
X91415029Y-12067035D01*
X91415029Y-12067035D02*
X91415029Y-12245607D01*
X91415029Y-12245607D02*
X91383124Y-12317035D01*
X91383124Y-12317035D02*
X91351219Y-12352750D01*
X91351219Y-12352750D02*
X91287410Y-12388464D01*
X91287410Y-12388464D02*
X91127886Y-12388464D01*
X91127886Y-12388464D02*
X91064076Y-12352750D01*
X91064076Y-12352750D02*
X91032172Y-12317035D01*
X89573124Y8495821D02*
X89509314Y8531535D01*
X89509314Y8531535D02*
X89413600Y8531535D01*
X89413600Y8531535D02*
X89317886Y8495821D01*
X89317886Y8495821D02*
X89254076Y8424392D01*
X89254076Y8424392D02*
X89222171Y8352964D01*
X89222171Y8352964D02*
X89190267Y8210107D01*
X89190267Y8210107D02*
X89190267Y8102964D01*
X89190267Y8102964D02*
X89222171Y7960107D01*
X89222171Y7960107D02*
X89254076Y7888678D01*
X89254076Y7888678D02*
X89317886Y7817250D01*
X89317886Y7817250D02*
X89413600Y7781535D01*
X89413600Y7781535D02*
X89477409Y7781535D01*
X89477409Y7781535D02*
X89573124Y7817250D01*
X89573124Y7817250D02*
X89605028Y7852964D01*
X89605028Y7852964D02*
X89605028Y8102964D01*
X89605028Y8102964D02*
X89477409Y8102964D01*
X89892171Y7781535D02*
X89892171Y8531535D01*
X89892171Y8531535D02*
X90275028Y7781535D01*
X90275028Y7781535D02*
X90275028Y8531535D01*
X90594076Y7781535D02*
X90594076Y8531535D01*
X90594076Y8531535D02*
X90753600Y8531535D01*
X90753600Y8531535D02*
X90849314Y8495821D01*
X90849314Y8495821D02*
X90913124Y8424392D01*
X90913124Y8424392D02*
X90945029Y8352964D01*
X90945029Y8352964D02*
X90976933Y8210107D01*
X90976933Y8210107D02*
X90976933Y8102964D01*
X90976933Y8102964D02*
X90945029Y7960107D01*
X90945029Y7960107D02*
X90913124Y7888678D01*
X90913124Y7888678D02*
X90849314Y7817250D01*
X90849314Y7817250D02*
X90753600Y7781535D01*
X90753600Y7781535D02*
X90594076Y7781535D01*
X89135981Y-7402750D02*
X89231695Y-7438464D01*
X89231695Y-7438464D02*
X89391219Y-7438464D01*
X89391219Y-7438464D02*
X89455028Y-7402750D01*
X89455028Y-7402750D02*
X89486933Y-7367035D01*
X89486933Y-7367035D02*
X89518838Y-7295607D01*
X89518838Y-7295607D02*
X89518838Y-7224178D01*
X89518838Y-7224178D02*
X89486933Y-7152750D01*
X89486933Y-7152750D02*
X89455028Y-7117035D01*
X89455028Y-7117035D02*
X89391219Y-7081321D01*
X89391219Y-7081321D02*
X89263600Y-7045607D01*
X89263600Y-7045607D02*
X89199790Y-7009892D01*
X89199790Y-7009892D02*
X89167885Y-6974178D01*
X89167885Y-6974178D02*
X89135981Y-6902750D01*
X89135981Y-6902750D02*
X89135981Y-6831321D01*
X89135981Y-6831321D02*
X89167885Y-6759892D01*
X89167885Y-6759892D02*
X89199790Y-6724178D01*
X89199790Y-6724178D02*
X89263600Y-6688464D01*
X89263600Y-6688464D02*
X89423123Y-6688464D01*
X89423123Y-6688464D02*
X89518838Y-6724178D01*
X90188837Y-7367035D02*
X90156933Y-7402750D01*
X90156933Y-7402750D02*
X90061218Y-7438464D01*
X90061218Y-7438464D02*
X89997409Y-7438464D01*
X89997409Y-7438464D02*
X89901695Y-7402750D01*
X89901695Y-7402750D02*
X89837885Y-7331321D01*
X89837885Y-7331321D02*
X89805980Y-7259892D01*
X89805980Y-7259892D02*
X89774076Y-7117035D01*
X89774076Y-7117035D02*
X89774076Y-7009892D01*
X89774076Y-7009892D02*
X89805980Y-6867035D01*
X89805980Y-6867035D02*
X89837885Y-6795607D01*
X89837885Y-6795607D02*
X89901695Y-6724178D01*
X89901695Y-6724178D02*
X89997409Y-6688464D01*
X89997409Y-6688464D02*
X90061218Y-6688464D01*
X90061218Y-6688464D02*
X90156933Y-6724178D01*
X90156933Y-6724178D02*
X90188837Y-6759892D01*
X90795028Y-7438464D02*
X90475980Y-7438464D01*
X90475980Y-7438464D02*
X90475980Y-6688464D01*
X91496933Y-6652750D02*
X90922647Y-7617035D01*
X91720266Y-7438464D02*
X91720266Y-6688464D01*
X91720266Y-6688464D02*
X91879790Y-6688464D01*
X91879790Y-6688464D02*
X91975504Y-6724178D01*
X91975504Y-6724178D02*
X92039314Y-6795607D01*
X92039314Y-6795607D02*
X92071219Y-6867035D01*
X92071219Y-6867035D02*
X92103123Y-7009892D01*
X92103123Y-7009892D02*
X92103123Y-7117035D01*
X92103123Y-7117035D02*
X92071219Y-7259892D01*
X92071219Y-7259892D02*
X92039314Y-7331321D01*
X92039314Y-7331321D02*
X91975504Y-7402750D01*
X91975504Y-7402750D02*
X91879790Y-7438464D01*
X91879790Y-7438464D02*
X91720266Y-7438464D01*
X92517885Y-6688464D02*
X92581695Y-6688464D01*
X92581695Y-6688464D02*
X92645504Y-6724178D01*
X92645504Y-6724178D02*
X92677409Y-6759892D01*
X92677409Y-6759892D02*
X92709314Y-6831321D01*
X92709314Y-6831321D02*
X92741219Y-6974178D01*
X92741219Y-6974178D02*
X92741219Y-7152750D01*
X92741219Y-7152750D02*
X92709314Y-7295607D01*
X92709314Y-7295607D02*
X92677409Y-7367035D01*
X92677409Y-7367035D02*
X92645504Y-7402750D01*
X92645504Y-7402750D02*
X92581695Y-7438464D01*
X92581695Y-7438464D02*
X92517885Y-7438464D01*
X92517885Y-7438464D02*
X92454076Y-7402750D01*
X92454076Y-7402750D02*
X92422171Y-7367035D01*
X92422171Y-7367035D02*
X92390266Y-7295607D01*
X92390266Y-7295607D02*
X92358362Y-7152750D01*
X92358362Y-7152750D02*
X92358362Y-6974178D01*
X92358362Y-6974178D02*
X92390266Y-6831321D01*
X92390266Y-6831321D02*
X92422171Y-6759892D01*
X92422171Y-6759892D02*
X92454076Y-6724178D01*
X92454076Y-6724178D02*
X92517885Y-6688464D01*
X93506933Y-6652750D02*
X92932647Y-7617035D01*
X93666457Y-6688464D02*
X94081219Y-6688464D01*
X94081219Y-6688464D02*
X93857885Y-6974178D01*
X93857885Y-6974178D02*
X93953600Y-6974178D01*
X93953600Y-6974178D02*
X94017409Y-7009892D01*
X94017409Y-7009892D02*
X94049314Y-7045607D01*
X94049314Y-7045607D02*
X94081219Y-7117035D01*
X94081219Y-7117035D02*
X94081219Y-7295607D01*
X94081219Y-7295607D02*
X94049314Y-7367035D01*
X94049314Y-7367035D02*
X94017409Y-7402750D01*
X94017409Y-7402750D02*
X93953600Y-7438464D01*
X93953600Y-7438464D02*
X93762171Y-7438464D01*
X93762171Y-7438464D02*
X93698362Y-7402750D01*
X93698362Y-7402750D02*
X93666457Y-7367035D01*
X89573124Y-1574178D02*
X89509314Y-1538464D01*
X89509314Y-1538464D02*
X89413600Y-1538464D01*
X89413600Y-1538464D02*
X89317886Y-1574178D01*
X89317886Y-1574178D02*
X89254076Y-1645607D01*
X89254076Y-1645607D02*
X89222171Y-1717035D01*
X89222171Y-1717035D02*
X89190267Y-1859892D01*
X89190267Y-1859892D02*
X89190267Y-1967035D01*
X89190267Y-1967035D02*
X89222171Y-2109892D01*
X89222171Y-2109892D02*
X89254076Y-2181321D01*
X89254076Y-2181321D02*
X89317886Y-2252750D01*
X89317886Y-2252750D02*
X89413600Y-2288464D01*
X89413600Y-2288464D02*
X89477409Y-2288464D01*
X89477409Y-2288464D02*
X89573124Y-2252750D01*
X89573124Y-2252750D02*
X89605028Y-2217035D01*
X89605028Y-2217035D02*
X89605028Y-1967035D01*
X89605028Y-1967035D02*
X89477409Y-1967035D01*
X89892171Y-2288464D02*
X89892171Y-1538464D01*
X89892171Y-1538464D02*
X90275028Y-2288464D01*
X90275028Y-2288464D02*
X90275028Y-1538464D01*
X90594076Y-2288464D02*
X90594076Y-1538464D01*
X90594076Y-1538464D02*
X90753600Y-1538464D01*
X90753600Y-1538464D02*
X90849314Y-1574178D01*
X90849314Y-1574178D02*
X90913124Y-1645607D01*
X90913124Y-1645607D02*
X90945029Y-1717035D01*
X90945029Y-1717035D02*
X90976933Y-1859892D01*
X90976933Y-1859892D02*
X90976933Y-1967035D01*
X90976933Y-1967035D02*
X90945029Y-2109892D01*
X90945029Y-2109892D02*
X90913124Y-2181321D01*
X90913124Y-2181321D02*
X90849314Y-2252750D01*
X90849314Y-2252750D02*
X90753600Y-2288464D01*
X90753600Y-2288464D02*
X90594076Y-2288464D01*
X98470981Y-14988464D02*
X98088124Y-14988464D01*
X98279552Y-14988464D02*
X98279552Y-14238464D01*
X98279552Y-14238464D02*
X98215743Y-14345607D01*
X98215743Y-14345607D02*
X98151933Y-14417035D01*
X98151933Y-14417035D02*
X98088124Y-14452750D01*
X99077171Y-14238464D02*
X98758123Y-14238464D01*
X98758123Y-14238464D02*
X98726219Y-14595607D01*
X98726219Y-14595607D02*
X98758123Y-14559892D01*
X98758123Y-14559892D02*
X98821933Y-14524178D01*
X98821933Y-14524178D02*
X98981457Y-14524178D01*
X98981457Y-14524178D02*
X99045266Y-14559892D01*
X99045266Y-14559892D02*
X99077171Y-14595607D01*
X99077171Y-14595607D02*
X99109076Y-14667035D01*
X99109076Y-14667035D02*
X99109076Y-14845607D01*
X99109076Y-14845607D02*
X99077171Y-14917035D01*
X99077171Y-14917035D02*
X99045266Y-14952750D01*
X99045266Y-14952750D02*
X98981457Y-14988464D01*
X98981457Y-14988464D02*
X98821933Y-14988464D01*
X98821933Y-14988464D02*
X98758123Y-14952750D01*
X98758123Y-14952750D02*
X98726219Y-14917035D01*
X99874790Y-14202750D02*
X99300504Y-15167035D01*
X100321457Y-14595607D02*
X100417171Y-14631321D01*
X100417171Y-14631321D02*
X100449076Y-14667035D01*
X100449076Y-14667035D02*
X100480980Y-14738464D01*
X100480980Y-14738464D02*
X100480980Y-14845607D01*
X100480980Y-14845607D02*
X100449076Y-14917035D01*
X100449076Y-14917035D02*
X100417171Y-14952750D01*
X100417171Y-14952750D02*
X100353361Y-14988464D01*
X100353361Y-14988464D02*
X100098123Y-14988464D01*
X100098123Y-14988464D02*
X100098123Y-14238464D01*
X100098123Y-14238464D02*
X100321457Y-14238464D01*
X100321457Y-14238464D02*
X100385266Y-14274178D01*
X100385266Y-14274178D02*
X100417171Y-14309892D01*
X100417171Y-14309892D02*
X100449076Y-14381321D01*
X100449076Y-14381321D02*
X100449076Y-14452750D01*
X100449076Y-14452750D02*
X100417171Y-14524178D01*
X100417171Y-14524178D02*
X100385266Y-14559892D01*
X100385266Y-14559892D02*
X100321457Y-14595607D01*
X100321457Y-14595607D02*
X100098123Y-14595607D01*
X101119076Y-14988464D02*
X100736219Y-14988464D01*
X100927647Y-14988464D02*
X100927647Y-14238464D01*
X100927647Y-14238464D02*
X100863838Y-14345607D01*
X100863838Y-14345607D02*
X100800028Y-14417035D01*
X100800028Y-14417035D02*
X100736219Y-14452750D01*
X89573124Y875821D02*
X89509314Y911535D01*
X89509314Y911535D02*
X89413600Y911535D01*
X89413600Y911535D02*
X89317886Y875821D01*
X89317886Y875821D02*
X89254076Y804392D01*
X89254076Y804392D02*
X89222171Y732964D01*
X89222171Y732964D02*
X89190267Y590107D01*
X89190267Y590107D02*
X89190267Y482964D01*
X89190267Y482964D02*
X89222171Y340107D01*
X89222171Y340107D02*
X89254076Y268678D01*
X89254076Y268678D02*
X89317886Y197250D01*
X89317886Y197250D02*
X89413600Y161535D01*
X89413600Y161535D02*
X89477409Y161535D01*
X89477409Y161535D02*
X89573124Y197250D01*
X89573124Y197250D02*
X89605028Y232964D01*
X89605028Y232964D02*
X89605028Y482964D01*
X89605028Y482964D02*
X89477409Y482964D01*
X89892171Y161535D02*
X89892171Y911535D01*
X89892171Y911535D02*
X90275028Y161535D01*
X90275028Y161535D02*
X90275028Y911535D01*
X90594076Y161535D02*
X90594076Y911535D01*
X90594076Y911535D02*
X90753600Y911535D01*
X90753600Y911535D02*
X90849314Y875821D01*
X90849314Y875821D02*
X90913124Y804392D01*
X90913124Y804392D02*
X90945029Y732964D01*
X90945029Y732964D02*
X90976933Y590107D01*
X90976933Y590107D02*
X90976933Y482964D01*
X90976933Y482964D02*
X90945029Y340107D01*
X90945029Y340107D02*
X90913124Y268678D01*
X90913124Y268678D02*
X90849314Y197250D01*
X90849314Y197250D02*
X90753600Y161535D01*
X90753600Y161535D02*
X90594076Y161535D01*
X98470981Y-20088464D02*
X98088124Y-20088464D01*
X98279552Y-20088464D02*
X98279552Y-19338464D01*
X98279552Y-19338464D02*
X98215743Y-19445607D01*
X98215743Y-19445607D02*
X98151933Y-19517035D01*
X98151933Y-19517035D02*
X98088124Y-19552750D01*
X99045266Y-19338464D02*
X98917647Y-19338464D01*
X98917647Y-19338464D02*
X98853838Y-19374178D01*
X98853838Y-19374178D02*
X98821933Y-19409892D01*
X98821933Y-19409892D02*
X98758123Y-19517035D01*
X98758123Y-19517035D02*
X98726219Y-19659892D01*
X98726219Y-19659892D02*
X98726219Y-19945607D01*
X98726219Y-19945607D02*
X98758123Y-20017035D01*
X98758123Y-20017035D02*
X98790028Y-20052750D01*
X98790028Y-20052750D02*
X98853838Y-20088464D01*
X98853838Y-20088464D02*
X98981457Y-20088464D01*
X98981457Y-20088464D02*
X99045266Y-20052750D01*
X99045266Y-20052750D02*
X99077171Y-20017035D01*
X99077171Y-20017035D02*
X99109076Y-19945607D01*
X99109076Y-19945607D02*
X99109076Y-19767035D01*
X99109076Y-19767035D02*
X99077171Y-19695607D01*
X99077171Y-19695607D02*
X99045266Y-19659892D01*
X99045266Y-19659892D02*
X98981457Y-19624178D01*
X98981457Y-19624178D02*
X98853838Y-19624178D01*
X98853838Y-19624178D02*
X98790028Y-19659892D01*
X98790028Y-19659892D02*
X98758123Y-19695607D01*
X98758123Y-19695607D02*
X98726219Y-19767035D01*
X99874790Y-19302750D02*
X99300504Y-20267035D01*
X100321457Y-19695607D02*
X100417171Y-19731321D01*
X100417171Y-19731321D02*
X100449076Y-19767035D01*
X100449076Y-19767035D02*
X100480980Y-19838464D01*
X100480980Y-19838464D02*
X100480980Y-19945607D01*
X100480980Y-19945607D02*
X100449076Y-20017035D01*
X100449076Y-20017035D02*
X100417171Y-20052750D01*
X100417171Y-20052750D02*
X100353361Y-20088464D01*
X100353361Y-20088464D02*
X100098123Y-20088464D01*
X100098123Y-20088464D02*
X100098123Y-19338464D01*
X100098123Y-19338464D02*
X100321457Y-19338464D01*
X100321457Y-19338464D02*
X100385266Y-19374178D01*
X100385266Y-19374178D02*
X100417171Y-19409892D01*
X100417171Y-19409892D02*
X100449076Y-19481321D01*
X100449076Y-19481321D02*
X100449076Y-19552750D01*
X100449076Y-19552750D02*
X100417171Y-19624178D01*
X100417171Y-19624178D02*
X100385266Y-19659892D01*
X100385266Y-19659892D02*
X100321457Y-19695607D01*
X100321457Y-19695607D02*
X100098123Y-19695607D01*
X100736219Y-19409892D02*
X100768123Y-19374178D01*
X100768123Y-19374178D02*
X100831933Y-19338464D01*
X100831933Y-19338464D02*
X100991457Y-19338464D01*
X100991457Y-19338464D02*
X101055266Y-19374178D01*
X101055266Y-19374178D02*
X101087171Y-19409892D01*
X101087171Y-19409892D02*
X101119076Y-19481321D01*
X101119076Y-19481321D02*
X101119076Y-19552750D01*
X101119076Y-19552750D02*
X101087171Y-19659892D01*
X101087171Y-19659892D02*
X100704314Y-20088464D01*
X100704314Y-20088464D02*
X101119076Y-20088464D01*
X98470981Y-17538464D02*
X98088124Y-17538464D01*
X98279552Y-17538464D02*
X98279552Y-16788464D01*
X98279552Y-16788464D02*
X98215743Y-16895607D01*
X98215743Y-16895607D02*
X98151933Y-16967035D01*
X98151933Y-16967035D02*
X98088124Y-17002750D01*
X99045266Y-17038464D02*
X99045266Y-17538464D01*
X98885742Y-16752750D02*
X98726219Y-17288464D01*
X98726219Y-17288464D02*
X99140980Y-17288464D01*
X99874790Y-16752750D02*
X99300504Y-17717035D01*
X100321457Y-17145607D02*
X100417171Y-17181321D01*
X100417171Y-17181321D02*
X100449076Y-17217035D01*
X100449076Y-17217035D02*
X100480980Y-17288464D01*
X100480980Y-17288464D02*
X100480980Y-17395607D01*
X100480980Y-17395607D02*
X100449076Y-17467035D01*
X100449076Y-17467035D02*
X100417171Y-17502750D01*
X100417171Y-17502750D02*
X100353361Y-17538464D01*
X100353361Y-17538464D02*
X100098123Y-17538464D01*
X100098123Y-17538464D02*
X100098123Y-16788464D01*
X100098123Y-16788464D02*
X100321457Y-16788464D01*
X100321457Y-16788464D02*
X100385266Y-16824178D01*
X100385266Y-16824178D02*
X100417171Y-16859892D01*
X100417171Y-16859892D02*
X100449076Y-16931321D01*
X100449076Y-16931321D02*
X100449076Y-17002750D01*
X100449076Y-17002750D02*
X100417171Y-17074178D01*
X100417171Y-17074178D02*
X100385266Y-17109892D01*
X100385266Y-17109892D02*
X100321457Y-17145607D01*
X100321457Y-17145607D02*
X100098123Y-17145607D01*
X100704314Y-16788464D02*
X101119076Y-16788464D01*
X101119076Y-16788464D02*
X100895742Y-17074178D01*
X100895742Y-17074178D02*
X100991457Y-17074178D01*
X100991457Y-17074178D02*
X101055266Y-17109892D01*
X101055266Y-17109892D02*
X101087171Y-17145607D01*
X101087171Y-17145607D02*
X101119076Y-17217035D01*
X101119076Y-17217035D02*
X101119076Y-17395607D01*
X101119076Y-17395607D02*
X101087171Y-17467035D01*
X101087171Y-17467035D02*
X101055266Y-17502750D01*
X101055266Y-17502750D02*
X100991457Y-17538464D01*
X100991457Y-17538464D02*
X100800028Y-17538464D01*
X100800028Y-17538464D02*
X100736219Y-17502750D01*
X100736219Y-17502750D02*
X100704314Y-17467035D01*
X99330266Y-1438464D02*
X99553599Y-2188464D01*
X99553599Y-2188464D02*
X99776933Y-1438464D01*
X100383123Y-2117035D02*
X100351219Y-2152750D01*
X100351219Y-2152750D02*
X100255504Y-2188464D01*
X100255504Y-2188464D02*
X100191695Y-2188464D01*
X100191695Y-2188464D02*
X100095981Y-2152750D01*
X100095981Y-2152750D02*
X100032171Y-2081321D01*
X100032171Y-2081321D02*
X100000266Y-2009892D01*
X100000266Y-2009892D02*
X99968362Y-1867035D01*
X99968362Y-1867035D02*
X99968362Y-1759892D01*
X99968362Y-1759892D02*
X100000266Y-1617035D01*
X100000266Y-1617035D02*
X100032171Y-1545607D01*
X100032171Y-1545607D02*
X100095981Y-1474178D01*
X100095981Y-1474178D02*
X100191695Y-1438464D01*
X100191695Y-1438464D02*
X100255504Y-1438464D01*
X100255504Y-1438464D02*
X100351219Y-1474178D01*
X100351219Y-1474178D02*
X100383123Y-1509892D01*
X101053123Y-2117035D02*
X101021219Y-2152750D01*
X101021219Y-2152750D02*
X100925504Y-2188464D01*
X100925504Y-2188464D02*
X100861695Y-2188464D01*
X100861695Y-2188464D02*
X100765981Y-2152750D01*
X100765981Y-2152750D02*
X100702171Y-2081321D01*
X100702171Y-2081321D02*
X100670266Y-2009892D01*
X100670266Y-2009892D02*
X100638362Y-1867035D01*
X100638362Y-1867035D02*
X100638362Y-1759892D01*
X100638362Y-1759892D02*
X100670266Y-1617035D01*
X100670266Y-1617035D02*
X100702171Y-1545607D01*
X100702171Y-1545607D02*
X100765981Y-1474178D01*
X100765981Y-1474178D02*
X100861695Y-1438464D01*
X100861695Y-1438464D02*
X100925504Y-1438464D01*
X100925504Y-1438464D02*
X101021219Y-1474178D01*
X101021219Y-1474178D02*
X101053123Y-1509892D01*
X98167886Y-9674178D02*
X98486933Y-9674178D01*
X98104076Y-9888464D02*
X98327409Y-9138464D01*
X98327409Y-9138464D02*
X98550743Y-9888464D01*
X99125029Y-9888464D02*
X98742172Y-9888464D01*
X98933600Y-9888464D02*
X98933600Y-9138464D01*
X98933600Y-9138464D02*
X98869791Y-9245607D01*
X98869791Y-9245607D02*
X98805981Y-9317035D01*
X98805981Y-9317035D02*
X98742172Y-9352750D01*
X99890743Y-9102750D02*
X99316457Y-10067035D01*
X100337410Y-9495607D02*
X100114076Y-9495607D01*
X100114076Y-9888464D02*
X100114076Y-9138464D01*
X100114076Y-9138464D02*
X100433124Y-9138464D01*
X100975505Y-9138464D02*
X100847886Y-9138464D01*
X100847886Y-9138464D02*
X100784077Y-9174178D01*
X100784077Y-9174178D02*
X100752172Y-9209892D01*
X100752172Y-9209892D02*
X100688362Y-9317035D01*
X100688362Y-9317035D02*
X100656458Y-9459892D01*
X100656458Y-9459892D02*
X100656458Y-9745607D01*
X100656458Y-9745607D02*
X100688362Y-9817035D01*
X100688362Y-9817035D02*
X100720267Y-9852750D01*
X100720267Y-9852750D02*
X100784077Y-9888464D01*
X100784077Y-9888464D02*
X100911696Y-9888464D01*
X100911696Y-9888464D02*
X100975505Y-9852750D01*
X100975505Y-9852750D02*
X101007410Y-9817035D01*
X101007410Y-9817035D02*
X101039315Y-9745607D01*
X101039315Y-9745607D02*
X101039315Y-9567035D01*
X101039315Y-9567035D02*
X101007410Y-9495607D01*
X101007410Y-9495607D02*
X100975505Y-9459892D01*
X100975505Y-9459892D02*
X100911696Y-9424178D01*
X100911696Y-9424178D02*
X100784077Y-9424178D01*
X100784077Y-9424178D02*
X100720267Y-9459892D01*
X100720267Y-9459892D02*
X100688362Y-9495607D01*
X100688362Y-9495607D02*
X100656458Y-9567035D01*
X98167886Y-7174178D02*
X98486933Y-7174178D01*
X98104076Y-7388464D02*
X98327409Y-6638464D01*
X98327409Y-6638464D02*
X98550743Y-7388464D01*
X98742172Y-6709892D02*
X98774076Y-6674178D01*
X98774076Y-6674178D02*
X98837886Y-6638464D01*
X98837886Y-6638464D02*
X98997410Y-6638464D01*
X98997410Y-6638464D02*
X99061219Y-6674178D01*
X99061219Y-6674178D02*
X99093124Y-6709892D01*
X99093124Y-6709892D02*
X99125029Y-6781321D01*
X99125029Y-6781321D02*
X99125029Y-6852750D01*
X99125029Y-6852750D02*
X99093124Y-6959892D01*
X99093124Y-6959892D02*
X98710267Y-7388464D01*
X98710267Y-7388464D02*
X99125029Y-7388464D01*
X99890743Y-6602750D02*
X99316457Y-7567035D01*
X100337410Y-6995607D02*
X100114076Y-6995607D01*
X100114076Y-7388464D02*
X100114076Y-6638464D01*
X100114076Y-6638464D02*
X100433124Y-6638464D01*
X101007410Y-6638464D02*
X100688362Y-6638464D01*
X100688362Y-6638464D02*
X100656458Y-6995607D01*
X100656458Y-6995607D02*
X100688362Y-6959892D01*
X100688362Y-6959892D02*
X100752172Y-6924178D01*
X100752172Y-6924178D02*
X100911696Y-6924178D01*
X100911696Y-6924178D02*
X100975505Y-6959892D01*
X100975505Y-6959892D02*
X101007410Y-6995607D01*
X101007410Y-6995607D02*
X101039315Y-7067035D01*
X101039315Y-7067035D02*
X101039315Y-7245607D01*
X101039315Y-7245607D02*
X101007410Y-7317035D01*
X101007410Y-7317035D02*
X100975505Y-7352750D01*
X100975505Y-7352750D02*
X100911696Y-7388464D01*
X100911696Y-7388464D02*
X100752172Y-7388464D01*
X100752172Y-7388464D02*
X100688362Y-7352750D01*
X100688362Y-7352750D02*
X100656458Y-7317035D01*
X99760980Y5361535D02*
X99537647Y5718678D01*
X99378123Y5361535D02*
X99378123Y6111535D01*
X99378123Y6111535D02*
X99633361Y6111535D01*
X99633361Y6111535D02*
X99697171Y6075821D01*
X99697171Y6075821D02*
X99729076Y6040107D01*
X99729076Y6040107D02*
X99760980Y5968678D01*
X99760980Y5968678D02*
X99760980Y5861535D01*
X99760980Y5861535D02*
X99729076Y5790107D01*
X99729076Y5790107D02*
X99697171Y5754392D01*
X99697171Y5754392D02*
X99633361Y5718678D01*
X99633361Y5718678D02*
X99378123Y5718678D01*
X100016219Y5575821D02*
X100335266Y5575821D01*
X99952409Y5361535D02*
X100175742Y6111535D01*
X100175742Y6111535D02*
X100399076Y5361535D01*
X100558600Y6111535D02*
X100718124Y5361535D01*
X100718124Y5361535D02*
X100845743Y5897250D01*
X100845743Y5897250D02*
X100973362Y5361535D01*
X100973362Y5361535D02*
X101132886Y6111535D01*
X99856695Y261535D02*
X99633362Y618678D01*
X99473838Y261535D02*
X99473838Y1011535D01*
X99473838Y1011535D02*
X99729076Y1011535D01*
X99729076Y1011535D02*
X99792886Y975821D01*
X99792886Y975821D02*
X99824791Y940107D01*
X99824791Y940107D02*
X99856695Y868678D01*
X99856695Y868678D02*
X99856695Y761535D01*
X99856695Y761535D02*
X99824791Y690107D01*
X99824791Y690107D02*
X99792886Y654392D01*
X99792886Y654392D02*
X99729076Y618678D01*
X99729076Y618678D02*
X99473838Y618678D01*
X100111934Y297250D02*
X100207648Y261535D01*
X100207648Y261535D02*
X100367172Y261535D01*
X100367172Y261535D02*
X100430981Y297250D01*
X100430981Y297250D02*
X100462886Y332964D01*
X100462886Y332964D02*
X100494791Y404392D01*
X100494791Y404392D02*
X100494791Y475821D01*
X100494791Y475821D02*
X100462886Y547250D01*
X100462886Y547250D02*
X100430981Y582964D01*
X100430981Y582964D02*
X100367172Y618678D01*
X100367172Y618678D02*
X100239553Y654392D01*
X100239553Y654392D02*
X100175743Y690107D01*
X100175743Y690107D02*
X100143838Y725821D01*
X100143838Y725821D02*
X100111934Y797250D01*
X100111934Y797250D02*
X100111934Y868678D01*
X100111934Y868678D02*
X100143838Y940107D01*
X100143838Y940107D02*
X100175743Y975821D01*
X100175743Y975821D02*
X100239553Y1011535D01*
X100239553Y1011535D02*
X100399076Y1011535D01*
X100399076Y1011535D02*
X100494791Y975821D01*
X100686219Y1011535D02*
X101069076Y1011535D01*
X100877648Y261535D02*
X100877648Y1011535D01*
X98470981Y-22588464D02*
X98088124Y-22588464D01*
X98279552Y-22588464D02*
X98279552Y-21838464D01*
X98279552Y-21838464D02*
X98215743Y-21945607D01*
X98215743Y-21945607D02*
X98151933Y-22017035D01*
X98151933Y-22017035D02*
X98088124Y-22052750D01*
X98885742Y-21838464D02*
X98949552Y-21838464D01*
X98949552Y-21838464D02*
X99013361Y-21874178D01*
X99013361Y-21874178D02*
X99045266Y-21909892D01*
X99045266Y-21909892D02*
X99077171Y-21981321D01*
X99077171Y-21981321D02*
X99109076Y-22124178D01*
X99109076Y-22124178D02*
X99109076Y-22302750D01*
X99109076Y-22302750D02*
X99077171Y-22445607D01*
X99077171Y-22445607D02*
X99045266Y-22517035D01*
X99045266Y-22517035D02*
X99013361Y-22552750D01*
X99013361Y-22552750D02*
X98949552Y-22588464D01*
X98949552Y-22588464D02*
X98885742Y-22588464D01*
X98885742Y-22588464D02*
X98821933Y-22552750D01*
X98821933Y-22552750D02*
X98790028Y-22517035D01*
X98790028Y-22517035D02*
X98758123Y-22445607D01*
X98758123Y-22445607D02*
X98726219Y-22302750D01*
X98726219Y-22302750D02*
X98726219Y-22124178D01*
X98726219Y-22124178D02*
X98758123Y-21981321D01*
X98758123Y-21981321D02*
X98790028Y-21909892D01*
X98790028Y-21909892D02*
X98821933Y-21874178D01*
X98821933Y-21874178D02*
X98885742Y-21838464D01*
X99874790Y-21802750D02*
X99300504Y-22767035D01*
X100321457Y-22195607D02*
X100417171Y-22231321D01*
X100417171Y-22231321D02*
X100449076Y-22267035D01*
X100449076Y-22267035D02*
X100480980Y-22338464D01*
X100480980Y-22338464D02*
X100480980Y-22445607D01*
X100480980Y-22445607D02*
X100449076Y-22517035D01*
X100449076Y-22517035D02*
X100417171Y-22552750D01*
X100417171Y-22552750D02*
X100353361Y-22588464D01*
X100353361Y-22588464D02*
X100098123Y-22588464D01*
X100098123Y-22588464D02*
X100098123Y-21838464D01*
X100098123Y-21838464D02*
X100321457Y-21838464D01*
X100321457Y-21838464D02*
X100385266Y-21874178D01*
X100385266Y-21874178D02*
X100417171Y-21909892D01*
X100417171Y-21909892D02*
X100449076Y-21981321D01*
X100449076Y-21981321D02*
X100449076Y-22052750D01*
X100449076Y-22052750D02*
X100417171Y-22124178D01*
X100417171Y-22124178D02*
X100385266Y-22159892D01*
X100385266Y-22159892D02*
X100321457Y-22195607D01*
X100321457Y-22195607D02*
X100098123Y-22195607D01*
X101055266Y-21838464D02*
X100927647Y-21838464D01*
X100927647Y-21838464D02*
X100863838Y-21874178D01*
X100863838Y-21874178D02*
X100831933Y-21909892D01*
X100831933Y-21909892D02*
X100768123Y-22017035D01*
X100768123Y-22017035D02*
X100736219Y-22159892D01*
X100736219Y-22159892D02*
X100736219Y-22445607D01*
X100736219Y-22445607D02*
X100768123Y-22517035D01*
X100768123Y-22517035D02*
X100800028Y-22552750D01*
X100800028Y-22552750D02*
X100863838Y-22588464D01*
X100863838Y-22588464D02*
X100991457Y-22588464D01*
X100991457Y-22588464D02*
X101055266Y-22552750D01*
X101055266Y-22552750D02*
X101087171Y-22517035D01*
X101087171Y-22517035D02*
X101119076Y-22445607D01*
X101119076Y-22445607D02*
X101119076Y-22267035D01*
X101119076Y-22267035D02*
X101087171Y-22195607D01*
X101087171Y-22195607D02*
X101055266Y-22159892D01*
X101055266Y-22159892D02*
X100991457Y-22124178D01*
X100991457Y-22124178D02*
X100863838Y-22124178D01*
X100863838Y-22124178D02*
X100800028Y-22159892D01*
X100800028Y-22159892D02*
X100768123Y-22195607D01*
X100768123Y-22195607D02*
X100736219Y-22267035D01*
X89277410Y-22145607D02*
X89373124Y-22181321D01*
X89373124Y-22181321D02*
X89405029Y-22217035D01*
X89405029Y-22217035D02*
X89436933Y-22288464D01*
X89436933Y-22288464D02*
X89436933Y-22395607D01*
X89436933Y-22395607D02*
X89405029Y-22467035D01*
X89405029Y-22467035D02*
X89373124Y-22502750D01*
X89373124Y-22502750D02*
X89309314Y-22538464D01*
X89309314Y-22538464D02*
X89054076Y-22538464D01*
X89054076Y-22538464D02*
X89054076Y-21788464D01*
X89054076Y-21788464D02*
X89277410Y-21788464D01*
X89277410Y-21788464D02*
X89341219Y-21824178D01*
X89341219Y-21824178D02*
X89373124Y-21859892D01*
X89373124Y-21859892D02*
X89405029Y-21931321D01*
X89405029Y-21931321D02*
X89405029Y-22002750D01*
X89405029Y-22002750D02*
X89373124Y-22074178D01*
X89373124Y-22074178D02*
X89341219Y-22109892D01*
X89341219Y-22109892D02*
X89277410Y-22145607D01*
X89277410Y-22145607D02*
X89054076Y-22145607D01*
X90043124Y-21788464D02*
X89724076Y-21788464D01*
X89724076Y-21788464D02*
X89692172Y-22145607D01*
X89692172Y-22145607D02*
X89724076Y-22109892D01*
X89724076Y-22109892D02*
X89787886Y-22074178D01*
X89787886Y-22074178D02*
X89947410Y-22074178D01*
X89947410Y-22074178D02*
X90011219Y-22109892D01*
X90011219Y-22109892D02*
X90043124Y-22145607D01*
X90043124Y-22145607D02*
X90075029Y-22217035D01*
X90075029Y-22217035D02*
X90075029Y-22395607D01*
X90075029Y-22395607D02*
X90043124Y-22467035D01*
X90043124Y-22467035D02*
X90011219Y-22502750D01*
X90011219Y-22502750D02*
X89947410Y-22538464D01*
X89947410Y-22538464D02*
X89787886Y-22538464D01*
X89787886Y-22538464D02*
X89724076Y-22502750D01*
X89724076Y-22502750D02*
X89692172Y-22467035D01*
X90840743Y-21752750D02*
X90266457Y-22717035D01*
X91095981Y-22538464D02*
X91223600Y-22538464D01*
X91223600Y-22538464D02*
X91287410Y-22502750D01*
X91287410Y-22502750D02*
X91319314Y-22467035D01*
X91319314Y-22467035D02*
X91383124Y-22359892D01*
X91383124Y-22359892D02*
X91415029Y-22217035D01*
X91415029Y-22217035D02*
X91415029Y-21931321D01*
X91415029Y-21931321D02*
X91383124Y-21859892D01*
X91383124Y-21859892D02*
X91351219Y-21824178D01*
X91351219Y-21824178D02*
X91287410Y-21788464D01*
X91287410Y-21788464D02*
X91159791Y-21788464D01*
X91159791Y-21788464D02*
X91095981Y-21824178D01*
X91095981Y-21824178D02*
X91064076Y-21859892D01*
X91064076Y-21859892D02*
X91032172Y-21931321D01*
X91032172Y-21931321D02*
X91032172Y-22109892D01*
X91032172Y-22109892D02*
X91064076Y-22181321D01*
X91064076Y-22181321D02*
X91095981Y-22217035D01*
X91095981Y-22217035D02*
X91159791Y-22252750D01*
X91159791Y-22252750D02*
X91287410Y-22252750D01*
X91287410Y-22252750D02*
X91351219Y-22217035D01*
X91351219Y-22217035D02*
X91383124Y-22181321D01*
X91383124Y-22181321D02*
X91415029Y-22109892D01*
X89299790Y5311535D02*
X89299790Y6061535D01*
X89299790Y6061535D02*
X89459314Y6061535D01*
X89459314Y6061535D02*
X89555028Y6025821D01*
X89555028Y6025821D02*
X89618838Y5954392D01*
X89618838Y5954392D02*
X89650743Y5882964D01*
X89650743Y5882964D02*
X89682647Y5740107D01*
X89682647Y5740107D02*
X89682647Y5632964D01*
X89682647Y5632964D02*
X89650743Y5490107D01*
X89650743Y5490107D02*
X89618838Y5418678D01*
X89618838Y5418678D02*
X89555028Y5347250D01*
X89555028Y5347250D02*
X89459314Y5311535D01*
X89459314Y5311535D02*
X89299790Y5311535D01*
X89905981Y6061535D02*
X90320743Y6061535D01*
X90320743Y6061535D02*
X90097409Y5775821D01*
X90097409Y5775821D02*
X90193124Y5775821D01*
X90193124Y5775821D02*
X90256933Y5740107D01*
X90256933Y5740107D02*
X90288838Y5704392D01*
X90288838Y5704392D02*
X90320743Y5632964D01*
X90320743Y5632964D02*
X90320743Y5454392D01*
X90320743Y5454392D02*
X90288838Y5382964D01*
X90288838Y5382964D02*
X90256933Y5347250D01*
X90256933Y5347250D02*
X90193124Y5311535D01*
X90193124Y5311535D02*
X90001695Y5311535D01*
X90001695Y5311535D02*
X89937886Y5347250D01*
X89937886Y5347250D02*
X89905981Y5382964D01*
X91086457Y6097250D02*
X90512171Y5132964D01*
X91214076Y6061535D02*
X91596933Y6061535D01*
X91405505Y5311535D02*
X91405505Y6061535D01*
X91756457Y6061535D02*
X92203123Y5311535D01*
X92203123Y6061535D02*
X91756457Y5311535D01*
X92585980Y6061535D02*
X92649790Y6061535D01*
X92649790Y6061535D02*
X92713599Y6025821D01*
X92713599Y6025821D02*
X92745504Y5990107D01*
X92745504Y5990107D02*
X92777409Y5918678D01*
X92777409Y5918678D02*
X92809314Y5775821D01*
X92809314Y5775821D02*
X92809314Y5597250D01*
X92809314Y5597250D02*
X92777409Y5454392D01*
X92777409Y5454392D02*
X92745504Y5382964D01*
X92745504Y5382964D02*
X92713599Y5347250D01*
X92713599Y5347250D02*
X92649790Y5311535D01*
X92649790Y5311535D02*
X92585980Y5311535D01*
X92585980Y5311535D02*
X92522171Y5347250D01*
X92522171Y5347250D02*
X92490266Y5382964D01*
X92490266Y5382964D02*
X92458361Y5454392D01*
X92458361Y5454392D02*
X92426457Y5597250D01*
X92426457Y5597250D02*
X92426457Y5775821D01*
X92426457Y5775821D02*
X92458361Y5918678D01*
X92458361Y5918678D02*
X92490266Y5990107D01*
X92490266Y5990107D02*
X92522171Y6025821D01*
X92522171Y6025821D02*
X92585980Y6061535D01*
X89120029Y-4902750D02*
X89215743Y-4938464D01*
X89215743Y-4938464D02*
X89375267Y-4938464D01*
X89375267Y-4938464D02*
X89439076Y-4902750D01*
X89439076Y-4902750D02*
X89470981Y-4867035D01*
X89470981Y-4867035D02*
X89502886Y-4795607D01*
X89502886Y-4795607D02*
X89502886Y-4724178D01*
X89502886Y-4724178D02*
X89470981Y-4652750D01*
X89470981Y-4652750D02*
X89439076Y-4617035D01*
X89439076Y-4617035D02*
X89375267Y-4581321D01*
X89375267Y-4581321D02*
X89247648Y-4545607D01*
X89247648Y-4545607D02*
X89183838Y-4509892D01*
X89183838Y-4509892D02*
X89151933Y-4474178D01*
X89151933Y-4474178D02*
X89120029Y-4402750D01*
X89120029Y-4402750D02*
X89120029Y-4331321D01*
X89120029Y-4331321D02*
X89151933Y-4259892D01*
X89151933Y-4259892D02*
X89183838Y-4224178D01*
X89183838Y-4224178D02*
X89247648Y-4188464D01*
X89247648Y-4188464D02*
X89407171Y-4188464D01*
X89407171Y-4188464D02*
X89502886Y-4224178D01*
X89790028Y-4938464D02*
X89790028Y-4188464D01*
X89790028Y-4188464D02*
X89949552Y-4188464D01*
X89949552Y-4188464D02*
X90045266Y-4224178D01*
X90045266Y-4224178D02*
X90109076Y-4295607D01*
X90109076Y-4295607D02*
X90140981Y-4367035D01*
X90140981Y-4367035D02*
X90172885Y-4509892D01*
X90172885Y-4509892D02*
X90172885Y-4617035D01*
X90172885Y-4617035D02*
X90140981Y-4759892D01*
X90140981Y-4759892D02*
X90109076Y-4831321D01*
X90109076Y-4831321D02*
X90045266Y-4902750D01*
X90045266Y-4902750D02*
X89949552Y-4938464D01*
X89949552Y-4938464D02*
X89790028Y-4938464D01*
X90428124Y-4724178D02*
X90747171Y-4724178D01*
X90364314Y-4938464D02*
X90587647Y-4188464D01*
X90587647Y-4188464D02*
X90810981Y-4938464D01*
X91512886Y-4152750D02*
X90938600Y-5117035D01*
X91736219Y-4938464D02*
X91736219Y-4188464D01*
X91736219Y-4188464D02*
X91895743Y-4188464D01*
X91895743Y-4188464D02*
X91991457Y-4224178D01*
X91991457Y-4224178D02*
X92055267Y-4295607D01*
X92055267Y-4295607D02*
X92087172Y-4367035D01*
X92087172Y-4367035D02*
X92119076Y-4509892D01*
X92119076Y-4509892D02*
X92119076Y-4617035D01*
X92119076Y-4617035D02*
X92087172Y-4759892D01*
X92087172Y-4759892D02*
X92055267Y-4831321D01*
X92055267Y-4831321D02*
X91991457Y-4902750D01*
X91991457Y-4902750D02*
X91895743Y-4938464D01*
X91895743Y-4938464D02*
X91736219Y-4938464D01*
X92757172Y-4938464D02*
X92374315Y-4938464D01*
X92565743Y-4938464D02*
X92565743Y-4188464D01*
X92565743Y-4188464D02*
X92501934Y-4295607D01*
X92501934Y-4295607D02*
X92438124Y-4367035D01*
X92438124Y-4367035D02*
X92374315Y-4402750D01*
X93522886Y-4152750D02*
X92948600Y-5117035D01*
X93714315Y-4259892D02*
X93746219Y-4224178D01*
X93746219Y-4224178D02*
X93810029Y-4188464D01*
X93810029Y-4188464D02*
X93969553Y-4188464D01*
X93969553Y-4188464D02*
X94033362Y-4224178D01*
X94033362Y-4224178D02*
X94065267Y-4259892D01*
X94065267Y-4259892D02*
X94097172Y-4331321D01*
X94097172Y-4331321D02*
X94097172Y-4402750D01*
X94097172Y-4402750D02*
X94065267Y-4509892D01*
X94065267Y-4509892D02*
X93682410Y-4938464D01*
X93682410Y-4938464D02*
X94097172Y-4938464D01*
X98167886Y-12224178D02*
X98486933Y-12224178D01*
X98104076Y-12438464D02*
X98327409Y-11688464D01*
X98327409Y-11688464D02*
X98550743Y-12438464D01*
X98901695Y-11688464D02*
X98965505Y-11688464D01*
X98965505Y-11688464D02*
X99029314Y-11724178D01*
X99029314Y-11724178D02*
X99061219Y-11759892D01*
X99061219Y-11759892D02*
X99093124Y-11831321D01*
X99093124Y-11831321D02*
X99125029Y-11974178D01*
X99125029Y-11974178D02*
X99125029Y-12152750D01*
X99125029Y-12152750D02*
X99093124Y-12295607D01*
X99093124Y-12295607D02*
X99061219Y-12367035D01*
X99061219Y-12367035D02*
X99029314Y-12402750D01*
X99029314Y-12402750D02*
X98965505Y-12438464D01*
X98965505Y-12438464D02*
X98901695Y-12438464D01*
X98901695Y-12438464D02*
X98837886Y-12402750D01*
X98837886Y-12402750D02*
X98805981Y-12367035D01*
X98805981Y-12367035D02*
X98774076Y-12295607D01*
X98774076Y-12295607D02*
X98742172Y-12152750D01*
X98742172Y-12152750D02*
X98742172Y-11974178D01*
X98742172Y-11974178D02*
X98774076Y-11831321D01*
X98774076Y-11831321D02*
X98805981Y-11759892D01*
X98805981Y-11759892D02*
X98837886Y-11724178D01*
X98837886Y-11724178D02*
X98901695Y-11688464D01*
X99890743Y-11652750D02*
X99316457Y-12617035D01*
X100337410Y-12045607D02*
X100114076Y-12045607D01*
X100114076Y-12438464D02*
X100114076Y-11688464D01*
X100114076Y-11688464D02*
X100433124Y-11688464D01*
X100624553Y-11688464D02*
X101071219Y-11688464D01*
X101071219Y-11688464D02*
X100784077Y-12438464D01*
X99729076Y8174392D02*
X99824790Y8138678D01*
X99824790Y8138678D02*
X99856695Y8102964D01*
X99856695Y8102964D02*
X99888599Y8031535D01*
X99888599Y8031535D02*
X99888599Y7924392D01*
X99888599Y7924392D02*
X99856695Y7852964D01*
X99856695Y7852964D02*
X99824790Y7817250D01*
X99824790Y7817250D02*
X99760980Y7781535D01*
X99760980Y7781535D02*
X99505742Y7781535D01*
X99505742Y7781535D02*
X99505742Y8531535D01*
X99505742Y8531535D02*
X99729076Y8531535D01*
X99729076Y8531535D02*
X99792885Y8495821D01*
X99792885Y8495821D02*
X99824790Y8460107D01*
X99824790Y8460107D02*
X99856695Y8388678D01*
X99856695Y8388678D02*
X99856695Y8317250D01*
X99856695Y8317250D02*
X99824790Y8245821D01*
X99824790Y8245821D02*
X99792885Y8210107D01*
X99792885Y8210107D02*
X99729076Y8174392D01*
X99729076Y8174392D02*
X99505742Y8174392D01*
X100143838Y7995821D02*
X100462885Y7995821D01*
X100080028Y7781535D02*
X100303361Y8531535D01*
X100303361Y8531535D02*
X100526695Y7781535D01*
X100654314Y8531535D02*
X101037171Y8531535D01*
X100845743Y7781535D02*
X100845743Y8531535D01*
X89054076Y-14938464D02*
X89054076Y-14188464D01*
X89054076Y-14188464D02*
X89213600Y-14188464D01*
X89213600Y-14188464D02*
X89309314Y-14224178D01*
X89309314Y-14224178D02*
X89373124Y-14295607D01*
X89373124Y-14295607D02*
X89405029Y-14367035D01*
X89405029Y-14367035D02*
X89436933Y-14509892D01*
X89436933Y-14509892D02*
X89436933Y-14617035D01*
X89436933Y-14617035D02*
X89405029Y-14759892D01*
X89405029Y-14759892D02*
X89373124Y-14831321D01*
X89373124Y-14831321D02*
X89309314Y-14902750D01*
X89309314Y-14902750D02*
X89213600Y-14938464D01*
X89213600Y-14938464D02*
X89054076Y-14938464D01*
X89660267Y-14188464D02*
X90106933Y-14188464D01*
X90106933Y-14188464D02*
X89819791Y-14938464D01*
X90840743Y-14152750D02*
X90266457Y-15117035D01*
X91351219Y-14188464D02*
X91223600Y-14188464D01*
X91223600Y-14188464D02*
X91159791Y-14224178D01*
X91159791Y-14224178D02*
X91127886Y-14259892D01*
X91127886Y-14259892D02*
X91064076Y-14367035D01*
X91064076Y-14367035D02*
X91032172Y-14509892D01*
X91032172Y-14509892D02*
X91032172Y-14795607D01*
X91032172Y-14795607D02*
X91064076Y-14867035D01*
X91064076Y-14867035D02*
X91095981Y-14902750D01*
X91095981Y-14902750D02*
X91159791Y-14938464D01*
X91159791Y-14938464D02*
X91287410Y-14938464D01*
X91287410Y-14938464D02*
X91351219Y-14902750D01*
X91351219Y-14902750D02*
X91383124Y-14867035D01*
X91383124Y-14867035D02*
X91415029Y-14795607D01*
X91415029Y-14795607D02*
X91415029Y-14617035D01*
X91415029Y-14617035D02*
X91383124Y-14545607D01*
X91383124Y-14545607D02*
X91351219Y-14509892D01*
X91351219Y-14509892D02*
X91287410Y-14474178D01*
X91287410Y-14474178D02*
X91159791Y-14474178D01*
X91159791Y-14474178D02*
X91095981Y-14509892D01*
X91095981Y-14509892D02*
X91064076Y-14545607D01*
X91064076Y-14545607D02*
X91032172Y-14617035D01*
X89277410Y-19645607D02*
X89373124Y-19681321D01*
X89373124Y-19681321D02*
X89405029Y-19717035D01*
X89405029Y-19717035D02*
X89436933Y-19788464D01*
X89436933Y-19788464D02*
X89436933Y-19895607D01*
X89436933Y-19895607D02*
X89405029Y-19967035D01*
X89405029Y-19967035D02*
X89373124Y-20002750D01*
X89373124Y-20002750D02*
X89309314Y-20038464D01*
X89309314Y-20038464D02*
X89054076Y-20038464D01*
X89054076Y-20038464D02*
X89054076Y-19288464D01*
X89054076Y-19288464D02*
X89277410Y-19288464D01*
X89277410Y-19288464D02*
X89341219Y-19324178D01*
X89341219Y-19324178D02*
X89373124Y-19359892D01*
X89373124Y-19359892D02*
X89405029Y-19431321D01*
X89405029Y-19431321D02*
X89405029Y-19502750D01*
X89405029Y-19502750D02*
X89373124Y-19574178D01*
X89373124Y-19574178D02*
X89341219Y-19609892D01*
X89341219Y-19609892D02*
X89277410Y-19645607D01*
X89277410Y-19645607D02*
X89054076Y-19645607D01*
X90011219Y-19538464D02*
X90011219Y-20038464D01*
X89851695Y-19252750D02*
X89692172Y-19788464D01*
X89692172Y-19788464D02*
X90106933Y-19788464D01*
X90840743Y-19252750D02*
X90266457Y-20217035D01*
X91159791Y-19609892D02*
X91095981Y-19574178D01*
X91095981Y-19574178D02*
X91064076Y-19538464D01*
X91064076Y-19538464D02*
X91032172Y-19467035D01*
X91032172Y-19467035D02*
X91032172Y-19431321D01*
X91032172Y-19431321D02*
X91064076Y-19359892D01*
X91064076Y-19359892D02*
X91095981Y-19324178D01*
X91095981Y-19324178D02*
X91159791Y-19288464D01*
X91159791Y-19288464D02*
X91287410Y-19288464D01*
X91287410Y-19288464D02*
X91351219Y-19324178D01*
X91351219Y-19324178D02*
X91383124Y-19359892D01*
X91383124Y-19359892D02*
X91415029Y-19431321D01*
X91415029Y-19431321D02*
X91415029Y-19467035D01*
X91415029Y-19467035D02*
X91383124Y-19538464D01*
X91383124Y-19538464D02*
X91351219Y-19574178D01*
X91351219Y-19574178D02*
X91287410Y-19609892D01*
X91287410Y-19609892D02*
X91159791Y-19609892D01*
X91159791Y-19609892D02*
X91095981Y-19645607D01*
X91095981Y-19645607D02*
X91064076Y-19681321D01*
X91064076Y-19681321D02*
X91032172Y-19752750D01*
X91032172Y-19752750D02*
X91032172Y-19895607D01*
X91032172Y-19895607D02*
X91064076Y-19967035D01*
X91064076Y-19967035D02*
X91095981Y-20002750D01*
X91095981Y-20002750D02*
X91159791Y-20038464D01*
X91159791Y-20038464D02*
X91287410Y-20038464D01*
X91287410Y-20038464D02*
X91351219Y-20002750D01*
X91351219Y-20002750D02*
X91383124Y-19967035D01*
X91383124Y-19967035D02*
X91415029Y-19895607D01*
X91415029Y-19895607D02*
X91415029Y-19752750D01*
X91415029Y-19752750D02*
X91383124Y-19681321D01*
X91383124Y-19681321D02*
X91351219Y-19645607D01*
X91351219Y-19645607D02*
X91287410Y-19609892D01*
D10*
%TO.C,D14*%
X61080000Y-26840000D02*
X61080000Y-28340000D01*
X61080000Y-28340000D02*
X66480000Y-28340000D01*
X63280000Y-27090000D02*
X63280000Y-28090000D01*
X63380000Y-27590000D02*
X64280000Y-27090000D01*
X64280000Y-27090000D02*
X64280000Y-28090000D01*
X64280000Y-28090000D02*
X63380000Y-27590000D01*
X66480000Y-26840000D02*
X61080000Y-26840000D01*
X66480000Y-26840000D02*
X66480000Y-28340000D01*
%TO.C,D35*%
X80117500Y-64950000D02*
X80117500Y-66450000D01*
X80117500Y-66450000D02*
X85517500Y-66450000D01*
X82317500Y-65200000D02*
X82317500Y-66200000D01*
X82417500Y-65700000D02*
X83317500Y-65200000D01*
X83317500Y-65200000D02*
X83317500Y-66200000D01*
X83317500Y-66200000D02*
X82417500Y-65700000D01*
X85517500Y-64950000D02*
X80117500Y-64950000D01*
X85517500Y-64950000D02*
X85517500Y-66450000D01*
%TO.C,D15*%
X79290000Y-26770000D02*
X79290000Y-28270000D01*
X79290000Y-28270000D02*
X84690000Y-28270000D01*
X81490000Y-27020000D02*
X81490000Y-28020000D01*
X81590000Y-27520000D02*
X82490000Y-27020000D01*
X82490000Y-27020000D02*
X82490000Y-28020000D01*
X82490000Y-28020000D02*
X81590000Y-27520000D01*
X84690000Y-26770000D02*
X79290000Y-26770000D01*
X84690000Y-26770000D02*
X84690000Y-28270000D01*
%TO.C,D21*%
X3950000Y-45970000D02*
X3950000Y-47470000D01*
X3950000Y-47470000D02*
X9350000Y-47470000D01*
X6150000Y-46220000D02*
X6150000Y-47220000D01*
X6250000Y-46720000D02*
X7150000Y-46220000D01*
X7150000Y-46220000D02*
X7150000Y-47220000D01*
X7150000Y-47220000D02*
X6250000Y-46720000D01*
X9350000Y-45970000D02*
X3950000Y-45970000D01*
X9350000Y-45970000D02*
X9350000Y-47470000D01*
%TO.C,D13*%
X42050000Y-26910000D02*
X42050000Y-28410000D01*
X42050000Y-28410000D02*
X47450000Y-28410000D01*
X44250000Y-27160000D02*
X44250000Y-28160000D01*
X44350000Y-27660000D02*
X45250000Y-27160000D01*
X45250000Y-27160000D02*
X45250000Y-28160000D01*
X45250000Y-28160000D02*
X44350000Y-27660000D01*
X47450000Y-26910000D02*
X42050000Y-26910000D01*
X47450000Y-26910000D02*
X47450000Y-28410000D01*
%TO.C,SW41*%
X92740000Y-28050000D02*
X92740000Y-27800000D01*
X92740000Y-28050000D02*
X86740000Y-28050000D01*
X92740000Y-24550000D02*
X92740000Y-24800000D01*
X92740000Y-24550000D02*
X86740000Y-24550000D01*
X86740000Y-28050000D02*
X86740000Y-27800000D01*
X86740000Y-24550000D02*
X86740000Y-24800000D01*
%TO.C,D25*%
X80160000Y-45930000D02*
X80160000Y-47430000D01*
X80160000Y-47430000D02*
X85560000Y-47430000D01*
X82360000Y-46180000D02*
X82360000Y-47180000D01*
X82460000Y-46680000D02*
X83360000Y-46180000D01*
X83360000Y-46180000D02*
X83360000Y-47180000D01*
X83360000Y-47180000D02*
X82460000Y-46680000D01*
X85560000Y-45930000D02*
X80160000Y-45930000D01*
X85560000Y-45930000D02*
X85560000Y-47430000D01*
%TO.C,D31*%
X3900000Y-64930000D02*
X3900000Y-66430000D01*
X3900000Y-66430000D02*
X9300000Y-66430000D01*
X6100000Y-65180000D02*
X6100000Y-66180000D01*
X6200000Y-65680000D02*
X7100000Y-65180000D01*
X7100000Y-65180000D02*
X7100000Y-66180000D01*
X7100000Y-66180000D02*
X6200000Y-65680000D01*
X9300000Y-64930000D02*
X3900000Y-64930000D01*
X9300000Y-64930000D02*
X9300000Y-66430000D01*
%TO.C,D34*%
X61090000Y-65000000D02*
X61090000Y-66500000D01*
X61090000Y-66500000D02*
X66490000Y-66500000D01*
X63290000Y-65250000D02*
X63290000Y-66250000D01*
X63390000Y-65750000D02*
X64290000Y-65250000D01*
X64290000Y-65250000D02*
X64290000Y-66250000D01*
X64290000Y-66250000D02*
X63390000Y-65750000D01*
X66490000Y-65000000D02*
X61090000Y-65000000D01*
X66490000Y-65000000D02*
X66490000Y-66500000D01*
%TO.C,D24*%
X47725000Y-46010000D02*
X47725000Y-47510000D01*
X47725000Y-47510000D02*
X53125000Y-47510000D01*
X49925000Y-46260000D02*
X49925000Y-47260000D01*
X50025000Y-46760000D02*
X50925000Y-46260000D01*
X50925000Y-46260000D02*
X50925000Y-47260000D01*
X50925000Y-47260000D02*
X50025000Y-46760000D01*
X53125000Y-46010000D02*
X47725000Y-46010000D01*
X53125000Y-46010000D02*
X53125000Y-47510000D01*
%TO.C,D12*%
X22910000Y-26800000D02*
X22910000Y-28300000D01*
X22910000Y-28300000D02*
X28310000Y-28300000D01*
X25110000Y-27050000D02*
X25110000Y-28050000D01*
X25210000Y-27550000D02*
X26110000Y-27050000D01*
X26110000Y-27050000D02*
X26110000Y-28050000D01*
X26110000Y-28050000D02*
X25210000Y-27550000D01*
X28310000Y-26800000D02*
X22910000Y-26800000D01*
X28310000Y-26800000D02*
X28310000Y-28300000D01*
%TO.C,D11*%
X3930000Y-26860000D02*
X3930000Y-28360000D01*
X3930000Y-28360000D02*
X9330000Y-28360000D01*
X6130000Y-27110000D02*
X6130000Y-28110000D01*
X6230000Y-27610000D02*
X7130000Y-27110000D01*
X7130000Y-27110000D02*
X7130000Y-28110000D01*
X7130000Y-28110000D02*
X6230000Y-27610000D01*
X9330000Y-26860000D02*
X3930000Y-26860000D01*
X9330000Y-26860000D02*
X9330000Y-28360000D01*
%TO.C,D5*%
X80160000Y-7820000D02*
X80160000Y-9320000D01*
X80160000Y-9320000D02*
X85560000Y-9320000D01*
X82360000Y-8070000D02*
X82360000Y-9070000D01*
X82460000Y-8570000D02*
X83360000Y-8070000D01*
X83360000Y-8070000D02*
X83360000Y-9070000D01*
X83360000Y-9070000D02*
X82460000Y-8570000D01*
X85560000Y-7820000D02*
X80160000Y-7820000D01*
X85560000Y-7820000D02*
X85560000Y-9320000D01*
%TO.C,D1*%
X3980000Y-7910000D02*
X3980000Y-9410000D01*
X3980000Y-9410000D02*
X9380000Y-9410000D01*
X6180000Y-8160000D02*
X6180000Y-9160000D01*
X6280000Y-8660000D02*
X7180000Y-8160000D01*
X7180000Y-8160000D02*
X7180000Y-9160000D01*
X7180000Y-9160000D02*
X6280000Y-8660000D01*
X9380000Y-7910000D02*
X3980000Y-7910000D01*
X9380000Y-7910000D02*
X9380000Y-9410000D01*
%TO.C,D33*%
X42050000Y-64950000D02*
X42050000Y-66450000D01*
X42050000Y-66450000D02*
X47450000Y-66450000D01*
X44250000Y-65200000D02*
X44250000Y-66200000D01*
X44350000Y-65700000D02*
X45250000Y-65200000D01*
X45250000Y-65200000D02*
X45250000Y-66200000D01*
X45250000Y-66200000D02*
X44350000Y-65700000D01*
X47450000Y-64950000D02*
X42050000Y-64950000D01*
X47450000Y-64950000D02*
X47450000Y-66450000D01*
%TO.C,D36*%
X99212500Y-64990000D02*
X99212500Y-66490000D01*
X99212500Y-66490000D02*
X104612500Y-66490000D01*
X101412500Y-65240000D02*
X101412500Y-66240000D01*
X101512500Y-65740000D02*
X102412500Y-65240000D01*
X102412500Y-65240000D02*
X102412500Y-66240000D01*
X102412500Y-66240000D02*
X101512500Y-65740000D01*
X104612500Y-64990000D02*
X99212500Y-64990000D01*
X104612500Y-64990000D02*
X104612500Y-66490000D01*
%TO.C,D23*%
X41350000Y-45910000D02*
X41350000Y-47410000D01*
X41350000Y-47410000D02*
X46750000Y-47410000D01*
X43550000Y-46160000D02*
X43550000Y-47160000D01*
X43650000Y-46660000D02*
X44550000Y-46160000D01*
X44550000Y-46160000D02*
X44550000Y-47160000D01*
X44550000Y-47160000D02*
X43650000Y-46660000D01*
X46750000Y-45910000D02*
X41350000Y-45910000D01*
X46750000Y-45910000D02*
X46750000Y-47410000D01*
%TO.C,D32*%
X22990000Y-64920000D02*
X22990000Y-66420000D01*
X22990000Y-66420000D02*
X28390000Y-66420000D01*
X25190000Y-65170000D02*
X25190000Y-66170000D01*
X25290000Y-65670000D02*
X26190000Y-65170000D01*
X26190000Y-65170000D02*
X26190000Y-66170000D01*
X26190000Y-66170000D02*
X25290000Y-65670000D01*
X28390000Y-64920000D02*
X22990000Y-64920000D01*
X28390000Y-64920000D02*
X28390000Y-66420000D01*
%TO.C,D3*%
X41445000Y-7850000D02*
X41445000Y-9350000D01*
X41445000Y-9350000D02*
X46845000Y-9350000D01*
X43645000Y-8100000D02*
X43645000Y-9100000D01*
X43745000Y-8600000D02*
X44645000Y-8100000D01*
X44645000Y-8100000D02*
X44645000Y-9100000D01*
X44645000Y-9100000D02*
X43745000Y-8600000D01*
X46845000Y-7850000D02*
X41445000Y-7850000D01*
X46845000Y-7850000D02*
X46845000Y-9350000D01*
%TO.C,D4*%
X47640000Y-7880000D02*
X47640000Y-9380000D01*
X47640000Y-9380000D02*
X53040000Y-9380000D01*
X49840000Y-8130000D02*
X49840000Y-9130000D01*
X49940000Y-8630000D02*
X50840000Y-8130000D01*
X50840000Y-8130000D02*
X50840000Y-9130000D01*
X50840000Y-9130000D02*
X49940000Y-8630000D01*
X53040000Y-7880000D02*
X47640000Y-7880000D01*
X53040000Y-7880000D02*
X53040000Y-9380000D01*
%TO.C,D22*%
X10770000Y-45990000D02*
X10770000Y-47490000D01*
X10770000Y-47490000D02*
X16170000Y-47490000D01*
X12970000Y-46240000D02*
X12970000Y-47240000D01*
X13070000Y-46740000D02*
X13970000Y-46240000D01*
X13970000Y-46240000D02*
X13970000Y-47240000D01*
X13970000Y-47240000D02*
X13070000Y-46740000D01*
X16170000Y-45990000D02*
X10770000Y-45990000D01*
X16170000Y-45990000D02*
X16170000Y-47490000D01*
%TO.C,J1*%
X92130000Y9810000D02*
X97930000Y9810000D01*
X92130000Y-1940000D02*
X92130000Y9810000D01*
X97930000Y9810000D02*
X97930000Y-1940000D01*
X97930000Y-1940000D02*
X92130000Y-1940000D01*
%TO.C,D2*%
X10720000Y-7840000D02*
X10720000Y-9340000D01*
X10720000Y-9340000D02*
X16120000Y-9340000D01*
X12920000Y-8090000D02*
X12920000Y-9090000D01*
X13020000Y-8590000D02*
X13920000Y-8090000D01*
X13920000Y-8090000D02*
X13920000Y-9090000D01*
X13920000Y-9090000D02*
X13020000Y-8590000D01*
X16120000Y-7840000D02*
X10720000Y-7840000D01*
X16120000Y-7840000D02*
X16120000Y-9340000D01*
%TD*%
D12*
%TO.C,SW21*%
X5550000Y-33100000D03*
%TD*%
%TO.C,SW15*%
X81750000Y-14050000D03*
%TD*%
%TO.C,SW33*%
X43650000Y-52150000D03*
%TD*%
%TO.C,SW4*%
X62700000Y5000000D03*
%TD*%
%TO.C,SW36*%
X100800000Y-52150000D03*
%TD*%
%TO.C,SW3*%
X43650000Y5000000D03*
%TD*%
D13*
%TO.C,SW41*%
X86490000Y-26300000D03*
X92990000Y-26300000D03*
%TD*%
D12*
%TO.C,SW31*%
X5550000Y-52150000D03*
%TD*%
%TO.C,SW1*%
X5550000Y5000000D03*
%TD*%
%TO.C,SW25*%
X81750000Y-33100000D03*
%TD*%
%TO.C,SW23*%
X43650000Y-33100000D03*
%TD*%
%TO.C,SW2*%
X24600000Y5000000D03*
%TD*%
%TO.C,SW11*%
X5550000Y-14050000D03*
%TD*%
%TO.C,SW5*%
X81750000Y5000000D03*
%TD*%
%TO.C,SW32*%
X24600000Y-52150000D03*
%TD*%
%TO.C,SW12*%
X24600000Y-14050000D03*
%TD*%
%TO.C,SW22*%
X24600000Y-33100000D03*
%TD*%
%TO.C,SW14*%
X62700000Y-14050000D03*
%TD*%
%TO.C,SW24*%
X62700000Y-33100000D03*
%TD*%
%TO.C,SW35*%
X81750000Y-52150000D03*
%TD*%
%TO.C,SW13*%
X43650000Y-14050000D03*
%TD*%
%TO.C,SW34*%
X62700000Y-52150000D03*
%TD*%
D14*
%TO.C,U2*%
X87497200Y5680000D03*
X87497200Y3140000D03*
X87497200Y600000D03*
X87497200Y-1940000D03*
X87497200Y-4480000D03*
X87497200Y-7020000D03*
X87497200Y-9560000D03*
X87497200Y-12100000D03*
X87497200Y-14640000D03*
X87497200Y-17180000D03*
X87497200Y-19720000D03*
X87497200Y-22260000D03*
X102717200Y-22260000D03*
X102717200Y-19720000D03*
X102717200Y-17180000D03*
X102717200Y-14640000D03*
X102717200Y-12100000D03*
X102717200Y-9560000D03*
X102717200Y-7020000D03*
X102717200Y-4480000D03*
X102717200Y-1940000D03*
X102717200Y600000D03*
X102717200Y3140000D03*
X102717200Y5680000D03*
D15*
X102717200Y8220000D03*
D14*
X87497200Y8220000D03*
%TD*%
M02*
