%TF.GenerationSoftware,KiCad,Pcbnew,7.0.8*%
%TF.CreationDate,2024-10-11T08:32:43+09:00*%
%TF.ProjectId,cool642,636f6f6c-3634-4322-9e6b-696361645f70,rev?*%
%TF.SameCoordinates,Original*%
%TF.FileFunction,Legend,Bot*%
%TF.FilePolarity,Positive*%
%FSLAX46Y46*%
G04 Gerber Fmt 4.6, Leading zero omitted, Abs format (unit mm)*
G04 Created by KiCad (PCBNEW 7.0.8) date 2024-10-11 08:32:43*
%MOMM*%
%LPD*%
G01*
G04 APERTURE LIST*
%ADD10C,0.250000*%
%ADD11C,0.300000*%
%ADD12C,0.150000*%
%ADD13C,0.125000*%
%ADD14C,0.120000*%
%ADD15C,1.524000*%
%ADD16R,1.524000X1.524000*%
G04 APERTURE END LIST*
D10*
X40908860Y-30447000D02*
X41004098Y-30494619D01*
X41004098Y-30494619D02*
X41194574Y-30494619D01*
X41194574Y-30494619D02*
X41289812Y-30447000D01*
X41289812Y-30447000D02*
X41337431Y-30399380D01*
X41337431Y-30399380D02*
X41385050Y-30304142D01*
X41385050Y-30304142D02*
X41385050Y-30018428D01*
X41385050Y-30018428D02*
X41337431Y-29923190D01*
X41337431Y-29923190D02*
X41289812Y-29875571D01*
X41289812Y-29875571D02*
X41194574Y-29827952D01*
X41194574Y-29827952D02*
X41004098Y-29827952D01*
X41004098Y-29827952D02*
X40908860Y-29875571D01*
X40337431Y-30494619D02*
X40432669Y-30447000D01*
X40432669Y-30447000D02*
X40480288Y-30399380D01*
X40480288Y-30399380D02*
X40527907Y-30304142D01*
X40527907Y-30304142D02*
X40527907Y-30018428D01*
X40527907Y-30018428D02*
X40480288Y-29923190D01*
X40480288Y-29923190D02*
X40432669Y-29875571D01*
X40432669Y-29875571D02*
X40337431Y-29827952D01*
X40337431Y-29827952D02*
X40194574Y-29827952D01*
X40194574Y-29827952D02*
X40099336Y-29875571D01*
X40099336Y-29875571D02*
X40051717Y-29923190D01*
X40051717Y-29923190D02*
X40004098Y-30018428D01*
X40004098Y-30018428D02*
X40004098Y-30304142D01*
X40004098Y-30304142D02*
X40051717Y-30399380D01*
X40051717Y-30399380D02*
X40099336Y-30447000D01*
X40099336Y-30447000D02*
X40194574Y-30494619D01*
X40194574Y-30494619D02*
X40337431Y-30494619D01*
X39432669Y-30494619D02*
X39527907Y-30447000D01*
X39527907Y-30447000D02*
X39575526Y-30399380D01*
X39575526Y-30399380D02*
X39623145Y-30304142D01*
X39623145Y-30304142D02*
X39623145Y-30018428D01*
X39623145Y-30018428D02*
X39575526Y-29923190D01*
X39575526Y-29923190D02*
X39527907Y-29875571D01*
X39527907Y-29875571D02*
X39432669Y-29827952D01*
X39432669Y-29827952D02*
X39289812Y-29827952D01*
X39289812Y-29827952D02*
X39194574Y-29875571D01*
X39194574Y-29875571D02*
X39146955Y-29923190D01*
X39146955Y-29923190D02*
X39099336Y-30018428D01*
X39099336Y-30018428D02*
X39099336Y-30304142D01*
X39099336Y-30304142D02*
X39146955Y-30399380D01*
X39146955Y-30399380D02*
X39194574Y-30447000D01*
X39194574Y-30447000D02*
X39289812Y-30494619D01*
X39289812Y-30494619D02*
X39432669Y-30494619D01*
X38527907Y-30494619D02*
X38623145Y-30447000D01*
X38623145Y-30447000D02*
X38670764Y-30351761D01*
X38670764Y-30351761D02*
X38670764Y-29494619D01*
X37718383Y-29494619D02*
X37908859Y-29494619D01*
X37908859Y-29494619D02*
X38004097Y-29542238D01*
X38004097Y-29542238D02*
X38051716Y-29589857D01*
X38051716Y-29589857D02*
X38146954Y-29732714D01*
X38146954Y-29732714D02*
X38194573Y-29923190D01*
X38194573Y-29923190D02*
X38194573Y-30304142D01*
X38194573Y-30304142D02*
X38146954Y-30399380D01*
X38146954Y-30399380D02*
X38099335Y-30447000D01*
X38099335Y-30447000D02*
X38004097Y-30494619D01*
X38004097Y-30494619D02*
X37813621Y-30494619D01*
X37813621Y-30494619D02*
X37718383Y-30447000D01*
X37718383Y-30447000D02*
X37670764Y-30399380D01*
X37670764Y-30399380D02*
X37623145Y-30304142D01*
X37623145Y-30304142D02*
X37623145Y-30066047D01*
X37623145Y-30066047D02*
X37670764Y-29970809D01*
X37670764Y-29970809D02*
X37718383Y-29923190D01*
X37718383Y-29923190D02*
X37813621Y-29875571D01*
X37813621Y-29875571D02*
X38004097Y-29875571D01*
X38004097Y-29875571D02*
X38099335Y-29923190D01*
X38099335Y-29923190D02*
X38146954Y-29970809D01*
X38146954Y-29970809D02*
X38194573Y-30066047D01*
X36766002Y-29827952D02*
X36766002Y-30494619D01*
X37004097Y-29447000D02*
X37242192Y-30161285D01*
X37242192Y-30161285D02*
X36623145Y-30161285D01*
X36289811Y-29589857D02*
X36242192Y-29542238D01*
X36242192Y-29542238D02*
X36146954Y-29494619D01*
X36146954Y-29494619D02*
X35908859Y-29494619D01*
X35908859Y-29494619D02*
X35813621Y-29542238D01*
X35813621Y-29542238D02*
X35766002Y-29589857D01*
X35766002Y-29589857D02*
X35718383Y-29685095D01*
X35718383Y-29685095D02*
X35718383Y-29780333D01*
X35718383Y-29780333D02*
X35766002Y-29923190D01*
X35766002Y-29923190D02*
X36337430Y-30494619D01*
X36337430Y-30494619D02*
X35718383Y-30494619D01*
X35146954Y-30494619D02*
X35242192Y-30447000D01*
X35242192Y-30447000D02*
X35289811Y-30351761D01*
X35289811Y-30351761D02*
X35289811Y-29494619D01*
X34385049Y-30447000D02*
X34480287Y-30494619D01*
X34480287Y-30494619D02*
X34670763Y-30494619D01*
X34670763Y-30494619D02*
X34766001Y-30447000D01*
X34766001Y-30447000D02*
X34813620Y-30351761D01*
X34813620Y-30351761D02*
X34813620Y-29970809D01*
X34813620Y-29970809D02*
X34766001Y-29875571D01*
X34766001Y-29875571D02*
X34670763Y-29827952D01*
X34670763Y-29827952D02*
X34480287Y-29827952D01*
X34480287Y-29827952D02*
X34385049Y-29875571D01*
X34385049Y-29875571D02*
X34337430Y-29970809D01*
X34337430Y-29970809D02*
X34337430Y-30066047D01*
X34337430Y-30066047D02*
X34813620Y-30161285D01*
X34051715Y-29827952D02*
X33670763Y-29827952D01*
X33908858Y-30494619D02*
X33908858Y-29637476D01*
X33908858Y-29637476D02*
X33861239Y-29542238D01*
X33861239Y-29542238D02*
X33766001Y-29494619D01*
X33766001Y-29494619D02*
X33670763Y-29494619D01*
X33480286Y-29827952D02*
X33099334Y-29827952D01*
X33337429Y-29494619D02*
X33337429Y-30351761D01*
X33337429Y-30351761D02*
X33289810Y-30447000D01*
X33289810Y-30447000D02*
X33194572Y-30494619D01*
X33194572Y-30494619D02*
X33099334Y-30494619D01*
X32813619Y-30447000D02*
X32718381Y-30494619D01*
X32718381Y-30494619D02*
X32527905Y-30494619D01*
X32527905Y-30494619D02*
X32432667Y-30447000D01*
X32432667Y-30447000D02*
X32385048Y-30351761D01*
X32385048Y-30351761D02*
X32385048Y-30304142D01*
X32385048Y-30304142D02*
X32432667Y-30208904D01*
X32432667Y-30208904D02*
X32527905Y-30161285D01*
X32527905Y-30161285D02*
X32670762Y-30161285D01*
X32670762Y-30161285D02*
X32766000Y-30113666D01*
X32766000Y-30113666D02*
X32813619Y-30018428D01*
X32813619Y-30018428D02*
X32813619Y-29970809D01*
X32813619Y-29970809D02*
X32766000Y-29875571D01*
X32766000Y-29875571D02*
X32670762Y-29827952D01*
X32670762Y-29827952D02*
X32527905Y-29827952D01*
X32527905Y-29827952D02*
X32432667Y-29875571D01*
X31956476Y-30494619D02*
X31956476Y-29827952D01*
X31956476Y-29494619D02*
X32004095Y-29542238D01*
X32004095Y-29542238D02*
X31956476Y-29589857D01*
X31956476Y-29589857D02*
X31908857Y-29542238D01*
X31908857Y-29542238D02*
X31956476Y-29494619D01*
X31956476Y-29494619D02*
X31956476Y-29589857D01*
X31051715Y-30494619D02*
X31051715Y-29494619D01*
X31051715Y-30447000D02*
X31146953Y-30494619D01*
X31146953Y-30494619D02*
X31337429Y-30494619D01*
X31337429Y-30494619D02*
X31432667Y-30447000D01*
X31432667Y-30447000D02*
X31480286Y-30399380D01*
X31480286Y-30399380D02*
X31527905Y-30304142D01*
X31527905Y-30304142D02*
X31527905Y-30018428D01*
X31527905Y-30018428D02*
X31480286Y-29923190D01*
X31480286Y-29923190D02*
X31432667Y-29875571D01*
X31432667Y-29875571D02*
X31337429Y-29827952D01*
X31337429Y-29827952D02*
X31146953Y-29827952D01*
X31146953Y-29827952D02*
X31051715Y-29875571D01*
X30194572Y-30447000D02*
X30289810Y-30494619D01*
X30289810Y-30494619D02*
X30480286Y-30494619D01*
X30480286Y-30494619D02*
X30575524Y-30447000D01*
X30575524Y-30447000D02*
X30623143Y-30351761D01*
X30623143Y-30351761D02*
X30623143Y-29970809D01*
X30623143Y-29970809D02*
X30575524Y-29875571D01*
X30575524Y-29875571D02*
X30480286Y-29827952D01*
X30480286Y-29827952D02*
X30289810Y-29827952D01*
X30289810Y-29827952D02*
X30194572Y-29875571D01*
X30194572Y-29875571D02*
X30146953Y-29970809D01*
X30146953Y-29970809D02*
X30146953Y-30066047D01*
X30146953Y-30066047D02*
X30623143Y-30161285D01*
X28527905Y-30494619D02*
X28527905Y-29494619D01*
X28527905Y-30447000D02*
X28623143Y-30494619D01*
X28623143Y-30494619D02*
X28813619Y-30494619D01*
X28813619Y-30494619D02*
X28908857Y-30447000D01*
X28908857Y-30447000D02*
X28956476Y-30399380D01*
X28956476Y-30399380D02*
X29004095Y-30304142D01*
X29004095Y-30304142D02*
X29004095Y-30018428D01*
X29004095Y-30018428D02*
X28956476Y-29923190D01*
X28956476Y-29923190D02*
X28908857Y-29875571D01*
X28908857Y-29875571D02*
X28813619Y-29827952D01*
X28813619Y-29827952D02*
X28623143Y-29827952D01*
X28623143Y-29827952D02*
X28527905Y-29875571D01*
X27670762Y-30447000D02*
X27766000Y-30494619D01*
X27766000Y-30494619D02*
X27956476Y-30494619D01*
X27956476Y-30494619D02*
X28051714Y-30447000D01*
X28051714Y-30447000D02*
X28099333Y-30351761D01*
X28099333Y-30351761D02*
X28099333Y-29970809D01*
X28099333Y-29970809D02*
X28051714Y-29875571D01*
X28051714Y-29875571D02*
X27956476Y-29827952D01*
X27956476Y-29827952D02*
X27766000Y-29827952D01*
X27766000Y-29827952D02*
X27670762Y-29875571D01*
X27670762Y-29875571D02*
X27623143Y-29970809D01*
X27623143Y-29970809D02*
X27623143Y-30066047D01*
X27623143Y-30066047D02*
X28099333Y-30161285D01*
X27242190Y-30447000D02*
X27146952Y-30494619D01*
X27146952Y-30494619D02*
X26956476Y-30494619D01*
X26956476Y-30494619D02*
X26861238Y-30447000D01*
X26861238Y-30447000D02*
X26813619Y-30351761D01*
X26813619Y-30351761D02*
X26813619Y-30304142D01*
X26813619Y-30304142D02*
X26861238Y-30208904D01*
X26861238Y-30208904D02*
X26956476Y-30161285D01*
X26956476Y-30161285D02*
X27099333Y-30161285D01*
X27099333Y-30161285D02*
X27194571Y-30113666D01*
X27194571Y-30113666D02*
X27242190Y-30018428D01*
X27242190Y-30018428D02*
X27242190Y-29970809D01*
X27242190Y-29970809D02*
X27194571Y-29875571D01*
X27194571Y-29875571D02*
X27099333Y-29827952D01*
X27099333Y-29827952D02*
X26956476Y-29827952D01*
X26956476Y-29827952D02*
X26861238Y-29875571D01*
X26385047Y-30494619D02*
X26385047Y-29827952D01*
X26385047Y-29494619D02*
X26432666Y-29542238D01*
X26432666Y-29542238D02*
X26385047Y-29589857D01*
X26385047Y-29589857D02*
X26337428Y-29542238D01*
X26337428Y-29542238D02*
X26385047Y-29494619D01*
X26385047Y-29494619D02*
X26385047Y-29589857D01*
X25480286Y-29827952D02*
X25480286Y-30637476D01*
X25480286Y-30637476D02*
X25527905Y-30732714D01*
X25527905Y-30732714D02*
X25575524Y-30780333D01*
X25575524Y-30780333D02*
X25670762Y-30827952D01*
X25670762Y-30827952D02*
X25813619Y-30827952D01*
X25813619Y-30827952D02*
X25908857Y-30780333D01*
X25480286Y-30447000D02*
X25575524Y-30494619D01*
X25575524Y-30494619D02*
X25766000Y-30494619D01*
X25766000Y-30494619D02*
X25861238Y-30447000D01*
X25861238Y-30447000D02*
X25908857Y-30399380D01*
X25908857Y-30399380D02*
X25956476Y-30304142D01*
X25956476Y-30304142D02*
X25956476Y-30018428D01*
X25956476Y-30018428D02*
X25908857Y-29923190D01*
X25908857Y-29923190D02*
X25861238Y-29875571D01*
X25861238Y-29875571D02*
X25766000Y-29827952D01*
X25766000Y-29827952D02*
X25575524Y-29827952D01*
X25575524Y-29827952D02*
X25480286Y-29875571D01*
X25004095Y-29827952D02*
X25004095Y-30494619D01*
X25004095Y-29923190D02*
X24956476Y-29875571D01*
X24956476Y-29875571D02*
X24861238Y-29827952D01*
X24861238Y-29827952D02*
X24718381Y-29827952D01*
X24718381Y-29827952D02*
X24623143Y-29875571D01*
X24623143Y-29875571D02*
X24575524Y-29970809D01*
X24575524Y-29970809D02*
X24575524Y-30494619D01*
X23718381Y-30447000D02*
X23813619Y-30494619D01*
X23813619Y-30494619D02*
X24004095Y-30494619D01*
X24004095Y-30494619D02*
X24099333Y-30447000D01*
X24099333Y-30447000D02*
X24146952Y-30351761D01*
X24146952Y-30351761D02*
X24146952Y-29970809D01*
X24146952Y-29970809D02*
X24099333Y-29875571D01*
X24099333Y-29875571D02*
X24004095Y-29827952D01*
X24004095Y-29827952D02*
X23813619Y-29827952D01*
X23813619Y-29827952D02*
X23718381Y-29875571D01*
X23718381Y-29875571D02*
X23670762Y-29970809D01*
X23670762Y-29970809D02*
X23670762Y-30066047D01*
X23670762Y-30066047D02*
X24146952Y-30161285D01*
X22813619Y-30494619D02*
X22813619Y-29494619D01*
X22813619Y-30447000D02*
X22908857Y-30494619D01*
X22908857Y-30494619D02*
X23099333Y-30494619D01*
X23099333Y-30494619D02*
X23194571Y-30447000D01*
X23194571Y-30447000D02*
X23242190Y-30399380D01*
X23242190Y-30399380D02*
X23289809Y-30304142D01*
X23289809Y-30304142D02*
X23289809Y-30018428D01*
X23289809Y-30018428D02*
X23242190Y-29923190D01*
X23242190Y-29923190D02*
X23194571Y-29875571D01*
X23194571Y-29875571D02*
X23099333Y-29827952D01*
X23099333Y-29827952D02*
X22908857Y-29827952D01*
X22908857Y-29827952D02*
X22813619Y-29875571D01*
X21575523Y-30494619D02*
X21575523Y-29494619D01*
X21575523Y-29875571D02*
X21480285Y-29827952D01*
X21480285Y-29827952D02*
X21289809Y-29827952D01*
X21289809Y-29827952D02*
X21194571Y-29875571D01*
X21194571Y-29875571D02*
X21146952Y-29923190D01*
X21146952Y-29923190D02*
X21099333Y-30018428D01*
X21099333Y-30018428D02*
X21099333Y-30304142D01*
X21099333Y-30304142D02*
X21146952Y-30399380D01*
X21146952Y-30399380D02*
X21194571Y-30447000D01*
X21194571Y-30447000D02*
X21289809Y-30494619D01*
X21289809Y-30494619D02*
X21480285Y-30494619D01*
X21480285Y-30494619D02*
X21575523Y-30447000D01*
X20765999Y-29827952D02*
X20527904Y-30494619D01*
X20289809Y-29827952D02*
X20527904Y-30494619D01*
X20527904Y-30494619D02*
X20623142Y-30732714D01*
X20623142Y-30732714D02*
X20670761Y-30780333D01*
X20670761Y-30780333D02*
X20765999Y-30827952D01*
X19146951Y-30494619D02*
X19146951Y-29827952D01*
X19146951Y-29923190D02*
X19099332Y-29875571D01*
X19099332Y-29875571D02*
X19004094Y-29827952D01*
X19004094Y-29827952D02*
X18861237Y-29827952D01*
X18861237Y-29827952D02*
X18765999Y-29875571D01*
X18765999Y-29875571D02*
X18718380Y-29970809D01*
X18718380Y-29970809D02*
X18718380Y-30494619D01*
X18718380Y-29970809D02*
X18670761Y-29875571D01*
X18670761Y-29875571D02*
X18575523Y-29827952D01*
X18575523Y-29827952D02*
X18432666Y-29827952D01*
X18432666Y-29827952D02*
X18337427Y-29875571D01*
X18337427Y-29875571D02*
X18289808Y-29970809D01*
X18289808Y-29970809D02*
X18289808Y-30494619D01*
X17813618Y-30399380D02*
X17765999Y-30447000D01*
X17765999Y-30447000D02*
X17813618Y-30494619D01*
X17813618Y-30494619D02*
X17861237Y-30447000D01*
X17861237Y-30447000D02*
X17813618Y-30399380D01*
X17813618Y-30399380D02*
X17813618Y-30494619D01*
X17337428Y-30494619D02*
X17337428Y-29494619D01*
X17242190Y-30113666D02*
X16956476Y-30494619D01*
X16956476Y-29827952D02*
X17337428Y-30208904D01*
X16527904Y-30494619D02*
X16527904Y-29827952D01*
X16527904Y-29494619D02*
X16575523Y-29542238D01*
X16575523Y-29542238D02*
X16527904Y-29589857D01*
X16527904Y-29589857D02*
X16480285Y-29542238D01*
X16480285Y-29542238D02*
X16527904Y-29494619D01*
X16527904Y-29494619D02*
X16527904Y-29589857D01*
X41432669Y-31437952D02*
X41194574Y-32104619D01*
X41194574Y-32104619D02*
X40956479Y-31437952D01*
X40194574Y-32057000D02*
X40289812Y-32104619D01*
X40289812Y-32104619D02*
X40480288Y-32104619D01*
X40480288Y-32104619D02*
X40575526Y-32057000D01*
X40575526Y-32057000D02*
X40623145Y-31961761D01*
X40623145Y-31961761D02*
X40623145Y-31580809D01*
X40623145Y-31580809D02*
X40575526Y-31485571D01*
X40575526Y-31485571D02*
X40480288Y-31437952D01*
X40480288Y-31437952D02*
X40289812Y-31437952D01*
X40289812Y-31437952D02*
X40194574Y-31485571D01*
X40194574Y-31485571D02*
X40146955Y-31580809D01*
X40146955Y-31580809D02*
X40146955Y-31676047D01*
X40146955Y-31676047D02*
X40623145Y-31771285D01*
X39718383Y-32104619D02*
X39718383Y-31437952D01*
X39718383Y-31628428D02*
X39670764Y-31533190D01*
X39670764Y-31533190D02*
X39623145Y-31485571D01*
X39623145Y-31485571D02*
X39527907Y-31437952D01*
X39527907Y-31437952D02*
X39432669Y-31437952D01*
X39099335Y-32009380D02*
X39051716Y-32057000D01*
X39051716Y-32057000D02*
X39099335Y-32104619D01*
X39099335Y-32104619D02*
X39146954Y-32057000D01*
X39146954Y-32057000D02*
X39099335Y-32009380D01*
X39099335Y-32009380D02*
X39099335Y-32104619D01*
X38099336Y-32104619D02*
X38670764Y-32104619D01*
X38385050Y-32104619D02*
X38385050Y-31104619D01*
X38385050Y-31104619D02*
X38480288Y-31247476D01*
X38480288Y-31247476D02*
X38575526Y-31342714D01*
X38575526Y-31342714D02*
X38670764Y-31390333D01*
X37670764Y-32009380D02*
X37623145Y-32057000D01*
X37623145Y-32057000D02*
X37670764Y-32104619D01*
X37670764Y-32104619D02*
X37718383Y-32057000D01*
X37718383Y-32057000D02*
X37670764Y-32009380D01*
X37670764Y-32009380D02*
X37670764Y-32104619D01*
X37004098Y-31104619D02*
X36908860Y-31104619D01*
X36908860Y-31104619D02*
X36813622Y-31152238D01*
X36813622Y-31152238D02*
X36766003Y-31199857D01*
X36766003Y-31199857D02*
X36718384Y-31295095D01*
X36718384Y-31295095D02*
X36670765Y-31485571D01*
X36670765Y-31485571D02*
X36670765Y-31723666D01*
X36670765Y-31723666D02*
X36718384Y-31914142D01*
X36718384Y-31914142D02*
X36766003Y-32009380D01*
X36766003Y-32009380D02*
X36813622Y-32057000D01*
X36813622Y-32057000D02*
X36908860Y-32104619D01*
X36908860Y-32104619D02*
X37004098Y-32104619D01*
X37004098Y-32104619D02*
X37099336Y-32057000D01*
X37099336Y-32057000D02*
X37146955Y-32009380D01*
X37146955Y-32009380D02*
X37194574Y-31914142D01*
X37194574Y-31914142D02*
X37242193Y-31723666D01*
X37242193Y-31723666D02*
X37242193Y-31485571D01*
X37242193Y-31485571D02*
X37194574Y-31295095D01*
X37194574Y-31295095D02*
X37146955Y-31199857D01*
X37146955Y-31199857D02*
X37099336Y-31152238D01*
X37099336Y-31152238D02*
X37004098Y-31104619D01*
X35051717Y-32104619D02*
X35051717Y-31104619D01*
X35051717Y-32057000D02*
X35146955Y-32104619D01*
X35146955Y-32104619D02*
X35337431Y-32104619D01*
X35337431Y-32104619D02*
X35432669Y-32057000D01*
X35432669Y-32057000D02*
X35480288Y-32009380D01*
X35480288Y-32009380D02*
X35527907Y-31914142D01*
X35527907Y-31914142D02*
X35527907Y-31628428D01*
X35527907Y-31628428D02*
X35480288Y-31533190D01*
X35480288Y-31533190D02*
X35432669Y-31485571D01*
X35432669Y-31485571D02*
X35337431Y-31437952D01*
X35337431Y-31437952D02*
X35146955Y-31437952D01*
X35146955Y-31437952D02*
X35051717Y-31485571D01*
X34146955Y-32104619D02*
X34146955Y-31580809D01*
X34146955Y-31580809D02*
X34194574Y-31485571D01*
X34194574Y-31485571D02*
X34289812Y-31437952D01*
X34289812Y-31437952D02*
X34480288Y-31437952D01*
X34480288Y-31437952D02*
X34575526Y-31485571D01*
X34146955Y-32057000D02*
X34242193Y-32104619D01*
X34242193Y-32104619D02*
X34480288Y-32104619D01*
X34480288Y-32104619D02*
X34575526Y-32057000D01*
X34575526Y-32057000D02*
X34623145Y-31961761D01*
X34623145Y-31961761D02*
X34623145Y-31866523D01*
X34623145Y-31866523D02*
X34575526Y-31771285D01*
X34575526Y-31771285D02*
X34480288Y-31723666D01*
X34480288Y-31723666D02*
X34242193Y-31723666D01*
X34242193Y-31723666D02*
X34146955Y-31676047D01*
X33813621Y-31437952D02*
X33432669Y-31437952D01*
X33670764Y-31104619D02*
X33670764Y-31961761D01*
X33670764Y-31961761D02*
X33623145Y-32057000D01*
X33623145Y-32057000D02*
X33527907Y-32104619D01*
X33527907Y-32104619D02*
X33432669Y-32104619D01*
X32670764Y-32104619D02*
X32670764Y-31580809D01*
X32670764Y-31580809D02*
X32718383Y-31485571D01*
X32718383Y-31485571D02*
X32813621Y-31437952D01*
X32813621Y-31437952D02*
X33004097Y-31437952D01*
X33004097Y-31437952D02*
X33099335Y-31485571D01*
X32670764Y-32057000D02*
X32766002Y-32104619D01*
X32766002Y-32104619D02*
X33004097Y-32104619D01*
X33004097Y-32104619D02*
X33099335Y-32057000D01*
X33099335Y-32057000D02*
X33146954Y-31961761D01*
X33146954Y-31961761D02*
X33146954Y-31866523D01*
X33146954Y-31866523D02*
X33099335Y-31771285D01*
X33099335Y-31771285D02*
X33004097Y-31723666D01*
X33004097Y-31723666D02*
X32766002Y-31723666D01*
X32766002Y-31723666D02*
X32670764Y-31676047D01*
X32242192Y-31199857D02*
X32194573Y-31152238D01*
X32194573Y-31152238D02*
X32099335Y-31104619D01*
X32099335Y-31104619D02*
X31861240Y-31104619D01*
X31861240Y-31104619D02*
X31766002Y-31152238D01*
X31766002Y-31152238D02*
X31718383Y-31199857D01*
X31718383Y-31199857D02*
X31670764Y-31295095D01*
X31670764Y-31295095D02*
X31670764Y-31390333D01*
X31670764Y-31390333D02*
X31718383Y-31533190D01*
X31718383Y-31533190D02*
X32289811Y-32104619D01*
X32289811Y-32104619D02*
X31670764Y-32104619D01*
X31051716Y-31104619D02*
X30956478Y-31104619D01*
X30956478Y-31104619D02*
X30861240Y-31152238D01*
X30861240Y-31152238D02*
X30813621Y-31199857D01*
X30813621Y-31199857D02*
X30766002Y-31295095D01*
X30766002Y-31295095D02*
X30718383Y-31485571D01*
X30718383Y-31485571D02*
X30718383Y-31723666D01*
X30718383Y-31723666D02*
X30766002Y-31914142D01*
X30766002Y-31914142D02*
X30813621Y-32009380D01*
X30813621Y-32009380D02*
X30861240Y-32057000D01*
X30861240Y-32057000D02*
X30956478Y-32104619D01*
X30956478Y-32104619D02*
X31051716Y-32104619D01*
X31051716Y-32104619D02*
X31146954Y-32057000D01*
X31146954Y-32057000D02*
X31194573Y-32009380D01*
X31194573Y-32009380D02*
X31242192Y-31914142D01*
X31242192Y-31914142D02*
X31289811Y-31723666D01*
X31289811Y-31723666D02*
X31289811Y-31485571D01*
X31289811Y-31485571D02*
X31242192Y-31295095D01*
X31242192Y-31295095D02*
X31194573Y-31199857D01*
X31194573Y-31199857D02*
X31146954Y-31152238D01*
X31146954Y-31152238D02*
X31051716Y-31104619D01*
X30337430Y-31199857D02*
X30289811Y-31152238D01*
X30289811Y-31152238D02*
X30194573Y-31104619D01*
X30194573Y-31104619D02*
X29956478Y-31104619D01*
X29956478Y-31104619D02*
X29861240Y-31152238D01*
X29861240Y-31152238D02*
X29813621Y-31199857D01*
X29813621Y-31199857D02*
X29766002Y-31295095D01*
X29766002Y-31295095D02*
X29766002Y-31390333D01*
X29766002Y-31390333D02*
X29813621Y-31533190D01*
X29813621Y-31533190D02*
X30385049Y-32104619D01*
X30385049Y-32104619D02*
X29766002Y-32104619D01*
X28908859Y-31437952D02*
X28908859Y-32104619D01*
X29146954Y-31057000D02*
X29385049Y-31771285D01*
X29385049Y-31771285D02*
X28766002Y-31771285D01*
X27861240Y-32104619D02*
X28432668Y-32104619D01*
X28146954Y-32104619D02*
X28146954Y-31104619D01*
X28146954Y-31104619D02*
X28242192Y-31247476D01*
X28242192Y-31247476D02*
X28337430Y-31342714D01*
X28337430Y-31342714D02*
X28432668Y-31390333D01*
X27242192Y-31104619D02*
X27146954Y-31104619D01*
X27146954Y-31104619D02*
X27051716Y-31152238D01*
X27051716Y-31152238D02*
X27004097Y-31199857D01*
X27004097Y-31199857D02*
X26956478Y-31295095D01*
X26956478Y-31295095D02*
X26908859Y-31485571D01*
X26908859Y-31485571D02*
X26908859Y-31723666D01*
X26908859Y-31723666D02*
X26956478Y-31914142D01*
X26956478Y-31914142D02*
X27004097Y-32009380D01*
X27004097Y-32009380D02*
X27051716Y-32057000D01*
X27051716Y-32057000D02*
X27146954Y-32104619D01*
X27146954Y-32104619D02*
X27242192Y-32104619D01*
X27242192Y-32104619D02*
X27337430Y-32057000D01*
X27337430Y-32057000D02*
X27385049Y-32009380D01*
X27385049Y-32009380D02*
X27432668Y-31914142D01*
X27432668Y-31914142D02*
X27480287Y-31723666D01*
X27480287Y-31723666D02*
X27480287Y-31485571D01*
X27480287Y-31485571D02*
X27432668Y-31295095D01*
X27432668Y-31295095D02*
X27385049Y-31199857D01*
X27385049Y-31199857D02*
X27337430Y-31152238D01*
X27337430Y-31152238D02*
X27242192Y-31104619D01*
X25956478Y-32104619D02*
X26527906Y-32104619D01*
X26242192Y-32104619D02*
X26242192Y-31104619D01*
X26242192Y-31104619D02*
X26337430Y-31247476D01*
X26337430Y-31247476D02*
X26432668Y-31342714D01*
X26432668Y-31342714D02*
X26527906Y-31390333D01*
X25004097Y-32104619D02*
X25575525Y-32104619D01*
X25289811Y-32104619D02*
X25289811Y-31104619D01*
X25289811Y-31104619D02*
X25385049Y-31247476D01*
X25385049Y-31247476D02*
X25480287Y-31342714D01*
X25480287Y-31342714D02*
X25575525Y-31390333D01*
D11*
X81242632Y-50254400D02*
X81385489Y-50325828D01*
X81385489Y-50325828D02*
X81671203Y-50325828D01*
X81671203Y-50325828D02*
X81814060Y-50254400D01*
X81814060Y-50254400D02*
X81885489Y-50182971D01*
X81885489Y-50182971D02*
X81956917Y-50040114D01*
X81956917Y-50040114D02*
X81956917Y-49611542D01*
X81956917Y-49611542D02*
X81885489Y-49468685D01*
X81885489Y-49468685D02*
X81814060Y-49397257D01*
X81814060Y-49397257D02*
X81671203Y-49325828D01*
X81671203Y-49325828D02*
X81385489Y-49325828D01*
X81385489Y-49325828D02*
X81242632Y-49397257D01*
X80385489Y-50325828D02*
X80528346Y-50254400D01*
X80528346Y-50254400D02*
X80599775Y-50182971D01*
X80599775Y-50182971D02*
X80671203Y-50040114D01*
X80671203Y-50040114D02*
X80671203Y-49611542D01*
X80671203Y-49611542D02*
X80599775Y-49468685D01*
X80599775Y-49468685D02*
X80528346Y-49397257D01*
X80528346Y-49397257D02*
X80385489Y-49325828D01*
X80385489Y-49325828D02*
X80171203Y-49325828D01*
X80171203Y-49325828D02*
X80028346Y-49397257D01*
X80028346Y-49397257D02*
X79956918Y-49468685D01*
X79956918Y-49468685D02*
X79885489Y-49611542D01*
X79885489Y-49611542D02*
X79885489Y-50040114D01*
X79885489Y-50040114D02*
X79956918Y-50182971D01*
X79956918Y-50182971D02*
X80028346Y-50254400D01*
X80028346Y-50254400D02*
X80171203Y-50325828D01*
X80171203Y-50325828D02*
X80385489Y-50325828D01*
X79028346Y-50325828D02*
X79171203Y-50254400D01*
X79171203Y-50254400D02*
X79242632Y-50182971D01*
X79242632Y-50182971D02*
X79314060Y-50040114D01*
X79314060Y-50040114D02*
X79314060Y-49611542D01*
X79314060Y-49611542D02*
X79242632Y-49468685D01*
X79242632Y-49468685D02*
X79171203Y-49397257D01*
X79171203Y-49397257D02*
X79028346Y-49325828D01*
X79028346Y-49325828D02*
X78814060Y-49325828D01*
X78814060Y-49325828D02*
X78671203Y-49397257D01*
X78671203Y-49397257D02*
X78599775Y-49468685D01*
X78599775Y-49468685D02*
X78528346Y-49611542D01*
X78528346Y-49611542D02*
X78528346Y-50040114D01*
X78528346Y-50040114D02*
X78599775Y-50182971D01*
X78599775Y-50182971D02*
X78671203Y-50254400D01*
X78671203Y-50254400D02*
X78814060Y-50325828D01*
X78814060Y-50325828D02*
X79028346Y-50325828D01*
X77671203Y-50325828D02*
X77814060Y-50254400D01*
X77814060Y-50254400D02*
X77885489Y-50111542D01*
X77885489Y-50111542D02*
X77885489Y-48825828D01*
X76456918Y-48825828D02*
X76742632Y-48825828D01*
X76742632Y-48825828D02*
X76885489Y-48897257D01*
X76885489Y-48897257D02*
X76956918Y-48968685D01*
X76956918Y-48968685D02*
X77099775Y-49182971D01*
X77099775Y-49182971D02*
X77171203Y-49468685D01*
X77171203Y-49468685D02*
X77171203Y-50040114D01*
X77171203Y-50040114D02*
X77099775Y-50182971D01*
X77099775Y-50182971D02*
X77028346Y-50254400D01*
X77028346Y-50254400D02*
X76885489Y-50325828D01*
X76885489Y-50325828D02*
X76599775Y-50325828D01*
X76599775Y-50325828D02*
X76456918Y-50254400D01*
X76456918Y-50254400D02*
X76385489Y-50182971D01*
X76385489Y-50182971D02*
X76314060Y-50040114D01*
X76314060Y-50040114D02*
X76314060Y-49682971D01*
X76314060Y-49682971D02*
X76385489Y-49540114D01*
X76385489Y-49540114D02*
X76456918Y-49468685D01*
X76456918Y-49468685D02*
X76599775Y-49397257D01*
X76599775Y-49397257D02*
X76885489Y-49397257D01*
X76885489Y-49397257D02*
X77028346Y-49468685D01*
X77028346Y-49468685D02*
X77099775Y-49540114D01*
X77099775Y-49540114D02*
X77171203Y-49682971D01*
X75028347Y-49325828D02*
X75028347Y-50325828D01*
X75385489Y-48754400D02*
X75742632Y-49825828D01*
X75742632Y-49825828D02*
X74814061Y-49825828D01*
X74314061Y-48968685D02*
X74242633Y-48897257D01*
X74242633Y-48897257D02*
X74099776Y-48825828D01*
X74099776Y-48825828D02*
X73742633Y-48825828D01*
X73742633Y-48825828D02*
X73599776Y-48897257D01*
X73599776Y-48897257D02*
X73528347Y-48968685D01*
X73528347Y-48968685D02*
X73456918Y-49111542D01*
X73456918Y-49111542D02*
X73456918Y-49254400D01*
X73456918Y-49254400D02*
X73528347Y-49468685D01*
X73528347Y-49468685D02*
X74385490Y-50325828D01*
X74385490Y-50325828D02*
X73456918Y-50325828D01*
X72099776Y-50325828D02*
X72814062Y-50325828D01*
X72814062Y-50325828D02*
X72814062Y-48825828D01*
X69814062Y-50325828D02*
X69814062Y-48825828D01*
X69814062Y-50254400D02*
X69956919Y-50325828D01*
X69956919Y-50325828D02*
X70242633Y-50325828D01*
X70242633Y-50325828D02*
X70385490Y-50254400D01*
X70385490Y-50254400D02*
X70456919Y-50182971D01*
X70456919Y-50182971D02*
X70528347Y-50040114D01*
X70528347Y-50040114D02*
X70528347Y-49611542D01*
X70528347Y-49611542D02*
X70456919Y-49468685D01*
X70456919Y-49468685D02*
X70385490Y-49397257D01*
X70385490Y-49397257D02*
X70242633Y-49325828D01*
X70242633Y-49325828D02*
X69956919Y-49325828D01*
X69956919Y-49325828D02*
X69814062Y-49397257D01*
X68528347Y-50254400D02*
X68671204Y-50325828D01*
X68671204Y-50325828D02*
X68956919Y-50325828D01*
X68956919Y-50325828D02*
X69099776Y-50254400D01*
X69099776Y-50254400D02*
X69171204Y-50111542D01*
X69171204Y-50111542D02*
X69171204Y-49540114D01*
X69171204Y-49540114D02*
X69099776Y-49397257D01*
X69099776Y-49397257D02*
X68956919Y-49325828D01*
X68956919Y-49325828D02*
X68671204Y-49325828D01*
X68671204Y-49325828D02*
X68528347Y-49397257D01*
X68528347Y-49397257D02*
X68456919Y-49540114D01*
X68456919Y-49540114D02*
X68456919Y-49682971D01*
X68456919Y-49682971D02*
X69171204Y-49825828D01*
X67885490Y-50254400D02*
X67742633Y-50325828D01*
X67742633Y-50325828D02*
X67456919Y-50325828D01*
X67456919Y-50325828D02*
X67314062Y-50254400D01*
X67314062Y-50254400D02*
X67242633Y-50111542D01*
X67242633Y-50111542D02*
X67242633Y-50040114D01*
X67242633Y-50040114D02*
X67314062Y-49897257D01*
X67314062Y-49897257D02*
X67456919Y-49825828D01*
X67456919Y-49825828D02*
X67671205Y-49825828D01*
X67671205Y-49825828D02*
X67814062Y-49754400D01*
X67814062Y-49754400D02*
X67885490Y-49611542D01*
X67885490Y-49611542D02*
X67885490Y-49540114D01*
X67885490Y-49540114D02*
X67814062Y-49397257D01*
X67814062Y-49397257D02*
X67671205Y-49325828D01*
X67671205Y-49325828D02*
X67456919Y-49325828D01*
X67456919Y-49325828D02*
X67314062Y-49397257D01*
X66599776Y-50325828D02*
X66599776Y-49325828D01*
X66599776Y-48825828D02*
X66671204Y-48897257D01*
X66671204Y-48897257D02*
X66599776Y-48968685D01*
X66599776Y-48968685D02*
X66528347Y-48897257D01*
X66528347Y-48897257D02*
X66599776Y-48825828D01*
X66599776Y-48825828D02*
X66599776Y-48968685D01*
X65242633Y-49325828D02*
X65242633Y-50540114D01*
X65242633Y-50540114D02*
X65314061Y-50682971D01*
X65314061Y-50682971D02*
X65385490Y-50754400D01*
X65385490Y-50754400D02*
X65528347Y-50825828D01*
X65528347Y-50825828D02*
X65742633Y-50825828D01*
X65742633Y-50825828D02*
X65885490Y-50754400D01*
X65242633Y-50254400D02*
X65385490Y-50325828D01*
X65385490Y-50325828D02*
X65671204Y-50325828D01*
X65671204Y-50325828D02*
X65814061Y-50254400D01*
X65814061Y-50254400D02*
X65885490Y-50182971D01*
X65885490Y-50182971D02*
X65956918Y-50040114D01*
X65956918Y-50040114D02*
X65956918Y-49611542D01*
X65956918Y-49611542D02*
X65885490Y-49468685D01*
X65885490Y-49468685D02*
X65814061Y-49397257D01*
X65814061Y-49397257D02*
X65671204Y-49325828D01*
X65671204Y-49325828D02*
X65385490Y-49325828D01*
X65385490Y-49325828D02*
X65242633Y-49397257D01*
X64528347Y-49325828D02*
X64528347Y-50325828D01*
X64528347Y-49468685D02*
X64456918Y-49397257D01*
X64456918Y-49397257D02*
X64314061Y-49325828D01*
X64314061Y-49325828D02*
X64099775Y-49325828D01*
X64099775Y-49325828D02*
X63956918Y-49397257D01*
X63956918Y-49397257D02*
X63885490Y-49540114D01*
X63885490Y-49540114D02*
X63885490Y-50325828D01*
X62599775Y-50254400D02*
X62742632Y-50325828D01*
X62742632Y-50325828D02*
X63028347Y-50325828D01*
X63028347Y-50325828D02*
X63171204Y-50254400D01*
X63171204Y-50254400D02*
X63242632Y-50111542D01*
X63242632Y-50111542D02*
X63242632Y-49540114D01*
X63242632Y-49540114D02*
X63171204Y-49397257D01*
X63171204Y-49397257D02*
X63028347Y-49325828D01*
X63028347Y-49325828D02*
X62742632Y-49325828D01*
X62742632Y-49325828D02*
X62599775Y-49397257D01*
X62599775Y-49397257D02*
X62528347Y-49540114D01*
X62528347Y-49540114D02*
X62528347Y-49682971D01*
X62528347Y-49682971D02*
X63242632Y-49825828D01*
X61242633Y-50325828D02*
X61242633Y-48825828D01*
X61242633Y-50254400D02*
X61385490Y-50325828D01*
X61385490Y-50325828D02*
X61671204Y-50325828D01*
X61671204Y-50325828D02*
X61814061Y-50254400D01*
X61814061Y-50254400D02*
X61885490Y-50182971D01*
X61885490Y-50182971D02*
X61956918Y-50040114D01*
X61956918Y-50040114D02*
X61956918Y-49611542D01*
X61956918Y-49611542D02*
X61885490Y-49468685D01*
X61885490Y-49468685D02*
X61814061Y-49397257D01*
X61814061Y-49397257D02*
X61671204Y-49325828D01*
X61671204Y-49325828D02*
X61385490Y-49325828D01*
X61385490Y-49325828D02*
X61242633Y-49397257D01*
X59385490Y-50325828D02*
X59385490Y-48825828D01*
X59385490Y-49397257D02*
X59242633Y-49325828D01*
X59242633Y-49325828D02*
X58956918Y-49325828D01*
X58956918Y-49325828D02*
X58814061Y-49397257D01*
X58814061Y-49397257D02*
X58742633Y-49468685D01*
X58742633Y-49468685D02*
X58671204Y-49611542D01*
X58671204Y-49611542D02*
X58671204Y-50040114D01*
X58671204Y-50040114D02*
X58742633Y-50182971D01*
X58742633Y-50182971D02*
X58814061Y-50254400D01*
X58814061Y-50254400D02*
X58956918Y-50325828D01*
X58956918Y-50325828D02*
X59242633Y-50325828D01*
X59242633Y-50325828D02*
X59385490Y-50254400D01*
X58171204Y-49325828D02*
X57814061Y-50325828D01*
X57456918Y-49325828D02*
X57814061Y-50325828D01*
X57814061Y-50325828D02*
X57956918Y-50682971D01*
X57956918Y-50682971D02*
X58028347Y-50754400D01*
X58028347Y-50754400D02*
X58171204Y-50825828D01*
X55742633Y-50325828D02*
X55742633Y-49325828D01*
X55742633Y-49468685D02*
X55671204Y-49397257D01*
X55671204Y-49397257D02*
X55528347Y-49325828D01*
X55528347Y-49325828D02*
X55314061Y-49325828D01*
X55314061Y-49325828D02*
X55171204Y-49397257D01*
X55171204Y-49397257D02*
X55099776Y-49540114D01*
X55099776Y-49540114D02*
X55099776Y-50325828D01*
X55099776Y-49540114D02*
X55028347Y-49397257D01*
X55028347Y-49397257D02*
X54885490Y-49325828D01*
X54885490Y-49325828D02*
X54671204Y-49325828D01*
X54671204Y-49325828D02*
X54528347Y-49397257D01*
X54528347Y-49397257D02*
X54456918Y-49540114D01*
X54456918Y-49540114D02*
X54456918Y-50325828D01*
X53742633Y-50182971D02*
X53671204Y-50254400D01*
X53671204Y-50254400D02*
X53742633Y-50325828D01*
X53742633Y-50325828D02*
X53814061Y-50254400D01*
X53814061Y-50254400D02*
X53742633Y-50182971D01*
X53742633Y-50182971D02*
X53742633Y-50325828D01*
X53028347Y-50325828D02*
X53028347Y-48825828D01*
X52885490Y-49754400D02*
X52456918Y-50325828D01*
X52456918Y-49325828D02*
X53028347Y-49897257D01*
X51814061Y-50325828D02*
X51814061Y-49325828D01*
X51814061Y-48825828D02*
X51885489Y-48897257D01*
X51885489Y-48897257D02*
X51814061Y-48968685D01*
X51814061Y-48968685D02*
X51742632Y-48897257D01*
X51742632Y-48897257D02*
X51814061Y-48825828D01*
X51814061Y-48825828D02*
X51814061Y-48968685D01*
X82028346Y-51740828D02*
X81671203Y-52740828D01*
X81671203Y-52740828D02*
X81314060Y-51740828D01*
X80171203Y-52669400D02*
X80314060Y-52740828D01*
X80314060Y-52740828D02*
X80599775Y-52740828D01*
X80599775Y-52740828D02*
X80742632Y-52669400D01*
X80742632Y-52669400D02*
X80814060Y-52526542D01*
X80814060Y-52526542D02*
X80814060Y-51955114D01*
X80814060Y-51955114D02*
X80742632Y-51812257D01*
X80742632Y-51812257D02*
X80599775Y-51740828D01*
X80599775Y-51740828D02*
X80314060Y-51740828D01*
X80314060Y-51740828D02*
X80171203Y-51812257D01*
X80171203Y-51812257D02*
X80099775Y-51955114D01*
X80099775Y-51955114D02*
X80099775Y-52097971D01*
X80099775Y-52097971D02*
X80814060Y-52240828D01*
X79456918Y-52740828D02*
X79456918Y-51740828D01*
X79456918Y-52026542D02*
X79385489Y-51883685D01*
X79385489Y-51883685D02*
X79314061Y-51812257D01*
X79314061Y-51812257D02*
X79171203Y-51740828D01*
X79171203Y-51740828D02*
X79028346Y-51740828D01*
X78528347Y-52597971D02*
X78456918Y-52669400D01*
X78456918Y-52669400D02*
X78528347Y-52740828D01*
X78528347Y-52740828D02*
X78599775Y-52669400D01*
X78599775Y-52669400D02*
X78528347Y-52597971D01*
X78528347Y-52597971D02*
X78528347Y-52740828D01*
X77028346Y-52740828D02*
X77885489Y-52740828D01*
X77456918Y-52740828D02*
X77456918Y-51240828D01*
X77456918Y-51240828D02*
X77599775Y-51455114D01*
X77599775Y-51455114D02*
X77742632Y-51597971D01*
X77742632Y-51597971D02*
X77885489Y-51669400D01*
X76385490Y-52597971D02*
X76314061Y-52669400D01*
X76314061Y-52669400D02*
X76385490Y-52740828D01*
X76385490Y-52740828D02*
X76456918Y-52669400D01*
X76456918Y-52669400D02*
X76385490Y-52597971D01*
X76385490Y-52597971D02*
X76385490Y-52740828D01*
X75385489Y-51240828D02*
X75242632Y-51240828D01*
X75242632Y-51240828D02*
X75099775Y-51312257D01*
X75099775Y-51312257D02*
X75028347Y-51383685D01*
X75028347Y-51383685D02*
X74956918Y-51526542D01*
X74956918Y-51526542D02*
X74885489Y-51812257D01*
X74885489Y-51812257D02*
X74885489Y-52169400D01*
X74885489Y-52169400D02*
X74956918Y-52455114D01*
X74956918Y-52455114D02*
X75028347Y-52597971D01*
X75028347Y-52597971D02*
X75099775Y-52669400D01*
X75099775Y-52669400D02*
X75242632Y-52740828D01*
X75242632Y-52740828D02*
X75385489Y-52740828D01*
X75385489Y-52740828D02*
X75528347Y-52669400D01*
X75528347Y-52669400D02*
X75599775Y-52597971D01*
X75599775Y-52597971D02*
X75671204Y-52455114D01*
X75671204Y-52455114D02*
X75742632Y-52169400D01*
X75742632Y-52169400D02*
X75742632Y-51812257D01*
X75742632Y-51812257D02*
X75671204Y-51526542D01*
X75671204Y-51526542D02*
X75599775Y-51383685D01*
X75599775Y-51383685D02*
X75528347Y-51312257D01*
X75528347Y-51312257D02*
X75385489Y-51240828D01*
X72456919Y-52740828D02*
X72456919Y-51240828D01*
X72456919Y-52669400D02*
X72599776Y-52740828D01*
X72599776Y-52740828D02*
X72885490Y-52740828D01*
X72885490Y-52740828D02*
X73028347Y-52669400D01*
X73028347Y-52669400D02*
X73099776Y-52597971D01*
X73099776Y-52597971D02*
X73171204Y-52455114D01*
X73171204Y-52455114D02*
X73171204Y-52026542D01*
X73171204Y-52026542D02*
X73099776Y-51883685D01*
X73099776Y-51883685D02*
X73028347Y-51812257D01*
X73028347Y-51812257D02*
X72885490Y-51740828D01*
X72885490Y-51740828D02*
X72599776Y-51740828D01*
X72599776Y-51740828D02*
X72456919Y-51812257D01*
X71099776Y-52740828D02*
X71099776Y-51955114D01*
X71099776Y-51955114D02*
X71171204Y-51812257D01*
X71171204Y-51812257D02*
X71314061Y-51740828D01*
X71314061Y-51740828D02*
X71599776Y-51740828D01*
X71599776Y-51740828D02*
X71742633Y-51812257D01*
X71099776Y-52669400D02*
X71242633Y-52740828D01*
X71242633Y-52740828D02*
X71599776Y-52740828D01*
X71599776Y-52740828D02*
X71742633Y-52669400D01*
X71742633Y-52669400D02*
X71814061Y-52526542D01*
X71814061Y-52526542D02*
X71814061Y-52383685D01*
X71814061Y-52383685D02*
X71742633Y-52240828D01*
X71742633Y-52240828D02*
X71599776Y-52169400D01*
X71599776Y-52169400D02*
X71242633Y-52169400D01*
X71242633Y-52169400D02*
X71099776Y-52097971D01*
X70528347Y-51740828D02*
X70171204Y-52740828D01*
X69814061Y-51740828D02*
X70171204Y-52740828D01*
X70171204Y-52740828D02*
X70314061Y-53097971D01*
X70314061Y-53097971D02*
X70385490Y-53169400D01*
X70385490Y-53169400D02*
X70528347Y-53240828D01*
X68599776Y-52740828D02*
X68599776Y-51955114D01*
X68599776Y-51955114D02*
X68671204Y-51812257D01*
X68671204Y-51812257D02*
X68814061Y-51740828D01*
X68814061Y-51740828D02*
X69099776Y-51740828D01*
X69099776Y-51740828D02*
X69242633Y-51812257D01*
X68599776Y-52669400D02*
X68742633Y-52740828D01*
X68742633Y-52740828D02*
X69099776Y-52740828D01*
X69099776Y-52740828D02*
X69242633Y-52669400D01*
X69242633Y-52669400D02*
X69314061Y-52526542D01*
X69314061Y-52526542D02*
X69314061Y-52383685D01*
X69314061Y-52383685D02*
X69242633Y-52240828D01*
X69242633Y-52240828D02*
X69099776Y-52169400D01*
X69099776Y-52169400D02*
X68742633Y-52169400D01*
X68742633Y-52169400D02*
X68599776Y-52097971D01*
X67956918Y-51383685D02*
X67885490Y-51312257D01*
X67885490Y-51312257D02*
X67742633Y-51240828D01*
X67742633Y-51240828D02*
X67385490Y-51240828D01*
X67385490Y-51240828D02*
X67242633Y-51312257D01*
X67242633Y-51312257D02*
X67171204Y-51383685D01*
X67171204Y-51383685D02*
X67099775Y-51526542D01*
X67099775Y-51526542D02*
X67099775Y-51669400D01*
X67099775Y-51669400D02*
X67171204Y-51883685D01*
X67171204Y-51883685D02*
X68028347Y-52740828D01*
X68028347Y-52740828D02*
X67099775Y-52740828D01*
X66171204Y-51240828D02*
X66028347Y-51240828D01*
X66028347Y-51240828D02*
X65885490Y-51312257D01*
X65885490Y-51312257D02*
X65814062Y-51383685D01*
X65814062Y-51383685D02*
X65742633Y-51526542D01*
X65742633Y-51526542D02*
X65671204Y-51812257D01*
X65671204Y-51812257D02*
X65671204Y-52169400D01*
X65671204Y-52169400D02*
X65742633Y-52455114D01*
X65742633Y-52455114D02*
X65814062Y-52597971D01*
X65814062Y-52597971D02*
X65885490Y-52669400D01*
X65885490Y-52669400D02*
X66028347Y-52740828D01*
X66028347Y-52740828D02*
X66171204Y-52740828D01*
X66171204Y-52740828D02*
X66314062Y-52669400D01*
X66314062Y-52669400D02*
X66385490Y-52597971D01*
X66385490Y-52597971D02*
X66456919Y-52455114D01*
X66456919Y-52455114D02*
X66528347Y-52169400D01*
X66528347Y-52169400D02*
X66528347Y-51812257D01*
X66528347Y-51812257D02*
X66456919Y-51526542D01*
X66456919Y-51526542D02*
X66385490Y-51383685D01*
X66385490Y-51383685D02*
X66314062Y-51312257D01*
X66314062Y-51312257D02*
X66171204Y-51240828D01*
X65099776Y-51383685D02*
X65028348Y-51312257D01*
X65028348Y-51312257D02*
X64885491Y-51240828D01*
X64885491Y-51240828D02*
X64528348Y-51240828D01*
X64528348Y-51240828D02*
X64385491Y-51312257D01*
X64385491Y-51312257D02*
X64314062Y-51383685D01*
X64314062Y-51383685D02*
X64242633Y-51526542D01*
X64242633Y-51526542D02*
X64242633Y-51669400D01*
X64242633Y-51669400D02*
X64314062Y-51883685D01*
X64314062Y-51883685D02*
X65171205Y-52740828D01*
X65171205Y-52740828D02*
X64242633Y-52740828D01*
X62956920Y-51740828D02*
X62956920Y-52740828D01*
X63314062Y-51169400D02*
X63671205Y-52240828D01*
X63671205Y-52240828D02*
X62742634Y-52240828D01*
X61385491Y-52740828D02*
X62242634Y-52740828D01*
X61814063Y-52740828D02*
X61814063Y-51240828D01*
X61814063Y-51240828D02*
X61956920Y-51455114D01*
X61956920Y-51455114D02*
X62099777Y-51597971D01*
X62099777Y-51597971D02*
X62242634Y-51669400D01*
X60456920Y-51240828D02*
X60314063Y-51240828D01*
X60314063Y-51240828D02*
X60171206Y-51312257D01*
X60171206Y-51312257D02*
X60099778Y-51383685D01*
X60099778Y-51383685D02*
X60028349Y-51526542D01*
X60028349Y-51526542D02*
X59956920Y-51812257D01*
X59956920Y-51812257D02*
X59956920Y-52169400D01*
X59956920Y-52169400D02*
X60028349Y-52455114D01*
X60028349Y-52455114D02*
X60099778Y-52597971D01*
X60099778Y-52597971D02*
X60171206Y-52669400D01*
X60171206Y-52669400D02*
X60314063Y-52740828D01*
X60314063Y-52740828D02*
X60456920Y-52740828D01*
X60456920Y-52740828D02*
X60599778Y-52669400D01*
X60599778Y-52669400D02*
X60671206Y-52597971D01*
X60671206Y-52597971D02*
X60742635Y-52455114D01*
X60742635Y-52455114D02*
X60814063Y-52169400D01*
X60814063Y-52169400D02*
X60814063Y-51812257D01*
X60814063Y-51812257D02*
X60742635Y-51526542D01*
X60742635Y-51526542D02*
X60671206Y-51383685D01*
X60671206Y-51383685D02*
X60599778Y-51312257D01*
X60599778Y-51312257D02*
X60456920Y-51240828D01*
X59028349Y-51240828D02*
X58885492Y-51240828D01*
X58885492Y-51240828D02*
X58742635Y-51312257D01*
X58742635Y-51312257D02*
X58671207Y-51383685D01*
X58671207Y-51383685D02*
X58599778Y-51526542D01*
X58599778Y-51526542D02*
X58528349Y-51812257D01*
X58528349Y-51812257D02*
X58528349Y-52169400D01*
X58528349Y-52169400D02*
X58599778Y-52455114D01*
X58599778Y-52455114D02*
X58671207Y-52597971D01*
X58671207Y-52597971D02*
X58742635Y-52669400D01*
X58742635Y-52669400D02*
X58885492Y-52740828D01*
X58885492Y-52740828D02*
X59028349Y-52740828D01*
X59028349Y-52740828D02*
X59171207Y-52669400D01*
X59171207Y-52669400D02*
X59242635Y-52597971D01*
X59242635Y-52597971D02*
X59314064Y-52455114D01*
X59314064Y-52455114D02*
X59385492Y-52169400D01*
X59385492Y-52169400D02*
X59385492Y-51812257D01*
X59385492Y-51812257D02*
X59314064Y-51526542D01*
X59314064Y-51526542D02*
X59242635Y-51383685D01*
X59242635Y-51383685D02*
X59171207Y-51312257D01*
X59171207Y-51312257D02*
X59028349Y-51240828D01*
X57242636Y-51740828D02*
X57242636Y-52740828D01*
X57599778Y-51169400D02*
X57956921Y-52240828D01*
X57956921Y-52240828D02*
X57028350Y-52240828D01*
D12*
X91065381Y-26754819D02*
X91398714Y-26278628D01*
X91636809Y-26754819D02*
X91636809Y-25754819D01*
X91636809Y-25754819D02*
X91255857Y-25754819D01*
X91255857Y-25754819D02*
X91160619Y-25802438D01*
X91160619Y-25802438D02*
X91113000Y-25850057D01*
X91113000Y-25850057D02*
X91065381Y-25945295D01*
X91065381Y-25945295D02*
X91065381Y-26088152D01*
X91065381Y-26088152D02*
X91113000Y-26183390D01*
X91113000Y-26183390D02*
X91160619Y-26231009D01*
X91160619Y-26231009D02*
X91255857Y-26278628D01*
X91255857Y-26278628D02*
X91636809Y-26278628D01*
X90636809Y-26231009D02*
X90303476Y-26231009D01*
X90160619Y-26754819D02*
X90636809Y-26754819D01*
X90636809Y-26754819D02*
X90636809Y-25754819D01*
X90636809Y-25754819D02*
X90160619Y-25754819D01*
X89779666Y-26707200D02*
X89636809Y-26754819D01*
X89636809Y-26754819D02*
X89398714Y-26754819D01*
X89398714Y-26754819D02*
X89303476Y-26707200D01*
X89303476Y-26707200D02*
X89255857Y-26659580D01*
X89255857Y-26659580D02*
X89208238Y-26564342D01*
X89208238Y-26564342D02*
X89208238Y-26469104D01*
X89208238Y-26469104D02*
X89255857Y-26373866D01*
X89255857Y-26373866D02*
X89303476Y-26326247D01*
X89303476Y-26326247D02*
X89398714Y-26278628D01*
X89398714Y-26278628D02*
X89589190Y-26231009D01*
X89589190Y-26231009D02*
X89684428Y-26183390D01*
X89684428Y-26183390D02*
X89732047Y-26135771D01*
X89732047Y-26135771D02*
X89779666Y-26040533D01*
X89779666Y-26040533D02*
X89779666Y-25945295D01*
X89779666Y-25945295D02*
X89732047Y-25850057D01*
X89732047Y-25850057D02*
X89684428Y-25802438D01*
X89684428Y-25802438D02*
X89589190Y-25754819D01*
X89589190Y-25754819D02*
X89351095Y-25754819D01*
X89351095Y-25754819D02*
X89208238Y-25802438D01*
X88779666Y-26231009D02*
X88446333Y-26231009D01*
X88303476Y-26754819D02*
X88779666Y-26754819D01*
X88779666Y-26754819D02*
X88779666Y-25754819D01*
X88779666Y-25754819D02*
X88303476Y-25754819D01*
X88017761Y-25754819D02*
X87446333Y-25754819D01*
X87732047Y-26754819D02*
X87732047Y-25754819D01*
D13*
X91159789Y-19645607D02*
X91064075Y-19681321D01*
X91064075Y-19681321D02*
X91032170Y-19717035D01*
X91032170Y-19717035D02*
X91000266Y-19788464D01*
X91000266Y-19788464D02*
X91000266Y-19895607D01*
X91000266Y-19895607D02*
X91032170Y-19967035D01*
X91032170Y-19967035D02*
X91064075Y-20002750D01*
X91064075Y-20002750D02*
X91127885Y-20038464D01*
X91127885Y-20038464D02*
X91383123Y-20038464D01*
X91383123Y-20038464D02*
X91383123Y-19288464D01*
X91383123Y-19288464D02*
X91159789Y-19288464D01*
X91159789Y-19288464D02*
X91095980Y-19324178D01*
X91095980Y-19324178D02*
X91064075Y-19359892D01*
X91064075Y-19359892D02*
X91032170Y-19431321D01*
X91032170Y-19431321D02*
X91032170Y-19502750D01*
X91032170Y-19502750D02*
X91064075Y-19574178D01*
X91064075Y-19574178D02*
X91095980Y-19609892D01*
X91095980Y-19609892D02*
X91159789Y-19645607D01*
X91159789Y-19645607D02*
X91383123Y-19645607D01*
X90425980Y-19538464D02*
X90425980Y-20038464D01*
X90585504Y-19252750D02*
X90745027Y-19788464D01*
X90745027Y-19788464D02*
X90330266Y-19788464D01*
X89596456Y-19252750D02*
X90170742Y-20217035D01*
X89277408Y-19609892D02*
X89341218Y-19574178D01*
X89341218Y-19574178D02*
X89373123Y-19538464D01*
X89373123Y-19538464D02*
X89405027Y-19467035D01*
X89405027Y-19467035D02*
X89405027Y-19431321D01*
X89405027Y-19431321D02*
X89373123Y-19359892D01*
X89373123Y-19359892D02*
X89341218Y-19324178D01*
X89341218Y-19324178D02*
X89277408Y-19288464D01*
X89277408Y-19288464D02*
X89149789Y-19288464D01*
X89149789Y-19288464D02*
X89085980Y-19324178D01*
X89085980Y-19324178D02*
X89054075Y-19359892D01*
X89054075Y-19359892D02*
X89022170Y-19431321D01*
X89022170Y-19431321D02*
X89022170Y-19467035D01*
X89022170Y-19467035D02*
X89054075Y-19538464D01*
X89054075Y-19538464D02*
X89085980Y-19574178D01*
X89085980Y-19574178D02*
X89149789Y-19609892D01*
X89149789Y-19609892D02*
X89277408Y-19609892D01*
X89277408Y-19609892D02*
X89341218Y-19645607D01*
X89341218Y-19645607D02*
X89373123Y-19681321D01*
X89373123Y-19681321D02*
X89405027Y-19752750D01*
X89405027Y-19752750D02*
X89405027Y-19895607D01*
X89405027Y-19895607D02*
X89373123Y-19967035D01*
X89373123Y-19967035D02*
X89341218Y-20002750D01*
X89341218Y-20002750D02*
X89277408Y-20038464D01*
X89277408Y-20038464D02*
X89149789Y-20038464D01*
X89149789Y-20038464D02*
X89085980Y-20002750D01*
X89085980Y-20002750D02*
X89054075Y-19967035D01*
X89054075Y-19967035D02*
X89022170Y-19895607D01*
X89022170Y-19895607D02*
X89022170Y-19752750D01*
X89022170Y-19752750D02*
X89054075Y-19681321D01*
X89054075Y-19681321D02*
X89085980Y-19645607D01*
X89085980Y-19645607D02*
X89149789Y-19609892D01*
X90594075Y-1574178D02*
X90657885Y-1538464D01*
X90657885Y-1538464D02*
X90753599Y-1538464D01*
X90753599Y-1538464D02*
X90849313Y-1574178D01*
X90849313Y-1574178D02*
X90913123Y-1645607D01*
X90913123Y-1645607D02*
X90945028Y-1717035D01*
X90945028Y-1717035D02*
X90976932Y-1859892D01*
X90976932Y-1859892D02*
X90976932Y-1967035D01*
X90976932Y-1967035D02*
X90945028Y-2109892D01*
X90945028Y-2109892D02*
X90913123Y-2181321D01*
X90913123Y-2181321D02*
X90849313Y-2252750D01*
X90849313Y-2252750D02*
X90753599Y-2288464D01*
X90753599Y-2288464D02*
X90689790Y-2288464D01*
X90689790Y-2288464D02*
X90594075Y-2252750D01*
X90594075Y-2252750D02*
X90562171Y-2217035D01*
X90562171Y-2217035D02*
X90562171Y-1967035D01*
X90562171Y-1967035D02*
X90689790Y-1967035D01*
X90275028Y-2288464D02*
X90275028Y-1538464D01*
X90275028Y-1538464D02*
X89892171Y-2288464D01*
X89892171Y-2288464D02*
X89892171Y-1538464D01*
X89573123Y-2288464D02*
X89573123Y-1538464D01*
X89573123Y-1538464D02*
X89413599Y-1538464D01*
X89413599Y-1538464D02*
X89317885Y-1574178D01*
X89317885Y-1574178D02*
X89254075Y-1645607D01*
X89254075Y-1645607D02*
X89222170Y-1717035D01*
X89222170Y-1717035D02*
X89190266Y-1859892D01*
X89190266Y-1859892D02*
X89190266Y-1967035D01*
X89190266Y-1967035D02*
X89222170Y-2109892D01*
X89222170Y-2109892D02*
X89254075Y-2181321D01*
X89254075Y-2181321D02*
X89317885Y-2252750D01*
X89317885Y-2252750D02*
X89413599Y-2288464D01*
X89413599Y-2288464D02*
X89573123Y-2288464D01*
X90594075Y875821D02*
X90657885Y911535D01*
X90657885Y911535D02*
X90753599Y911535D01*
X90753599Y911535D02*
X90849313Y875821D01*
X90849313Y875821D02*
X90913123Y804392D01*
X90913123Y804392D02*
X90945028Y732964D01*
X90945028Y732964D02*
X90976932Y590107D01*
X90976932Y590107D02*
X90976932Y482964D01*
X90976932Y482964D02*
X90945028Y340107D01*
X90945028Y340107D02*
X90913123Y268678D01*
X90913123Y268678D02*
X90849313Y197250D01*
X90849313Y197250D02*
X90753599Y161535D01*
X90753599Y161535D02*
X90689790Y161535D01*
X90689790Y161535D02*
X90594075Y197250D01*
X90594075Y197250D02*
X90562171Y232964D01*
X90562171Y232964D02*
X90562171Y482964D01*
X90562171Y482964D02*
X90689790Y482964D01*
X90275028Y161535D02*
X90275028Y911535D01*
X90275028Y911535D02*
X89892171Y161535D01*
X89892171Y161535D02*
X89892171Y911535D01*
X89573123Y161535D02*
X89573123Y911535D01*
X89573123Y911535D02*
X89413599Y911535D01*
X89413599Y911535D02*
X89317885Y875821D01*
X89317885Y875821D02*
X89254075Y804392D01*
X89254075Y804392D02*
X89222170Y732964D01*
X89222170Y732964D02*
X89190266Y590107D01*
X89190266Y590107D02*
X89190266Y482964D01*
X89190266Y482964D02*
X89222170Y340107D01*
X89222170Y340107D02*
X89254075Y268678D01*
X89254075Y268678D02*
X89317885Y197250D01*
X89317885Y197250D02*
X89413599Y161535D01*
X89413599Y161535D02*
X89573123Y161535D01*
X101039313Y-12224178D02*
X100720266Y-12224178D01*
X101103123Y-12438464D02*
X100879790Y-11688464D01*
X100879790Y-11688464D02*
X100656456Y-12438464D01*
X100305504Y-11688464D02*
X100241694Y-11688464D01*
X100241694Y-11688464D02*
X100177885Y-11724178D01*
X100177885Y-11724178D02*
X100145980Y-11759892D01*
X100145980Y-11759892D02*
X100114075Y-11831321D01*
X100114075Y-11831321D02*
X100082170Y-11974178D01*
X100082170Y-11974178D02*
X100082170Y-12152750D01*
X100082170Y-12152750D02*
X100114075Y-12295607D01*
X100114075Y-12295607D02*
X100145980Y-12367035D01*
X100145980Y-12367035D02*
X100177885Y-12402750D01*
X100177885Y-12402750D02*
X100241694Y-12438464D01*
X100241694Y-12438464D02*
X100305504Y-12438464D01*
X100305504Y-12438464D02*
X100369313Y-12402750D01*
X100369313Y-12402750D02*
X100401218Y-12367035D01*
X100401218Y-12367035D02*
X100433123Y-12295607D01*
X100433123Y-12295607D02*
X100465027Y-12152750D01*
X100465027Y-12152750D02*
X100465027Y-11974178D01*
X100465027Y-11974178D02*
X100433123Y-11831321D01*
X100433123Y-11831321D02*
X100401218Y-11759892D01*
X100401218Y-11759892D02*
X100369313Y-11724178D01*
X100369313Y-11724178D02*
X100305504Y-11688464D01*
X99316456Y-11652750D02*
X99890742Y-12617035D01*
X98869789Y-12045607D02*
X99093123Y-12045607D01*
X99093123Y-12438464D02*
X99093123Y-11688464D01*
X99093123Y-11688464D02*
X98774075Y-11688464D01*
X98582646Y-11688464D02*
X98135980Y-11688464D01*
X98135980Y-11688464D02*
X98423122Y-12438464D01*
X101039313Y-7174178D02*
X100720266Y-7174178D01*
X101103123Y-7388464D02*
X100879790Y-6638464D01*
X100879790Y-6638464D02*
X100656456Y-7388464D01*
X100465027Y-6709892D02*
X100433123Y-6674178D01*
X100433123Y-6674178D02*
X100369313Y-6638464D01*
X100369313Y-6638464D02*
X100209789Y-6638464D01*
X100209789Y-6638464D02*
X100145980Y-6674178D01*
X100145980Y-6674178D02*
X100114075Y-6709892D01*
X100114075Y-6709892D02*
X100082170Y-6781321D01*
X100082170Y-6781321D02*
X100082170Y-6852750D01*
X100082170Y-6852750D02*
X100114075Y-6959892D01*
X100114075Y-6959892D02*
X100496932Y-7388464D01*
X100496932Y-7388464D02*
X100082170Y-7388464D01*
X99316456Y-6602750D02*
X99890742Y-7567035D01*
X98869789Y-6995607D02*
X99093123Y-6995607D01*
X99093123Y-7388464D02*
X99093123Y-6638464D01*
X99093123Y-6638464D02*
X98774075Y-6638464D01*
X98199789Y-6638464D02*
X98518837Y-6638464D01*
X98518837Y-6638464D02*
X98550741Y-6995607D01*
X98550741Y-6995607D02*
X98518837Y-6959892D01*
X98518837Y-6959892D02*
X98455027Y-6924178D01*
X98455027Y-6924178D02*
X98295503Y-6924178D01*
X98295503Y-6924178D02*
X98231694Y-6959892D01*
X98231694Y-6959892D02*
X98199789Y-6995607D01*
X98199789Y-6995607D02*
X98167884Y-7067035D01*
X98167884Y-7067035D02*
X98167884Y-7245607D01*
X98167884Y-7245607D02*
X98199789Y-7317035D01*
X98199789Y-7317035D02*
X98231694Y-7352750D01*
X98231694Y-7352750D02*
X98295503Y-7388464D01*
X98295503Y-7388464D02*
X98455027Y-7388464D01*
X98455027Y-7388464D02*
X98518837Y-7352750D01*
X98518837Y-7352750D02*
X98550741Y-7317035D01*
X92857171Y2761535D02*
X92857171Y3511535D01*
X92857171Y3511535D02*
X92697647Y3511535D01*
X92697647Y3511535D02*
X92601933Y3475821D01*
X92601933Y3475821D02*
X92538123Y3404392D01*
X92538123Y3404392D02*
X92506218Y3332964D01*
X92506218Y3332964D02*
X92474314Y3190107D01*
X92474314Y3190107D02*
X92474314Y3082964D01*
X92474314Y3082964D02*
X92506218Y2940107D01*
X92506218Y2940107D02*
X92538123Y2868678D01*
X92538123Y2868678D02*
X92601933Y2797250D01*
X92601933Y2797250D02*
X92697647Y2761535D01*
X92697647Y2761535D02*
X92857171Y2761535D01*
X92219075Y3440107D02*
X92187171Y3475821D01*
X92187171Y3475821D02*
X92123361Y3511535D01*
X92123361Y3511535D02*
X91963837Y3511535D01*
X91963837Y3511535D02*
X91900028Y3475821D01*
X91900028Y3475821D02*
X91868123Y3440107D01*
X91868123Y3440107D02*
X91836218Y3368678D01*
X91836218Y3368678D02*
X91836218Y3297250D01*
X91836218Y3297250D02*
X91868123Y3190107D01*
X91868123Y3190107D02*
X92250980Y2761535D01*
X92250980Y2761535D02*
X91836218Y2761535D01*
X91070504Y3547250D02*
X91644790Y2582964D01*
X90464314Y2761535D02*
X90687647Y3118678D01*
X90847171Y2761535D02*
X90847171Y3511535D01*
X90847171Y3511535D02*
X90591933Y3511535D01*
X90591933Y3511535D02*
X90528123Y3475821D01*
X90528123Y3475821D02*
X90496218Y3440107D01*
X90496218Y3440107D02*
X90464314Y3368678D01*
X90464314Y3368678D02*
X90464314Y3261535D01*
X90464314Y3261535D02*
X90496218Y3190107D01*
X90496218Y3190107D02*
X90528123Y3154392D01*
X90528123Y3154392D02*
X90591933Y3118678D01*
X90591933Y3118678D02*
X90847171Y3118678D01*
X90240980Y3511535D02*
X89794314Y2761535D01*
X89794314Y3511535D02*
X90240980Y2761535D01*
X89188123Y2761535D02*
X89570980Y2761535D01*
X89379552Y2761535D02*
X89379552Y3511535D01*
X89379552Y3511535D02*
X89443361Y3404392D01*
X89443361Y3404392D02*
X89507171Y3332964D01*
X89507171Y3332964D02*
X89570980Y3297250D01*
X91383123Y-14938464D02*
X91383123Y-14188464D01*
X91383123Y-14188464D02*
X91223599Y-14188464D01*
X91223599Y-14188464D02*
X91127885Y-14224178D01*
X91127885Y-14224178D02*
X91064075Y-14295607D01*
X91064075Y-14295607D02*
X91032170Y-14367035D01*
X91032170Y-14367035D02*
X91000266Y-14509892D01*
X91000266Y-14509892D02*
X91000266Y-14617035D01*
X91000266Y-14617035D02*
X91032170Y-14759892D01*
X91032170Y-14759892D02*
X91064075Y-14831321D01*
X91064075Y-14831321D02*
X91127885Y-14902750D01*
X91127885Y-14902750D02*
X91223599Y-14938464D01*
X91223599Y-14938464D02*
X91383123Y-14938464D01*
X90776932Y-14188464D02*
X90330266Y-14188464D01*
X90330266Y-14188464D02*
X90617408Y-14938464D01*
X89596456Y-14152750D02*
X90170742Y-15117035D01*
X89085980Y-14188464D02*
X89213599Y-14188464D01*
X89213599Y-14188464D02*
X89277408Y-14224178D01*
X89277408Y-14224178D02*
X89309313Y-14259892D01*
X89309313Y-14259892D02*
X89373123Y-14367035D01*
X89373123Y-14367035D02*
X89405027Y-14509892D01*
X89405027Y-14509892D02*
X89405027Y-14795607D01*
X89405027Y-14795607D02*
X89373123Y-14867035D01*
X89373123Y-14867035D02*
X89341218Y-14902750D01*
X89341218Y-14902750D02*
X89277408Y-14938464D01*
X89277408Y-14938464D02*
X89149789Y-14938464D01*
X89149789Y-14938464D02*
X89085980Y-14902750D01*
X89085980Y-14902750D02*
X89054075Y-14867035D01*
X89054075Y-14867035D02*
X89022170Y-14795607D01*
X89022170Y-14795607D02*
X89022170Y-14617035D01*
X89022170Y-14617035D02*
X89054075Y-14545607D01*
X89054075Y-14545607D02*
X89085980Y-14509892D01*
X89085980Y-14509892D02*
X89149789Y-14474178D01*
X89149789Y-14474178D02*
X89277408Y-14474178D01*
X89277408Y-14474178D02*
X89341218Y-14509892D01*
X89341218Y-14509892D02*
X89373123Y-14545607D01*
X89373123Y-14545607D02*
X89405027Y-14617035D01*
X92777409Y5311535D02*
X92777409Y6061535D01*
X92777409Y6061535D02*
X92617885Y6061535D01*
X92617885Y6061535D02*
X92522171Y6025821D01*
X92522171Y6025821D02*
X92458361Y5954392D01*
X92458361Y5954392D02*
X92426456Y5882964D01*
X92426456Y5882964D02*
X92394552Y5740107D01*
X92394552Y5740107D02*
X92394552Y5632964D01*
X92394552Y5632964D02*
X92426456Y5490107D01*
X92426456Y5490107D02*
X92458361Y5418678D01*
X92458361Y5418678D02*
X92522171Y5347250D01*
X92522171Y5347250D02*
X92617885Y5311535D01*
X92617885Y5311535D02*
X92777409Y5311535D01*
X92171218Y6061535D02*
X91756456Y6061535D01*
X91756456Y6061535D02*
X91979790Y5775821D01*
X91979790Y5775821D02*
X91884075Y5775821D01*
X91884075Y5775821D02*
X91820266Y5740107D01*
X91820266Y5740107D02*
X91788361Y5704392D01*
X91788361Y5704392D02*
X91756456Y5632964D01*
X91756456Y5632964D02*
X91756456Y5454392D01*
X91756456Y5454392D02*
X91788361Y5382964D01*
X91788361Y5382964D02*
X91820266Y5347250D01*
X91820266Y5347250D02*
X91884075Y5311535D01*
X91884075Y5311535D02*
X92075504Y5311535D01*
X92075504Y5311535D02*
X92139313Y5347250D01*
X92139313Y5347250D02*
X92171218Y5382964D01*
X90990742Y6097250D02*
X91565028Y5132964D01*
X90863123Y6061535D02*
X90480266Y6061535D01*
X90671694Y5311535D02*
X90671694Y6061535D01*
X90320742Y6061535D02*
X89874076Y5311535D01*
X89874076Y6061535D02*
X90320742Y5311535D01*
X89491219Y6061535D02*
X89427409Y6061535D01*
X89427409Y6061535D02*
X89363600Y6025821D01*
X89363600Y6025821D02*
X89331695Y5990107D01*
X89331695Y5990107D02*
X89299790Y5918678D01*
X89299790Y5918678D02*
X89267885Y5775821D01*
X89267885Y5775821D02*
X89267885Y5597250D01*
X89267885Y5597250D02*
X89299790Y5454392D01*
X89299790Y5454392D02*
X89331695Y5382964D01*
X89331695Y5382964D02*
X89363600Y5347250D01*
X89363600Y5347250D02*
X89427409Y5311535D01*
X89427409Y5311535D02*
X89491219Y5311535D01*
X89491219Y5311535D02*
X89555028Y5347250D01*
X89555028Y5347250D02*
X89586933Y5382964D01*
X89586933Y5382964D02*
X89618838Y5454392D01*
X89618838Y5454392D02*
X89650742Y5597250D01*
X89650742Y5597250D02*
X89650742Y5775821D01*
X89650742Y5775821D02*
X89618838Y5918678D01*
X89618838Y5918678D02*
X89586933Y5990107D01*
X89586933Y5990107D02*
X89555028Y6025821D01*
X89555028Y6025821D02*
X89491219Y6061535D01*
X100590504Y261535D02*
X100813837Y618678D01*
X100973361Y261535D02*
X100973361Y1011535D01*
X100973361Y1011535D02*
X100718123Y1011535D01*
X100718123Y1011535D02*
X100654313Y975821D01*
X100654313Y975821D02*
X100622408Y940107D01*
X100622408Y940107D02*
X100590504Y868678D01*
X100590504Y868678D02*
X100590504Y761535D01*
X100590504Y761535D02*
X100622408Y690107D01*
X100622408Y690107D02*
X100654313Y654392D01*
X100654313Y654392D02*
X100718123Y618678D01*
X100718123Y618678D02*
X100973361Y618678D01*
X100335265Y297250D02*
X100239551Y261535D01*
X100239551Y261535D02*
X100080027Y261535D01*
X100080027Y261535D02*
X100016218Y297250D01*
X100016218Y297250D02*
X99984313Y332964D01*
X99984313Y332964D02*
X99952408Y404392D01*
X99952408Y404392D02*
X99952408Y475821D01*
X99952408Y475821D02*
X99984313Y547250D01*
X99984313Y547250D02*
X100016218Y582964D01*
X100016218Y582964D02*
X100080027Y618678D01*
X100080027Y618678D02*
X100207646Y654392D01*
X100207646Y654392D02*
X100271456Y690107D01*
X100271456Y690107D02*
X100303361Y725821D01*
X100303361Y725821D02*
X100335265Y797250D01*
X100335265Y797250D02*
X100335265Y868678D01*
X100335265Y868678D02*
X100303361Y940107D01*
X100303361Y940107D02*
X100271456Y975821D01*
X100271456Y975821D02*
X100207646Y1011535D01*
X100207646Y1011535D02*
X100048123Y1011535D01*
X100048123Y1011535D02*
X99952408Y975821D01*
X99760980Y1011535D02*
X99378123Y1011535D01*
X99569551Y261535D02*
X99569551Y1011535D01*
X101116933Y-1438464D02*
X100893600Y-2188464D01*
X100893600Y-2188464D02*
X100670266Y-1438464D01*
X100064076Y-2117035D02*
X100095980Y-2152750D01*
X100095980Y-2152750D02*
X100191695Y-2188464D01*
X100191695Y-2188464D02*
X100255504Y-2188464D01*
X100255504Y-2188464D02*
X100351218Y-2152750D01*
X100351218Y-2152750D02*
X100415028Y-2081321D01*
X100415028Y-2081321D02*
X100446933Y-2009892D01*
X100446933Y-2009892D02*
X100478837Y-1867035D01*
X100478837Y-1867035D02*
X100478837Y-1759892D01*
X100478837Y-1759892D02*
X100446933Y-1617035D01*
X100446933Y-1617035D02*
X100415028Y-1545607D01*
X100415028Y-1545607D02*
X100351218Y-1474178D01*
X100351218Y-1474178D02*
X100255504Y-1438464D01*
X100255504Y-1438464D02*
X100191695Y-1438464D01*
X100191695Y-1438464D02*
X100095980Y-1474178D01*
X100095980Y-1474178D02*
X100064076Y-1509892D01*
X99394076Y-2117035D02*
X99425980Y-2152750D01*
X99425980Y-2152750D02*
X99521695Y-2188464D01*
X99521695Y-2188464D02*
X99585504Y-2188464D01*
X99585504Y-2188464D02*
X99681218Y-2152750D01*
X99681218Y-2152750D02*
X99745028Y-2081321D01*
X99745028Y-2081321D02*
X99776933Y-2009892D01*
X99776933Y-2009892D02*
X99808837Y-1867035D01*
X99808837Y-1867035D02*
X99808837Y-1759892D01*
X99808837Y-1759892D02*
X99776933Y-1617035D01*
X99776933Y-1617035D02*
X99745028Y-1545607D01*
X99745028Y-1545607D02*
X99681218Y-1474178D01*
X99681218Y-1474178D02*
X99585504Y-1438464D01*
X99585504Y-1438464D02*
X99521695Y-1438464D01*
X99521695Y-1438464D02*
X99425980Y-1474178D01*
X99425980Y-1474178D02*
X99394076Y-1509892D01*
X100686219Y5361535D02*
X100909552Y5718678D01*
X101069076Y5361535D02*
X101069076Y6111535D01*
X101069076Y6111535D02*
X100813838Y6111535D01*
X100813838Y6111535D02*
X100750028Y6075821D01*
X100750028Y6075821D02*
X100718123Y6040107D01*
X100718123Y6040107D02*
X100686219Y5968678D01*
X100686219Y5968678D02*
X100686219Y5861535D01*
X100686219Y5861535D02*
X100718123Y5790107D01*
X100718123Y5790107D02*
X100750028Y5754392D01*
X100750028Y5754392D02*
X100813838Y5718678D01*
X100813838Y5718678D02*
X101069076Y5718678D01*
X100430980Y5575821D02*
X100111933Y5575821D01*
X100494790Y5361535D02*
X100271457Y6111535D01*
X100271457Y6111535D02*
X100048123Y5361535D01*
X99888599Y6111535D02*
X99729075Y5361535D01*
X99729075Y5361535D02*
X99601456Y5897250D01*
X99601456Y5897250D02*
X99473837Y5361535D01*
X99473837Y5361535D02*
X99314314Y6111535D01*
X100718123Y8174392D02*
X100622409Y8138678D01*
X100622409Y8138678D02*
X100590504Y8102964D01*
X100590504Y8102964D02*
X100558600Y8031535D01*
X100558600Y8031535D02*
X100558600Y7924392D01*
X100558600Y7924392D02*
X100590504Y7852964D01*
X100590504Y7852964D02*
X100622409Y7817250D01*
X100622409Y7817250D02*
X100686219Y7781535D01*
X100686219Y7781535D02*
X100941457Y7781535D01*
X100941457Y7781535D02*
X100941457Y8531535D01*
X100941457Y8531535D02*
X100718123Y8531535D01*
X100718123Y8531535D02*
X100654314Y8495821D01*
X100654314Y8495821D02*
X100622409Y8460107D01*
X100622409Y8460107D02*
X100590504Y8388678D01*
X100590504Y8388678D02*
X100590504Y8317250D01*
X100590504Y8317250D02*
X100622409Y8245821D01*
X100622409Y8245821D02*
X100654314Y8210107D01*
X100654314Y8210107D02*
X100718123Y8174392D01*
X100718123Y8174392D02*
X100941457Y8174392D01*
X100303361Y7995821D02*
X99984314Y7995821D01*
X100367171Y7781535D02*
X100143838Y8531535D01*
X100143838Y8531535D02*
X99920504Y7781535D01*
X99792885Y8531535D02*
X99410028Y8531535D01*
X99601456Y7781535D02*
X99601456Y8531535D01*
X100734075Y3525821D02*
X100797885Y3561535D01*
X100797885Y3561535D02*
X100893599Y3561535D01*
X100893599Y3561535D02*
X100989313Y3525821D01*
X100989313Y3525821D02*
X101053123Y3454392D01*
X101053123Y3454392D02*
X101085028Y3382964D01*
X101085028Y3382964D02*
X101116932Y3240107D01*
X101116932Y3240107D02*
X101116932Y3132964D01*
X101116932Y3132964D02*
X101085028Y2990107D01*
X101085028Y2990107D02*
X101053123Y2918678D01*
X101053123Y2918678D02*
X100989313Y2847250D01*
X100989313Y2847250D02*
X100893599Y2811535D01*
X100893599Y2811535D02*
X100829790Y2811535D01*
X100829790Y2811535D02*
X100734075Y2847250D01*
X100734075Y2847250D02*
X100702171Y2882964D01*
X100702171Y2882964D02*
X100702171Y3132964D01*
X100702171Y3132964D02*
X100829790Y3132964D01*
X100415028Y2811535D02*
X100415028Y3561535D01*
X100415028Y3561535D02*
X100032171Y2811535D01*
X100032171Y2811535D02*
X100032171Y3561535D01*
X99713123Y2811535D02*
X99713123Y3561535D01*
X99713123Y3561535D02*
X99553599Y3561535D01*
X99553599Y3561535D02*
X99457885Y3525821D01*
X99457885Y3525821D02*
X99394075Y3454392D01*
X99394075Y3454392D02*
X99362170Y3382964D01*
X99362170Y3382964D02*
X99330266Y3240107D01*
X99330266Y3240107D02*
X99330266Y3132964D01*
X99330266Y3132964D02*
X99362170Y2990107D01*
X99362170Y2990107D02*
X99394075Y2918678D01*
X99394075Y2918678D02*
X99457885Y2847250D01*
X99457885Y2847250D02*
X99553599Y2811535D01*
X99553599Y2811535D02*
X99713123Y2811535D01*
X101039313Y-9674178D02*
X100720266Y-9674178D01*
X101103123Y-9888464D02*
X100879790Y-9138464D01*
X100879790Y-9138464D02*
X100656456Y-9888464D01*
X100082170Y-9888464D02*
X100465027Y-9888464D01*
X100273599Y-9888464D02*
X100273599Y-9138464D01*
X100273599Y-9138464D02*
X100337408Y-9245607D01*
X100337408Y-9245607D02*
X100401218Y-9317035D01*
X100401218Y-9317035D02*
X100465027Y-9352750D01*
X99316456Y-9102750D02*
X99890742Y-10067035D01*
X98869789Y-9495607D02*
X99093123Y-9495607D01*
X99093123Y-9888464D02*
X99093123Y-9138464D01*
X99093123Y-9138464D02*
X98774075Y-9138464D01*
X98231694Y-9138464D02*
X98359313Y-9138464D01*
X98359313Y-9138464D02*
X98423122Y-9174178D01*
X98423122Y-9174178D02*
X98455027Y-9209892D01*
X98455027Y-9209892D02*
X98518837Y-9317035D01*
X98518837Y-9317035D02*
X98550741Y-9459892D01*
X98550741Y-9459892D02*
X98550741Y-9745607D01*
X98550741Y-9745607D02*
X98518837Y-9817035D01*
X98518837Y-9817035D02*
X98486932Y-9852750D01*
X98486932Y-9852750D02*
X98423122Y-9888464D01*
X98423122Y-9888464D02*
X98295503Y-9888464D01*
X98295503Y-9888464D02*
X98231694Y-9852750D01*
X98231694Y-9852750D02*
X98199789Y-9817035D01*
X98199789Y-9817035D02*
X98167884Y-9745607D01*
X98167884Y-9745607D02*
X98167884Y-9567035D01*
X98167884Y-9567035D02*
X98199789Y-9495607D01*
X98199789Y-9495607D02*
X98231694Y-9459892D01*
X98231694Y-9459892D02*
X98295503Y-9424178D01*
X98295503Y-9424178D02*
X98423122Y-9424178D01*
X98423122Y-9424178D02*
X98486932Y-9459892D01*
X98486932Y-9459892D02*
X98518837Y-9495607D01*
X98518837Y-9495607D02*
X98550741Y-9567035D01*
X101039313Y-4674178D02*
X100720266Y-4674178D01*
X101103123Y-4888464D02*
X100879790Y-4138464D01*
X100879790Y-4138464D02*
X100656456Y-4888464D01*
X100496932Y-4138464D02*
X100082170Y-4138464D01*
X100082170Y-4138464D02*
X100305504Y-4424178D01*
X100305504Y-4424178D02*
X100209789Y-4424178D01*
X100209789Y-4424178D02*
X100145980Y-4459892D01*
X100145980Y-4459892D02*
X100114075Y-4495607D01*
X100114075Y-4495607D02*
X100082170Y-4567035D01*
X100082170Y-4567035D02*
X100082170Y-4745607D01*
X100082170Y-4745607D02*
X100114075Y-4817035D01*
X100114075Y-4817035D02*
X100145980Y-4852750D01*
X100145980Y-4852750D02*
X100209789Y-4888464D01*
X100209789Y-4888464D02*
X100401218Y-4888464D01*
X100401218Y-4888464D02*
X100465027Y-4852750D01*
X100465027Y-4852750D02*
X100496932Y-4817035D01*
X99316456Y-4102750D02*
X99890742Y-5067035D01*
X98869789Y-4495607D02*
X99093123Y-4495607D01*
X99093123Y-4888464D02*
X99093123Y-4138464D01*
X99093123Y-4138464D02*
X98774075Y-4138464D01*
X98231694Y-4388464D02*
X98231694Y-4888464D01*
X98391218Y-4102750D02*
X98550741Y-4638464D01*
X98550741Y-4638464D02*
X98135980Y-4638464D01*
X100736218Y-17538464D02*
X101119075Y-17538464D01*
X100927647Y-17538464D02*
X100927647Y-16788464D01*
X100927647Y-16788464D02*
X100991456Y-16895607D01*
X100991456Y-16895607D02*
X101055266Y-16967035D01*
X101055266Y-16967035D02*
X101119075Y-17002750D01*
X100161933Y-17038464D02*
X100161933Y-17538464D01*
X100321457Y-16752750D02*
X100480980Y-17288464D01*
X100480980Y-17288464D02*
X100066219Y-17288464D01*
X99332409Y-16752750D02*
X99906695Y-17717035D01*
X98885742Y-17145607D02*
X98790028Y-17181321D01*
X98790028Y-17181321D02*
X98758123Y-17217035D01*
X98758123Y-17217035D02*
X98726219Y-17288464D01*
X98726219Y-17288464D02*
X98726219Y-17395607D01*
X98726219Y-17395607D02*
X98758123Y-17467035D01*
X98758123Y-17467035D02*
X98790028Y-17502750D01*
X98790028Y-17502750D02*
X98853838Y-17538464D01*
X98853838Y-17538464D02*
X99109076Y-17538464D01*
X99109076Y-17538464D02*
X99109076Y-16788464D01*
X99109076Y-16788464D02*
X98885742Y-16788464D01*
X98885742Y-16788464D02*
X98821933Y-16824178D01*
X98821933Y-16824178D02*
X98790028Y-16859892D01*
X98790028Y-16859892D02*
X98758123Y-16931321D01*
X98758123Y-16931321D02*
X98758123Y-17002750D01*
X98758123Y-17002750D02*
X98790028Y-17074178D01*
X98790028Y-17074178D02*
X98821933Y-17109892D01*
X98821933Y-17109892D02*
X98885742Y-17145607D01*
X98885742Y-17145607D02*
X99109076Y-17145607D01*
X98502885Y-16788464D02*
X98088123Y-16788464D01*
X98088123Y-16788464D02*
X98311457Y-17074178D01*
X98311457Y-17074178D02*
X98215742Y-17074178D01*
X98215742Y-17074178D02*
X98151933Y-17109892D01*
X98151933Y-17109892D02*
X98120028Y-17145607D01*
X98120028Y-17145607D02*
X98088123Y-17217035D01*
X98088123Y-17217035D02*
X98088123Y-17395607D01*
X98088123Y-17395607D02*
X98120028Y-17467035D01*
X98120028Y-17467035D02*
X98151933Y-17502750D01*
X98151933Y-17502750D02*
X98215742Y-17538464D01*
X98215742Y-17538464D02*
X98407171Y-17538464D01*
X98407171Y-17538464D02*
X98470980Y-17502750D01*
X98470980Y-17502750D02*
X98502885Y-17467035D01*
X91383123Y-9838464D02*
X91383123Y-9088464D01*
X91383123Y-9088464D02*
X91223599Y-9088464D01*
X91223599Y-9088464D02*
X91127885Y-9124178D01*
X91127885Y-9124178D02*
X91064075Y-9195607D01*
X91064075Y-9195607D02*
X91032170Y-9267035D01*
X91032170Y-9267035D02*
X91000266Y-9409892D01*
X91000266Y-9409892D02*
X91000266Y-9517035D01*
X91000266Y-9517035D02*
X91032170Y-9659892D01*
X91032170Y-9659892D02*
X91064075Y-9731321D01*
X91064075Y-9731321D02*
X91127885Y-9802750D01*
X91127885Y-9802750D02*
X91223599Y-9838464D01*
X91223599Y-9838464D02*
X91383123Y-9838464D01*
X90425980Y-9338464D02*
X90425980Y-9838464D01*
X90585504Y-9052750D02*
X90745027Y-9588464D01*
X90745027Y-9588464D02*
X90330266Y-9588464D01*
X89596456Y-9052750D02*
X90170742Y-10017035D01*
X89085980Y-9338464D02*
X89085980Y-9838464D01*
X89245504Y-9052750D02*
X89405027Y-9588464D01*
X89405027Y-9588464D02*
X88990266Y-9588464D01*
X100736218Y-14988464D02*
X101119075Y-14988464D01*
X100927647Y-14988464D02*
X100927647Y-14238464D01*
X100927647Y-14238464D02*
X100991456Y-14345607D01*
X100991456Y-14345607D02*
X101055266Y-14417035D01*
X101055266Y-14417035D02*
X101119075Y-14452750D01*
X100130028Y-14238464D02*
X100449076Y-14238464D01*
X100449076Y-14238464D02*
X100480980Y-14595607D01*
X100480980Y-14595607D02*
X100449076Y-14559892D01*
X100449076Y-14559892D02*
X100385266Y-14524178D01*
X100385266Y-14524178D02*
X100225742Y-14524178D01*
X100225742Y-14524178D02*
X100161933Y-14559892D01*
X100161933Y-14559892D02*
X100130028Y-14595607D01*
X100130028Y-14595607D02*
X100098123Y-14667035D01*
X100098123Y-14667035D02*
X100098123Y-14845607D01*
X100098123Y-14845607D02*
X100130028Y-14917035D01*
X100130028Y-14917035D02*
X100161933Y-14952750D01*
X100161933Y-14952750D02*
X100225742Y-14988464D01*
X100225742Y-14988464D02*
X100385266Y-14988464D01*
X100385266Y-14988464D02*
X100449076Y-14952750D01*
X100449076Y-14952750D02*
X100480980Y-14917035D01*
X99332409Y-14202750D02*
X99906695Y-15167035D01*
X98885742Y-14595607D02*
X98790028Y-14631321D01*
X98790028Y-14631321D02*
X98758123Y-14667035D01*
X98758123Y-14667035D02*
X98726219Y-14738464D01*
X98726219Y-14738464D02*
X98726219Y-14845607D01*
X98726219Y-14845607D02*
X98758123Y-14917035D01*
X98758123Y-14917035D02*
X98790028Y-14952750D01*
X98790028Y-14952750D02*
X98853838Y-14988464D01*
X98853838Y-14988464D02*
X99109076Y-14988464D01*
X99109076Y-14988464D02*
X99109076Y-14238464D01*
X99109076Y-14238464D02*
X98885742Y-14238464D01*
X98885742Y-14238464D02*
X98821933Y-14274178D01*
X98821933Y-14274178D02*
X98790028Y-14309892D01*
X98790028Y-14309892D02*
X98758123Y-14381321D01*
X98758123Y-14381321D02*
X98758123Y-14452750D01*
X98758123Y-14452750D02*
X98790028Y-14524178D01*
X98790028Y-14524178D02*
X98821933Y-14559892D01*
X98821933Y-14559892D02*
X98885742Y-14595607D01*
X98885742Y-14595607D02*
X99109076Y-14595607D01*
X98088123Y-14988464D02*
X98470980Y-14988464D01*
X98279552Y-14988464D02*
X98279552Y-14238464D01*
X98279552Y-14238464D02*
X98343361Y-14345607D01*
X98343361Y-14345607D02*
X98407171Y-14417035D01*
X98407171Y-14417035D02*
X98470980Y-14452750D01*
X94097170Y-4902750D02*
X94001456Y-4938464D01*
X94001456Y-4938464D02*
X93841932Y-4938464D01*
X93841932Y-4938464D02*
X93778123Y-4902750D01*
X93778123Y-4902750D02*
X93746218Y-4867035D01*
X93746218Y-4867035D02*
X93714313Y-4795607D01*
X93714313Y-4795607D02*
X93714313Y-4724178D01*
X93714313Y-4724178D02*
X93746218Y-4652750D01*
X93746218Y-4652750D02*
X93778123Y-4617035D01*
X93778123Y-4617035D02*
X93841932Y-4581321D01*
X93841932Y-4581321D02*
X93969551Y-4545607D01*
X93969551Y-4545607D02*
X94033361Y-4509892D01*
X94033361Y-4509892D02*
X94065266Y-4474178D01*
X94065266Y-4474178D02*
X94097170Y-4402750D01*
X94097170Y-4402750D02*
X94097170Y-4331321D01*
X94097170Y-4331321D02*
X94065266Y-4259892D01*
X94065266Y-4259892D02*
X94033361Y-4224178D01*
X94033361Y-4224178D02*
X93969551Y-4188464D01*
X93969551Y-4188464D02*
X93810028Y-4188464D01*
X93810028Y-4188464D02*
X93714313Y-4224178D01*
X93427171Y-4938464D02*
X93427171Y-4188464D01*
X93427171Y-4188464D02*
X93267647Y-4188464D01*
X93267647Y-4188464D02*
X93171933Y-4224178D01*
X93171933Y-4224178D02*
X93108123Y-4295607D01*
X93108123Y-4295607D02*
X93076218Y-4367035D01*
X93076218Y-4367035D02*
X93044314Y-4509892D01*
X93044314Y-4509892D02*
X93044314Y-4617035D01*
X93044314Y-4617035D02*
X93076218Y-4759892D01*
X93076218Y-4759892D02*
X93108123Y-4831321D01*
X93108123Y-4831321D02*
X93171933Y-4902750D01*
X93171933Y-4902750D02*
X93267647Y-4938464D01*
X93267647Y-4938464D02*
X93427171Y-4938464D01*
X92789075Y-4724178D02*
X92470028Y-4724178D01*
X92852885Y-4938464D02*
X92629552Y-4188464D01*
X92629552Y-4188464D02*
X92406218Y-4938464D01*
X91704313Y-4152750D02*
X92278599Y-5117035D01*
X91480980Y-4938464D02*
X91480980Y-4188464D01*
X91480980Y-4188464D02*
X91321456Y-4188464D01*
X91321456Y-4188464D02*
X91225742Y-4224178D01*
X91225742Y-4224178D02*
X91161932Y-4295607D01*
X91161932Y-4295607D02*
X91130027Y-4367035D01*
X91130027Y-4367035D02*
X91098123Y-4509892D01*
X91098123Y-4509892D02*
X91098123Y-4617035D01*
X91098123Y-4617035D02*
X91130027Y-4759892D01*
X91130027Y-4759892D02*
X91161932Y-4831321D01*
X91161932Y-4831321D02*
X91225742Y-4902750D01*
X91225742Y-4902750D02*
X91321456Y-4938464D01*
X91321456Y-4938464D02*
X91480980Y-4938464D01*
X90460027Y-4938464D02*
X90842884Y-4938464D01*
X90651456Y-4938464D02*
X90651456Y-4188464D01*
X90651456Y-4188464D02*
X90715265Y-4295607D01*
X90715265Y-4295607D02*
X90779075Y-4367035D01*
X90779075Y-4367035D02*
X90842884Y-4402750D01*
X89694313Y-4152750D02*
X90268599Y-5117035D01*
X89502884Y-4259892D02*
X89470980Y-4224178D01*
X89470980Y-4224178D02*
X89407170Y-4188464D01*
X89407170Y-4188464D02*
X89247646Y-4188464D01*
X89247646Y-4188464D02*
X89183837Y-4224178D01*
X89183837Y-4224178D02*
X89151932Y-4259892D01*
X89151932Y-4259892D02*
X89120027Y-4331321D01*
X89120027Y-4331321D02*
X89120027Y-4402750D01*
X89120027Y-4402750D02*
X89151932Y-4509892D01*
X89151932Y-4509892D02*
X89534789Y-4938464D01*
X89534789Y-4938464D02*
X89120027Y-4938464D01*
X91000266Y-12317035D02*
X91032170Y-12352750D01*
X91032170Y-12352750D02*
X91127885Y-12388464D01*
X91127885Y-12388464D02*
X91191694Y-12388464D01*
X91191694Y-12388464D02*
X91287408Y-12352750D01*
X91287408Y-12352750D02*
X91351218Y-12281321D01*
X91351218Y-12281321D02*
X91383123Y-12209892D01*
X91383123Y-12209892D02*
X91415027Y-12067035D01*
X91415027Y-12067035D02*
X91415027Y-11959892D01*
X91415027Y-11959892D02*
X91383123Y-11817035D01*
X91383123Y-11817035D02*
X91351218Y-11745607D01*
X91351218Y-11745607D02*
X91287408Y-11674178D01*
X91287408Y-11674178D02*
X91191694Y-11638464D01*
X91191694Y-11638464D02*
X91127885Y-11638464D01*
X91127885Y-11638464D02*
X91032170Y-11674178D01*
X91032170Y-11674178D02*
X91000266Y-11709892D01*
X90425980Y-11638464D02*
X90553599Y-11638464D01*
X90553599Y-11638464D02*
X90617408Y-11674178D01*
X90617408Y-11674178D02*
X90649313Y-11709892D01*
X90649313Y-11709892D02*
X90713123Y-11817035D01*
X90713123Y-11817035D02*
X90745027Y-11959892D01*
X90745027Y-11959892D02*
X90745027Y-12245607D01*
X90745027Y-12245607D02*
X90713123Y-12317035D01*
X90713123Y-12317035D02*
X90681218Y-12352750D01*
X90681218Y-12352750D02*
X90617408Y-12388464D01*
X90617408Y-12388464D02*
X90489789Y-12388464D01*
X90489789Y-12388464D02*
X90425980Y-12352750D01*
X90425980Y-12352750D02*
X90394075Y-12317035D01*
X90394075Y-12317035D02*
X90362170Y-12245607D01*
X90362170Y-12245607D02*
X90362170Y-12067035D01*
X90362170Y-12067035D02*
X90394075Y-11995607D01*
X90394075Y-11995607D02*
X90425980Y-11959892D01*
X90425980Y-11959892D02*
X90489789Y-11924178D01*
X90489789Y-11924178D02*
X90617408Y-11924178D01*
X90617408Y-11924178D02*
X90681218Y-11959892D01*
X90681218Y-11959892D02*
X90713123Y-11995607D01*
X90713123Y-11995607D02*
X90745027Y-12067035D01*
X89596456Y-11602750D02*
X90170742Y-12567035D01*
X89054075Y-11638464D02*
X89373123Y-11638464D01*
X89373123Y-11638464D02*
X89405027Y-11995607D01*
X89405027Y-11995607D02*
X89373123Y-11959892D01*
X89373123Y-11959892D02*
X89309313Y-11924178D01*
X89309313Y-11924178D02*
X89149789Y-11924178D01*
X89149789Y-11924178D02*
X89085980Y-11959892D01*
X89085980Y-11959892D02*
X89054075Y-11995607D01*
X89054075Y-11995607D02*
X89022170Y-12067035D01*
X89022170Y-12067035D02*
X89022170Y-12245607D01*
X89022170Y-12245607D02*
X89054075Y-12317035D01*
X89054075Y-12317035D02*
X89085980Y-12352750D01*
X89085980Y-12352750D02*
X89149789Y-12388464D01*
X89149789Y-12388464D02*
X89309313Y-12388464D01*
X89309313Y-12388464D02*
X89373123Y-12352750D01*
X89373123Y-12352750D02*
X89405027Y-12317035D01*
X94081218Y-7402750D02*
X93985504Y-7438464D01*
X93985504Y-7438464D02*
X93825980Y-7438464D01*
X93825980Y-7438464D02*
X93762171Y-7402750D01*
X93762171Y-7402750D02*
X93730266Y-7367035D01*
X93730266Y-7367035D02*
X93698361Y-7295607D01*
X93698361Y-7295607D02*
X93698361Y-7224178D01*
X93698361Y-7224178D02*
X93730266Y-7152750D01*
X93730266Y-7152750D02*
X93762171Y-7117035D01*
X93762171Y-7117035D02*
X93825980Y-7081321D01*
X93825980Y-7081321D02*
X93953599Y-7045607D01*
X93953599Y-7045607D02*
X94017409Y-7009892D01*
X94017409Y-7009892D02*
X94049314Y-6974178D01*
X94049314Y-6974178D02*
X94081218Y-6902750D01*
X94081218Y-6902750D02*
X94081218Y-6831321D01*
X94081218Y-6831321D02*
X94049314Y-6759892D01*
X94049314Y-6759892D02*
X94017409Y-6724178D01*
X94017409Y-6724178D02*
X93953599Y-6688464D01*
X93953599Y-6688464D02*
X93794076Y-6688464D01*
X93794076Y-6688464D02*
X93698361Y-6724178D01*
X93028362Y-7367035D02*
X93060266Y-7402750D01*
X93060266Y-7402750D02*
X93155981Y-7438464D01*
X93155981Y-7438464D02*
X93219790Y-7438464D01*
X93219790Y-7438464D02*
X93315504Y-7402750D01*
X93315504Y-7402750D02*
X93379314Y-7331321D01*
X93379314Y-7331321D02*
X93411219Y-7259892D01*
X93411219Y-7259892D02*
X93443123Y-7117035D01*
X93443123Y-7117035D02*
X93443123Y-7009892D01*
X93443123Y-7009892D02*
X93411219Y-6867035D01*
X93411219Y-6867035D02*
X93379314Y-6795607D01*
X93379314Y-6795607D02*
X93315504Y-6724178D01*
X93315504Y-6724178D02*
X93219790Y-6688464D01*
X93219790Y-6688464D02*
X93155981Y-6688464D01*
X93155981Y-6688464D02*
X93060266Y-6724178D01*
X93060266Y-6724178D02*
X93028362Y-6759892D01*
X92422171Y-7438464D02*
X92741219Y-7438464D01*
X92741219Y-7438464D02*
X92741219Y-6688464D01*
X91720266Y-6652750D02*
X92294552Y-7617035D01*
X91496933Y-7438464D02*
X91496933Y-6688464D01*
X91496933Y-6688464D02*
X91337409Y-6688464D01*
X91337409Y-6688464D02*
X91241695Y-6724178D01*
X91241695Y-6724178D02*
X91177885Y-6795607D01*
X91177885Y-6795607D02*
X91145980Y-6867035D01*
X91145980Y-6867035D02*
X91114076Y-7009892D01*
X91114076Y-7009892D02*
X91114076Y-7117035D01*
X91114076Y-7117035D02*
X91145980Y-7259892D01*
X91145980Y-7259892D02*
X91177885Y-7331321D01*
X91177885Y-7331321D02*
X91241695Y-7402750D01*
X91241695Y-7402750D02*
X91337409Y-7438464D01*
X91337409Y-7438464D02*
X91496933Y-7438464D01*
X90699314Y-6688464D02*
X90635504Y-6688464D01*
X90635504Y-6688464D02*
X90571695Y-6724178D01*
X90571695Y-6724178D02*
X90539790Y-6759892D01*
X90539790Y-6759892D02*
X90507885Y-6831321D01*
X90507885Y-6831321D02*
X90475980Y-6974178D01*
X90475980Y-6974178D02*
X90475980Y-7152750D01*
X90475980Y-7152750D02*
X90507885Y-7295607D01*
X90507885Y-7295607D02*
X90539790Y-7367035D01*
X90539790Y-7367035D02*
X90571695Y-7402750D01*
X90571695Y-7402750D02*
X90635504Y-7438464D01*
X90635504Y-7438464D02*
X90699314Y-7438464D01*
X90699314Y-7438464D02*
X90763123Y-7402750D01*
X90763123Y-7402750D02*
X90795028Y-7367035D01*
X90795028Y-7367035D02*
X90826933Y-7295607D01*
X90826933Y-7295607D02*
X90858837Y-7152750D01*
X90858837Y-7152750D02*
X90858837Y-6974178D01*
X90858837Y-6974178D02*
X90826933Y-6831321D01*
X90826933Y-6831321D02*
X90795028Y-6759892D01*
X90795028Y-6759892D02*
X90763123Y-6724178D01*
X90763123Y-6724178D02*
X90699314Y-6688464D01*
X89710266Y-6652750D02*
X90284552Y-7617035D01*
X89550742Y-6688464D02*
X89135980Y-6688464D01*
X89135980Y-6688464D02*
X89359314Y-6974178D01*
X89359314Y-6974178D02*
X89263599Y-6974178D01*
X89263599Y-6974178D02*
X89199790Y-7009892D01*
X89199790Y-7009892D02*
X89167885Y-7045607D01*
X89167885Y-7045607D02*
X89135980Y-7117035D01*
X89135980Y-7117035D02*
X89135980Y-7295607D01*
X89135980Y-7295607D02*
X89167885Y-7367035D01*
X89167885Y-7367035D02*
X89199790Y-7402750D01*
X89199790Y-7402750D02*
X89263599Y-7438464D01*
X89263599Y-7438464D02*
X89455028Y-7438464D01*
X89455028Y-7438464D02*
X89518837Y-7402750D01*
X89518837Y-7402750D02*
X89550742Y-7367035D01*
X100736218Y-22588464D02*
X101119075Y-22588464D01*
X100927647Y-22588464D02*
X100927647Y-21838464D01*
X100927647Y-21838464D02*
X100991456Y-21945607D01*
X100991456Y-21945607D02*
X101055266Y-22017035D01*
X101055266Y-22017035D02*
X101119075Y-22052750D01*
X100321457Y-21838464D02*
X100257647Y-21838464D01*
X100257647Y-21838464D02*
X100193838Y-21874178D01*
X100193838Y-21874178D02*
X100161933Y-21909892D01*
X100161933Y-21909892D02*
X100130028Y-21981321D01*
X100130028Y-21981321D02*
X100098123Y-22124178D01*
X100098123Y-22124178D02*
X100098123Y-22302750D01*
X100098123Y-22302750D02*
X100130028Y-22445607D01*
X100130028Y-22445607D02*
X100161933Y-22517035D01*
X100161933Y-22517035D02*
X100193838Y-22552750D01*
X100193838Y-22552750D02*
X100257647Y-22588464D01*
X100257647Y-22588464D02*
X100321457Y-22588464D01*
X100321457Y-22588464D02*
X100385266Y-22552750D01*
X100385266Y-22552750D02*
X100417171Y-22517035D01*
X100417171Y-22517035D02*
X100449076Y-22445607D01*
X100449076Y-22445607D02*
X100480980Y-22302750D01*
X100480980Y-22302750D02*
X100480980Y-22124178D01*
X100480980Y-22124178D02*
X100449076Y-21981321D01*
X100449076Y-21981321D02*
X100417171Y-21909892D01*
X100417171Y-21909892D02*
X100385266Y-21874178D01*
X100385266Y-21874178D02*
X100321457Y-21838464D01*
X99332409Y-21802750D02*
X99906695Y-22767035D01*
X98885742Y-22195607D02*
X98790028Y-22231321D01*
X98790028Y-22231321D02*
X98758123Y-22267035D01*
X98758123Y-22267035D02*
X98726219Y-22338464D01*
X98726219Y-22338464D02*
X98726219Y-22445607D01*
X98726219Y-22445607D02*
X98758123Y-22517035D01*
X98758123Y-22517035D02*
X98790028Y-22552750D01*
X98790028Y-22552750D02*
X98853838Y-22588464D01*
X98853838Y-22588464D02*
X99109076Y-22588464D01*
X99109076Y-22588464D02*
X99109076Y-21838464D01*
X99109076Y-21838464D02*
X98885742Y-21838464D01*
X98885742Y-21838464D02*
X98821933Y-21874178D01*
X98821933Y-21874178D02*
X98790028Y-21909892D01*
X98790028Y-21909892D02*
X98758123Y-21981321D01*
X98758123Y-21981321D02*
X98758123Y-22052750D01*
X98758123Y-22052750D02*
X98790028Y-22124178D01*
X98790028Y-22124178D02*
X98821933Y-22159892D01*
X98821933Y-22159892D02*
X98885742Y-22195607D01*
X98885742Y-22195607D02*
X99109076Y-22195607D01*
X98151933Y-21838464D02*
X98279552Y-21838464D01*
X98279552Y-21838464D02*
X98343361Y-21874178D01*
X98343361Y-21874178D02*
X98375266Y-21909892D01*
X98375266Y-21909892D02*
X98439076Y-22017035D01*
X98439076Y-22017035D02*
X98470980Y-22159892D01*
X98470980Y-22159892D02*
X98470980Y-22445607D01*
X98470980Y-22445607D02*
X98439076Y-22517035D01*
X98439076Y-22517035D02*
X98407171Y-22552750D01*
X98407171Y-22552750D02*
X98343361Y-22588464D01*
X98343361Y-22588464D02*
X98215742Y-22588464D01*
X98215742Y-22588464D02*
X98151933Y-22552750D01*
X98151933Y-22552750D02*
X98120028Y-22517035D01*
X98120028Y-22517035D02*
X98088123Y-22445607D01*
X98088123Y-22445607D02*
X98088123Y-22267035D01*
X98088123Y-22267035D02*
X98120028Y-22195607D01*
X98120028Y-22195607D02*
X98151933Y-22159892D01*
X98151933Y-22159892D02*
X98215742Y-22124178D01*
X98215742Y-22124178D02*
X98343361Y-22124178D01*
X98343361Y-22124178D02*
X98407171Y-22159892D01*
X98407171Y-22159892D02*
X98439076Y-22195607D01*
X98439076Y-22195607D02*
X98470980Y-22267035D01*
X91159789Y-22145607D02*
X91064075Y-22181321D01*
X91064075Y-22181321D02*
X91032170Y-22217035D01*
X91032170Y-22217035D02*
X91000266Y-22288464D01*
X91000266Y-22288464D02*
X91000266Y-22395607D01*
X91000266Y-22395607D02*
X91032170Y-22467035D01*
X91032170Y-22467035D02*
X91064075Y-22502750D01*
X91064075Y-22502750D02*
X91127885Y-22538464D01*
X91127885Y-22538464D02*
X91383123Y-22538464D01*
X91383123Y-22538464D02*
X91383123Y-21788464D01*
X91383123Y-21788464D02*
X91159789Y-21788464D01*
X91159789Y-21788464D02*
X91095980Y-21824178D01*
X91095980Y-21824178D02*
X91064075Y-21859892D01*
X91064075Y-21859892D02*
X91032170Y-21931321D01*
X91032170Y-21931321D02*
X91032170Y-22002750D01*
X91032170Y-22002750D02*
X91064075Y-22074178D01*
X91064075Y-22074178D02*
X91095980Y-22109892D01*
X91095980Y-22109892D02*
X91159789Y-22145607D01*
X91159789Y-22145607D02*
X91383123Y-22145607D01*
X90394075Y-21788464D02*
X90713123Y-21788464D01*
X90713123Y-21788464D02*
X90745027Y-22145607D01*
X90745027Y-22145607D02*
X90713123Y-22109892D01*
X90713123Y-22109892D02*
X90649313Y-22074178D01*
X90649313Y-22074178D02*
X90489789Y-22074178D01*
X90489789Y-22074178D02*
X90425980Y-22109892D01*
X90425980Y-22109892D02*
X90394075Y-22145607D01*
X90394075Y-22145607D02*
X90362170Y-22217035D01*
X90362170Y-22217035D02*
X90362170Y-22395607D01*
X90362170Y-22395607D02*
X90394075Y-22467035D01*
X90394075Y-22467035D02*
X90425980Y-22502750D01*
X90425980Y-22502750D02*
X90489789Y-22538464D01*
X90489789Y-22538464D02*
X90649313Y-22538464D01*
X90649313Y-22538464D02*
X90713123Y-22502750D01*
X90713123Y-22502750D02*
X90745027Y-22467035D01*
X89596456Y-21752750D02*
X90170742Y-22717035D01*
X89341218Y-22538464D02*
X89213599Y-22538464D01*
X89213599Y-22538464D02*
X89149789Y-22502750D01*
X89149789Y-22502750D02*
X89117885Y-22467035D01*
X89117885Y-22467035D02*
X89054075Y-22359892D01*
X89054075Y-22359892D02*
X89022170Y-22217035D01*
X89022170Y-22217035D02*
X89022170Y-21931321D01*
X89022170Y-21931321D02*
X89054075Y-21859892D01*
X89054075Y-21859892D02*
X89085980Y-21824178D01*
X89085980Y-21824178D02*
X89149789Y-21788464D01*
X89149789Y-21788464D02*
X89277408Y-21788464D01*
X89277408Y-21788464D02*
X89341218Y-21824178D01*
X89341218Y-21824178D02*
X89373123Y-21859892D01*
X89373123Y-21859892D02*
X89405027Y-21931321D01*
X89405027Y-21931321D02*
X89405027Y-22109892D01*
X89405027Y-22109892D02*
X89373123Y-22181321D01*
X89373123Y-22181321D02*
X89341218Y-22217035D01*
X89341218Y-22217035D02*
X89277408Y-22252750D01*
X89277408Y-22252750D02*
X89149789Y-22252750D01*
X89149789Y-22252750D02*
X89085980Y-22217035D01*
X89085980Y-22217035D02*
X89054075Y-22181321D01*
X89054075Y-22181321D02*
X89022170Y-22109892D01*
X100736218Y-20088464D02*
X101119075Y-20088464D01*
X100927647Y-20088464D02*
X100927647Y-19338464D01*
X100927647Y-19338464D02*
X100991456Y-19445607D01*
X100991456Y-19445607D02*
X101055266Y-19517035D01*
X101055266Y-19517035D02*
X101119075Y-19552750D01*
X100161933Y-19338464D02*
X100289552Y-19338464D01*
X100289552Y-19338464D02*
X100353361Y-19374178D01*
X100353361Y-19374178D02*
X100385266Y-19409892D01*
X100385266Y-19409892D02*
X100449076Y-19517035D01*
X100449076Y-19517035D02*
X100480980Y-19659892D01*
X100480980Y-19659892D02*
X100480980Y-19945607D01*
X100480980Y-19945607D02*
X100449076Y-20017035D01*
X100449076Y-20017035D02*
X100417171Y-20052750D01*
X100417171Y-20052750D02*
X100353361Y-20088464D01*
X100353361Y-20088464D02*
X100225742Y-20088464D01*
X100225742Y-20088464D02*
X100161933Y-20052750D01*
X100161933Y-20052750D02*
X100130028Y-20017035D01*
X100130028Y-20017035D02*
X100098123Y-19945607D01*
X100098123Y-19945607D02*
X100098123Y-19767035D01*
X100098123Y-19767035D02*
X100130028Y-19695607D01*
X100130028Y-19695607D02*
X100161933Y-19659892D01*
X100161933Y-19659892D02*
X100225742Y-19624178D01*
X100225742Y-19624178D02*
X100353361Y-19624178D01*
X100353361Y-19624178D02*
X100417171Y-19659892D01*
X100417171Y-19659892D02*
X100449076Y-19695607D01*
X100449076Y-19695607D02*
X100480980Y-19767035D01*
X99332409Y-19302750D02*
X99906695Y-20267035D01*
X98885742Y-19695607D02*
X98790028Y-19731321D01*
X98790028Y-19731321D02*
X98758123Y-19767035D01*
X98758123Y-19767035D02*
X98726219Y-19838464D01*
X98726219Y-19838464D02*
X98726219Y-19945607D01*
X98726219Y-19945607D02*
X98758123Y-20017035D01*
X98758123Y-20017035D02*
X98790028Y-20052750D01*
X98790028Y-20052750D02*
X98853838Y-20088464D01*
X98853838Y-20088464D02*
X99109076Y-20088464D01*
X99109076Y-20088464D02*
X99109076Y-19338464D01*
X99109076Y-19338464D02*
X98885742Y-19338464D01*
X98885742Y-19338464D02*
X98821933Y-19374178D01*
X98821933Y-19374178D02*
X98790028Y-19409892D01*
X98790028Y-19409892D02*
X98758123Y-19481321D01*
X98758123Y-19481321D02*
X98758123Y-19552750D01*
X98758123Y-19552750D02*
X98790028Y-19624178D01*
X98790028Y-19624178D02*
X98821933Y-19659892D01*
X98821933Y-19659892D02*
X98885742Y-19695607D01*
X98885742Y-19695607D02*
X99109076Y-19695607D01*
X98470980Y-19409892D02*
X98439076Y-19374178D01*
X98439076Y-19374178D02*
X98375266Y-19338464D01*
X98375266Y-19338464D02*
X98215742Y-19338464D01*
X98215742Y-19338464D02*
X98151933Y-19374178D01*
X98151933Y-19374178D02*
X98120028Y-19409892D01*
X98120028Y-19409892D02*
X98088123Y-19481321D01*
X98088123Y-19481321D02*
X98088123Y-19552750D01*
X98088123Y-19552750D02*
X98120028Y-19659892D01*
X98120028Y-19659892D02*
X98502885Y-20088464D01*
X98502885Y-20088464D02*
X98088123Y-20088464D01*
X90594075Y8495821D02*
X90657885Y8531535D01*
X90657885Y8531535D02*
X90753599Y8531535D01*
X90753599Y8531535D02*
X90849313Y8495821D01*
X90849313Y8495821D02*
X90913123Y8424392D01*
X90913123Y8424392D02*
X90945028Y8352964D01*
X90945028Y8352964D02*
X90976932Y8210107D01*
X90976932Y8210107D02*
X90976932Y8102964D01*
X90976932Y8102964D02*
X90945028Y7960107D01*
X90945028Y7960107D02*
X90913123Y7888678D01*
X90913123Y7888678D02*
X90849313Y7817250D01*
X90849313Y7817250D02*
X90753599Y7781535D01*
X90753599Y7781535D02*
X90689790Y7781535D01*
X90689790Y7781535D02*
X90594075Y7817250D01*
X90594075Y7817250D02*
X90562171Y7852964D01*
X90562171Y7852964D02*
X90562171Y8102964D01*
X90562171Y8102964D02*
X90689790Y8102964D01*
X90275028Y7781535D02*
X90275028Y8531535D01*
X90275028Y8531535D02*
X89892171Y7781535D01*
X89892171Y7781535D02*
X89892171Y8531535D01*
X89573123Y7781535D02*
X89573123Y8531535D01*
X89573123Y8531535D02*
X89413599Y8531535D01*
X89413599Y8531535D02*
X89317885Y8495821D01*
X89317885Y8495821D02*
X89254075Y8424392D01*
X89254075Y8424392D02*
X89222170Y8352964D01*
X89222170Y8352964D02*
X89190266Y8210107D01*
X89190266Y8210107D02*
X89190266Y8102964D01*
X89190266Y8102964D02*
X89222170Y7960107D01*
X89222170Y7960107D02*
X89254075Y7888678D01*
X89254075Y7888678D02*
X89317885Y7817250D01*
X89317885Y7817250D02*
X89413599Y7781535D01*
X89413599Y7781535D02*
X89573123Y7781535D01*
X91351218Y-17095607D02*
X91127884Y-17095607D01*
X91032170Y-17488464D02*
X91351218Y-17488464D01*
X91351218Y-17488464D02*
X91351218Y-16738464D01*
X91351218Y-16738464D02*
X91032170Y-16738464D01*
X90457885Y-16738464D02*
X90585504Y-16738464D01*
X90585504Y-16738464D02*
X90649313Y-16774178D01*
X90649313Y-16774178D02*
X90681218Y-16809892D01*
X90681218Y-16809892D02*
X90745028Y-16917035D01*
X90745028Y-16917035D02*
X90776932Y-17059892D01*
X90776932Y-17059892D02*
X90776932Y-17345607D01*
X90776932Y-17345607D02*
X90745028Y-17417035D01*
X90745028Y-17417035D02*
X90713123Y-17452750D01*
X90713123Y-17452750D02*
X90649313Y-17488464D01*
X90649313Y-17488464D02*
X90521694Y-17488464D01*
X90521694Y-17488464D02*
X90457885Y-17452750D01*
X90457885Y-17452750D02*
X90425980Y-17417035D01*
X90425980Y-17417035D02*
X90394075Y-17345607D01*
X90394075Y-17345607D02*
X90394075Y-17167035D01*
X90394075Y-17167035D02*
X90425980Y-17095607D01*
X90425980Y-17095607D02*
X90457885Y-17059892D01*
X90457885Y-17059892D02*
X90521694Y-17024178D01*
X90521694Y-17024178D02*
X90649313Y-17024178D01*
X90649313Y-17024178D02*
X90713123Y-17059892D01*
X90713123Y-17059892D02*
X90745028Y-17095607D01*
X90745028Y-17095607D02*
X90776932Y-17167035D01*
X89628361Y-16702750D02*
X90202647Y-17667035D01*
X89468837Y-16738464D02*
X89022171Y-16738464D01*
X89022171Y-16738464D02*
X89309313Y-17488464D01*
D12*
%TO.C,D14*%
X61080000Y-26840000D02*
X61080000Y-28340000D01*
X61080000Y-28340000D02*
X66480000Y-28340000D01*
X63280000Y-27090000D02*
X63280000Y-28090000D01*
X63380000Y-27590000D02*
X64280000Y-27090000D01*
X64280000Y-27090000D02*
X64280000Y-28090000D01*
X64280000Y-28090000D02*
X63380000Y-27590000D01*
X66480000Y-26840000D02*
X61080000Y-26840000D01*
X66480000Y-28340000D02*
X66480000Y-26840000D01*
%TO.C,SW21*%
X-7150000Y-43600000D02*
X-7150000Y-40000000D01*
X-7000000Y-43800000D02*
X-7000000Y-39800000D01*
X-6850000Y-43900000D02*
X-6850000Y-39700000D01*
X-6700000Y-44000000D02*
X-6700000Y-39600000D01*
X-6550000Y-44050000D02*
X-6550000Y-39550000D01*
X-6400000Y-44100000D02*
X-6400000Y-39550000D01*
X-6250000Y-44100000D02*
X-6250000Y-39500000D01*
X-6100000Y-44100000D02*
X-6100000Y-39500000D01*
X-5950000Y-44100000D02*
X-5950000Y-39500000D01*
X-5800000Y-44100000D02*
X-5800000Y-39500000D01*
X-5650000Y-44100000D02*
X-5650000Y-39500000D01*
X-5500000Y-44100000D02*
X-5500000Y-39500000D01*
X-5350000Y-44100000D02*
X-5350000Y-39500000D01*
X-5200000Y-44100000D02*
X-5200000Y-39500000D01*
X-5050000Y-44100000D02*
X-5050000Y-39500000D01*
X-4900000Y-44100000D02*
X-4900000Y-39500000D01*
X-4750000Y-44100000D02*
X-4750000Y-39500000D01*
D14*
X-4650000Y-44000000D02*
X-4650000Y-39500000D01*
D12*
X-4600000Y-44100000D02*
X-4600000Y-39500000D01*
X-4450000Y-44100000D02*
X-4450000Y-39500000D01*
X-4300000Y-44100000D02*
X-4300000Y-39500000D01*
X-4300000Y-44125000D02*
X-6275000Y-44125000D01*
X-4150000Y-44100000D02*
X-4150000Y-39550000D01*
X-4000000Y-44150000D02*
X-4000000Y-39500000D01*
X-3850000Y-44150000D02*
X-3850000Y-39500000D01*
X-3725000Y-39475000D02*
X-6275000Y-39475000D01*
X-3725000Y-39475000D02*
X-2450000Y-40500000D01*
X-3700000Y-44150000D02*
X-3700000Y-39550000D01*
X-3550000Y-44200000D02*
X-3550000Y-39650000D01*
X-3400000Y-44300000D02*
X-3400000Y-39750000D01*
X-3250000Y-44350000D02*
X-3250000Y-39900000D01*
X-3100000Y-44450000D02*
X-3100000Y-40000000D01*
X-2950000Y-44550000D02*
X-2950000Y-40150000D01*
X-2800000Y-44650000D02*
X-2800000Y-40250000D01*
X-2650000Y-44800000D02*
X-2650000Y-40350000D01*
X-2500000Y-44950000D02*
X-2500000Y-40500000D01*
X-2400000Y-45150000D02*
X-2400000Y-41000000D01*
X-2300000Y-45300000D02*
X-2300000Y-41150000D01*
X-2200000Y-45500000D02*
X-2200000Y-41350000D01*
X-2100000Y-45650000D02*
X-2100000Y-41450000D01*
X-2000000Y-45900000D02*
X-2000000Y-41500000D01*
X-1900000Y-46050000D02*
X-1900000Y-41550000D01*
D14*
X-1800000Y-41700000D02*
X-4650000Y-44000000D01*
X-1800000Y-46050000D02*
X-1800000Y-41700000D01*
D12*
X-1750000Y-46150000D02*
X-1750000Y-41600000D01*
X-1600000Y-46250000D02*
X-1600000Y-41700000D01*
X-1450000Y-46300000D02*
X-1450000Y-41700000D01*
X-1300000Y-46300000D02*
X-1300000Y-41700000D01*
X-1150000Y-46300000D02*
X-1150000Y-41750000D01*
X-1000000Y-46300000D02*
X-1000000Y-41700000D01*
X-850000Y-46300000D02*
X-850000Y-41700000D01*
X-700000Y-46300000D02*
X-700000Y-41700000D01*
X-550000Y-46300000D02*
X-550000Y-41700000D01*
X-400000Y-46300000D02*
X-400000Y-41700000D01*
X-250000Y-46300000D02*
X-250000Y-41700000D01*
X-100000Y-46300000D02*
X-100000Y-41700000D01*
X50000Y-46300000D02*
X50000Y-41700000D01*
X200000Y-46300000D02*
X200000Y-41700000D01*
X350000Y-46300000D02*
X350000Y-41700000D01*
X500000Y-46300000D02*
X500000Y-41700000D01*
X650000Y-46300000D02*
X650000Y-41700000D01*
X800000Y-46300000D02*
X800000Y-41700000D01*
D14*
X900000Y-41750000D02*
X-1800000Y-46050000D01*
X900000Y-46200000D02*
X900000Y-41750000D01*
D12*
X950000Y-46300000D02*
X950000Y-41700000D01*
X1100000Y-46300000D02*
X1100000Y-41700000D01*
X1250000Y-46300000D02*
X1250000Y-41700000D01*
X1300000Y-41675000D02*
X-1275000Y-41675000D01*
X1300000Y-41675000D02*
X2325000Y-42700000D01*
X1300000Y-46325000D02*
X-1300000Y-46325000D01*
X1300000Y-46325000D02*
X2325000Y-45300000D01*
X1400000Y-46200000D02*
X1400000Y-41800000D01*
X1550000Y-46050000D02*
X1550000Y-41950000D01*
X1700000Y-45900000D02*
X1700000Y-42100000D01*
X1850000Y-45750000D02*
X1850000Y-42250000D01*
X1950000Y-45650000D02*
X1950000Y-42350000D01*
X2050000Y-45550000D02*
X2050000Y-42450000D01*
X2150000Y-45450000D02*
X2150000Y-42550000D01*
X2300000Y-42675000D02*
X2300000Y-45325000D01*
X-6275000Y-39475000D02*
G75*
G03*
X-7275000Y-40475000I-1J-999999D01*
G01*
X-7275000Y-43125000D02*
G75*
G03*
X-6275000Y-44125000I999999J-1D01*
G01*
X-2162199Y-45621904D02*
G75*
G03*
X-4300000Y-44125000I-2137802J-778098D01*
G01*
X-2162198Y-45621904D02*
G75*
G03*
X-1300995Y-46323790I899999J225000D01*
G01*
X-2450000Y-40500000D02*
G75*
G03*
X-1275000Y-41675000I1175002J2D01*
G01*
%TO.C,SW15*%
X69050000Y-24550000D02*
X69050000Y-20950000D01*
X69200000Y-24750000D02*
X69200000Y-20750000D01*
X69350000Y-24850000D02*
X69350000Y-20650000D01*
X69500000Y-24950000D02*
X69500000Y-20550000D01*
X69650000Y-25000000D02*
X69650000Y-20500000D01*
X69800000Y-25050000D02*
X69800000Y-20500000D01*
X69950000Y-25050000D02*
X69950000Y-20450000D01*
X70100000Y-25050000D02*
X70100000Y-20450000D01*
X70250000Y-25050000D02*
X70250000Y-20450000D01*
X70400000Y-25050000D02*
X70400000Y-20450000D01*
X70550000Y-25050000D02*
X70550000Y-20450000D01*
X70700000Y-25050000D02*
X70700000Y-20450000D01*
X70850000Y-25050000D02*
X70850000Y-20450000D01*
X71000000Y-25050000D02*
X71000000Y-20450000D01*
X71150000Y-25050000D02*
X71150000Y-20450000D01*
X71300000Y-25050000D02*
X71300000Y-20450000D01*
X71450000Y-25050000D02*
X71450000Y-20450000D01*
D14*
X71550000Y-24950000D02*
X71550000Y-20450000D01*
D12*
X71600000Y-25050000D02*
X71600000Y-20450000D01*
X71750000Y-25050000D02*
X71750000Y-20450000D01*
X71900000Y-25050000D02*
X71900000Y-20450000D01*
X71900000Y-25075000D02*
X69925000Y-25075000D01*
X72050000Y-25050000D02*
X72050000Y-20500000D01*
X72200000Y-25100000D02*
X72200000Y-20450000D01*
X72350000Y-25100000D02*
X72350000Y-20450000D01*
X72475000Y-20425000D02*
X69925000Y-20425000D01*
X72475000Y-20425000D02*
X73750000Y-21450000D01*
X72500000Y-25100000D02*
X72500000Y-20500000D01*
X72650000Y-25150000D02*
X72650000Y-20600000D01*
X72800000Y-25250000D02*
X72800000Y-20700000D01*
X72950000Y-25300000D02*
X72950000Y-20850000D01*
X73100000Y-25400000D02*
X73100000Y-20950000D01*
X73250000Y-25500000D02*
X73250000Y-21100000D01*
X73400000Y-25600000D02*
X73400000Y-21200000D01*
X73550000Y-25750000D02*
X73550000Y-21300000D01*
X73700000Y-25900000D02*
X73700000Y-21450000D01*
X73800000Y-26100000D02*
X73800000Y-21950000D01*
X73900000Y-26250000D02*
X73900000Y-22100000D01*
X74000000Y-26450000D02*
X74000000Y-22300000D01*
X74100000Y-26600000D02*
X74100000Y-22400000D01*
X74200000Y-26850000D02*
X74200000Y-22450000D01*
X74300000Y-27000000D02*
X74300000Y-22500000D01*
D14*
X74400000Y-22650000D02*
X71550000Y-24950000D01*
X74400000Y-27000000D02*
X74400000Y-22650000D01*
D12*
X74450000Y-27100000D02*
X74450000Y-22550000D01*
X74600000Y-27200000D02*
X74600000Y-22650000D01*
X74750000Y-27250000D02*
X74750000Y-22650000D01*
X74900000Y-27250000D02*
X74900000Y-22650000D01*
X75050000Y-27250000D02*
X75050000Y-22700000D01*
X75200000Y-27250000D02*
X75200000Y-22650000D01*
X75350000Y-27250000D02*
X75350000Y-22650000D01*
X75500000Y-27250000D02*
X75500000Y-22650000D01*
X75650000Y-27250000D02*
X75650000Y-22650000D01*
X75800000Y-27250000D02*
X75800000Y-22650000D01*
X75950000Y-27250000D02*
X75950000Y-22650000D01*
X76100000Y-27250000D02*
X76100000Y-22650000D01*
X76250000Y-27250000D02*
X76250000Y-22650000D01*
X76400000Y-27250000D02*
X76400000Y-22650000D01*
X76550000Y-27250000D02*
X76550000Y-22650000D01*
X76700000Y-27250000D02*
X76700000Y-22650000D01*
X76850000Y-27250000D02*
X76850000Y-22650000D01*
X77000000Y-27250000D02*
X77000000Y-22650000D01*
D14*
X77100000Y-22700000D02*
X74400000Y-27000000D01*
X77100000Y-27150000D02*
X77100000Y-22700000D01*
D12*
X77150000Y-27250000D02*
X77150000Y-22650000D01*
X77300000Y-27250000D02*
X77300000Y-22650000D01*
X77450000Y-27250000D02*
X77450000Y-22650000D01*
X77500000Y-22625000D02*
X74925000Y-22625000D01*
X77500000Y-22625000D02*
X78525000Y-23650000D01*
X77500000Y-27275000D02*
X74900000Y-27275000D01*
X77500000Y-27275000D02*
X78525000Y-26250000D01*
X77600000Y-27150000D02*
X77600000Y-22750000D01*
X77750000Y-27000000D02*
X77750000Y-22900000D01*
X77900000Y-26850000D02*
X77900000Y-23050000D01*
X78050000Y-26700000D02*
X78050000Y-23200000D01*
X78150000Y-26600000D02*
X78150000Y-23300000D01*
X78250000Y-26500000D02*
X78250000Y-23400000D01*
X78350000Y-26400000D02*
X78350000Y-23500000D01*
X78500000Y-23625000D02*
X78500000Y-26275000D01*
X69925000Y-20425000D02*
G75*
G03*
X68925000Y-21425000I-1J-999999D01*
G01*
X68925000Y-24075000D02*
G75*
G03*
X69925000Y-25075000I999999J-1D01*
G01*
X74037801Y-26571904D02*
G75*
G03*
X71900000Y-25075000I-2137802J-778098D01*
G01*
X74037802Y-26571904D02*
G75*
G03*
X74899005Y-27273790I899999J225000D01*
G01*
X73750000Y-21450000D02*
G75*
G03*
X74925000Y-22625000I1175002J2D01*
G01*
%TO.C,D35*%
X80117500Y-64950000D02*
X80117500Y-66450000D01*
X80117500Y-66450000D02*
X85517500Y-66450000D01*
X82317500Y-65200000D02*
X82317500Y-66200000D01*
X82417500Y-65700000D02*
X83317500Y-65200000D01*
X83317500Y-65200000D02*
X83317500Y-66200000D01*
X83317500Y-66200000D02*
X82417500Y-65700000D01*
X85517500Y-64950000D02*
X80117500Y-64950000D01*
X85517500Y-66450000D02*
X85517500Y-64950000D01*
%TO.C,D15*%
X79290000Y-26770000D02*
X79290000Y-28270000D01*
X79290000Y-28270000D02*
X84690000Y-28270000D01*
X81490000Y-27020000D02*
X81490000Y-28020000D01*
X81590000Y-27520000D02*
X82490000Y-27020000D01*
X82490000Y-27020000D02*
X82490000Y-28020000D01*
X82490000Y-28020000D02*
X81590000Y-27520000D01*
X84690000Y-26770000D02*
X79290000Y-26770000D01*
X84690000Y-28270000D02*
X84690000Y-26770000D01*
%TO.C,SW33*%
X30950000Y-62650000D02*
X30950000Y-59050000D01*
X31100000Y-62850000D02*
X31100000Y-58850000D01*
X31250000Y-62950000D02*
X31250000Y-58750000D01*
X31400000Y-63050000D02*
X31400000Y-58650000D01*
X31550000Y-63100000D02*
X31550000Y-58600000D01*
X31700000Y-63150000D02*
X31700000Y-58600000D01*
X31850000Y-63150000D02*
X31850000Y-58550000D01*
X32000000Y-63150000D02*
X32000000Y-58550000D01*
X32150000Y-63150000D02*
X32150000Y-58550000D01*
X32300000Y-63150000D02*
X32300000Y-58550000D01*
X32450000Y-63150000D02*
X32450000Y-58550000D01*
X32600000Y-63150000D02*
X32600000Y-58550000D01*
X32750000Y-63150000D02*
X32750000Y-58550000D01*
X32900000Y-63150000D02*
X32900000Y-58550000D01*
X33050000Y-63150000D02*
X33050000Y-58550000D01*
X33200000Y-63150000D02*
X33200000Y-58550000D01*
X33350000Y-63150000D02*
X33350000Y-58550000D01*
D14*
X33450000Y-63050000D02*
X33450000Y-58550000D01*
D12*
X33500000Y-63150000D02*
X33500000Y-58550000D01*
X33650000Y-63150000D02*
X33650000Y-58550000D01*
X33800000Y-63150000D02*
X33800000Y-58550000D01*
X33800000Y-63175000D02*
X31825000Y-63175000D01*
X33950000Y-63150000D02*
X33950000Y-58600000D01*
X34100000Y-63200000D02*
X34100000Y-58550000D01*
X34250000Y-63200000D02*
X34250000Y-58550000D01*
X34375000Y-58525000D02*
X31825000Y-58525000D01*
X34375000Y-58525000D02*
X35650000Y-59550000D01*
X34400000Y-63200000D02*
X34400000Y-58600000D01*
X34550000Y-63250000D02*
X34550000Y-58700000D01*
X34700000Y-63350000D02*
X34700000Y-58800000D01*
X34850000Y-63400000D02*
X34850000Y-58950000D01*
X35000000Y-63500000D02*
X35000000Y-59050000D01*
X35150000Y-63600000D02*
X35150000Y-59200000D01*
X35300000Y-63700000D02*
X35300000Y-59300000D01*
X35450000Y-63850000D02*
X35450000Y-59400000D01*
X35600000Y-64000000D02*
X35600000Y-59550000D01*
X35700000Y-64200000D02*
X35700000Y-60050000D01*
X35800000Y-64350000D02*
X35800000Y-60200000D01*
X35900000Y-64550000D02*
X35900000Y-60400000D01*
X36000000Y-64700000D02*
X36000000Y-60500000D01*
X36100000Y-64950000D02*
X36100000Y-60550000D01*
X36200000Y-65100000D02*
X36200000Y-60600000D01*
D14*
X36300000Y-60750000D02*
X33450000Y-63050000D01*
X36300000Y-65100000D02*
X36300000Y-60750000D01*
D12*
X36350000Y-65200000D02*
X36350000Y-60650000D01*
X36500000Y-65300000D02*
X36500000Y-60750000D01*
X36650000Y-65350000D02*
X36650000Y-60750000D01*
X36800000Y-65350000D02*
X36800000Y-60750000D01*
X36950000Y-65350000D02*
X36950000Y-60800000D01*
X37100000Y-65350000D02*
X37100000Y-60750000D01*
X37250000Y-65350000D02*
X37250000Y-60750000D01*
X37400000Y-65350000D02*
X37400000Y-60750000D01*
X37550000Y-65350000D02*
X37550000Y-60750000D01*
X37700000Y-65350000D02*
X37700000Y-60750000D01*
X37850000Y-65350000D02*
X37850000Y-60750000D01*
X38000000Y-65350000D02*
X38000000Y-60750000D01*
X38150000Y-65350000D02*
X38150000Y-60750000D01*
X38300000Y-65350000D02*
X38300000Y-60750000D01*
X38450000Y-65350000D02*
X38450000Y-60750000D01*
X38600000Y-65350000D02*
X38600000Y-60750000D01*
X38750000Y-65350000D02*
X38750000Y-60750000D01*
X38900000Y-65350000D02*
X38900000Y-60750000D01*
D14*
X39000000Y-60800000D02*
X36300000Y-65100000D01*
X39000000Y-65250000D02*
X39000000Y-60800000D01*
D12*
X39050000Y-65350000D02*
X39050000Y-60750000D01*
X39200000Y-65350000D02*
X39200000Y-60750000D01*
X39350000Y-65350000D02*
X39350000Y-60750000D01*
X39400000Y-60725000D02*
X36825000Y-60725000D01*
X39400000Y-60725000D02*
X40425000Y-61750000D01*
X39400000Y-65375000D02*
X36800000Y-65375000D01*
X39400000Y-65375000D02*
X40425000Y-64350000D01*
X39500000Y-65250000D02*
X39500000Y-60850000D01*
X39650000Y-65100000D02*
X39650000Y-61000000D01*
X39800000Y-64950000D02*
X39800000Y-61150000D01*
X39950000Y-64800000D02*
X39950000Y-61300000D01*
X40050000Y-64700000D02*
X40050000Y-61400000D01*
X40150000Y-64600000D02*
X40150000Y-61500000D01*
X40250000Y-64500000D02*
X40250000Y-61600000D01*
X40400000Y-61725000D02*
X40400000Y-64375000D01*
X31825000Y-58525000D02*
G75*
G03*
X30825000Y-59525000I-1J-999999D01*
G01*
X30825000Y-62175000D02*
G75*
G03*
X31825000Y-63175000I999999J-1D01*
G01*
X35937801Y-64671904D02*
G75*
G03*
X33800000Y-63175000I-2137802J-778098D01*
G01*
X35937802Y-64671904D02*
G75*
G03*
X36799005Y-65373790I899999J225000D01*
G01*
X35650000Y-59550000D02*
G75*
G03*
X36825000Y-60725000I1175002J2D01*
G01*
%TO.C,D21*%
X3950000Y-45970000D02*
X3950000Y-47470000D01*
X3950000Y-47470000D02*
X9350000Y-47470000D01*
X6150000Y-46220000D02*
X6150000Y-47220000D01*
X6250000Y-46720000D02*
X7150000Y-46220000D01*
X7150000Y-46220000D02*
X7150000Y-47220000D01*
X7150000Y-47220000D02*
X6250000Y-46720000D01*
X9350000Y-45970000D02*
X3950000Y-45970000D01*
X9350000Y-47470000D02*
X9350000Y-45970000D01*
%TO.C,D13*%
X42050000Y-26910000D02*
X42050000Y-28410000D01*
X42050000Y-28410000D02*
X47450000Y-28410000D01*
X44250000Y-27160000D02*
X44250000Y-28160000D01*
X44350000Y-27660000D02*
X45250000Y-27160000D01*
X45250000Y-27160000D02*
X45250000Y-28160000D01*
X45250000Y-28160000D02*
X44350000Y-27660000D01*
X47450000Y-26910000D02*
X42050000Y-26910000D01*
X47450000Y-28410000D02*
X47450000Y-26910000D01*
%TO.C,SW4*%
X50000000Y-5500000D02*
X50000000Y-1900000D01*
X50150000Y-5700000D02*
X50150000Y-1700000D01*
X50300000Y-5800000D02*
X50300000Y-1600000D01*
X50450000Y-5900000D02*
X50450000Y-1500000D01*
X50600000Y-5950000D02*
X50600000Y-1450000D01*
X50750000Y-6000000D02*
X50750000Y-1450000D01*
X50900000Y-6000000D02*
X50900000Y-1400000D01*
X51050000Y-6000000D02*
X51050000Y-1400000D01*
X51200000Y-6000000D02*
X51200000Y-1400000D01*
X51350000Y-6000000D02*
X51350000Y-1400000D01*
X51500000Y-6000000D02*
X51500000Y-1400000D01*
X51650000Y-6000000D02*
X51650000Y-1400000D01*
X51800000Y-6000000D02*
X51800000Y-1400000D01*
X51950000Y-6000000D02*
X51950000Y-1400000D01*
X52100000Y-6000000D02*
X52100000Y-1400000D01*
X52250000Y-6000000D02*
X52250000Y-1400000D01*
X52400000Y-6000000D02*
X52400000Y-1400000D01*
D14*
X52500000Y-5900000D02*
X52500000Y-1400000D01*
D12*
X52550000Y-6000000D02*
X52550000Y-1400000D01*
X52700000Y-6000000D02*
X52700000Y-1400000D01*
X52850000Y-6000000D02*
X52850000Y-1400000D01*
X52850000Y-6025000D02*
X50875000Y-6025000D01*
X53000000Y-6000000D02*
X53000000Y-1450000D01*
X53150000Y-6050000D02*
X53150000Y-1400000D01*
X53300000Y-6050000D02*
X53300000Y-1400000D01*
X53425000Y-1375000D02*
X50875000Y-1375000D01*
X53425000Y-1375000D02*
X54700000Y-2400000D01*
X53450000Y-6050000D02*
X53450000Y-1450000D01*
X53600000Y-6100000D02*
X53600000Y-1550000D01*
X53750000Y-6200000D02*
X53750000Y-1650000D01*
X53900000Y-6250000D02*
X53900000Y-1800000D01*
X54050000Y-6350000D02*
X54050000Y-1900000D01*
X54200000Y-6450000D02*
X54200000Y-2050000D01*
X54350000Y-6550000D02*
X54350000Y-2150000D01*
X54500000Y-6700000D02*
X54500000Y-2250000D01*
X54650000Y-6850000D02*
X54650000Y-2400000D01*
X54750000Y-7050000D02*
X54750000Y-2900000D01*
X54850000Y-7200000D02*
X54850000Y-3050000D01*
X54950000Y-7400000D02*
X54950000Y-3250000D01*
X55050000Y-7550000D02*
X55050000Y-3350000D01*
X55150000Y-7800000D02*
X55150000Y-3400000D01*
X55250000Y-7950000D02*
X55250000Y-3450000D01*
D14*
X55350000Y-3600000D02*
X52500000Y-5900000D01*
X55350000Y-7950000D02*
X55350000Y-3600000D01*
D12*
X55400000Y-8050000D02*
X55400000Y-3500000D01*
X55550000Y-8150000D02*
X55550000Y-3600000D01*
X55700000Y-8200000D02*
X55700000Y-3600000D01*
X55850000Y-8200000D02*
X55850000Y-3600000D01*
X56000000Y-8200000D02*
X56000000Y-3650000D01*
X56150000Y-8200000D02*
X56150000Y-3600000D01*
X56300000Y-8200000D02*
X56300000Y-3600000D01*
X56450000Y-8200000D02*
X56450000Y-3600000D01*
X56600000Y-8200000D02*
X56600000Y-3600000D01*
X56750000Y-8200000D02*
X56750000Y-3600000D01*
X56900000Y-8200000D02*
X56900000Y-3600000D01*
X57050000Y-8200000D02*
X57050000Y-3600000D01*
X57200000Y-8200000D02*
X57200000Y-3600000D01*
X57350000Y-8200000D02*
X57350000Y-3600000D01*
X57500000Y-8200000D02*
X57500000Y-3600000D01*
X57650000Y-8200000D02*
X57650000Y-3600000D01*
X57800000Y-8200000D02*
X57800000Y-3600000D01*
X57950000Y-8200000D02*
X57950000Y-3600000D01*
D14*
X58050000Y-3650000D02*
X55350000Y-7950000D01*
X58050000Y-8100000D02*
X58050000Y-3650000D01*
D12*
X58100000Y-8200000D02*
X58100000Y-3600000D01*
X58250000Y-8200000D02*
X58250000Y-3600000D01*
X58400000Y-8200000D02*
X58400000Y-3600000D01*
X58450000Y-3575000D02*
X55875000Y-3575000D01*
X58450000Y-3575000D02*
X59475000Y-4600000D01*
X58450000Y-8225000D02*
X55850000Y-8225000D01*
X58450000Y-8225000D02*
X59475000Y-7200000D01*
X58550000Y-8100000D02*
X58550000Y-3700000D01*
X58700000Y-7950000D02*
X58700000Y-3850000D01*
X58850000Y-7800000D02*
X58850000Y-4000000D01*
X59000000Y-7650000D02*
X59000000Y-4150000D01*
X59100000Y-7550000D02*
X59100000Y-4250000D01*
X59200000Y-7450000D02*
X59200000Y-4350000D01*
X59300000Y-7350000D02*
X59300000Y-4450000D01*
X59450000Y-4575000D02*
X59450000Y-7225000D01*
X50875000Y-1375000D02*
G75*
G03*
X49875000Y-2375000I-1J-999999D01*
G01*
X49875000Y-5025000D02*
G75*
G03*
X50875000Y-6025000I999999J-1D01*
G01*
X54987801Y-7521904D02*
G75*
G03*
X52850000Y-6025000I-2137802J-778098D01*
G01*
X54987802Y-7521904D02*
G75*
G03*
X55849005Y-8223790I899999J225000D01*
G01*
X54700000Y-2400000D02*
G75*
G03*
X55875000Y-3575000I1175002J2D01*
G01*
%TO.C,SW36*%
X88100000Y-62650000D02*
X88100000Y-59050000D01*
X88250000Y-62850000D02*
X88250000Y-58850000D01*
X88400000Y-62950000D02*
X88400000Y-58750000D01*
X88550000Y-63050000D02*
X88550000Y-58650000D01*
X88700000Y-63100000D02*
X88700000Y-58600000D01*
X88850000Y-63150000D02*
X88850000Y-58600000D01*
X89000000Y-63150000D02*
X89000000Y-58550000D01*
X89150000Y-63150000D02*
X89150000Y-58550000D01*
X89300000Y-63150000D02*
X89300000Y-58550000D01*
X89450000Y-63150000D02*
X89450000Y-58550000D01*
X89600000Y-63150000D02*
X89600000Y-58550000D01*
X89750000Y-63150000D02*
X89750000Y-58550000D01*
X89900000Y-63150000D02*
X89900000Y-58550000D01*
X90050000Y-63150000D02*
X90050000Y-58550000D01*
X90200000Y-63150000D02*
X90200000Y-58550000D01*
X90350000Y-63150000D02*
X90350000Y-58550000D01*
X90500000Y-63150000D02*
X90500000Y-58550000D01*
D14*
X90600000Y-63050000D02*
X90600000Y-58550000D01*
D12*
X90650000Y-63150000D02*
X90650000Y-58550000D01*
X90800000Y-63150000D02*
X90800000Y-58550000D01*
X90950000Y-63150000D02*
X90950000Y-58550000D01*
X90950000Y-63175000D02*
X88975000Y-63175000D01*
X91100000Y-63150000D02*
X91100000Y-58600000D01*
X91250000Y-63200000D02*
X91250000Y-58550000D01*
X91400000Y-63200000D02*
X91400000Y-58550000D01*
X91525000Y-58525000D02*
X88975000Y-58525000D01*
X91525000Y-58525000D02*
X92800000Y-59550000D01*
X91550000Y-63200000D02*
X91550000Y-58600000D01*
X91700000Y-63250000D02*
X91700000Y-58700000D01*
X91850000Y-63350000D02*
X91850000Y-58800000D01*
X92000000Y-63400000D02*
X92000000Y-58950000D01*
X92150000Y-63500000D02*
X92150000Y-59050000D01*
X92300000Y-63600000D02*
X92300000Y-59200000D01*
X92450000Y-63700000D02*
X92450000Y-59300000D01*
X92600000Y-63850000D02*
X92600000Y-59400000D01*
X92750000Y-64000000D02*
X92750000Y-59550000D01*
X92850000Y-64200000D02*
X92850000Y-60050000D01*
X92950000Y-64350000D02*
X92950000Y-60200000D01*
X93050000Y-64550000D02*
X93050000Y-60400000D01*
X93150000Y-64700000D02*
X93150000Y-60500000D01*
X93250000Y-64950000D02*
X93250000Y-60550000D01*
X93350000Y-65100000D02*
X93350000Y-60600000D01*
D14*
X93450000Y-60750000D02*
X90600000Y-63050000D01*
X93450000Y-65100000D02*
X93450000Y-60750000D01*
D12*
X93500000Y-65200000D02*
X93500000Y-60650000D01*
X93650000Y-65300000D02*
X93650000Y-60750000D01*
X93800000Y-65350000D02*
X93800000Y-60750000D01*
X93950000Y-65350000D02*
X93950000Y-60750000D01*
X94100000Y-65350000D02*
X94100000Y-60800000D01*
X94250000Y-65350000D02*
X94250000Y-60750000D01*
X94400000Y-65350000D02*
X94400000Y-60750000D01*
X94550000Y-65350000D02*
X94550000Y-60750000D01*
X94700000Y-65350000D02*
X94700000Y-60750000D01*
X94850000Y-65350000D02*
X94850000Y-60750000D01*
X95000000Y-65350000D02*
X95000000Y-60750000D01*
X95150000Y-65350000D02*
X95150000Y-60750000D01*
X95300000Y-65350000D02*
X95300000Y-60750000D01*
X95450000Y-65350000D02*
X95450000Y-60750000D01*
X95600000Y-65350000D02*
X95600000Y-60750000D01*
X95750000Y-65350000D02*
X95750000Y-60750000D01*
X95900000Y-65350000D02*
X95900000Y-60750000D01*
X96050000Y-65350000D02*
X96050000Y-60750000D01*
D14*
X96150000Y-60800000D02*
X93450000Y-65100000D01*
X96150000Y-65250000D02*
X96150000Y-60800000D01*
D12*
X96200000Y-65350000D02*
X96200000Y-60750000D01*
X96350000Y-65350000D02*
X96350000Y-60750000D01*
X96500000Y-65350000D02*
X96500000Y-60750000D01*
X96550000Y-60725000D02*
X93975000Y-60725000D01*
X96550000Y-60725000D02*
X97575000Y-61750000D01*
X96550000Y-65375000D02*
X93950000Y-65375000D01*
X96550000Y-65375000D02*
X97575000Y-64350000D01*
X96650000Y-65250000D02*
X96650000Y-60850000D01*
X96800000Y-65100000D02*
X96800000Y-61000000D01*
X96950000Y-64950000D02*
X96950000Y-61150000D01*
X97100000Y-64800000D02*
X97100000Y-61300000D01*
X97200000Y-64700000D02*
X97200000Y-61400000D01*
X97300000Y-64600000D02*
X97300000Y-61500000D01*
X97400000Y-64500000D02*
X97400000Y-61600000D01*
X97550000Y-61725000D02*
X97550000Y-64375000D01*
X88975000Y-58525000D02*
G75*
G03*
X87975000Y-59525000I-1J-999999D01*
G01*
X87975000Y-62175000D02*
G75*
G03*
X88975000Y-63175000I999999J-1D01*
G01*
X93087801Y-64671904D02*
G75*
G03*
X90950000Y-63175000I-2137802J-778098D01*
G01*
X93087802Y-64671904D02*
G75*
G03*
X93949005Y-65373790I899999J225000D01*
G01*
X92800000Y-59550000D02*
G75*
G03*
X93975000Y-60725000I1175002J2D01*
G01*
%TO.C,SW3*%
X30950000Y-5500000D02*
X30950000Y-1900000D01*
X31100000Y-5700000D02*
X31100000Y-1700000D01*
X31250000Y-5800000D02*
X31250000Y-1600000D01*
X31400000Y-5900000D02*
X31400000Y-1500000D01*
X31550000Y-5950000D02*
X31550000Y-1450000D01*
X31700000Y-6000000D02*
X31700000Y-1450000D01*
X31850000Y-6000000D02*
X31850000Y-1400000D01*
X32000000Y-6000000D02*
X32000000Y-1400000D01*
X32150000Y-6000000D02*
X32150000Y-1400000D01*
X32300000Y-6000000D02*
X32300000Y-1400000D01*
X32450000Y-6000000D02*
X32450000Y-1400000D01*
X32600000Y-6000000D02*
X32600000Y-1400000D01*
X32750000Y-6000000D02*
X32750000Y-1400000D01*
X32900000Y-6000000D02*
X32900000Y-1400000D01*
X33050000Y-6000000D02*
X33050000Y-1400000D01*
X33200000Y-6000000D02*
X33200000Y-1400000D01*
X33350000Y-6000000D02*
X33350000Y-1400000D01*
D14*
X33450000Y-5900000D02*
X33450000Y-1400000D01*
D12*
X33500000Y-6000000D02*
X33500000Y-1400000D01*
X33650000Y-6000000D02*
X33650000Y-1400000D01*
X33800000Y-6000000D02*
X33800000Y-1400000D01*
X33800000Y-6025000D02*
X31825000Y-6025000D01*
X33950000Y-6000000D02*
X33950000Y-1450000D01*
X34100000Y-6050000D02*
X34100000Y-1400000D01*
X34250000Y-6050000D02*
X34250000Y-1400000D01*
X34375000Y-1375000D02*
X31825000Y-1375000D01*
X34375000Y-1375000D02*
X35650000Y-2400000D01*
X34400000Y-6050000D02*
X34400000Y-1450000D01*
X34550000Y-6100000D02*
X34550000Y-1550000D01*
X34700000Y-6200000D02*
X34700000Y-1650000D01*
X34850000Y-6250000D02*
X34850000Y-1800000D01*
X35000000Y-6350000D02*
X35000000Y-1900000D01*
X35150000Y-6450000D02*
X35150000Y-2050000D01*
X35300000Y-6550000D02*
X35300000Y-2150000D01*
X35450000Y-6700000D02*
X35450000Y-2250000D01*
X35600000Y-6850000D02*
X35600000Y-2400000D01*
X35700000Y-7050000D02*
X35700000Y-2900000D01*
X35800000Y-7200000D02*
X35800000Y-3050000D01*
X35900000Y-7400000D02*
X35900000Y-3250000D01*
X36000000Y-7550000D02*
X36000000Y-3350000D01*
X36100000Y-7800000D02*
X36100000Y-3400000D01*
X36200000Y-7950000D02*
X36200000Y-3450000D01*
D14*
X36300000Y-3600000D02*
X33450000Y-5900000D01*
X36300000Y-7950000D02*
X36300000Y-3600000D01*
D12*
X36350000Y-8050000D02*
X36350000Y-3500000D01*
X36500000Y-8150000D02*
X36500000Y-3600000D01*
X36650000Y-8200000D02*
X36650000Y-3600000D01*
X36800000Y-8200000D02*
X36800000Y-3600000D01*
X36950000Y-8200000D02*
X36950000Y-3650000D01*
X37100000Y-8200000D02*
X37100000Y-3600000D01*
X37250000Y-8200000D02*
X37250000Y-3600000D01*
X37400000Y-8200000D02*
X37400000Y-3600000D01*
X37550000Y-8200000D02*
X37550000Y-3600000D01*
X37700000Y-8200000D02*
X37700000Y-3600000D01*
X37850000Y-8200000D02*
X37850000Y-3600000D01*
X38000000Y-8200000D02*
X38000000Y-3600000D01*
X38150000Y-8200000D02*
X38150000Y-3600000D01*
X38300000Y-8200000D02*
X38300000Y-3600000D01*
X38450000Y-8200000D02*
X38450000Y-3600000D01*
X38600000Y-8200000D02*
X38600000Y-3600000D01*
X38750000Y-8200000D02*
X38750000Y-3600000D01*
X38900000Y-8200000D02*
X38900000Y-3600000D01*
D14*
X39000000Y-3650000D02*
X36300000Y-7950000D01*
X39000000Y-8100000D02*
X39000000Y-3650000D01*
D12*
X39050000Y-8200000D02*
X39050000Y-3600000D01*
X39200000Y-8200000D02*
X39200000Y-3600000D01*
X39350000Y-8200000D02*
X39350000Y-3600000D01*
X39400000Y-3575000D02*
X36825000Y-3575000D01*
X39400000Y-3575000D02*
X40425000Y-4600000D01*
X39400000Y-8225000D02*
X36800000Y-8225000D01*
X39400000Y-8225000D02*
X40425000Y-7200000D01*
X39500000Y-8100000D02*
X39500000Y-3700000D01*
X39650000Y-7950000D02*
X39650000Y-3850000D01*
X39800000Y-7800000D02*
X39800000Y-4000000D01*
X39950000Y-7650000D02*
X39950000Y-4150000D01*
X40050000Y-7550000D02*
X40050000Y-4250000D01*
X40150000Y-7450000D02*
X40150000Y-4350000D01*
X40250000Y-7350000D02*
X40250000Y-4450000D01*
X40400000Y-4575000D02*
X40400000Y-7225000D01*
X31825000Y-1375000D02*
G75*
G03*
X30825000Y-2375000I-1J-999999D01*
G01*
X30825000Y-5025000D02*
G75*
G03*
X31825000Y-6025000I999999J-1D01*
G01*
X35937801Y-7521904D02*
G75*
G03*
X33800000Y-6025000I-2137802J-778098D01*
G01*
X35937802Y-7521904D02*
G75*
G03*
X36799005Y-8223790I899999J225000D01*
G01*
X35650000Y-2400000D02*
G75*
G03*
X36825000Y-3575000I1175002J2D01*
G01*
%TO.C,SW41*%
X92740000Y-28050000D02*
X86740000Y-28050000D01*
X92740000Y-27800000D02*
X92740000Y-28050000D01*
X92740000Y-24550000D02*
X92740000Y-24800000D01*
X86740000Y-28050000D02*
X86740000Y-27800000D01*
X86740000Y-24800000D02*
X86740000Y-24550000D01*
X86740000Y-24550000D02*
X92740000Y-24550000D01*
%TO.C,SW31*%
X-7150000Y-62650000D02*
X-7150000Y-59050000D01*
X-7000000Y-62850000D02*
X-7000000Y-58850000D01*
X-6850000Y-62950000D02*
X-6850000Y-58750000D01*
X-6700000Y-63050000D02*
X-6700000Y-58650000D01*
X-6550000Y-63100000D02*
X-6550000Y-58600000D01*
X-6400000Y-63150000D02*
X-6400000Y-58600000D01*
X-6250000Y-63150000D02*
X-6250000Y-58550000D01*
X-6100000Y-63150000D02*
X-6100000Y-58550000D01*
X-5950000Y-63150000D02*
X-5950000Y-58550000D01*
X-5800000Y-63150000D02*
X-5800000Y-58550000D01*
X-5650000Y-63150000D02*
X-5650000Y-58550000D01*
X-5500000Y-63150000D02*
X-5500000Y-58550000D01*
X-5350000Y-63150000D02*
X-5350000Y-58550000D01*
X-5200000Y-63150000D02*
X-5200000Y-58550000D01*
X-5050000Y-63150000D02*
X-5050000Y-58550000D01*
X-4900000Y-63150000D02*
X-4900000Y-58550000D01*
X-4750000Y-63150000D02*
X-4750000Y-58550000D01*
D14*
X-4650000Y-63050000D02*
X-4650000Y-58550000D01*
D12*
X-4600000Y-63150000D02*
X-4600000Y-58550000D01*
X-4450000Y-63150000D02*
X-4450000Y-58550000D01*
X-4300000Y-63150000D02*
X-4300000Y-58550000D01*
X-4300000Y-63175000D02*
X-6275000Y-63175000D01*
X-4150000Y-63150000D02*
X-4150000Y-58600000D01*
X-4000000Y-63200000D02*
X-4000000Y-58550000D01*
X-3850000Y-63200000D02*
X-3850000Y-58550000D01*
X-3725000Y-58525000D02*
X-6275000Y-58525000D01*
X-3725000Y-58525000D02*
X-2450000Y-59550000D01*
X-3700000Y-63200000D02*
X-3700000Y-58600000D01*
X-3550000Y-63250000D02*
X-3550000Y-58700000D01*
X-3400000Y-63350000D02*
X-3400000Y-58800000D01*
X-3250000Y-63400000D02*
X-3250000Y-58950000D01*
X-3100000Y-63500000D02*
X-3100000Y-59050000D01*
X-2950000Y-63600000D02*
X-2950000Y-59200000D01*
X-2800000Y-63700000D02*
X-2800000Y-59300000D01*
X-2650000Y-63850000D02*
X-2650000Y-59400000D01*
X-2500000Y-64000000D02*
X-2500000Y-59550000D01*
X-2400000Y-64200000D02*
X-2400000Y-60050000D01*
X-2300000Y-64350000D02*
X-2300000Y-60200000D01*
X-2200000Y-64550000D02*
X-2200000Y-60400000D01*
X-2100000Y-64700000D02*
X-2100000Y-60500000D01*
X-2000000Y-64950000D02*
X-2000000Y-60550000D01*
X-1900000Y-65100000D02*
X-1900000Y-60600000D01*
D14*
X-1800000Y-60750000D02*
X-4650000Y-63050000D01*
X-1800000Y-65100000D02*
X-1800000Y-60750000D01*
D12*
X-1750000Y-65200000D02*
X-1750000Y-60650000D01*
X-1600000Y-65300000D02*
X-1600000Y-60750000D01*
X-1450000Y-65350000D02*
X-1450000Y-60750000D01*
X-1300000Y-65350000D02*
X-1300000Y-60750000D01*
X-1150000Y-65350000D02*
X-1150000Y-60800000D01*
X-1000000Y-65350000D02*
X-1000000Y-60750000D01*
X-850000Y-65350000D02*
X-850000Y-60750000D01*
X-700000Y-65350000D02*
X-700000Y-60750000D01*
X-550000Y-65350000D02*
X-550000Y-60750000D01*
X-400000Y-65350000D02*
X-400000Y-60750000D01*
X-250000Y-65350000D02*
X-250000Y-60750000D01*
X-100000Y-65350000D02*
X-100000Y-60750000D01*
X50000Y-65350000D02*
X50000Y-60750000D01*
X200000Y-65350000D02*
X200000Y-60750000D01*
X350000Y-65350000D02*
X350000Y-60750000D01*
X500000Y-65350000D02*
X500000Y-60750000D01*
X650000Y-65350000D02*
X650000Y-60750000D01*
X800000Y-65350000D02*
X800000Y-60750000D01*
D14*
X900000Y-60800000D02*
X-1800000Y-65100000D01*
X900000Y-65250000D02*
X900000Y-60800000D01*
D12*
X950000Y-65350000D02*
X950000Y-60750000D01*
X1100000Y-65350000D02*
X1100000Y-60750000D01*
X1250000Y-65350000D02*
X1250000Y-60750000D01*
X1300000Y-60725000D02*
X-1275000Y-60725000D01*
X1300000Y-60725000D02*
X2325000Y-61750000D01*
X1300000Y-65375000D02*
X-1300000Y-65375000D01*
X1300000Y-65375000D02*
X2325000Y-64350000D01*
X1400000Y-65250000D02*
X1400000Y-60850000D01*
X1550000Y-65100000D02*
X1550000Y-61000000D01*
X1700000Y-64950000D02*
X1700000Y-61150000D01*
X1850000Y-64800000D02*
X1850000Y-61300000D01*
X1950000Y-64700000D02*
X1950000Y-61400000D01*
X2050000Y-64600000D02*
X2050000Y-61500000D01*
X2150000Y-64500000D02*
X2150000Y-61600000D01*
X2300000Y-61725000D02*
X2300000Y-64375000D01*
X-6275000Y-58525000D02*
G75*
G03*
X-7275000Y-59525000I-1J-999999D01*
G01*
X-7275000Y-62175000D02*
G75*
G03*
X-6275000Y-63175000I999999J-1D01*
G01*
X-2162199Y-64671904D02*
G75*
G03*
X-4300000Y-63175000I-2137802J-778098D01*
G01*
X-2162198Y-64671904D02*
G75*
G03*
X-1300995Y-65373790I899999J225000D01*
G01*
X-2450000Y-59550000D02*
G75*
G03*
X-1275000Y-60725000I1175002J2D01*
G01*
%TO.C,D25*%
X80160000Y-45930000D02*
X80160000Y-47430000D01*
X80160000Y-47430000D02*
X85560000Y-47430000D01*
X82360000Y-46180000D02*
X82360000Y-47180000D01*
X82460000Y-46680000D02*
X83360000Y-46180000D01*
X83360000Y-46180000D02*
X83360000Y-47180000D01*
X83360000Y-47180000D02*
X82460000Y-46680000D01*
X85560000Y-45930000D02*
X80160000Y-45930000D01*
X85560000Y-47430000D02*
X85560000Y-45930000D01*
%TO.C,D31*%
X3900000Y-64930000D02*
X3900000Y-66430000D01*
X3900000Y-66430000D02*
X9300000Y-66430000D01*
X6100000Y-65180000D02*
X6100000Y-66180000D01*
X6200000Y-65680000D02*
X7100000Y-65180000D01*
X7100000Y-65180000D02*
X7100000Y-66180000D01*
X7100000Y-66180000D02*
X6200000Y-65680000D01*
X9300000Y-64930000D02*
X3900000Y-64930000D01*
X9300000Y-66430000D02*
X9300000Y-64930000D01*
%TO.C,D34*%
X61090000Y-65000000D02*
X61090000Y-66500000D01*
X61090000Y-66500000D02*
X66490000Y-66500000D01*
X63290000Y-65250000D02*
X63290000Y-66250000D01*
X63390000Y-65750000D02*
X64290000Y-65250000D01*
X64290000Y-65250000D02*
X64290000Y-66250000D01*
X64290000Y-66250000D02*
X63390000Y-65750000D01*
X66490000Y-65000000D02*
X61090000Y-65000000D01*
X66490000Y-66500000D02*
X66490000Y-65000000D01*
%TO.C,SW1*%
X-7150000Y-5500000D02*
X-7150000Y-1900000D01*
X-7000000Y-5700000D02*
X-7000000Y-1700000D01*
X-6850000Y-5800000D02*
X-6850000Y-1600000D01*
X-6700000Y-5900000D02*
X-6700000Y-1500000D01*
X-6550000Y-5950000D02*
X-6550000Y-1450000D01*
X-6400000Y-6000000D02*
X-6400000Y-1450000D01*
X-6250000Y-6000000D02*
X-6250000Y-1400000D01*
X-6100000Y-6000000D02*
X-6100000Y-1400000D01*
X-5950000Y-6000000D02*
X-5950000Y-1400000D01*
X-5800000Y-6000000D02*
X-5800000Y-1400000D01*
X-5650000Y-6000000D02*
X-5650000Y-1400000D01*
X-5500000Y-6000000D02*
X-5500000Y-1400000D01*
X-5350000Y-6000000D02*
X-5350000Y-1400000D01*
X-5200000Y-6000000D02*
X-5200000Y-1400000D01*
X-5050000Y-6000000D02*
X-5050000Y-1400000D01*
X-4900000Y-6000000D02*
X-4900000Y-1400000D01*
X-4750000Y-6000000D02*
X-4750000Y-1400000D01*
D14*
X-4650000Y-5900000D02*
X-4650000Y-1400000D01*
D12*
X-4600000Y-6000000D02*
X-4600000Y-1400000D01*
X-4450000Y-6000000D02*
X-4450000Y-1400000D01*
X-4300000Y-6000000D02*
X-4300000Y-1400000D01*
X-4300000Y-6025000D02*
X-6275000Y-6025000D01*
X-4150000Y-6000000D02*
X-4150000Y-1450000D01*
X-4000000Y-6050000D02*
X-4000000Y-1400000D01*
X-3850000Y-6050000D02*
X-3850000Y-1400000D01*
X-3725000Y-1375000D02*
X-6275000Y-1375000D01*
X-3725000Y-1375000D02*
X-2450000Y-2400000D01*
X-3700000Y-6050000D02*
X-3700000Y-1450000D01*
X-3550000Y-6100000D02*
X-3550000Y-1550000D01*
X-3400000Y-6200000D02*
X-3400000Y-1650000D01*
X-3250000Y-6250000D02*
X-3250000Y-1800000D01*
X-3100000Y-6350000D02*
X-3100000Y-1900000D01*
X-2950000Y-6450000D02*
X-2950000Y-2050000D01*
X-2800000Y-6550000D02*
X-2800000Y-2150000D01*
X-2650000Y-6700000D02*
X-2650000Y-2250000D01*
X-2500000Y-6850000D02*
X-2500000Y-2400000D01*
X-2400000Y-7050000D02*
X-2400000Y-2900000D01*
X-2300000Y-7200000D02*
X-2300000Y-3050000D01*
X-2200000Y-7400000D02*
X-2200000Y-3250000D01*
X-2100000Y-7550000D02*
X-2100000Y-3350000D01*
X-2000000Y-7800000D02*
X-2000000Y-3400000D01*
X-1900000Y-7950000D02*
X-1900000Y-3450000D01*
D14*
X-1800000Y-3600000D02*
X-4650000Y-5900000D01*
X-1800000Y-7950000D02*
X-1800000Y-3600000D01*
D12*
X-1750000Y-8050000D02*
X-1750000Y-3500000D01*
X-1600000Y-8150000D02*
X-1600000Y-3600000D01*
X-1450000Y-8200000D02*
X-1450000Y-3600000D01*
X-1300000Y-8200000D02*
X-1300000Y-3600000D01*
X-1150000Y-8200000D02*
X-1150000Y-3650000D01*
X-1000000Y-8200000D02*
X-1000000Y-3600000D01*
X-850000Y-8200000D02*
X-850000Y-3600000D01*
X-700000Y-8200000D02*
X-700000Y-3600000D01*
X-550000Y-8200000D02*
X-550000Y-3600000D01*
X-400000Y-8200000D02*
X-400000Y-3600000D01*
X-250000Y-8200000D02*
X-250000Y-3600000D01*
X-100000Y-8200000D02*
X-100000Y-3600000D01*
X50000Y-8200000D02*
X50000Y-3600000D01*
X200000Y-8200000D02*
X200000Y-3600000D01*
X350000Y-8200000D02*
X350000Y-3600000D01*
X500000Y-8200000D02*
X500000Y-3600000D01*
X650000Y-8200000D02*
X650000Y-3600000D01*
X800000Y-8200000D02*
X800000Y-3600000D01*
D14*
X900000Y-3650000D02*
X-1800000Y-7950000D01*
X900000Y-8100000D02*
X900000Y-3650000D01*
D12*
X950000Y-8200000D02*
X950000Y-3600000D01*
X1100000Y-8200000D02*
X1100000Y-3600000D01*
X1250000Y-8200000D02*
X1250000Y-3600000D01*
X1300000Y-3575000D02*
X-1275000Y-3575000D01*
X1300000Y-3575000D02*
X2325000Y-4600000D01*
X1300000Y-8225000D02*
X-1300000Y-8225000D01*
X1300000Y-8225000D02*
X2325000Y-7200000D01*
X1400000Y-8100000D02*
X1400000Y-3700000D01*
X1550000Y-7950000D02*
X1550000Y-3850000D01*
X1700000Y-7800000D02*
X1700000Y-4000000D01*
X1850000Y-7650000D02*
X1850000Y-4150000D01*
X1950000Y-7550000D02*
X1950000Y-4250000D01*
X2050000Y-7450000D02*
X2050000Y-4350000D01*
X2150000Y-7350000D02*
X2150000Y-4450000D01*
X2300000Y-4575000D02*
X2300000Y-7225000D01*
X-6275000Y-1375000D02*
G75*
G03*
X-7275000Y-2375000I-1J-999999D01*
G01*
X-7275000Y-5025000D02*
G75*
G03*
X-6275000Y-6025000I999999J-1D01*
G01*
X-2162199Y-7521904D02*
G75*
G03*
X-4300000Y-6025000I-2137802J-778098D01*
G01*
X-2162198Y-7521904D02*
G75*
G03*
X-1300995Y-8223790I899999J225000D01*
G01*
X-2450000Y-2400000D02*
G75*
G03*
X-1275000Y-3575000I1175002J2D01*
G01*
%TO.C,D24*%
X47725000Y-46010000D02*
X47725000Y-47510000D01*
X47725000Y-47510000D02*
X53125000Y-47510000D01*
X49925000Y-46260000D02*
X49925000Y-47260000D01*
X50025000Y-46760000D02*
X50925000Y-46260000D01*
X50925000Y-46260000D02*
X50925000Y-47260000D01*
X50925000Y-47260000D02*
X50025000Y-46760000D01*
X53125000Y-46010000D02*
X47725000Y-46010000D01*
X53125000Y-47510000D02*
X53125000Y-46010000D01*
%TO.C,D12*%
X22910000Y-26800000D02*
X22910000Y-28300000D01*
X22910000Y-28300000D02*
X28310000Y-28300000D01*
X25110000Y-27050000D02*
X25110000Y-28050000D01*
X25210000Y-27550000D02*
X26110000Y-27050000D01*
X26110000Y-27050000D02*
X26110000Y-28050000D01*
X26110000Y-28050000D02*
X25210000Y-27550000D01*
X28310000Y-26800000D02*
X22910000Y-26800000D01*
X28310000Y-28300000D02*
X28310000Y-26800000D01*
%TO.C,SW25*%
X69050000Y-43600000D02*
X69050000Y-40000000D01*
X69200000Y-43800000D02*
X69200000Y-39800000D01*
X69350000Y-43900000D02*
X69350000Y-39700000D01*
X69500000Y-44000000D02*
X69500000Y-39600000D01*
X69650000Y-44050000D02*
X69650000Y-39550000D01*
X69800000Y-44100000D02*
X69800000Y-39550000D01*
X69950000Y-44100000D02*
X69950000Y-39500000D01*
X70100000Y-44100000D02*
X70100000Y-39500000D01*
X70250000Y-44100000D02*
X70250000Y-39500000D01*
X70400000Y-44100000D02*
X70400000Y-39500000D01*
X70550000Y-44100000D02*
X70550000Y-39500000D01*
X70700000Y-44100000D02*
X70700000Y-39500000D01*
X70850000Y-44100000D02*
X70850000Y-39500000D01*
X71000000Y-44100000D02*
X71000000Y-39500000D01*
X71150000Y-44100000D02*
X71150000Y-39500000D01*
X71300000Y-44100000D02*
X71300000Y-39500000D01*
X71450000Y-44100000D02*
X71450000Y-39500000D01*
D14*
X71550000Y-44000000D02*
X71550000Y-39500000D01*
D12*
X71600000Y-44100000D02*
X71600000Y-39500000D01*
X71750000Y-44100000D02*
X71750000Y-39500000D01*
X71900000Y-44100000D02*
X71900000Y-39500000D01*
X71900000Y-44125000D02*
X69925000Y-44125000D01*
X72050000Y-44100000D02*
X72050000Y-39550000D01*
X72200000Y-44150000D02*
X72200000Y-39500000D01*
X72350000Y-44150000D02*
X72350000Y-39500000D01*
X72475000Y-39475000D02*
X69925000Y-39475000D01*
X72475000Y-39475000D02*
X73750000Y-40500000D01*
X72500000Y-44150000D02*
X72500000Y-39550000D01*
X72650000Y-44200000D02*
X72650000Y-39650000D01*
X72800000Y-44300000D02*
X72800000Y-39750000D01*
X72950000Y-44350000D02*
X72950000Y-39900000D01*
X73100000Y-44450000D02*
X73100000Y-40000000D01*
X73250000Y-44550000D02*
X73250000Y-40150000D01*
X73400000Y-44650000D02*
X73400000Y-40250000D01*
X73550000Y-44800000D02*
X73550000Y-40350000D01*
X73700000Y-44950000D02*
X73700000Y-40500000D01*
X73800000Y-45150000D02*
X73800000Y-41000000D01*
X73900000Y-45300000D02*
X73900000Y-41150000D01*
X74000000Y-45500000D02*
X74000000Y-41350000D01*
X74100000Y-45650000D02*
X74100000Y-41450000D01*
X74200000Y-45900000D02*
X74200000Y-41500000D01*
X74300000Y-46050000D02*
X74300000Y-41550000D01*
D14*
X74400000Y-41700000D02*
X71550000Y-44000000D01*
X74400000Y-46050000D02*
X74400000Y-41700000D01*
D12*
X74450000Y-46150000D02*
X74450000Y-41600000D01*
X74600000Y-46250000D02*
X74600000Y-41700000D01*
X74750000Y-46300000D02*
X74750000Y-41700000D01*
X74900000Y-46300000D02*
X74900000Y-41700000D01*
X75050000Y-46300000D02*
X75050000Y-41750000D01*
X75200000Y-46300000D02*
X75200000Y-41700000D01*
X75350000Y-46300000D02*
X75350000Y-41700000D01*
X75500000Y-46300000D02*
X75500000Y-41700000D01*
X75650000Y-46300000D02*
X75650000Y-41700000D01*
X75800000Y-46300000D02*
X75800000Y-41700000D01*
X75950000Y-46300000D02*
X75950000Y-41700000D01*
X76100000Y-46300000D02*
X76100000Y-41700000D01*
X76250000Y-46300000D02*
X76250000Y-41700000D01*
X76400000Y-46300000D02*
X76400000Y-41700000D01*
X76550000Y-46300000D02*
X76550000Y-41700000D01*
X76700000Y-46300000D02*
X76700000Y-41700000D01*
X76850000Y-46300000D02*
X76850000Y-41700000D01*
X77000000Y-46300000D02*
X77000000Y-41700000D01*
D14*
X77100000Y-41750000D02*
X74400000Y-46050000D01*
X77100000Y-46200000D02*
X77100000Y-41750000D01*
D12*
X77150000Y-46300000D02*
X77150000Y-41700000D01*
X77300000Y-46300000D02*
X77300000Y-41700000D01*
X77450000Y-46300000D02*
X77450000Y-41700000D01*
X77500000Y-41675000D02*
X74925000Y-41675000D01*
X77500000Y-41675000D02*
X78525000Y-42700000D01*
X77500000Y-46325000D02*
X74900000Y-46325000D01*
X77500000Y-46325000D02*
X78525000Y-45300000D01*
X77600000Y-46200000D02*
X77600000Y-41800000D01*
X77750000Y-46050000D02*
X77750000Y-41950000D01*
X77900000Y-45900000D02*
X77900000Y-42100000D01*
X78050000Y-45750000D02*
X78050000Y-42250000D01*
X78150000Y-45650000D02*
X78150000Y-42350000D01*
X78250000Y-45550000D02*
X78250000Y-42450000D01*
X78350000Y-45450000D02*
X78350000Y-42550000D01*
X78500000Y-42675000D02*
X78500000Y-45325000D01*
X69925000Y-39475000D02*
G75*
G03*
X68925000Y-40475000I-1J-999999D01*
G01*
X68925000Y-43125000D02*
G75*
G03*
X69925000Y-44125000I999999J-1D01*
G01*
X74037801Y-45621904D02*
G75*
G03*
X71900000Y-44125000I-2137802J-778098D01*
G01*
X74037802Y-45621904D02*
G75*
G03*
X74899005Y-46323790I899999J225000D01*
G01*
X73750000Y-40500000D02*
G75*
G03*
X74925000Y-41675000I1175002J2D01*
G01*
%TO.C,SW23*%
X30950000Y-43600000D02*
X30950000Y-40000000D01*
X31100000Y-43800000D02*
X31100000Y-39800000D01*
X31250000Y-43900000D02*
X31250000Y-39700000D01*
X31400000Y-44000000D02*
X31400000Y-39600000D01*
X31550000Y-44050000D02*
X31550000Y-39550000D01*
X31700000Y-44100000D02*
X31700000Y-39550000D01*
X31850000Y-44100000D02*
X31850000Y-39500000D01*
X32000000Y-44100000D02*
X32000000Y-39500000D01*
X32150000Y-44100000D02*
X32150000Y-39500000D01*
X32300000Y-44100000D02*
X32300000Y-39500000D01*
X32450000Y-44100000D02*
X32450000Y-39500000D01*
X32600000Y-44100000D02*
X32600000Y-39500000D01*
X32750000Y-44100000D02*
X32750000Y-39500000D01*
X32900000Y-44100000D02*
X32900000Y-39500000D01*
X33050000Y-44100000D02*
X33050000Y-39500000D01*
X33200000Y-44100000D02*
X33200000Y-39500000D01*
X33350000Y-44100000D02*
X33350000Y-39500000D01*
D14*
X33450000Y-44000000D02*
X33450000Y-39500000D01*
D12*
X33500000Y-44100000D02*
X33500000Y-39500000D01*
X33650000Y-44100000D02*
X33650000Y-39500000D01*
X33800000Y-44100000D02*
X33800000Y-39500000D01*
X33800000Y-44125000D02*
X31825000Y-44125000D01*
X33950000Y-44100000D02*
X33950000Y-39550000D01*
X34100000Y-44150000D02*
X34100000Y-39500000D01*
X34250000Y-44150000D02*
X34250000Y-39500000D01*
X34375000Y-39475000D02*
X31825000Y-39475000D01*
X34375000Y-39475000D02*
X35650000Y-40500000D01*
X34400000Y-44150000D02*
X34400000Y-39550000D01*
X34550000Y-44200000D02*
X34550000Y-39650000D01*
X34700000Y-44300000D02*
X34700000Y-39750000D01*
X34850000Y-44350000D02*
X34850000Y-39900000D01*
X35000000Y-44450000D02*
X35000000Y-40000000D01*
X35150000Y-44550000D02*
X35150000Y-40150000D01*
X35300000Y-44650000D02*
X35300000Y-40250000D01*
X35450000Y-44800000D02*
X35450000Y-40350000D01*
X35600000Y-44950000D02*
X35600000Y-40500000D01*
X35700000Y-45150000D02*
X35700000Y-41000000D01*
X35800000Y-45300000D02*
X35800000Y-41150000D01*
X35900000Y-45500000D02*
X35900000Y-41350000D01*
X36000000Y-45650000D02*
X36000000Y-41450000D01*
X36100000Y-45900000D02*
X36100000Y-41500000D01*
X36200000Y-46050000D02*
X36200000Y-41550000D01*
D14*
X36300000Y-41700000D02*
X33450000Y-44000000D01*
X36300000Y-46050000D02*
X36300000Y-41700000D01*
D12*
X36350000Y-46150000D02*
X36350000Y-41600000D01*
X36500000Y-46250000D02*
X36500000Y-41700000D01*
X36650000Y-46300000D02*
X36650000Y-41700000D01*
X36800000Y-46300000D02*
X36800000Y-41700000D01*
X36950000Y-46300000D02*
X36950000Y-41750000D01*
X37100000Y-46300000D02*
X37100000Y-41700000D01*
X37250000Y-46300000D02*
X37250000Y-41700000D01*
X37400000Y-46300000D02*
X37400000Y-41700000D01*
X37550000Y-46300000D02*
X37550000Y-41700000D01*
X37700000Y-46300000D02*
X37700000Y-41700000D01*
X37850000Y-46300000D02*
X37850000Y-41700000D01*
X38000000Y-46300000D02*
X38000000Y-41700000D01*
X38150000Y-46300000D02*
X38150000Y-41700000D01*
X38300000Y-46300000D02*
X38300000Y-41700000D01*
X38450000Y-46300000D02*
X38450000Y-41700000D01*
X38600000Y-46300000D02*
X38600000Y-41700000D01*
X38750000Y-46300000D02*
X38750000Y-41700000D01*
X38900000Y-46300000D02*
X38900000Y-41700000D01*
D14*
X39000000Y-41750000D02*
X36300000Y-46050000D01*
X39000000Y-46200000D02*
X39000000Y-41750000D01*
D12*
X39050000Y-46300000D02*
X39050000Y-41700000D01*
X39200000Y-46300000D02*
X39200000Y-41700000D01*
X39350000Y-46300000D02*
X39350000Y-41700000D01*
X39400000Y-41675000D02*
X36825000Y-41675000D01*
X39400000Y-41675000D02*
X40425000Y-42700000D01*
X39400000Y-46325000D02*
X36800000Y-46325000D01*
X39400000Y-46325000D02*
X40425000Y-45300000D01*
X39500000Y-46200000D02*
X39500000Y-41800000D01*
X39650000Y-46050000D02*
X39650000Y-41950000D01*
X39800000Y-45900000D02*
X39800000Y-42100000D01*
X39950000Y-45750000D02*
X39950000Y-42250000D01*
X40050000Y-45650000D02*
X40050000Y-42350000D01*
X40150000Y-45550000D02*
X40150000Y-42450000D01*
X40250000Y-45450000D02*
X40250000Y-42550000D01*
X40400000Y-42675000D02*
X40400000Y-45325000D01*
X31825000Y-39475000D02*
G75*
G03*
X30825000Y-40475000I-1J-999999D01*
G01*
X30825000Y-43125000D02*
G75*
G03*
X31825000Y-44125000I999999J-1D01*
G01*
X35937801Y-45621904D02*
G75*
G03*
X33800000Y-44125000I-2137802J-778098D01*
G01*
X35937802Y-45621904D02*
G75*
G03*
X36799005Y-46323790I899999J225000D01*
G01*
X35650000Y-40500000D02*
G75*
G03*
X36825000Y-41675000I1175002J2D01*
G01*
%TO.C,D11*%
X3930000Y-26860000D02*
X3930000Y-28360000D01*
X3930000Y-28360000D02*
X9330000Y-28360000D01*
X6130000Y-27110000D02*
X6130000Y-28110000D01*
X6230000Y-27610000D02*
X7130000Y-27110000D01*
X7130000Y-27110000D02*
X7130000Y-28110000D01*
X7130000Y-28110000D02*
X6230000Y-27610000D01*
X9330000Y-26860000D02*
X3930000Y-26860000D01*
X9330000Y-28360000D02*
X9330000Y-26860000D01*
%TO.C,SW2*%
X11900000Y-5500000D02*
X11900000Y-1900000D01*
X12050000Y-5700000D02*
X12050000Y-1700000D01*
X12200000Y-5800000D02*
X12200000Y-1600000D01*
X12350000Y-5900000D02*
X12350000Y-1500000D01*
X12500000Y-5950000D02*
X12500000Y-1450000D01*
X12650000Y-6000000D02*
X12650000Y-1450000D01*
X12800000Y-6000000D02*
X12800000Y-1400000D01*
X12950000Y-6000000D02*
X12950000Y-1400000D01*
X13100000Y-6000000D02*
X13100000Y-1400000D01*
X13250000Y-6000000D02*
X13250000Y-1400000D01*
X13400000Y-6000000D02*
X13400000Y-1400000D01*
X13550000Y-6000000D02*
X13550000Y-1400000D01*
X13700000Y-6000000D02*
X13700000Y-1400000D01*
X13850000Y-6000000D02*
X13850000Y-1400000D01*
X14000000Y-6000000D02*
X14000000Y-1400000D01*
X14150000Y-6000000D02*
X14150000Y-1400000D01*
X14300000Y-6000000D02*
X14300000Y-1400000D01*
D14*
X14400000Y-5900000D02*
X14400000Y-1400000D01*
D12*
X14450000Y-6000000D02*
X14450000Y-1400000D01*
X14600000Y-6000000D02*
X14600000Y-1400000D01*
X14750000Y-6000000D02*
X14750000Y-1400000D01*
X14750000Y-6025000D02*
X12775000Y-6025000D01*
X14900000Y-6000000D02*
X14900000Y-1450000D01*
X15050000Y-6050000D02*
X15050000Y-1400000D01*
X15200000Y-6050000D02*
X15200000Y-1400000D01*
X15325000Y-1375000D02*
X12775000Y-1375000D01*
X15325000Y-1375000D02*
X16600000Y-2400000D01*
X15350000Y-6050000D02*
X15350000Y-1450000D01*
X15500000Y-6100000D02*
X15500000Y-1550000D01*
X15650000Y-6200000D02*
X15650000Y-1650000D01*
X15800000Y-6250000D02*
X15800000Y-1800000D01*
X15950000Y-6350000D02*
X15950000Y-1900000D01*
X16100000Y-6450000D02*
X16100000Y-2050000D01*
X16250000Y-6550000D02*
X16250000Y-2150000D01*
X16400000Y-6700000D02*
X16400000Y-2250000D01*
X16550000Y-6850000D02*
X16550000Y-2400000D01*
X16650000Y-7050000D02*
X16650000Y-2900000D01*
X16750000Y-7200000D02*
X16750000Y-3050000D01*
X16850000Y-7400000D02*
X16850000Y-3250000D01*
X16950000Y-7550000D02*
X16950000Y-3350000D01*
X17050000Y-7800000D02*
X17050000Y-3400000D01*
X17150000Y-7950000D02*
X17150000Y-3450000D01*
D14*
X17250000Y-3600000D02*
X14400000Y-5900000D01*
X17250000Y-7950000D02*
X17250000Y-3600000D01*
D12*
X17300000Y-8050000D02*
X17300000Y-3500000D01*
X17450000Y-8150000D02*
X17450000Y-3600000D01*
X17600000Y-8200000D02*
X17600000Y-3600000D01*
X17750000Y-8200000D02*
X17750000Y-3600000D01*
X17900000Y-8200000D02*
X17900000Y-3650000D01*
X18050000Y-8200000D02*
X18050000Y-3600000D01*
X18200000Y-8200000D02*
X18200000Y-3600000D01*
X18350000Y-8200000D02*
X18350000Y-3600000D01*
X18500000Y-8200000D02*
X18500000Y-3600000D01*
X18650000Y-8200000D02*
X18650000Y-3600000D01*
X18800000Y-8200000D02*
X18800000Y-3600000D01*
X18950000Y-8200000D02*
X18950000Y-3600000D01*
X19100000Y-8200000D02*
X19100000Y-3600000D01*
X19250000Y-8200000D02*
X19250000Y-3600000D01*
X19400000Y-8200000D02*
X19400000Y-3600000D01*
X19550000Y-8200000D02*
X19550000Y-3600000D01*
X19700000Y-8200000D02*
X19700000Y-3600000D01*
X19850000Y-8200000D02*
X19850000Y-3600000D01*
D14*
X19950000Y-3650000D02*
X17250000Y-7950000D01*
X19950000Y-8100000D02*
X19950000Y-3650000D01*
D12*
X20000000Y-8200000D02*
X20000000Y-3600000D01*
X20150000Y-8200000D02*
X20150000Y-3600000D01*
X20300000Y-8200000D02*
X20300000Y-3600000D01*
X20350000Y-3575000D02*
X17775000Y-3575000D01*
X20350000Y-3575000D02*
X21375000Y-4600000D01*
X20350000Y-8225000D02*
X17750000Y-8225000D01*
X20350000Y-8225000D02*
X21375000Y-7200000D01*
X20450000Y-8100000D02*
X20450000Y-3700000D01*
X20600000Y-7950000D02*
X20600000Y-3850000D01*
X20750000Y-7800000D02*
X20750000Y-4000000D01*
X20900000Y-7650000D02*
X20900000Y-4150000D01*
X21000000Y-7550000D02*
X21000000Y-4250000D01*
X21100000Y-7450000D02*
X21100000Y-4350000D01*
X21200000Y-7350000D02*
X21200000Y-4450000D01*
X21350000Y-4575000D02*
X21350000Y-7225000D01*
X12775000Y-1375000D02*
G75*
G03*
X11775000Y-2375000I-1J-999999D01*
G01*
X11775000Y-5025000D02*
G75*
G03*
X12775000Y-6025000I999999J-1D01*
G01*
X16887801Y-7521904D02*
G75*
G03*
X14750000Y-6025000I-2137802J-778098D01*
G01*
X16887802Y-7521904D02*
G75*
G03*
X17749005Y-8223790I899999J225000D01*
G01*
X16600000Y-2400000D02*
G75*
G03*
X17775000Y-3575000I1175002J2D01*
G01*
%TO.C,D5*%
X80160000Y-7820000D02*
X80160000Y-9320000D01*
X80160000Y-9320000D02*
X85560000Y-9320000D01*
X82360000Y-8070000D02*
X82360000Y-9070000D01*
X82460000Y-8570000D02*
X83360000Y-8070000D01*
X83360000Y-8070000D02*
X83360000Y-9070000D01*
X83360000Y-9070000D02*
X82460000Y-8570000D01*
X85560000Y-7820000D02*
X80160000Y-7820000D01*
X85560000Y-9320000D02*
X85560000Y-7820000D01*
%TO.C,SW11*%
X-7150000Y-24550000D02*
X-7150000Y-20950000D01*
X-7000000Y-24750000D02*
X-7000000Y-20750000D01*
X-6850000Y-24850000D02*
X-6850000Y-20650000D01*
X-6700000Y-24950000D02*
X-6700000Y-20550000D01*
X-6550000Y-25000000D02*
X-6550000Y-20500000D01*
X-6400000Y-25050000D02*
X-6400000Y-20500000D01*
X-6250000Y-25050000D02*
X-6250000Y-20450000D01*
X-6100000Y-25050000D02*
X-6100000Y-20450000D01*
X-5950000Y-25050000D02*
X-5950000Y-20450000D01*
X-5800000Y-25050000D02*
X-5800000Y-20450000D01*
X-5650000Y-25050000D02*
X-5650000Y-20450000D01*
X-5500000Y-25050000D02*
X-5500000Y-20450000D01*
X-5350000Y-25050000D02*
X-5350000Y-20450000D01*
X-5200000Y-25050000D02*
X-5200000Y-20450000D01*
X-5050000Y-25050000D02*
X-5050000Y-20450000D01*
X-4900000Y-25050000D02*
X-4900000Y-20450000D01*
X-4750000Y-25050000D02*
X-4750000Y-20450000D01*
D14*
X-4650000Y-24950000D02*
X-4650000Y-20450000D01*
D12*
X-4600000Y-25050000D02*
X-4600000Y-20450000D01*
X-4450000Y-25050000D02*
X-4450000Y-20450000D01*
X-4300000Y-25050000D02*
X-4300000Y-20450000D01*
X-4300000Y-25075000D02*
X-6275000Y-25075000D01*
X-4150000Y-25050000D02*
X-4150000Y-20500000D01*
X-4000000Y-25100000D02*
X-4000000Y-20450000D01*
X-3850000Y-25100000D02*
X-3850000Y-20450000D01*
X-3725000Y-20425000D02*
X-6275000Y-20425000D01*
X-3725000Y-20425000D02*
X-2450000Y-21450000D01*
X-3700000Y-25100000D02*
X-3700000Y-20500000D01*
X-3550000Y-25150000D02*
X-3550000Y-20600000D01*
X-3400000Y-25250000D02*
X-3400000Y-20700000D01*
X-3250000Y-25300000D02*
X-3250000Y-20850000D01*
X-3100000Y-25400000D02*
X-3100000Y-20950000D01*
X-2950000Y-25500000D02*
X-2950000Y-21100000D01*
X-2800000Y-25600000D02*
X-2800000Y-21200000D01*
X-2650000Y-25750000D02*
X-2650000Y-21300000D01*
X-2500000Y-25900000D02*
X-2500000Y-21450000D01*
X-2400000Y-26100000D02*
X-2400000Y-21950000D01*
X-2300000Y-26250000D02*
X-2300000Y-22100000D01*
X-2200000Y-26450000D02*
X-2200000Y-22300000D01*
X-2100000Y-26600000D02*
X-2100000Y-22400000D01*
X-2000000Y-26850000D02*
X-2000000Y-22450000D01*
X-1900000Y-27000000D02*
X-1900000Y-22500000D01*
D14*
X-1800000Y-22650000D02*
X-4650000Y-24950000D01*
X-1800000Y-27000000D02*
X-1800000Y-22650000D01*
D12*
X-1750000Y-27100000D02*
X-1750000Y-22550000D01*
X-1600000Y-27200000D02*
X-1600000Y-22650000D01*
X-1450000Y-27250000D02*
X-1450000Y-22650000D01*
X-1300000Y-27250000D02*
X-1300000Y-22650000D01*
X-1150000Y-27250000D02*
X-1150000Y-22700000D01*
X-1000000Y-27250000D02*
X-1000000Y-22650000D01*
X-850000Y-27250000D02*
X-850000Y-22650000D01*
X-700000Y-27250000D02*
X-700000Y-22650000D01*
X-550000Y-27250000D02*
X-550000Y-22650000D01*
X-400000Y-27250000D02*
X-400000Y-22650000D01*
X-250000Y-27250000D02*
X-250000Y-22650000D01*
X-100000Y-27250000D02*
X-100000Y-22650000D01*
X50000Y-27250000D02*
X50000Y-22650000D01*
X200000Y-27250000D02*
X200000Y-22650000D01*
X350000Y-27250000D02*
X350000Y-22650000D01*
X500000Y-27250000D02*
X500000Y-22650000D01*
X650000Y-27250000D02*
X650000Y-22650000D01*
X800000Y-27250000D02*
X800000Y-22650000D01*
D14*
X900000Y-22700000D02*
X-1800000Y-27000000D01*
X900000Y-27150000D02*
X900000Y-22700000D01*
D12*
X950000Y-27250000D02*
X950000Y-22650000D01*
X1100000Y-27250000D02*
X1100000Y-22650000D01*
X1250000Y-27250000D02*
X1250000Y-22650000D01*
X1300000Y-22625000D02*
X-1275000Y-22625000D01*
X1300000Y-22625000D02*
X2325000Y-23650000D01*
X1300000Y-27275000D02*
X-1300000Y-27275000D01*
X1300000Y-27275000D02*
X2325000Y-26250000D01*
X1400000Y-27150000D02*
X1400000Y-22750000D01*
X1550000Y-27000000D02*
X1550000Y-22900000D01*
X1700000Y-26850000D02*
X1700000Y-23050000D01*
X1850000Y-26700000D02*
X1850000Y-23200000D01*
X1950000Y-26600000D02*
X1950000Y-23300000D01*
X2050000Y-26500000D02*
X2050000Y-23400000D01*
X2150000Y-26400000D02*
X2150000Y-23500000D01*
X2300000Y-23625000D02*
X2300000Y-26275000D01*
X-6275000Y-20425000D02*
G75*
G03*
X-7275000Y-21425000I-1J-999999D01*
G01*
X-7275000Y-24075000D02*
G75*
G03*
X-6275000Y-25075000I999999J-1D01*
G01*
X-2162199Y-26571904D02*
G75*
G03*
X-4300000Y-25075000I-2137802J-778098D01*
G01*
X-2162198Y-26571904D02*
G75*
G03*
X-1300995Y-27273790I899999J225000D01*
G01*
X-2450000Y-21450000D02*
G75*
G03*
X-1275000Y-22625000I1175002J2D01*
G01*
%TO.C,SW5*%
X69050000Y-5500000D02*
X69050000Y-1900000D01*
X69200000Y-5700000D02*
X69200000Y-1700000D01*
X69350000Y-5800000D02*
X69350000Y-1600000D01*
X69500000Y-5900000D02*
X69500000Y-1500000D01*
X69650000Y-5950000D02*
X69650000Y-1450000D01*
X69800000Y-6000000D02*
X69800000Y-1450000D01*
X69950000Y-6000000D02*
X69950000Y-1400000D01*
X70100000Y-6000000D02*
X70100000Y-1400000D01*
X70250000Y-6000000D02*
X70250000Y-1400000D01*
X70400000Y-6000000D02*
X70400000Y-1400000D01*
X70550000Y-6000000D02*
X70550000Y-1400000D01*
X70700000Y-6000000D02*
X70700000Y-1400000D01*
X70850000Y-6000000D02*
X70850000Y-1400000D01*
X71000000Y-6000000D02*
X71000000Y-1400000D01*
X71150000Y-6000000D02*
X71150000Y-1400000D01*
X71300000Y-6000000D02*
X71300000Y-1400000D01*
X71450000Y-6000000D02*
X71450000Y-1400000D01*
D14*
X71550000Y-5900000D02*
X71550000Y-1400000D01*
D12*
X71600000Y-6000000D02*
X71600000Y-1400000D01*
X71750000Y-6000000D02*
X71750000Y-1400000D01*
X71900000Y-6000000D02*
X71900000Y-1400000D01*
X71900000Y-6025000D02*
X69925000Y-6025000D01*
X72050000Y-6000000D02*
X72050000Y-1450000D01*
X72200000Y-6050000D02*
X72200000Y-1400000D01*
X72350000Y-6050000D02*
X72350000Y-1400000D01*
X72475000Y-1375000D02*
X69925000Y-1375000D01*
X72475000Y-1375000D02*
X73750000Y-2400000D01*
X72500000Y-6050000D02*
X72500000Y-1450000D01*
X72650000Y-6100000D02*
X72650000Y-1550000D01*
X72800000Y-6200000D02*
X72800000Y-1650000D01*
X72950000Y-6250000D02*
X72950000Y-1800000D01*
X73100000Y-6350000D02*
X73100000Y-1900000D01*
X73250000Y-6450000D02*
X73250000Y-2050000D01*
X73400000Y-6550000D02*
X73400000Y-2150000D01*
X73550000Y-6700000D02*
X73550000Y-2250000D01*
X73700000Y-6850000D02*
X73700000Y-2400000D01*
X73800000Y-7050000D02*
X73800000Y-2900000D01*
X73900000Y-7200000D02*
X73900000Y-3050000D01*
X74000000Y-7400000D02*
X74000000Y-3250000D01*
X74100000Y-7550000D02*
X74100000Y-3350000D01*
X74200000Y-7800000D02*
X74200000Y-3400000D01*
X74300000Y-7950000D02*
X74300000Y-3450000D01*
D14*
X74400000Y-3600000D02*
X71550000Y-5900000D01*
X74400000Y-7950000D02*
X74400000Y-3600000D01*
D12*
X74450000Y-8050000D02*
X74450000Y-3500000D01*
X74600000Y-8150000D02*
X74600000Y-3600000D01*
X74750000Y-8200000D02*
X74750000Y-3600000D01*
X74900000Y-8200000D02*
X74900000Y-3600000D01*
X75050000Y-8200000D02*
X75050000Y-3650000D01*
X75200000Y-8200000D02*
X75200000Y-3600000D01*
X75350000Y-8200000D02*
X75350000Y-3600000D01*
X75500000Y-8200000D02*
X75500000Y-3600000D01*
X75650000Y-8200000D02*
X75650000Y-3600000D01*
X75800000Y-8200000D02*
X75800000Y-3600000D01*
X75950000Y-8200000D02*
X75950000Y-3600000D01*
X76100000Y-8200000D02*
X76100000Y-3600000D01*
X76250000Y-8200000D02*
X76250000Y-3600000D01*
X76400000Y-8200000D02*
X76400000Y-3600000D01*
X76550000Y-8200000D02*
X76550000Y-3600000D01*
X76700000Y-8200000D02*
X76700000Y-3600000D01*
X76850000Y-8200000D02*
X76850000Y-3600000D01*
X77000000Y-8200000D02*
X77000000Y-3600000D01*
D14*
X77100000Y-3650000D02*
X74400000Y-7950000D01*
X77100000Y-8100000D02*
X77100000Y-3650000D01*
D12*
X77150000Y-8200000D02*
X77150000Y-3600000D01*
X77300000Y-8200000D02*
X77300000Y-3600000D01*
X77450000Y-8200000D02*
X77450000Y-3600000D01*
X77500000Y-3575000D02*
X74925000Y-3575000D01*
X77500000Y-3575000D02*
X78525000Y-4600000D01*
X77500000Y-8225000D02*
X74900000Y-8225000D01*
X77500000Y-8225000D02*
X78525000Y-7200000D01*
X77600000Y-8100000D02*
X77600000Y-3700000D01*
X77750000Y-7950000D02*
X77750000Y-3850000D01*
X77900000Y-7800000D02*
X77900000Y-4000000D01*
X78050000Y-7650000D02*
X78050000Y-4150000D01*
X78150000Y-7550000D02*
X78150000Y-4250000D01*
X78250000Y-7450000D02*
X78250000Y-4350000D01*
X78350000Y-7350000D02*
X78350000Y-4450000D01*
X78500000Y-4575000D02*
X78500000Y-7225000D01*
X69925000Y-1375000D02*
G75*
G03*
X68925000Y-2375000I-1J-999999D01*
G01*
X68925000Y-5025000D02*
G75*
G03*
X69925000Y-6025000I999999J-1D01*
G01*
X74037801Y-7521904D02*
G75*
G03*
X71900000Y-6025000I-2137802J-778098D01*
G01*
X74037802Y-7521904D02*
G75*
G03*
X74899005Y-8223790I899999J225000D01*
G01*
X73750000Y-2400000D02*
G75*
G03*
X74925000Y-3575000I1175002J2D01*
G01*
%TO.C,SW32*%
X11900000Y-62650000D02*
X11900000Y-59050000D01*
X12050000Y-62850000D02*
X12050000Y-58850000D01*
X12200000Y-62950000D02*
X12200000Y-58750000D01*
X12350000Y-63050000D02*
X12350000Y-58650000D01*
X12500000Y-63100000D02*
X12500000Y-58600000D01*
X12650000Y-63150000D02*
X12650000Y-58600000D01*
X12800000Y-63150000D02*
X12800000Y-58550000D01*
X12950000Y-63150000D02*
X12950000Y-58550000D01*
X13100000Y-63150000D02*
X13100000Y-58550000D01*
X13250000Y-63150000D02*
X13250000Y-58550000D01*
X13400000Y-63150000D02*
X13400000Y-58550000D01*
X13550000Y-63150000D02*
X13550000Y-58550000D01*
X13700000Y-63150000D02*
X13700000Y-58550000D01*
X13850000Y-63150000D02*
X13850000Y-58550000D01*
X14000000Y-63150000D02*
X14000000Y-58550000D01*
X14150000Y-63150000D02*
X14150000Y-58550000D01*
X14300000Y-63150000D02*
X14300000Y-58550000D01*
D14*
X14400000Y-63050000D02*
X14400000Y-58550000D01*
D12*
X14450000Y-63150000D02*
X14450000Y-58550000D01*
X14600000Y-63150000D02*
X14600000Y-58550000D01*
X14750000Y-63150000D02*
X14750000Y-58550000D01*
X14750000Y-63175000D02*
X12775000Y-63175000D01*
X14900000Y-63150000D02*
X14900000Y-58600000D01*
X15050000Y-63200000D02*
X15050000Y-58550000D01*
X15200000Y-63200000D02*
X15200000Y-58550000D01*
X15325000Y-58525000D02*
X12775000Y-58525000D01*
X15325000Y-58525000D02*
X16600000Y-59550000D01*
X15350000Y-63200000D02*
X15350000Y-58600000D01*
X15500000Y-63250000D02*
X15500000Y-58700000D01*
X15650000Y-63350000D02*
X15650000Y-58800000D01*
X15800000Y-63400000D02*
X15800000Y-58950000D01*
X15950000Y-63500000D02*
X15950000Y-59050000D01*
X16100000Y-63600000D02*
X16100000Y-59200000D01*
X16250000Y-63700000D02*
X16250000Y-59300000D01*
X16400000Y-63850000D02*
X16400000Y-59400000D01*
X16550000Y-64000000D02*
X16550000Y-59550000D01*
X16650000Y-64200000D02*
X16650000Y-60050000D01*
X16750000Y-64350000D02*
X16750000Y-60200000D01*
X16850000Y-64550000D02*
X16850000Y-60400000D01*
X16950000Y-64700000D02*
X16950000Y-60500000D01*
X17050000Y-64950000D02*
X17050000Y-60550000D01*
X17150000Y-65100000D02*
X17150000Y-60600000D01*
D14*
X17250000Y-60750000D02*
X14400000Y-63050000D01*
X17250000Y-65100000D02*
X17250000Y-60750000D01*
D12*
X17300000Y-65200000D02*
X17300000Y-60650000D01*
X17450000Y-65300000D02*
X17450000Y-60750000D01*
X17600000Y-65350000D02*
X17600000Y-60750000D01*
X17750000Y-65350000D02*
X17750000Y-60750000D01*
X17900000Y-65350000D02*
X17900000Y-60800000D01*
X18050000Y-65350000D02*
X18050000Y-60750000D01*
X18200000Y-65350000D02*
X18200000Y-60750000D01*
X18350000Y-65350000D02*
X18350000Y-60750000D01*
X18500000Y-65350000D02*
X18500000Y-60750000D01*
X18650000Y-65350000D02*
X18650000Y-60750000D01*
X18800000Y-65350000D02*
X18800000Y-60750000D01*
X18950000Y-65350000D02*
X18950000Y-60750000D01*
X19100000Y-65350000D02*
X19100000Y-60750000D01*
X19250000Y-65350000D02*
X19250000Y-60750000D01*
X19400000Y-65350000D02*
X19400000Y-60750000D01*
X19550000Y-65350000D02*
X19550000Y-60750000D01*
X19700000Y-65350000D02*
X19700000Y-60750000D01*
X19850000Y-65350000D02*
X19850000Y-60750000D01*
D14*
X19950000Y-60800000D02*
X17250000Y-65100000D01*
X19950000Y-65250000D02*
X19950000Y-60800000D01*
D12*
X20000000Y-65350000D02*
X20000000Y-60750000D01*
X20150000Y-65350000D02*
X20150000Y-60750000D01*
X20300000Y-65350000D02*
X20300000Y-60750000D01*
X20350000Y-60725000D02*
X17775000Y-60725000D01*
X20350000Y-60725000D02*
X21375000Y-61750000D01*
X20350000Y-65375000D02*
X17750000Y-65375000D01*
X20350000Y-65375000D02*
X21375000Y-64350000D01*
X20450000Y-65250000D02*
X20450000Y-60850000D01*
X20600000Y-65100000D02*
X20600000Y-61000000D01*
X20750000Y-64950000D02*
X20750000Y-61150000D01*
X20900000Y-64800000D02*
X20900000Y-61300000D01*
X21000000Y-64700000D02*
X21000000Y-61400000D01*
X21100000Y-64600000D02*
X21100000Y-61500000D01*
X21200000Y-64500000D02*
X21200000Y-61600000D01*
X21350000Y-61725000D02*
X21350000Y-64375000D01*
X12775000Y-58525000D02*
G75*
G03*
X11775000Y-59525000I-1J-999999D01*
G01*
X11775000Y-62175000D02*
G75*
G03*
X12775000Y-63175000I999999J-1D01*
G01*
X16887801Y-64671904D02*
G75*
G03*
X14750000Y-63175000I-2137802J-778098D01*
G01*
X16887802Y-64671904D02*
G75*
G03*
X17749005Y-65373790I899999J225000D01*
G01*
X16600000Y-59550000D02*
G75*
G03*
X17775000Y-60725000I1175002J2D01*
G01*
%TO.C,D1*%
X3980000Y-7910000D02*
X3980000Y-9410000D01*
X3980000Y-9410000D02*
X9380000Y-9410000D01*
X6180000Y-8160000D02*
X6180000Y-9160000D01*
X6280000Y-8660000D02*
X7180000Y-8160000D01*
X7180000Y-8160000D02*
X7180000Y-9160000D01*
X7180000Y-9160000D02*
X6280000Y-8660000D01*
X9380000Y-7910000D02*
X3980000Y-7910000D01*
X9380000Y-9410000D02*
X9380000Y-7910000D01*
%TO.C,SW12*%
X11900000Y-24550000D02*
X11900000Y-20950000D01*
X12050000Y-24750000D02*
X12050000Y-20750000D01*
X12200000Y-24850000D02*
X12200000Y-20650000D01*
X12350000Y-24950000D02*
X12350000Y-20550000D01*
X12500000Y-25000000D02*
X12500000Y-20500000D01*
X12650000Y-25050000D02*
X12650000Y-20500000D01*
X12800000Y-25050000D02*
X12800000Y-20450000D01*
X12950000Y-25050000D02*
X12950000Y-20450000D01*
X13100000Y-25050000D02*
X13100000Y-20450000D01*
X13250000Y-25050000D02*
X13250000Y-20450000D01*
X13400000Y-25050000D02*
X13400000Y-20450000D01*
X13550000Y-25050000D02*
X13550000Y-20450000D01*
X13700000Y-25050000D02*
X13700000Y-20450000D01*
X13850000Y-25050000D02*
X13850000Y-20450000D01*
X14000000Y-25050000D02*
X14000000Y-20450000D01*
X14150000Y-25050000D02*
X14150000Y-20450000D01*
X14300000Y-25050000D02*
X14300000Y-20450000D01*
D14*
X14400000Y-24950000D02*
X14400000Y-20450000D01*
D12*
X14450000Y-25050000D02*
X14450000Y-20450000D01*
X14600000Y-25050000D02*
X14600000Y-20450000D01*
X14750000Y-25050000D02*
X14750000Y-20450000D01*
X14750000Y-25075000D02*
X12775000Y-25075000D01*
X14900000Y-25050000D02*
X14900000Y-20500000D01*
X15050000Y-25100000D02*
X15050000Y-20450000D01*
X15200000Y-25100000D02*
X15200000Y-20450000D01*
X15325000Y-20425000D02*
X12775000Y-20425000D01*
X15325000Y-20425000D02*
X16600000Y-21450000D01*
X15350000Y-25100000D02*
X15350000Y-20500000D01*
X15500000Y-25150000D02*
X15500000Y-20600000D01*
X15650000Y-25250000D02*
X15650000Y-20700000D01*
X15800000Y-25300000D02*
X15800000Y-20850000D01*
X15950000Y-25400000D02*
X15950000Y-20950000D01*
X16100000Y-25500000D02*
X16100000Y-21100000D01*
X16250000Y-25600000D02*
X16250000Y-21200000D01*
X16400000Y-25750000D02*
X16400000Y-21300000D01*
X16550000Y-25900000D02*
X16550000Y-21450000D01*
X16650000Y-26100000D02*
X16650000Y-21950000D01*
X16750000Y-26250000D02*
X16750000Y-22100000D01*
X16850000Y-26450000D02*
X16850000Y-22300000D01*
X16950000Y-26600000D02*
X16950000Y-22400000D01*
X17050000Y-26850000D02*
X17050000Y-22450000D01*
X17150000Y-27000000D02*
X17150000Y-22500000D01*
D14*
X17250000Y-22650000D02*
X14400000Y-24950000D01*
X17250000Y-27000000D02*
X17250000Y-22650000D01*
D12*
X17300000Y-27100000D02*
X17300000Y-22550000D01*
X17450000Y-27200000D02*
X17450000Y-22650000D01*
X17600000Y-27250000D02*
X17600000Y-22650000D01*
X17750000Y-27250000D02*
X17750000Y-22650000D01*
X17900000Y-27250000D02*
X17900000Y-22700000D01*
X18050000Y-27250000D02*
X18050000Y-22650000D01*
X18200000Y-27250000D02*
X18200000Y-22650000D01*
X18350000Y-27250000D02*
X18350000Y-22650000D01*
X18500000Y-27250000D02*
X18500000Y-22650000D01*
X18650000Y-27250000D02*
X18650000Y-22650000D01*
X18800000Y-27250000D02*
X18800000Y-22650000D01*
X18950000Y-27250000D02*
X18950000Y-22650000D01*
X19100000Y-27250000D02*
X19100000Y-22650000D01*
X19250000Y-27250000D02*
X19250000Y-22650000D01*
X19400000Y-27250000D02*
X19400000Y-22650000D01*
X19550000Y-27250000D02*
X19550000Y-22650000D01*
X19700000Y-27250000D02*
X19700000Y-22650000D01*
X19850000Y-27250000D02*
X19850000Y-22650000D01*
D14*
X19950000Y-22700000D02*
X17250000Y-27000000D01*
X19950000Y-27150000D02*
X19950000Y-22700000D01*
D12*
X20000000Y-27250000D02*
X20000000Y-22650000D01*
X20150000Y-27250000D02*
X20150000Y-22650000D01*
X20300000Y-27250000D02*
X20300000Y-22650000D01*
X20350000Y-22625000D02*
X17775000Y-22625000D01*
X20350000Y-22625000D02*
X21375000Y-23650000D01*
X20350000Y-27275000D02*
X17750000Y-27275000D01*
X20350000Y-27275000D02*
X21375000Y-26250000D01*
X20450000Y-27150000D02*
X20450000Y-22750000D01*
X20600000Y-27000000D02*
X20600000Y-22900000D01*
X20750000Y-26850000D02*
X20750000Y-23050000D01*
X20900000Y-26700000D02*
X20900000Y-23200000D01*
X21000000Y-26600000D02*
X21000000Y-23300000D01*
X21100000Y-26500000D02*
X21100000Y-23400000D01*
X21200000Y-26400000D02*
X21200000Y-23500000D01*
X21350000Y-23625000D02*
X21350000Y-26275000D01*
X12775000Y-20425000D02*
G75*
G03*
X11775000Y-21425000I-1J-999999D01*
G01*
X11775000Y-24075000D02*
G75*
G03*
X12775000Y-25075000I999999J-1D01*
G01*
X16887801Y-26571904D02*
G75*
G03*
X14750000Y-25075000I-2137802J-778098D01*
G01*
X16887802Y-26571904D02*
G75*
G03*
X17749005Y-27273790I899999J225000D01*
G01*
X16600000Y-21450000D02*
G75*
G03*
X17775000Y-22625000I1175002J2D01*
G01*
%TO.C,D33*%
X42050000Y-64950000D02*
X42050000Y-66450000D01*
X42050000Y-66450000D02*
X47450000Y-66450000D01*
X44250000Y-65200000D02*
X44250000Y-66200000D01*
X44350000Y-65700000D02*
X45250000Y-65200000D01*
X45250000Y-65200000D02*
X45250000Y-66200000D01*
X45250000Y-66200000D02*
X44350000Y-65700000D01*
X47450000Y-64950000D02*
X42050000Y-64950000D01*
X47450000Y-66450000D02*
X47450000Y-64950000D01*
%TO.C,D36*%
X99212500Y-64990000D02*
X99212500Y-66490000D01*
X99212500Y-66490000D02*
X104612500Y-66490000D01*
X101412500Y-65240000D02*
X101412500Y-66240000D01*
X101512500Y-65740000D02*
X102412500Y-65240000D01*
X102412500Y-65240000D02*
X102412500Y-66240000D01*
X102412500Y-66240000D02*
X101512500Y-65740000D01*
X104612500Y-64990000D02*
X99212500Y-64990000D01*
X104612500Y-66490000D02*
X104612500Y-64990000D01*
%TO.C,D23*%
X41350000Y-45910000D02*
X41350000Y-47410000D01*
X41350000Y-47410000D02*
X46750000Y-47410000D01*
X43550000Y-46160000D02*
X43550000Y-47160000D01*
X43650000Y-46660000D02*
X44550000Y-46160000D01*
X44550000Y-46160000D02*
X44550000Y-47160000D01*
X44550000Y-47160000D02*
X43650000Y-46660000D01*
X46750000Y-45910000D02*
X41350000Y-45910000D01*
X46750000Y-47410000D02*
X46750000Y-45910000D01*
%TO.C,D32*%
X22990000Y-64920000D02*
X22990000Y-66420000D01*
X22990000Y-66420000D02*
X28390000Y-66420000D01*
X25190000Y-65170000D02*
X25190000Y-66170000D01*
X25290000Y-65670000D02*
X26190000Y-65170000D01*
X26190000Y-65170000D02*
X26190000Y-66170000D01*
X26190000Y-66170000D02*
X25290000Y-65670000D01*
X28390000Y-64920000D02*
X22990000Y-64920000D01*
X28390000Y-66420000D02*
X28390000Y-64920000D01*
%TO.C,SW22*%
X11900000Y-43600000D02*
X11900000Y-40000000D01*
X12050000Y-43800000D02*
X12050000Y-39800000D01*
X12200000Y-43900000D02*
X12200000Y-39700000D01*
X12350000Y-44000000D02*
X12350000Y-39600000D01*
X12500000Y-44050000D02*
X12500000Y-39550000D01*
X12650000Y-44100000D02*
X12650000Y-39550000D01*
X12800000Y-44100000D02*
X12800000Y-39500000D01*
X12950000Y-44100000D02*
X12950000Y-39500000D01*
X13100000Y-44100000D02*
X13100000Y-39500000D01*
X13250000Y-44100000D02*
X13250000Y-39500000D01*
X13400000Y-44100000D02*
X13400000Y-39500000D01*
X13550000Y-44100000D02*
X13550000Y-39500000D01*
X13700000Y-44100000D02*
X13700000Y-39500000D01*
X13850000Y-44100000D02*
X13850000Y-39500000D01*
X14000000Y-44100000D02*
X14000000Y-39500000D01*
X14150000Y-44100000D02*
X14150000Y-39500000D01*
X14300000Y-44100000D02*
X14300000Y-39500000D01*
D14*
X14400000Y-44000000D02*
X14400000Y-39500000D01*
D12*
X14450000Y-44100000D02*
X14450000Y-39500000D01*
X14600000Y-44100000D02*
X14600000Y-39500000D01*
X14750000Y-44100000D02*
X14750000Y-39500000D01*
X14750000Y-44125000D02*
X12775000Y-44125000D01*
X14900000Y-44100000D02*
X14900000Y-39550000D01*
X15050000Y-44150000D02*
X15050000Y-39500000D01*
X15200000Y-44150000D02*
X15200000Y-39500000D01*
X15325000Y-39475000D02*
X12775000Y-39475000D01*
X15325000Y-39475000D02*
X16600000Y-40500000D01*
X15350000Y-44150000D02*
X15350000Y-39550000D01*
X15500000Y-44200000D02*
X15500000Y-39650000D01*
X15650000Y-44300000D02*
X15650000Y-39750000D01*
X15800000Y-44350000D02*
X15800000Y-39900000D01*
X15950000Y-44450000D02*
X15950000Y-40000000D01*
X16100000Y-44550000D02*
X16100000Y-40150000D01*
X16250000Y-44650000D02*
X16250000Y-40250000D01*
X16400000Y-44800000D02*
X16400000Y-40350000D01*
X16550000Y-44950000D02*
X16550000Y-40500000D01*
X16650000Y-45150000D02*
X16650000Y-41000000D01*
X16750000Y-45300000D02*
X16750000Y-41150000D01*
X16850000Y-45500000D02*
X16850000Y-41350000D01*
X16950000Y-45650000D02*
X16950000Y-41450000D01*
X17050000Y-45900000D02*
X17050000Y-41500000D01*
X17150000Y-46050000D02*
X17150000Y-41550000D01*
D14*
X17250000Y-41700000D02*
X14400000Y-44000000D01*
X17250000Y-46050000D02*
X17250000Y-41700000D01*
D12*
X17300000Y-46150000D02*
X17300000Y-41600000D01*
X17450000Y-46250000D02*
X17450000Y-41700000D01*
X17600000Y-46300000D02*
X17600000Y-41700000D01*
X17750000Y-46300000D02*
X17750000Y-41700000D01*
X17900000Y-46300000D02*
X17900000Y-41750000D01*
X18050000Y-46300000D02*
X18050000Y-41700000D01*
X18200000Y-46300000D02*
X18200000Y-41700000D01*
X18350000Y-46300000D02*
X18350000Y-41700000D01*
X18500000Y-46300000D02*
X18500000Y-41700000D01*
X18650000Y-46300000D02*
X18650000Y-41700000D01*
X18800000Y-46300000D02*
X18800000Y-41700000D01*
X18950000Y-46300000D02*
X18950000Y-41700000D01*
X19100000Y-46300000D02*
X19100000Y-41700000D01*
X19250000Y-46300000D02*
X19250000Y-41700000D01*
X19400000Y-46300000D02*
X19400000Y-41700000D01*
X19550000Y-46300000D02*
X19550000Y-41700000D01*
X19700000Y-46300000D02*
X19700000Y-41700000D01*
X19850000Y-46300000D02*
X19850000Y-41700000D01*
D14*
X19950000Y-41750000D02*
X17250000Y-46050000D01*
X19950000Y-46200000D02*
X19950000Y-41750000D01*
D12*
X20000000Y-46300000D02*
X20000000Y-41700000D01*
X20150000Y-46300000D02*
X20150000Y-41700000D01*
X20300000Y-46300000D02*
X20300000Y-41700000D01*
X20350000Y-41675000D02*
X17775000Y-41675000D01*
X20350000Y-41675000D02*
X21375000Y-42700000D01*
X20350000Y-46325000D02*
X17750000Y-46325000D01*
X20350000Y-46325000D02*
X21375000Y-45300000D01*
X20450000Y-46200000D02*
X20450000Y-41800000D01*
X20600000Y-46050000D02*
X20600000Y-41950000D01*
X20750000Y-45900000D02*
X20750000Y-42100000D01*
X20900000Y-45750000D02*
X20900000Y-42250000D01*
X21000000Y-45650000D02*
X21000000Y-42350000D01*
X21100000Y-45550000D02*
X21100000Y-42450000D01*
X21200000Y-45450000D02*
X21200000Y-42550000D01*
X21350000Y-42675000D02*
X21350000Y-45325000D01*
X12775000Y-39475000D02*
G75*
G03*
X11775000Y-40475000I-1J-999999D01*
G01*
X11775000Y-43125000D02*
G75*
G03*
X12775000Y-44125000I999999J-1D01*
G01*
X16887801Y-45621904D02*
G75*
G03*
X14750000Y-44125000I-2137802J-778098D01*
G01*
X16887802Y-45621904D02*
G75*
G03*
X17749005Y-46323790I899999J225000D01*
G01*
X16600000Y-40500000D02*
G75*
G03*
X17775000Y-41675000I1175002J2D01*
G01*
%TO.C,SW14*%
X50000000Y-24550000D02*
X50000000Y-20950000D01*
X50150000Y-24750000D02*
X50150000Y-20750000D01*
X50300000Y-24850000D02*
X50300000Y-20650000D01*
X50450000Y-24950000D02*
X50450000Y-20550000D01*
X50600000Y-25000000D02*
X50600000Y-20500000D01*
X50750000Y-25050000D02*
X50750000Y-20500000D01*
X50900000Y-25050000D02*
X50900000Y-20450000D01*
X51050000Y-25050000D02*
X51050000Y-20450000D01*
X51200000Y-25050000D02*
X51200000Y-20450000D01*
X51350000Y-25050000D02*
X51350000Y-20450000D01*
X51500000Y-25050000D02*
X51500000Y-20450000D01*
X51650000Y-25050000D02*
X51650000Y-20450000D01*
X51800000Y-25050000D02*
X51800000Y-20450000D01*
X51950000Y-25050000D02*
X51950000Y-20450000D01*
X52100000Y-25050000D02*
X52100000Y-20450000D01*
X52250000Y-25050000D02*
X52250000Y-20450000D01*
X52400000Y-25050000D02*
X52400000Y-20450000D01*
D14*
X52500000Y-24950000D02*
X52500000Y-20450000D01*
D12*
X52550000Y-25050000D02*
X52550000Y-20450000D01*
X52700000Y-25050000D02*
X52700000Y-20450000D01*
X52850000Y-25050000D02*
X52850000Y-20450000D01*
X52850000Y-25075000D02*
X50875000Y-25075000D01*
X53000000Y-25050000D02*
X53000000Y-20500000D01*
X53150000Y-25100000D02*
X53150000Y-20450000D01*
X53300000Y-25100000D02*
X53300000Y-20450000D01*
X53425000Y-20425000D02*
X50875000Y-20425000D01*
X53425000Y-20425000D02*
X54700000Y-21450000D01*
X53450000Y-25100000D02*
X53450000Y-20500000D01*
X53600000Y-25150000D02*
X53600000Y-20600000D01*
X53750000Y-25250000D02*
X53750000Y-20700000D01*
X53900000Y-25300000D02*
X53900000Y-20850000D01*
X54050000Y-25400000D02*
X54050000Y-20950000D01*
X54200000Y-25500000D02*
X54200000Y-21100000D01*
X54350000Y-25600000D02*
X54350000Y-21200000D01*
X54500000Y-25750000D02*
X54500000Y-21300000D01*
X54650000Y-25900000D02*
X54650000Y-21450000D01*
X54750000Y-26100000D02*
X54750000Y-21950000D01*
X54850000Y-26250000D02*
X54850000Y-22100000D01*
X54950000Y-26450000D02*
X54950000Y-22300000D01*
X55050000Y-26600000D02*
X55050000Y-22400000D01*
X55150000Y-26850000D02*
X55150000Y-22450000D01*
X55250000Y-27000000D02*
X55250000Y-22500000D01*
D14*
X55350000Y-22650000D02*
X52500000Y-24950000D01*
X55350000Y-27000000D02*
X55350000Y-22650000D01*
D12*
X55400000Y-27100000D02*
X55400000Y-22550000D01*
X55550000Y-27200000D02*
X55550000Y-22650000D01*
X55700000Y-27250000D02*
X55700000Y-22650000D01*
X55850000Y-27250000D02*
X55850000Y-22650000D01*
X56000000Y-27250000D02*
X56000000Y-22700000D01*
X56150000Y-27250000D02*
X56150000Y-22650000D01*
X56300000Y-27250000D02*
X56300000Y-22650000D01*
X56450000Y-27250000D02*
X56450000Y-22650000D01*
X56600000Y-27250000D02*
X56600000Y-22650000D01*
X56750000Y-27250000D02*
X56750000Y-22650000D01*
X56900000Y-27250000D02*
X56900000Y-22650000D01*
X57050000Y-27250000D02*
X57050000Y-22650000D01*
X57200000Y-27250000D02*
X57200000Y-22650000D01*
X57350000Y-27250000D02*
X57350000Y-22650000D01*
X57500000Y-27250000D02*
X57500000Y-22650000D01*
X57650000Y-27250000D02*
X57650000Y-22650000D01*
X57800000Y-27250000D02*
X57800000Y-22650000D01*
X57950000Y-27250000D02*
X57950000Y-22650000D01*
D14*
X58050000Y-22700000D02*
X55350000Y-27000000D01*
X58050000Y-27150000D02*
X58050000Y-22700000D01*
D12*
X58100000Y-27250000D02*
X58100000Y-22650000D01*
X58250000Y-27250000D02*
X58250000Y-22650000D01*
X58400000Y-27250000D02*
X58400000Y-22650000D01*
X58450000Y-22625000D02*
X55875000Y-22625000D01*
X58450000Y-22625000D02*
X59475000Y-23650000D01*
X58450000Y-27275000D02*
X55850000Y-27275000D01*
X58450000Y-27275000D02*
X59475000Y-26250000D01*
X58550000Y-27150000D02*
X58550000Y-22750000D01*
X58700000Y-27000000D02*
X58700000Y-22900000D01*
X58850000Y-26850000D02*
X58850000Y-23050000D01*
X59000000Y-26700000D02*
X59000000Y-23200000D01*
X59100000Y-26600000D02*
X59100000Y-23300000D01*
X59200000Y-26500000D02*
X59200000Y-23400000D01*
X59300000Y-26400000D02*
X59300000Y-23500000D01*
X59450000Y-23625000D02*
X59450000Y-26275000D01*
X50875000Y-20425000D02*
G75*
G03*
X49875000Y-21425000I-1J-999999D01*
G01*
X49875000Y-24075000D02*
G75*
G03*
X50875000Y-25075000I999999J-1D01*
G01*
X54987801Y-26571904D02*
G75*
G03*
X52850000Y-25075000I-2137802J-778098D01*
G01*
X54987802Y-26571904D02*
G75*
G03*
X55849005Y-27273790I899999J225000D01*
G01*
X54700000Y-21450000D02*
G75*
G03*
X55875000Y-22625000I1175002J2D01*
G01*
%TO.C,D3*%
X41445000Y-7850000D02*
X41445000Y-9350000D01*
X41445000Y-9350000D02*
X46845000Y-9350000D01*
X43645000Y-8100000D02*
X43645000Y-9100000D01*
X43745000Y-8600000D02*
X44645000Y-8100000D01*
X44645000Y-8100000D02*
X44645000Y-9100000D01*
X44645000Y-9100000D02*
X43745000Y-8600000D01*
X46845000Y-7850000D02*
X41445000Y-7850000D01*
X46845000Y-9350000D02*
X46845000Y-7850000D01*
%TO.C,D4*%
X47640000Y-7880000D02*
X47640000Y-9380000D01*
X47640000Y-9380000D02*
X53040000Y-9380000D01*
X49840000Y-8130000D02*
X49840000Y-9130000D01*
X49940000Y-8630000D02*
X50840000Y-8130000D01*
X50840000Y-8130000D02*
X50840000Y-9130000D01*
X50840000Y-9130000D02*
X49940000Y-8630000D01*
X53040000Y-7880000D02*
X47640000Y-7880000D01*
X53040000Y-9380000D02*
X53040000Y-7880000D01*
%TO.C,SW24*%
X50000000Y-43600000D02*
X50000000Y-40000000D01*
X50150000Y-43800000D02*
X50150000Y-39800000D01*
X50300000Y-43900000D02*
X50300000Y-39700000D01*
X50450000Y-44000000D02*
X50450000Y-39600000D01*
X50600000Y-44050000D02*
X50600000Y-39550000D01*
X50750000Y-44100000D02*
X50750000Y-39550000D01*
X50900000Y-44100000D02*
X50900000Y-39500000D01*
X51050000Y-44100000D02*
X51050000Y-39500000D01*
X51200000Y-44100000D02*
X51200000Y-39500000D01*
X51350000Y-44100000D02*
X51350000Y-39500000D01*
X51500000Y-44100000D02*
X51500000Y-39500000D01*
X51650000Y-44100000D02*
X51650000Y-39500000D01*
X51800000Y-44100000D02*
X51800000Y-39500000D01*
X51950000Y-44100000D02*
X51950000Y-39500000D01*
X52100000Y-44100000D02*
X52100000Y-39500000D01*
X52250000Y-44100000D02*
X52250000Y-39500000D01*
X52400000Y-44100000D02*
X52400000Y-39500000D01*
D14*
X52500000Y-44000000D02*
X52500000Y-39500000D01*
D12*
X52550000Y-44100000D02*
X52550000Y-39500000D01*
X52700000Y-44100000D02*
X52700000Y-39500000D01*
X52850000Y-44100000D02*
X52850000Y-39500000D01*
X52850000Y-44125000D02*
X50875000Y-44125000D01*
X53000000Y-44100000D02*
X53000000Y-39550000D01*
X53150000Y-44150000D02*
X53150000Y-39500000D01*
X53300000Y-44150000D02*
X53300000Y-39500000D01*
X53425000Y-39475000D02*
X50875000Y-39475000D01*
X53425000Y-39475000D02*
X54700000Y-40500000D01*
X53450000Y-44150000D02*
X53450000Y-39550000D01*
X53600000Y-44200000D02*
X53600000Y-39650000D01*
X53750000Y-44300000D02*
X53750000Y-39750000D01*
X53900000Y-44350000D02*
X53900000Y-39900000D01*
X54050000Y-44450000D02*
X54050000Y-40000000D01*
X54200000Y-44550000D02*
X54200000Y-40150000D01*
X54350000Y-44650000D02*
X54350000Y-40250000D01*
X54500000Y-44800000D02*
X54500000Y-40350000D01*
X54650000Y-44950000D02*
X54650000Y-40500000D01*
X54750000Y-45150000D02*
X54750000Y-41000000D01*
X54850000Y-45300000D02*
X54850000Y-41150000D01*
X54950000Y-45500000D02*
X54950000Y-41350000D01*
X55050000Y-45650000D02*
X55050000Y-41450000D01*
X55150000Y-45900000D02*
X55150000Y-41500000D01*
X55250000Y-46050000D02*
X55250000Y-41550000D01*
D14*
X55350000Y-41700000D02*
X52500000Y-44000000D01*
X55350000Y-46050000D02*
X55350000Y-41700000D01*
D12*
X55400000Y-46150000D02*
X55400000Y-41600000D01*
X55550000Y-46250000D02*
X55550000Y-41700000D01*
X55700000Y-46300000D02*
X55700000Y-41700000D01*
X55850000Y-46300000D02*
X55850000Y-41700000D01*
X56000000Y-46300000D02*
X56000000Y-41750000D01*
X56150000Y-46300000D02*
X56150000Y-41700000D01*
X56300000Y-46300000D02*
X56300000Y-41700000D01*
X56450000Y-46300000D02*
X56450000Y-41700000D01*
X56600000Y-46300000D02*
X56600000Y-41700000D01*
X56750000Y-46300000D02*
X56750000Y-41700000D01*
X56900000Y-46300000D02*
X56900000Y-41700000D01*
X57050000Y-46300000D02*
X57050000Y-41700000D01*
X57200000Y-46300000D02*
X57200000Y-41700000D01*
X57350000Y-46300000D02*
X57350000Y-41700000D01*
X57500000Y-46300000D02*
X57500000Y-41700000D01*
X57650000Y-46300000D02*
X57650000Y-41700000D01*
X57800000Y-46300000D02*
X57800000Y-41700000D01*
X57950000Y-46300000D02*
X57950000Y-41700000D01*
D14*
X58050000Y-41750000D02*
X55350000Y-46050000D01*
X58050000Y-46200000D02*
X58050000Y-41750000D01*
D12*
X58100000Y-46300000D02*
X58100000Y-41700000D01*
X58250000Y-46300000D02*
X58250000Y-41700000D01*
X58400000Y-46300000D02*
X58400000Y-41700000D01*
X58450000Y-41675000D02*
X55875000Y-41675000D01*
X58450000Y-41675000D02*
X59475000Y-42700000D01*
X58450000Y-46325000D02*
X55850000Y-46325000D01*
X58450000Y-46325000D02*
X59475000Y-45300000D01*
X58550000Y-46200000D02*
X58550000Y-41800000D01*
X58700000Y-46050000D02*
X58700000Y-41950000D01*
X58850000Y-45900000D02*
X58850000Y-42100000D01*
X59000000Y-45750000D02*
X59000000Y-42250000D01*
X59100000Y-45650000D02*
X59100000Y-42350000D01*
X59200000Y-45550000D02*
X59200000Y-42450000D01*
X59300000Y-45450000D02*
X59300000Y-42550000D01*
X59450000Y-42675000D02*
X59450000Y-45325000D01*
X50875000Y-39475000D02*
G75*
G03*
X49875000Y-40475000I-1J-999999D01*
G01*
X49875000Y-43125000D02*
G75*
G03*
X50875000Y-44125000I999999J-1D01*
G01*
X54987801Y-45621904D02*
G75*
G03*
X52850000Y-44125000I-2137802J-778098D01*
G01*
X54987802Y-45621904D02*
G75*
G03*
X55849005Y-46323790I899999J225000D01*
G01*
X54700000Y-40500000D02*
G75*
G03*
X55875000Y-41675000I1175002J2D01*
G01*
%TO.C,D22*%
X10770000Y-45990000D02*
X10770000Y-47490000D01*
X10770000Y-47490000D02*
X16170000Y-47490000D01*
X12970000Y-46240000D02*
X12970000Y-47240000D01*
X13070000Y-46740000D02*
X13970000Y-46240000D01*
X13970000Y-46240000D02*
X13970000Y-47240000D01*
X13970000Y-47240000D02*
X13070000Y-46740000D01*
X16170000Y-45990000D02*
X10770000Y-45990000D01*
X16170000Y-47490000D02*
X16170000Y-45990000D01*
%TO.C,SW35*%
X69050000Y-62650000D02*
X69050000Y-59050000D01*
X69200000Y-62850000D02*
X69200000Y-58850000D01*
X69350000Y-62950000D02*
X69350000Y-58750000D01*
X69500000Y-63050000D02*
X69500000Y-58650000D01*
X69650000Y-63100000D02*
X69650000Y-58600000D01*
X69800000Y-63150000D02*
X69800000Y-58600000D01*
X69950000Y-63150000D02*
X69950000Y-58550000D01*
X70100000Y-63150000D02*
X70100000Y-58550000D01*
X70250000Y-63150000D02*
X70250000Y-58550000D01*
X70400000Y-63150000D02*
X70400000Y-58550000D01*
X70550000Y-63150000D02*
X70550000Y-58550000D01*
X70700000Y-63150000D02*
X70700000Y-58550000D01*
X70850000Y-63150000D02*
X70850000Y-58550000D01*
X71000000Y-63150000D02*
X71000000Y-58550000D01*
X71150000Y-63150000D02*
X71150000Y-58550000D01*
X71300000Y-63150000D02*
X71300000Y-58550000D01*
X71450000Y-63150000D02*
X71450000Y-58550000D01*
D14*
X71550000Y-63050000D02*
X71550000Y-58550000D01*
D12*
X71600000Y-63150000D02*
X71600000Y-58550000D01*
X71750000Y-63150000D02*
X71750000Y-58550000D01*
X71900000Y-63150000D02*
X71900000Y-58550000D01*
X71900000Y-63175000D02*
X69925000Y-63175000D01*
X72050000Y-63150000D02*
X72050000Y-58600000D01*
X72200000Y-63200000D02*
X72200000Y-58550000D01*
X72350000Y-63200000D02*
X72350000Y-58550000D01*
X72475000Y-58525000D02*
X69925000Y-58525000D01*
X72475000Y-58525000D02*
X73750000Y-59550000D01*
X72500000Y-63200000D02*
X72500000Y-58600000D01*
X72650000Y-63250000D02*
X72650000Y-58700000D01*
X72800000Y-63350000D02*
X72800000Y-58800000D01*
X72950000Y-63400000D02*
X72950000Y-58950000D01*
X73100000Y-63500000D02*
X73100000Y-59050000D01*
X73250000Y-63600000D02*
X73250000Y-59200000D01*
X73400000Y-63700000D02*
X73400000Y-59300000D01*
X73550000Y-63850000D02*
X73550000Y-59400000D01*
X73700000Y-64000000D02*
X73700000Y-59550000D01*
X73800000Y-64200000D02*
X73800000Y-60050000D01*
X73900000Y-64350000D02*
X73900000Y-60200000D01*
X74000000Y-64550000D02*
X74000000Y-60400000D01*
X74100000Y-64700000D02*
X74100000Y-60500000D01*
X74200000Y-64950000D02*
X74200000Y-60550000D01*
X74300000Y-65100000D02*
X74300000Y-60600000D01*
D14*
X74400000Y-60750000D02*
X71550000Y-63050000D01*
X74400000Y-65100000D02*
X74400000Y-60750000D01*
D12*
X74450000Y-65200000D02*
X74450000Y-60650000D01*
X74600000Y-65300000D02*
X74600000Y-60750000D01*
X74750000Y-65350000D02*
X74750000Y-60750000D01*
X74900000Y-65350000D02*
X74900000Y-60750000D01*
X75050000Y-65350000D02*
X75050000Y-60800000D01*
X75200000Y-65350000D02*
X75200000Y-60750000D01*
X75350000Y-65350000D02*
X75350000Y-60750000D01*
X75500000Y-65350000D02*
X75500000Y-60750000D01*
X75650000Y-65350000D02*
X75650000Y-60750000D01*
X75800000Y-65350000D02*
X75800000Y-60750000D01*
X75950000Y-65350000D02*
X75950000Y-60750000D01*
X76100000Y-65350000D02*
X76100000Y-60750000D01*
X76250000Y-65350000D02*
X76250000Y-60750000D01*
X76400000Y-65350000D02*
X76400000Y-60750000D01*
X76550000Y-65350000D02*
X76550000Y-60750000D01*
X76700000Y-65350000D02*
X76700000Y-60750000D01*
X76850000Y-65350000D02*
X76850000Y-60750000D01*
X77000000Y-65350000D02*
X77000000Y-60750000D01*
D14*
X77100000Y-60800000D02*
X74400000Y-65100000D01*
X77100000Y-65250000D02*
X77100000Y-60800000D01*
D12*
X77150000Y-65350000D02*
X77150000Y-60750000D01*
X77300000Y-65350000D02*
X77300000Y-60750000D01*
X77450000Y-65350000D02*
X77450000Y-60750000D01*
X77500000Y-60725000D02*
X74925000Y-60725000D01*
X77500000Y-60725000D02*
X78525000Y-61750000D01*
X77500000Y-65375000D02*
X74900000Y-65375000D01*
X77500000Y-65375000D02*
X78525000Y-64350000D01*
X77600000Y-65250000D02*
X77600000Y-60850000D01*
X77750000Y-65100000D02*
X77750000Y-61000000D01*
X77900000Y-64950000D02*
X77900000Y-61150000D01*
X78050000Y-64800000D02*
X78050000Y-61300000D01*
X78150000Y-64700000D02*
X78150000Y-61400000D01*
X78250000Y-64600000D02*
X78250000Y-61500000D01*
X78350000Y-64500000D02*
X78350000Y-61600000D01*
X78500000Y-61725000D02*
X78500000Y-64375000D01*
X69925000Y-58525000D02*
G75*
G03*
X68925000Y-59525000I-1J-999999D01*
G01*
X68925000Y-62175000D02*
G75*
G03*
X69925000Y-63175000I999999J-1D01*
G01*
X74037801Y-64671904D02*
G75*
G03*
X71900000Y-63175000I-2137802J-778098D01*
G01*
X74037802Y-64671904D02*
G75*
G03*
X74899005Y-65373790I899999J225000D01*
G01*
X73750000Y-59550000D02*
G75*
G03*
X74925000Y-60725000I1175002J2D01*
G01*
%TO.C,D2*%
X10720000Y-7840000D02*
X10720000Y-9340000D01*
X10720000Y-9340000D02*
X16120000Y-9340000D01*
X12920000Y-8090000D02*
X12920000Y-9090000D01*
X13020000Y-8590000D02*
X13920000Y-8090000D01*
X13920000Y-8090000D02*
X13920000Y-9090000D01*
X13920000Y-9090000D02*
X13020000Y-8590000D01*
X16120000Y-7840000D02*
X10720000Y-7840000D01*
X16120000Y-9340000D02*
X16120000Y-7840000D01*
%TO.C,SW13*%
X30950000Y-24550000D02*
X30950000Y-20950000D01*
X31100000Y-24750000D02*
X31100000Y-20750000D01*
X31250000Y-24850000D02*
X31250000Y-20650000D01*
X31400000Y-24950000D02*
X31400000Y-20550000D01*
X31550000Y-25000000D02*
X31550000Y-20500000D01*
X31700000Y-25050000D02*
X31700000Y-20500000D01*
X31850000Y-25050000D02*
X31850000Y-20450000D01*
X32000000Y-25050000D02*
X32000000Y-20450000D01*
X32150000Y-25050000D02*
X32150000Y-20450000D01*
X32300000Y-25050000D02*
X32300000Y-20450000D01*
X32450000Y-25050000D02*
X32450000Y-20450000D01*
X32600000Y-25050000D02*
X32600000Y-20450000D01*
X32750000Y-25050000D02*
X32750000Y-20450000D01*
X32900000Y-25050000D02*
X32900000Y-20450000D01*
X33050000Y-25050000D02*
X33050000Y-20450000D01*
X33200000Y-25050000D02*
X33200000Y-20450000D01*
X33350000Y-25050000D02*
X33350000Y-20450000D01*
D14*
X33450000Y-24950000D02*
X33450000Y-20450000D01*
D12*
X33500000Y-25050000D02*
X33500000Y-20450000D01*
X33650000Y-25050000D02*
X33650000Y-20450000D01*
X33800000Y-25050000D02*
X33800000Y-20450000D01*
X33800000Y-25075000D02*
X31825000Y-25075000D01*
X33950000Y-25050000D02*
X33950000Y-20500000D01*
X34100000Y-25100000D02*
X34100000Y-20450000D01*
X34250000Y-25100000D02*
X34250000Y-20450000D01*
X34375000Y-20425000D02*
X31825000Y-20425000D01*
X34375000Y-20425000D02*
X35650000Y-21450000D01*
X34400000Y-25100000D02*
X34400000Y-20500000D01*
X34550000Y-25150000D02*
X34550000Y-20600000D01*
X34700000Y-25250000D02*
X34700000Y-20700000D01*
X34850000Y-25300000D02*
X34850000Y-20850000D01*
X35000000Y-25400000D02*
X35000000Y-20950000D01*
X35150000Y-25500000D02*
X35150000Y-21100000D01*
X35300000Y-25600000D02*
X35300000Y-21200000D01*
X35450000Y-25750000D02*
X35450000Y-21300000D01*
X35600000Y-25900000D02*
X35600000Y-21450000D01*
X35700000Y-26100000D02*
X35700000Y-21950000D01*
X35800000Y-26250000D02*
X35800000Y-22100000D01*
X35900000Y-26450000D02*
X35900000Y-22300000D01*
X36000000Y-26600000D02*
X36000000Y-22400000D01*
X36100000Y-26850000D02*
X36100000Y-22450000D01*
X36200000Y-27000000D02*
X36200000Y-22500000D01*
D14*
X36300000Y-22650000D02*
X33450000Y-24950000D01*
X36300000Y-27000000D02*
X36300000Y-22650000D01*
D12*
X36350000Y-27100000D02*
X36350000Y-22550000D01*
X36500000Y-27200000D02*
X36500000Y-22650000D01*
X36650000Y-27250000D02*
X36650000Y-22650000D01*
X36800000Y-27250000D02*
X36800000Y-22650000D01*
X36950000Y-27250000D02*
X36950000Y-22700000D01*
X37100000Y-27250000D02*
X37100000Y-22650000D01*
X37250000Y-27250000D02*
X37250000Y-22650000D01*
X37400000Y-27250000D02*
X37400000Y-22650000D01*
X37550000Y-27250000D02*
X37550000Y-22650000D01*
X37700000Y-27250000D02*
X37700000Y-22650000D01*
X37850000Y-27250000D02*
X37850000Y-22650000D01*
X38000000Y-27250000D02*
X38000000Y-22650000D01*
X38150000Y-27250000D02*
X38150000Y-22650000D01*
X38300000Y-27250000D02*
X38300000Y-22650000D01*
X38450000Y-27250000D02*
X38450000Y-22650000D01*
X38600000Y-27250000D02*
X38600000Y-22650000D01*
X38750000Y-27250000D02*
X38750000Y-22650000D01*
X38900000Y-27250000D02*
X38900000Y-22650000D01*
D14*
X39000000Y-22700000D02*
X36300000Y-27000000D01*
X39000000Y-27150000D02*
X39000000Y-22700000D01*
D12*
X39050000Y-27250000D02*
X39050000Y-22650000D01*
X39200000Y-27250000D02*
X39200000Y-22650000D01*
X39350000Y-27250000D02*
X39350000Y-22650000D01*
X39400000Y-22625000D02*
X36825000Y-22625000D01*
X39400000Y-22625000D02*
X40425000Y-23650000D01*
X39400000Y-27275000D02*
X36800000Y-27275000D01*
X39400000Y-27275000D02*
X40425000Y-26250000D01*
X39500000Y-27150000D02*
X39500000Y-22750000D01*
X39650000Y-27000000D02*
X39650000Y-22900000D01*
X39800000Y-26850000D02*
X39800000Y-23050000D01*
X39950000Y-26700000D02*
X39950000Y-23200000D01*
X40050000Y-26600000D02*
X40050000Y-23300000D01*
X40150000Y-26500000D02*
X40150000Y-23400000D01*
X40250000Y-26400000D02*
X40250000Y-23500000D01*
X40400000Y-23625000D02*
X40400000Y-26275000D01*
X31825000Y-20425000D02*
G75*
G03*
X30825000Y-21425000I-1J-999999D01*
G01*
X30825000Y-24075000D02*
G75*
G03*
X31825000Y-25075000I999999J-1D01*
G01*
X35937801Y-26571904D02*
G75*
G03*
X33800000Y-25075000I-2137802J-778098D01*
G01*
X35937802Y-26571904D02*
G75*
G03*
X36799005Y-27273790I899999J225000D01*
G01*
X35650000Y-21450000D02*
G75*
G03*
X36825000Y-22625000I1175002J2D01*
G01*
%TO.C,SW34*%
X50000000Y-62650000D02*
X50000000Y-59050000D01*
X50150000Y-62850000D02*
X50150000Y-58850000D01*
X50300000Y-62950000D02*
X50300000Y-58750000D01*
X50450000Y-63050000D02*
X50450000Y-58650000D01*
X50600000Y-63100000D02*
X50600000Y-58600000D01*
X50750000Y-63150000D02*
X50750000Y-58600000D01*
X50900000Y-63150000D02*
X50900000Y-58550000D01*
X51050000Y-63150000D02*
X51050000Y-58550000D01*
X51200000Y-63150000D02*
X51200000Y-58550000D01*
X51350000Y-63150000D02*
X51350000Y-58550000D01*
X51500000Y-63150000D02*
X51500000Y-58550000D01*
X51650000Y-63150000D02*
X51650000Y-58550000D01*
X51800000Y-63150000D02*
X51800000Y-58550000D01*
X51950000Y-63150000D02*
X51950000Y-58550000D01*
X52100000Y-63150000D02*
X52100000Y-58550000D01*
X52250000Y-63150000D02*
X52250000Y-58550000D01*
X52400000Y-63150000D02*
X52400000Y-58550000D01*
D14*
X52500000Y-63050000D02*
X52500000Y-58550000D01*
D12*
X52550000Y-63150000D02*
X52550000Y-58550000D01*
X52700000Y-63150000D02*
X52700000Y-58550000D01*
X52850000Y-63150000D02*
X52850000Y-58550000D01*
X52850000Y-63175000D02*
X50875000Y-63175000D01*
X53000000Y-63150000D02*
X53000000Y-58600000D01*
X53150000Y-63200000D02*
X53150000Y-58550000D01*
X53300000Y-63200000D02*
X53300000Y-58550000D01*
X53425000Y-58525000D02*
X50875000Y-58525000D01*
X53425000Y-58525000D02*
X54700000Y-59550000D01*
X53450000Y-63200000D02*
X53450000Y-58600000D01*
X53600000Y-63250000D02*
X53600000Y-58700000D01*
X53750000Y-63350000D02*
X53750000Y-58800000D01*
X53900000Y-63400000D02*
X53900000Y-58950000D01*
X54050000Y-63500000D02*
X54050000Y-59050000D01*
X54200000Y-63600000D02*
X54200000Y-59200000D01*
X54350000Y-63700000D02*
X54350000Y-59300000D01*
X54500000Y-63850000D02*
X54500000Y-59400000D01*
X54650000Y-64000000D02*
X54650000Y-59550000D01*
X54750000Y-64200000D02*
X54750000Y-60050000D01*
X54850000Y-64350000D02*
X54850000Y-60200000D01*
X54950000Y-64550000D02*
X54950000Y-60400000D01*
X55050000Y-64700000D02*
X55050000Y-60500000D01*
X55150000Y-64950000D02*
X55150000Y-60550000D01*
X55250000Y-65100000D02*
X55250000Y-60600000D01*
D14*
X55350000Y-60750000D02*
X52500000Y-63050000D01*
X55350000Y-65100000D02*
X55350000Y-60750000D01*
D12*
X55400000Y-65200000D02*
X55400000Y-60650000D01*
X55550000Y-65300000D02*
X55550000Y-60750000D01*
X55700000Y-65350000D02*
X55700000Y-60750000D01*
X55850000Y-65350000D02*
X55850000Y-60750000D01*
X56000000Y-65350000D02*
X56000000Y-60800000D01*
X56150000Y-65350000D02*
X56150000Y-60750000D01*
X56300000Y-65350000D02*
X56300000Y-60750000D01*
X56450000Y-65350000D02*
X56450000Y-60750000D01*
X56600000Y-65350000D02*
X56600000Y-60750000D01*
X56750000Y-65350000D02*
X56750000Y-60750000D01*
X56900000Y-65350000D02*
X56900000Y-60750000D01*
X57050000Y-65350000D02*
X57050000Y-60750000D01*
X57200000Y-65350000D02*
X57200000Y-60750000D01*
X57350000Y-65350000D02*
X57350000Y-60750000D01*
X57500000Y-65350000D02*
X57500000Y-60750000D01*
X57650000Y-65350000D02*
X57650000Y-60750000D01*
X57800000Y-65350000D02*
X57800000Y-60750000D01*
X57950000Y-65350000D02*
X57950000Y-60750000D01*
D14*
X58050000Y-60800000D02*
X55350000Y-65100000D01*
X58050000Y-65250000D02*
X58050000Y-60800000D01*
D12*
X58100000Y-65350000D02*
X58100000Y-60750000D01*
X58250000Y-65350000D02*
X58250000Y-60750000D01*
X58400000Y-65350000D02*
X58400000Y-60750000D01*
X58450000Y-60725000D02*
X55875000Y-60725000D01*
X58450000Y-60725000D02*
X59475000Y-61750000D01*
X58450000Y-65375000D02*
X55850000Y-65375000D01*
X58450000Y-65375000D02*
X59475000Y-64350000D01*
X58550000Y-65250000D02*
X58550000Y-60850000D01*
X58700000Y-65100000D02*
X58700000Y-61000000D01*
X58850000Y-64950000D02*
X58850000Y-61150000D01*
X59000000Y-64800000D02*
X59000000Y-61300000D01*
X59100000Y-64700000D02*
X59100000Y-61400000D01*
X59200000Y-64600000D02*
X59200000Y-61500000D01*
X59300000Y-64500000D02*
X59300000Y-61600000D01*
X59450000Y-61725000D02*
X59450000Y-64375000D01*
X50875000Y-58525000D02*
G75*
G03*
X49875000Y-59525000I-1J-999999D01*
G01*
X49875000Y-62175000D02*
G75*
G03*
X50875000Y-63175000I999999J-1D01*
G01*
X54987801Y-64671904D02*
G75*
G03*
X52850000Y-63175000I-2137802J-778098D01*
G01*
X54987802Y-64671904D02*
G75*
G03*
X55849005Y-65373790I899999J225000D01*
G01*
X54700000Y-59550000D02*
G75*
G03*
X55875000Y-60725000I1175002J2D01*
G01*
D14*
%TO.C,C1*%
X104138000Y-27674000D02*
X95502000Y-27674000D01*
X104138000Y-24626000D02*
X104138000Y-27674000D01*
X95502000Y-27674000D02*
X95502000Y-24626000D01*
X95502000Y-24626000D02*
X104138000Y-24626000D01*
D12*
%TO.C,SW42*%
X-6670000Y9520000D02*
X-10170000Y9520000D01*
X-10170000Y9520000D02*
X-10170000Y520000D01*
X-6670000Y520000D02*
X-6670000Y9520000D01*
X-10170000Y520000D02*
X-6670000Y520000D01*
%TO.C,BT1*%
X101400000Y-36900000D02*
G75*
G03*
X89400000Y-36900000I-6000000J0D01*
G01*
%TO.C,U2*%
X104008600Y-23548000D02*
X103008600Y-23548000D01*
X104008600Y-22498000D02*
X104008600Y-23548000D01*
X104008600Y9502000D02*
X104008600Y8502000D01*
X104008600Y9502000D02*
X103008600Y9502000D01*
X86208600Y-23548000D02*
X87218600Y-23548000D01*
X86208600Y-22548000D02*
X86208600Y-23548000D01*
X86208600Y9502000D02*
X87158600Y9502000D01*
X86208600Y9502000D02*
X86208600Y8502000D01*
%TD*%
D15*
%TO.C,U2*%
X87497200Y5680000D03*
X87497200Y3140000D03*
X87497200Y600000D03*
X87497200Y-1940000D03*
X87497200Y-4480000D03*
X87497200Y-7020000D03*
X87497200Y-9560000D03*
X87497200Y-12100000D03*
X87497200Y-14640000D03*
X87497200Y-17180000D03*
X87497200Y-19720000D03*
X87497200Y-22260000D03*
X102717200Y-22260000D03*
X102717200Y-19720000D03*
X102717200Y-17180000D03*
X102717200Y-14640000D03*
X102717200Y-12100000D03*
X102717200Y-9560000D03*
X102717200Y-7020000D03*
X102717200Y-4480000D03*
X102717200Y-1940000D03*
X102717200Y600000D03*
X102717200Y3140000D03*
X102717200Y5680000D03*
D16*
X102717200Y8220000D03*
D15*
X87497200Y8220000D03*
%TD*%
M02*
