%TF.GenerationSoftware,KiCad,Pcbnew,7.0.8*%
%TF.CreationDate,2024-10-11T08:32:43+09:00*%
%TF.ProjectId,cool642,636f6f6c-3634-4322-9e6b-696361645f70,rev?*%
%TF.SameCoordinates,Original*%
%TF.FileFunction,Copper,L2,Bot*%
%TF.FilePolarity,Positive*%
%FSLAX46Y46*%
G04 Gerber Fmt 4.6, Leading zero omitted, Abs format (unit mm)*
G04 Created by KiCad (PCBNEW 7.0.8) date 2024-10-11 08:32:43*
%MOMM*%
%LPD*%
G01*
G04 APERTURE LIST*
%TA.AperFunction,SMDPad,CuDef*%
%ADD10R,1.300000X0.950000*%
%TD*%
%TA.AperFunction,ComponentPad*%
%ADD11O,2.200000X1.500000*%
%TD*%
%TA.AperFunction,SMDPad,CuDef*%
%ADD12R,2.600000X2.600000*%
%TD*%
%TA.AperFunction,ComponentPad*%
%ADD13C,2.000000*%
%TD*%
%TA.AperFunction,ComponentPad*%
%ADD14O,1.700000X2.500000*%
%TD*%
%TA.AperFunction,SMDPad,CuDef*%
%ADD15R,3.000000X2.600000*%
%TD*%
%TA.AperFunction,ComponentPad*%
%ADD16O,1.000000X1.300000*%
%TD*%
%TA.AperFunction,ComponentPad*%
%ADD17C,2.850000*%
%TD*%
%TA.AperFunction,SMDPad,CuDef*%
%ADD18C,10.000000*%
%TD*%
%TA.AperFunction,ComponentPad*%
%ADD19C,1.524000*%
%TD*%
%TA.AperFunction,ComponentPad*%
%ADD20R,1.524000X1.524000*%
%TD*%
%TA.AperFunction,ViaPad*%
%ADD21C,0.800000*%
%TD*%
%TA.AperFunction,Conductor*%
%ADD22C,0.250000*%
%TD*%
G04 APERTURE END LIST*
D10*
%TO.P,D14,1,K*%
%TO.N,row1*%
X62005000Y-27590000D03*
%TO.P,D14,2,A*%
%TO.N,Net-(D14-A)*%
X65555000Y-27590000D03*
%TD*%
D11*
%TO.P,SW21,*%
%TO.N,*%
X5550000Y-33100000D03*
D12*
%TO.P,SW21,1,1*%
%TO.N,col0*%
X-8300000Y-41800000D03*
%TO.P,SW21,2,2*%
%TO.N,Net-(D21-A)*%
X3300000Y-44000000D03*
%TD*%
D11*
%TO.P,SW15,*%
%TO.N,*%
X81750000Y-14050000D03*
D12*
%TO.P,SW15,1,1*%
%TO.N,col4*%
X67900000Y-22750000D03*
%TO.P,SW15,2,2*%
%TO.N,Net-(D15-A)*%
X79500000Y-24950000D03*
%TD*%
D10*
%TO.P,D35,1,K*%
%TO.N,row3*%
X81042500Y-65700000D03*
%TO.P,D35,2,A*%
%TO.N,Net-(D35-A)*%
X84592500Y-65700000D03*
%TD*%
%TO.P,D15,1,K*%
%TO.N,row1*%
X80215000Y-27520000D03*
%TO.P,D15,2,A*%
%TO.N,Net-(D15-A)*%
X83765000Y-27520000D03*
%TD*%
D11*
%TO.P,SW33,*%
%TO.N,*%
X43650000Y-52150000D03*
D12*
%TO.P,SW33,1,1*%
%TO.N,col2*%
X29800000Y-60850000D03*
%TO.P,SW33,2,2*%
%TO.N,Net-(D33-A)*%
X41400000Y-63050000D03*
%TD*%
D10*
%TO.P,D21,1,K*%
%TO.N,row2*%
X4875000Y-46720000D03*
%TO.P,D21,2,A*%
%TO.N,Net-(D21-A)*%
X8425000Y-46720000D03*
%TD*%
%TO.P,D13,1,K*%
%TO.N,row1*%
X42975000Y-27660000D03*
%TO.P,D13,2,A*%
%TO.N,Net-(D13-A)*%
X46525000Y-27660000D03*
%TD*%
D11*
%TO.P,SW4,*%
%TO.N,*%
X62700000Y5000000D03*
D12*
%TO.P,SW4,1,1*%
%TO.N,col3*%
X48850000Y-3700000D03*
%TO.P,SW4,2,2*%
%TO.N,Net-(D4-A)*%
X60450000Y-5900000D03*
%TD*%
D11*
%TO.P,SW36,*%
%TO.N,*%
X100800000Y-52150000D03*
D12*
%TO.P,SW36,1,1*%
%TO.N,col5*%
X86950000Y-60850000D03*
%TO.P,SW36,2,2*%
%TO.N,Net-(D36-A)*%
X98550000Y-63050000D03*
%TD*%
D11*
%TO.P,SW3,*%
%TO.N,*%
X43650000Y5000000D03*
D12*
%TO.P,SW3,1,1*%
%TO.N,col2*%
X29800000Y-3700000D03*
%TO.P,SW3,2,2*%
%TO.N,Net-(D3-A)*%
X41400000Y-5900000D03*
%TD*%
D13*
%TO.P,SW41,1,1*%
%TO.N,Net-(U2-BOOT(RST))*%
X86490000Y-26300000D03*
%TO.P,SW41,2,2*%
%TO.N,GND*%
X92990000Y-26300000D03*
%TD*%
D11*
%TO.P,SW31,*%
%TO.N,*%
X5550000Y-52150000D03*
D12*
%TO.P,SW31,1,1*%
%TO.N,col0*%
X-8300000Y-60850000D03*
%TO.P,SW31,2,2*%
%TO.N,Net-(D31-A)*%
X3300000Y-63050000D03*
%TD*%
D10*
%TO.P,D25,1,K*%
%TO.N,row2*%
X81085000Y-46680000D03*
%TO.P,D25,2,A*%
%TO.N,Net-(D25-A)*%
X84635000Y-46680000D03*
%TD*%
%TO.P,D31,1,K*%
%TO.N,row3*%
X4825000Y-65680000D03*
%TO.P,D31,2,A*%
%TO.N,Net-(D31-A)*%
X8375000Y-65680000D03*
%TD*%
%TO.P,D34,1,K*%
%TO.N,row3*%
X62015000Y-65750000D03*
%TO.P,D34,2,A*%
%TO.N,Net-(D34-A)*%
X65565000Y-65750000D03*
%TD*%
D11*
%TO.P,SW1,*%
%TO.N,*%
X5550000Y5000000D03*
D12*
%TO.P,SW1,1,1*%
%TO.N,col0*%
X-8300000Y-3700000D03*
%TO.P,SW1,2,2*%
%TO.N,Net-(D1-A)*%
X3300000Y-5900000D03*
%TD*%
D10*
%TO.P,D24,1,K*%
%TO.N,row2*%
X48650000Y-46760000D03*
%TO.P,D24,2,A*%
%TO.N,Net-(D24-A)*%
X52200000Y-46760000D03*
%TD*%
%TO.P,D12,1,K*%
%TO.N,row1*%
X23835000Y-27550000D03*
%TO.P,D12,2,A*%
%TO.N,Net-(D12-A)*%
X27385000Y-27550000D03*
%TD*%
D11*
%TO.P,SW25,*%
%TO.N,*%
X81750000Y-33100000D03*
D12*
%TO.P,SW25,1,1*%
%TO.N,col4*%
X67900000Y-41800000D03*
%TO.P,SW25,2,2*%
%TO.N,Net-(D25-A)*%
X79500000Y-44000000D03*
%TD*%
D11*
%TO.P,SW23,*%
%TO.N,*%
X43650000Y-33100000D03*
D12*
%TO.P,SW23,1,1*%
%TO.N,col2*%
X29800000Y-41800000D03*
%TO.P,SW23,2,2*%
%TO.N,Net-(D23-A)*%
X41400000Y-44000000D03*
%TD*%
D10*
%TO.P,D11,1,K*%
%TO.N,row1*%
X4855000Y-27610000D03*
%TO.P,D11,2,A*%
%TO.N,Net-(D11-A)*%
X8405000Y-27610000D03*
%TD*%
D11*
%TO.P,SW2,*%
%TO.N,*%
X24600000Y5000000D03*
D12*
%TO.P,SW2,1,1*%
%TO.N,col1*%
X10750000Y-3700000D03*
%TO.P,SW2,2,2*%
%TO.N,Net-(D2-A)*%
X22350000Y-5900000D03*
%TD*%
D10*
%TO.P,D5,1,K*%
%TO.N,row0*%
X81085000Y-8570000D03*
%TO.P,D5,2,A*%
%TO.N,Net-(D5-A)*%
X84635000Y-8570000D03*
%TD*%
D11*
%TO.P,SW11,*%
%TO.N,*%
X5550000Y-14050000D03*
D12*
%TO.P,SW11,1,1*%
%TO.N,col0*%
X-8300000Y-22750000D03*
%TO.P,SW11,2,2*%
%TO.N,Net-(D11-A)*%
X3300000Y-24950000D03*
%TD*%
D11*
%TO.P,SW5,*%
%TO.N,*%
X81750000Y5000000D03*
D12*
%TO.P,SW5,1,1*%
%TO.N,col4*%
X67900000Y-3700000D03*
%TO.P,SW5,2,2*%
%TO.N,Net-(D5-A)*%
X79500000Y-5900000D03*
%TD*%
D11*
%TO.P,SW32,*%
%TO.N,*%
X24600000Y-52150000D03*
D12*
%TO.P,SW32,1,1*%
%TO.N,col1*%
X10750000Y-60850000D03*
%TO.P,SW32,2,2*%
%TO.N,Net-(D32-A)*%
X22350000Y-63050000D03*
%TD*%
D10*
%TO.P,D1,1,K*%
%TO.N,row0*%
X4905000Y-8660000D03*
%TO.P,D1,2,A*%
%TO.N,Net-(D1-A)*%
X8455000Y-8660000D03*
%TD*%
D11*
%TO.P,SW12,*%
%TO.N,*%
X24600000Y-14050000D03*
D12*
%TO.P,SW12,1,1*%
%TO.N,col1*%
X10750000Y-22750000D03*
%TO.P,SW12,2,2*%
%TO.N,Net-(D12-A)*%
X22350000Y-24950000D03*
%TD*%
D10*
%TO.P,D33,1,K*%
%TO.N,row3*%
X42975000Y-65700000D03*
%TO.P,D33,2,A*%
%TO.N,Net-(D33-A)*%
X46525000Y-65700000D03*
%TD*%
%TO.P,D36,1,K*%
%TO.N,row3*%
X100137500Y-65740000D03*
%TO.P,D36,2,A*%
%TO.N,Net-(D36-A)*%
X103687500Y-65740000D03*
%TD*%
%TO.P,D23,1,K*%
%TO.N,row2*%
X42275000Y-46660000D03*
%TO.P,D23,2,A*%
%TO.N,Net-(D23-A)*%
X45825000Y-46660000D03*
%TD*%
%TO.P,D32,1,K*%
%TO.N,row3*%
X23915000Y-65670000D03*
%TO.P,D32,2,A*%
%TO.N,Net-(D32-A)*%
X27465000Y-65670000D03*
%TD*%
D11*
%TO.P,SW22,*%
%TO.N,*%
X24600000Y-33100000D03*
D12*
%TO.P,SW22,1,1*%
%TO.N,col1*%
X10750000Y-41800000D03*
%TO.P,SW22,2,2*%
%TO.N,Net-(D22-A)*%
X22350000Y-44000000D03*
%TD*%
D11*
%TO.P,SW14,*%
%TO.N,*%
X62700000Y-14050000D03*
D12*
%TO.P,SW14,1,1*%
%TO.N,col3*%
X48850000Y-22750000D03*
%TO.P,SW14,2,2*%
%TO.N,Net-(D14-A)*%
X60450000Y-24950000D03*
%TD*%
D10*
%TO.P,D3,1,K*%
%TO.N,row0*%
X42370000Y-8600000D03*
%TO.P,D3,2,A*%
%TO.N,Net-(D3-A)*%
X45920000Y-8600000D03*
%TD*%
%TO.P,D4,1,K*%
%TO.N,row0*%
X48565000Y-8630000D03*
%TO.P,D4,2,A*%
%TO.N,Net-(D4-A)*%
X52115000Y-8630000D03*
%TD*%
D11*
%TO.P,SW24,*%
%TO.N,*%
X62700000Y-33100000D03*
D12*
%TO.P,SW24,1,1*%
%TO.N,col3*%
X48850000Y-41800000D03*
%TO.P,SW24,2,2*%
%TO.N,Net-(D24-A)*%
X60450000Y-44000000D03*
%TD*%
D10*
%TO.P,D22,1,K*%
%TO.N,row2*%
X11695000Y-46740000D03*
%TO.P,D22,2,A*%
%TO.N,Net-(D22-A)*%
X15245000Y-46740000D03*
%TD*%
D11*
%TO.P,SW35,*%
%TO.N,*%
X81750000Y-52150000D03*
D12*
%TO.P,SW35,1,1*%
%TO.N,col4*%
X67900000Y-60850000D03*
%TO.P,SW35,2,2*%
%TO.N,Net-(D35-A)*%
X79500000Y-63050000D03*
%TD*%
D14*
%TO.P,J1,A*%
%TO.N,unconnected-(J1-PadA)*%
X92930000Y-1840000D03*
%TO.P,J1,B*%
%TO.N,data*%
X97130000Y6660000D03*
%TO.P,J1,C*%
%TO.N,GND*%
X97130000Y3660000D03*
%TO.P,J1,D*%
%TO.N,VCC*%
X97130000Y-340000D03*
%TD*%
D10*
%TO.P,D2,1,K*%
%TO.N,row0*%
X11645000Y-8590000D03*
%TO.P,D2,2,A*%
%TO.N,Net-(D2-A)*%
X15195000Y-8590000D03*
%TD*%
D11*
%TO.P,SW13,*%
%TO.N,*%
X43650000Y-14050000D03*
D12*
%TO.P,SW13,1,1*%
%TO.N,col2*%
X29800000Y-22750000D03*
%TO.P,SW13,2,2*%
%TO.N,Net-(D13-A)*%
X41400000Y-24950000D03*
%TD*%
D11*
%TO.P,SW34,*%
%TO.N,*%
X62700000Y-52150000D03*
D12*
%TO.P,SW34,1,1*%
%TO.N,col3*%
X48850000Y-60850000D03*
%TO.P,SW34,2,2*%
%TO.N,Net-(D34-A)*%
X60450000Y-63050000D03*
%TD*%
D15*
%TO.P,C1,1*%
%TO.N,BAT+*%
X102320000Y-26150000D03*
%TO.P,C1,2*%
%TO.N,GND*%
X97320000Y-26150000D03*
%TD*%
D16*
%TO.P,SW42,1,1*%
%TO.N,Net-(U2-BAT)*%
X-7620000Y7520000D03*
%TO.P,SW42,2,2*%
%TO.N,BAT+*%
X-7620000Y5020000D03*
%TO.P,SW42,3*%
%TO.N,N/C*%
X-7620000Y2520000D03*
%TD*%
D17*
%TO.P,BT1,1,+*%
%TO.N,BAT+*%
X86950000Y-36900000D03*
X103850000Y-36900000D03*
D18*
%TO.P,BT1,2,-*%
%TO.N,GND*%
X95400000Y-36900000D03*
%TD*%
D19*
%TO.P,U2,1,PIN1*%
%TO.N,data*%
X87497200Y5680000D03*
%TO.P,U2,2,PIN2*%
%TO.N,unconnected-(U2-PIN2-Pad2)*%
X87497200Y3140000D03*
%TO.P,U2,3,GND*%
%TO.N,GND*%
X87497200Y600000D03*
%TO.P,U2,4,GND*%
X87497200Y-1940000D03*
%TO.P,U2,5,PIN5*%
%TO.N,row0*%
X87497200Y-4480000D03*
%TO.P,U2,6,PIN6*%
%TO.N,row1*%
X87497200Y-7020000D03*
%TO.P,U2,7,PIN7*%
%TO.N,col0*%
X87497200Y-9560000D03*
%TO.P,U2,8,PIN8*%
%TO.N,col1*%
X87497200Y-12100000D03*
%TO.P,U2,9,PIN9*%
%TO.N,col2*%
X87497200Y-14640000D03*
%TO.P,U2,10,PIN10*%
%TO.N,col3*%
X87497200Y-17180000D03*
%TO.P,U2,11,PIN11*%
%TO.N,col4*%
X87497200Y-19720000D03*
%TO.P,U2,12,PIN12*%
%TO.N,unconnected-(U2-PIN12-Pad12)*%
X87497200Y-22260000D03*
%TO.P,U2,13,PIN13*%
%TO.N,unconnected-(U2-PIN13-Pad13)*%
X102717200Y-22260000D03*
%TO.P,U2,14,PIN14*%
%TO.N,row3*%
X102717200Y-19720000D03*
%TO.P,U2,15,PIN15*%
%TO.N,row2*%
X102717200Y-17180000D03*
%TO.P,U2,16,PIN16*%
%TO.N,col5*%
X102717200Y-14640000D03*
%TO.P,U2,17,PIN17*%
%TO.N,unconnected-(U2-PIN17-Pad17)*%
X102717200Y-12100000D03*
%TO.P,U2,18,PIN18*%
%TO.N,unconnected-(U2-PIN18-Pad18)*%
X102717200Y-9560000D03*
%TO.P,U2,19,PIN19*%
%TO.N,unconnected-(U2-PIN19-Pad19)*%
X102717200Y-7020000D03*
%TO.P,U2,20,PIN20*%
%TO.N,unconnected-(U2-PIN20-Pad20)*%
X102717200Y-4480000D03*
%TO.P,U2,21,+4.3V*%
%TO.N,unconnected-(U2-+4.3V-Pad21)*%
X102717200Y-1940000D03*
%TO.P,U2,22,BOOT(RST)*%
%TO.N,Net-(U2-BOOT(RST))*%
X102717200Y600000D03*
%TO.P,U2,23,GND*%
%TO.N,GND*%
X102717200Y3140000D03*
%TO.P,U2,24,+5V*%
%TO.N,VCC*%
X102717200Y5680000D03*
D20*
%TO.P,U2,25,BAT*%
%TO.N,Net-(U2-BAT)*%
X102717200Y8220000D03*
D19*
%TO.P,U2,26*%
%TO.N,N/C*%
X87497200Y8220000D03*
%TD*%
D21*
%TO.N,BAT+*%
X66720000Y-34920000D03*
X65860000Y5270000D03*
%TO.N,row0*%
X11640000Y-10860000D03*
X92670000Y-11013000D03*
X42370000Y-10860000D03*
X81070000Y-11013000D03*
X48590000Y-11013000D03*
X4930000Y-10810000D03*
%TO.N,row1*%
X80280000Y-29150000D03*
X89650000Y-29150000D03*
X42970000Y-29150000D03*
X23890000Y-29150000D03*
X4900000Y-29090000D03*
X62030000Y-29150000D03*
%TO.N,row2*%
X99150000Y-48080000D03*
X81080000Y-48080000D03*
X11610000Y-48210000D03*
X48610000Y-50470000D03*
X4860000Y-48020000D03*
%TO.N,Net-(D36-A)*%
X100950000Y-63050000D03*
X102948231Y-63080000D03*
%TO.N,col0*%
X-8300000Y-9550000D03*
%TO.N,col1*%
X10750000Y-12530000D03*
%TO.N,col2*%
X29610000Y-15180000D03*
%TO.N,col3*%
X50280000Y-16240000D03*
%TO.N,col4*%
X67900000Y-27250000D03*
%TO.N,col5*%
X94520000Y-25170000D03*
X94600000Y-27120000D03*
%TD*%
D22*
%TO.N,col2*%
X29800000Y-41800000D02*
X29800000Y-45160000D01*
X29800000Y-45160000D02*
X31110000Y-46470000D01*
X29330000Y-60380000D02*
X29330000Y-52440000D01*
X31110000Y-50660000D02*
X29330000Y-52440000D01*
X31110000Y-46470000D02*
X31110000Y-50660000D01*
%TO.N,Net-(U2-BOOT(RST))*%
X86490000Y-26300000D02*
X86410200Y-26220200D01*
X86410200Y-26220200D02*
X86410200Y-3966800D01*
X86410200Y-3966800D02*
X87013247Y-3363753D01*
X87013247Y-3363753D02*
X91520149Y-3363753D01*
X97747200Y-4370000D02*
X102717200Y600000D01*
X91520149Y-3363753D02*
X92526396Y-4370000D01*
X92526396Y-4370000D02*
X97747200Y-4370000D01*
%TO.N,col1*%
X10750000Y-44840000D02*
X10150000Y-45440000D01*
X10750000Y-41800000D02*
X10750000Y-44840000D01*
X10750000Y-48840000D02*
X10750000Y-60850000D01*
X10150000Y-45440000D02*
X10150000Y-48240000D01*
X10150000Y-48240000D02*
X10750000Y-48840000D01*
%TO.N,row3*%
X102717200Y-19720000D02*
X100495000Y-21942200D01*
X100495000Y-28145000D02*
X101830000Y-29480000D01*
X100495000Y-21942200D02*
X100495000Y-28145000D01*
X101830000Y-42273984D02*
X100965000Y-43138984D01*
X101830000Y-29480000D02*
X101830000Y-42273984D01*
X103100000Y-51570000D02*
X103100000Y-60283731D01*
X102223731Y-61160000D02*
X102223731Y-63653769D01*
X100965000Y-43138984D02*
X100965000Y-49435000D01*
X100965000Y-49435000D02*
X103100000Y-51570000D01*
X103100000Y-60283731D02*
X102223731Y-61160000D01*
X102223731Y-63653769D02*
X100137500Y-65740000D01*
%TO.N,BAT+*%
X65860000Y-4220000D02*
X65860000Y5270000D01*
X66275000Y-26695000D02*
X66275000Y-21245000D01*
X66570000Y-20950000D02*
X66570000Y-14340000D01*
X66720000Y-34920000D02*
X66720000Y-27140000D01*
X66570000Y-14340000D02*
X64040000Y-11810000D01*
X64040000Y-11810000D02*
X64040000Y-6040000D01*
X66720000Y-27140000D02*
X66275000Y-26695000D01*
X102320000Y-26150000D02*
X102320000Y-35370000D01*
X64040000Y-6040000D02*
X65860000Y-4220000D01*
X102320000Y-35370000D02*
X103850000Y-36900000D01*
X66275000Y-21245000D02*
X66570000Y-20950000D01*
%TO.N,GND*%
X97320000Y-34980000D02*
X95400000Y-36900000D01*
X85960200Y-3477000D02*
X85960200Y-8829420D01*
X85960200Y-8829420D02*
X85140000Y-9649620D01*
X85140000Y-9649620D02*
X85140000Y-26980000D01*
X88240000Y-30080000D02*
X90210000Y-30080000D01*
X85140000Y-26980000D02*
X88240000Y-30080000D01*
X97320000Y-26150000D02*
X97320000Y-34980000D01*
X90557200Y3660000D02*
X97130000Y3660000D01*
X87497200Y600000D02*
X87497200Y-1940000D01*
X90210000Y-30080000D02*
X92990000Y-27300000D01*
X92990000Y-26300000D02*
X97170000Y-26300000D01*
X92990000Y-27300000D02*
X92990000Y-26300000D01*
X97170000Y-26300000D02*
X97320000Y-26150000D01*
X97130000Y3660000D02*
X102197200Y3660000D01*
X87497200Y-1940000D02*
X85960200Y-3477000D01*
X87497200Y600000D02*
X90557200Y3660000D01*
X102197200Y3660000D02*
X102717200Y3140000D01*
%TO.N,row0*%
X11645000Y-10855000D02*
X11640000Y-10860000D01*
X92000000Y-4480000D02*
X92670000Y-5150000D01*
X42370000Y-8600000D02*
X42370000Y-10860000D01*
X92670000Y-5150000D02*
X92670000Y-11013000D01*
X4930000Y-8685000D02*
X4905000Y-8660000D01*
X87497200Y-4480000D02*
X92000000Y-4480000D01*
X48565000Y-10988000D02*
X48590000Y-11013000D01*
X81085000Y-8570000D02*
X81085000Y-10998000D01*
X4930000Y-10810000D02*
X4930000Y-8685000D01*
X81085000Y-10998000D02*
X81070000Y-11013000D01*
X11645000Y-8590000D02*
X11645000Y-10855000D01*
X48565000Y-8630000D02*
X48565000Y-10988000D01*
%TO.N,Net-(D1-A)*%
X5695000Y-5900000D02*
X8455000Y-8660000D01*
X3300000Y-5900000D02*
X5695000Y-5900000D01*
%TO.N,Net-(D2-A)*%
X15195000Y-8590000D02*
X19660000Y-8590000D01*
X19660000Y-8590000D02*
X22350000Y-5900000D01*
%TO.N,Net-(D3-A)*%
X41400000Y-5900000D02*
X43220000Y-5900000D01*
X43220000Y-5900000D02*
X45920000Y-8600000D01*
%TO.N,Net-(D4-A)*%
X57720000Y-8630000D02*
X52115000Y-8630000D01*
X60450000Y-5900000D02*
X57720000Y-8630000D01*
%TO.N,Net-(D5-A)*%
X81965000Y-5900000D02*
X84635000Y-8570000D01*
X79500000Y-5900000D02*
X81965000Y-5900000D01*
%TO.N,data*%
X87497200Y5680000D02*
X96150000Y5680000D01*
X96150000Y5680000D02*
X97130000Y6660000D01*
%TO.N,row1*%
X89650000Y-9172800D02*
X89650000Y-29150000D01*
X42975000Y-29145000D02*
X42970000Y-29150000D01*
X23835000Y-27550000D02*
X23835000Y-29095000D01*
X80215000Y-27520000D02*
X80215000Y-29085000D01*
X62005000Y-27590000D02*
X62005000Y-29125000D01*
X42975000Y-27660000D02*
X42975000Y-29145000D01*
X80215000Y-29085000D02*
X80280000Y-29150000D01*
X4900000Y-27655000D02*
X4855000Y-27610000D01*
X87497200Y-7020000D02*
X89650000Y-9172800D01*
X62005000Y-29125000D02*
X62030000Y-29150000D01*
X4900000Y-29090000D02*
X4900000Y-27655000D01*
X23835000Y-29095000D02*
X23890000Y-29150000D01*
%TO.N,Net-(D11-A)*%
X3300000Y-24950000D02*
X5745000Y-24950000D01*
X5745000Y-24950000D02*
X8405000Y-27610000D01*
%TO.N,Net-(D12-A)*%
X22350000Y-24950000D02*
X24785000Y-24950000D01*
X24785000Y-24950000D02*
X27385000Y-27550000D01*
%TO.N,Net-(D13-A)*%
X43815000Y-24950000D02*
X46525000Y-27660000D01*
X41400000Y-24950000D02*
X43815000Y-24950000D01*
%TO.N,Net-(D14-A)*%
X60450000Y-24950000D02*
X62915000Y-24950000D01*
X62915000Y-24950000D02*
X65555000Y-27590000D01*
%TO.N,Net-(D15-A)*%
X81195000Y-24950000D02*
X83765000Y-27520000D01*
X79500000Y-24950000D02*
X81195000Y-24950000D01*
%TO.N,row2*%
X99910000Y-28525000D02*
X100212500Y-28827500D01*
X42275000Y-46660000D02*
X46085000Y-50470000D01*
X99150000Y-44180000D02*
X99150000Y-48080000D01*
X4860000Y-46735000D02*
X4875000Y-46720000D01*
X46085000Y-50470000D02*
X48610000Y-50470000D01*
X48650000Y-46760000D02*
X48650000Y-50430000D01*
X81085000Y-48075000D02*
X81080000Y-48080000D01*
X11610000Y-46825000D02*
X11695000Y-46740000D01*
X81085000Y-46680000D02*
X81085000Y-48075000D01*
X48650000Y-50430000D02*
X48610000Y-50470000D01*
X101380000Y-29995000D02*
X101380000Y-41950000D01*
X99910000Y-19987200D02*
X99910000Y-28525000D01*
X102717200Y-17180000D02*
X99910000Y-19987200D01*
X4860000Y-48020000D02*
X4860000Y-46735000D01*
X101380000Y-41950000D02*
X99150000Y-44180000D01*
X100212500Y-28827500D02*
X101380000Y-29995000D01*
X11610000Y-48210000D02*
X11610000Y-46825000D01*
%TO.N,Net-(D21-A)*%
X3300000Y-44000000D02*
X5705000Y-44000000D01*
X5705000Y-44000000D02*
X8425000Y-46720000D01*
%TO.N,row3*%
X24715000Y-66470000D02*
X42205000Y-66470000D01*
X82147500Y-66805000D02*
X81042500Y-65700000D01*
X4825000Y-65680000D02*
X5625000Y-66480000D01*
X42205000Y-66470000D02*
X42975000Y-65700000D01*
X23915000Y-65670000D02*
X24715000Y-66470000D01*
X42975000Y-65700000D02*
X43775000Y-66500000D01*
X5625000Y-66480000D02*
X23105000Y-66480000D01*
X81042500Y-65700000D02*
X80192500Y-66550000D01*
X61265000Y-66500000D02*
X62015000Y-65750000D01*
X23105000Y-66480000D02*
X23915000Y-65670000D01*
X100137500Y-65782500D02*
X99115000Y-66805000D01*
X43775000Y-66500000D02*
X61265000Y-66500000D01*
X62015000Y-65750000D02*
X62815000Y-66550000D01*
X100137500Y-65740000D02*
X100137500Y-65782500D01*
X80192500Y-66550000D02*
X62815000Y-66550000D01*
X99115000Y-66805000D02*
X82147500Y-66805000D01*
%TO.N,Net-(D22-A)*%
X19610000Y-46740000D02*
X15245000Y-46740000D01*
X22350000Y-44000000D02*
X19610000Y-46740000D01*
%TO.N,Net-(D23-A)*%
X41400000Y-44000000D02*
X43165000Y-44000000D01*
X43165000Y-44000000D02*
X45825000Y-46660000D01*
%TO.N,Net-(D24-A)*%
X52200000Y-46760000D02*
X57690000Y-46760000D01*
X57690000Y-46760000D02*
X60450000Y-44000000D01*
%TO.N,Net-(D25-A)*%
X79500000Y-44000000D02*
X81955000Y-44000000D01*
X81955000Y-44000000D02*
X84635000Y-46680000D01*
%TO.N,Net-(D31-A)*%
X3300000Y-63050000D02*
X5745000Y-63050000D01*
X5745000Y-63050000D02*
X8375000Y-65680000D01*
%TO.N,Net-(D32-A)*%
X22350000Y-63050000D02*
X24845000Y-63050000D01*
X24845000Y-63050000D02*
X27465000Y-65670000D01*
%TO.N,Net-(D33-A)*%
X43875000Y-63050000D02*
X46525000Y-65700000D01*
X41400000Y-63050000D02*
X43875000Y-63050000D01*
%TO.N,Net-(D34-A)*%
X62865000Y-63050000D02*
X65565000Y-65750000D01*
X60450000Y-63050000D02*
X62865000Y-63050000D01*
%TO.N,Net-(D35-A)*%
X81942500Y-63050000D02*
X84592500Y-65700000D01*
X79500000Y-63050000D02*
X81942500Y-63050000D01*
%TO.N,Net-(D36-A)*%
X103687500Y-63819269D02*
X103687500Y-65740000D01*
X102948231Y-63080000D02*
X103687500Y-63819269D01*
X98550000Y-63050000D02*
X100950000Y-63050000D01*
%TO.N,col0*%
X-8300000Y-60850000D02*
X-8300000Y-41800000D01*
X-8300000Y-41800000D02*
X-8300000Y-22750000D01*
X-8300000Y-9550000D02*
X-8300000Y-3700000D01*
X-8300000Y-22750000D02*
X-8300000Y-9550000D01*
%TO.N,col1*%
X10160000Y-11940000D02*
X10750000Y-12530000D01*
X10750000Y-22750000D02*
X10750000Y-41800000D01*
X10160000Y-4290000D02*
X10160000Y-11940000D01*
X10750000Y-3700000D02*
X10160000Y-4290000D01*
X10750000Y-12530000D02*
X10750000Y-22750000D01*
%TO.N,col2*%
X29610000Y-12610000D02*
X31290000Y-10930000D01*
X29610000Y-15180000D02*
X29610000Y-12610000D01*
X29800000Y-22750000D02*
X29610000Y-22560000D01*
X29610000Y-22560000D02*
X29610000Y-15180000D01*
X29800000Y-60850000D02*
X29330000Y-60380000D01*
X31290000Y-10930000D02*
X31290000Y-7970000D01*
X29800000Y-41800000D02*
X29800000Y-22750000D01*
X29610000Y-6290000D02*
X29610000Y-3890000D01*
X29610000Y-3890000D02*
X29800000Y-3700000D01*
X31290000Y-7970000D02*
X29610000Y-6290000D01*
%TO.N,col3*%
X50280000Y-5130000D02*
X50280000Y-16240000D01*
X48850000Y-3700000D02*
X50280000Y-5130000D01*
X50280000Y-16240000D02*
X50280000Y-21320000D01*
X50280000Y-43230000D02*
X50280000Y-59420000D01*
X50280000Y-59420000D02*
X48850000Y-60850000D01*
X50280000Y-21320000D02*
X48850000Y-22750000D01*
X48850000Y-41800000D02*
X50280000Y-43230000D01*
X48850000Y-22750000D02*
X48850000Y-41800000D01*
%TO.N,col4*%
X67900000Y-6600000D02*
X69200000Y-7900000D01*
X67900000Y-51860000D02*
X67900000Y-60850000D01*
X67900000Y-41800000D02*
X67900000Y-44590000D01*
X69450000Y-46140000D02*
X69450000Y-50310000D01*
X67900000Y-22750000D02*
X67900000Y-27250000D01*
X67900000Y-27250000D02*
X67900000Y-41800000D01*
X67900000Y-3700000D02*
X67900000Y-6600000D01*
X67900000Y-44590000D02*
X69450000Y-46140000D01*
X69200000Y-7900000D02*
X69200000Y-12240000D01*
X67900000Y-13540000D02*
X67900000Y-22750000D01*
X69450000Y-50310000D02*
X67900000Y-51860000D01*
X69200000Y-12240000D02*
X67900000Y-13540000D01*
%TO.N,col5*%
X86950000Y-60850000D02*
X86950000Y-58076167D01*
X94520000Y-22837200D02*
X102717200Y-14640000D01*
X94520000Y-25170000D02*
X94520000Y-22837200D01*
X94530000Y-27120000D02*
X94600000Y-27120000D01*
X90075000Y-54951167D02*
X90075000Y-31575000D01*
X86950000Y-58076167D02*
X90075000Y-54951167D01*
X90075000Y-31575000D02*
X94530000Y-27120000D01*
%TD*%
M02*
