M48
; DRILL file {KiCad 7.0.8} date 2024 October 11, Friday 08:32:45
; FORMAT={-:-/ absolute / metric / decimal}
; #@! TF.CreationDate,2024-10-11T08:32:45+09:00
; #@! TF.GenerationSoftware,Kicad,Pcbnew,7.0.8
; #@! TF.FileFunction,NonPlated,1,2,NPTH
FMAT,2
METRIC
; #@! TA.AperFunction,NonPlated,NPTH,ComponentDrill
T1C1.200
; #@! TA.AperFunction,NonPlated,NPTH,ComponentDrill
T2C1.900
; #@! TA.AperFunction,NonPlated,NPTH,ComponentDrill
T3C3.000
; #@! TA.AperFunction,NonPlated,NPTH,ComponentDrill
T4C5.000
%
G90
G05
T1
X95.03Y8.46
X95.03Y1.46
T2
X-5.5Y0.0
X-5.5Y-19.05
X-5.5Y-38.1
X-5.5Y-57.15
X5.5Y0.0
X5.5Y-19.05
X5.5Y-38.1
X5.5Y-57.15
X13.55Y0.0
X13.55Y-19.05
X13.55Y-38.1
X13.55Y-57.15
X24.55Y0.0
X24.55Y-19.05
X24.55Y-38.1
X24.55Y-57.15
X32.6Y0.0
X32.6Y-19.05
X32.6Y-38.1
X32.6Y-57.15
X43.6Y0.0
X43.6Y-19.05
X43.6Y-38.1
X43.6Y-57.15
X51.65Y0.0
X51.65Y-19.05
X51.65Y-38.1
X51.65Y-57.15
X62.65Y0.0
X62.65Y-19.05
X62.65Y-38.1
X62.65Y-57.15
X70.7Y0.0
X70.7Y-19.05
X70.7Y-38.1
X70.7Y-57.15
X81.7Y0.0
X81.7Y-19.05
X81.7Y-38.1
X81.7Y-57.15
X89.75Y-57.15
X100.75Y-57.15
T3
X-5.0Y-3.7
X-5.0Y-22.75
X-5.0Y-41.8
X-5.0Y-60.85
X0.0Y-5.9
X0.0Y-24.95
X0.0Y-44.0
X0.0Y-63.05
X14.05Y-3.7
X14.05Y-22.75
X14.05Y-41.8
X14.05Y-60.85
X19.05Y-5.9
X19.05Y-24.95
X19.05Y-44.0
X19.05Y-63.05
X33.1Y-3.7
X33.1Y-22.75
X33.1Y-41.8
X33.1Y-60.85
X38.1Y-5.9
X38.1Y-24.95
X38.1Y-44.0
X38.1Y-63.05
X52.15Y-3.7
X52.15Y-22.75
X52.15Y-41.8
X52.15Y-60.85
X57.15Y-5.9
X57.15Y-24.95
X57.15Y-44.0
X57.15Y-63.05
X71.2Y-3.7
X71.2Y-22.75
X71.2Y-41.8
X71.2Y-60.85
X76.2Y-5.9
X76.2Y-24.95
X76.2Y-44.0
X76.2Y-63.05
X90.25Y-60.85
X95.25Y-63.05
T4
X0.0Y0.0
X0.0Y-19.05
X0.0Y-38.1
X0.0Y-57.15
X19.05Y0.0
X19.05Y-19.05
X19.05Y-38.1
X19.05Y-57.15
X38.1Y0.0
X38.1Y-19.05
X38.1Y-38.1
X38.1Y-57.15
X57.15Y0.0
X57.15Y-19.05
X57.15Y-38.1
X57.15Y-57.15
X76.2Y0.0
X76.2Y-19.05
X76.2Y-38.1
X76.2Y-57.15
X95.25Y-57.15
T0
M30
