M48
; DRILL file {KiCad 7.0.8} date 2024 October 11, Friday 08:32:45
; FORMAT={-:-/ absolute / metric / decimal}
; #@! TF.CreationDate,2024-10-11T08:32:45+09:00
; #@! TF.GenerationSoftware,Kicad,Pcbnew,7.0.8
; #@! TF.FileFunction,Plated,1,2,PTH
FMAT,2
METRIC
; #@! TA.AperFunction,Plated,PTH,ComponentDrill
T1C0.300
; #@! TA.AperFunction,Plated,PTH,ViaDrill
T2C0.400
; #@! TA.AperFunction,Plated,PTH,ComponentDrill
T3C0.500
; #@! TA.AperFunction,Plated,PTH,ComponentDrill
T4C0.813
; #@! TA.AperFunction,Plated,PTH,ComponentDrill
T5C1.000
; #@! TA.AperFunction,Plated,PTH,ComponentDrill
T6C1.300
; #@! TA.AperFunction,Plated,PTH,ComponentDrill
T7C1.850
%
G90
G05
T2
X-8.3Y-9.55
X4.86Y-48.02
X4.9Y-29.09
X4.93Y-10.81
X10.75Y-12.53
X11.61Y-48.21
X11.64Y-10.86
X23.89Y-29.15
X29.61Y-15.18
X42.37Y-10.86
X42.97Y-29.15
X48.59Y-11.013
X48.61Y-50.47
X50.28Y-16.24
X62.03Y-29.15
X65.86Y5.27
X66.72Y-34.92
X67.9Y-27.25
X80.28Y-29.15
X81.07Y-11.013
X81.08Y-48.08
X89.65Y-29.15
X92.67Y-11.013
X94.52Y-25.17
X94.6Y-27.12
X99.15Y-48.08
X100.95Y-63.05
X102.948Y-63.08
T4
X87.497Y8.22
X87.497Y5.68
X87.497Y3.14
X87.497Y0.6
X87.497Y-1.94
X87.497Y-4.48
X87.497Y-7.02
X87.497Y-9.56
X87.497Y-12.1
X87.497Y-14.64
X87.497Y-17.18
X87.497Y-19.72
X87.497Y-22.26
X102.717Y8.22
X102.717Y5.68
X102.717Y3.14
X102.717Y0.6
X102.717Y-1.94
X102.717Y-4.48
X102.717Y-7.02
X102.717Y-9.56
X102.717Y-12.1
X102.717Y-14.64
X102.717Y-17.18
X102.717Y-19.72
X102.717Y-22.26
T6
X86.49Y-26.3
X92.99Y-26.3
T7
X86.95Y-36.9
X103.85Y-36.9
T1
G00X5.9Y5.0
M15
G01X5.2Y5.0
M16
G05
G00X5.9Y-14.05
M15
G01X5.2Y-14.05
M16
G05
G00X5.9Y-33.1
M15
G01X5.2Y-33.1
M16
G05
G00X5.9Y-52.15
M15
G01X5.2Y-52.15
M16
G05
G00X24.95Y5.0
M15
G01X24.25Y5.0
M16
G05
G00X24.95Y-14.05
M15
G01X24.25Y-14.05
M16
G05
G00X24.95Y-33.1
M15
G01X24.25Y-33.1
M16
G05
G00X24.95Y-52.15
M15
G01X24.25Y-52.15
M16
G05
G00X44.0Y5.0
M15
G01X43.3Y5.0
M16
G05
G00X44.0Y-14.05
M15
G01X43.3Y-14.05
M16
G05
G00X44.0Y-33.1
M15
G01X43.3Y-33.1
M16
G05
G00X44.0Y-52.15
M15
G01X43.3Y-52.15
M16
G05
G00X63.05Y5.0
M15
G01X62.35Y5.0
M16
G05
G00X63.05Y-14.05
M15
G01X62.35Y-14.05
M16
G05
G00X63.05Y-33.1
M15
G01X62.35Y-33.1
M16
G05
G00X63.05Y-52.15
M15
G01X62.35Y-52.15
M16
G05
G00X82.1Y5.0
M15
G01X81.4Y5.0
M16
G05
G00X82.1Y-14.05
M15
G01X81.4Y-14.05
M16
G05
G00X82.1Y-33.1
M15
G01X81.4Y-33.1
M16
G05
G00X82.1Y-52.15
M15
G01X81.4Y-52.15
M16
G05
G00X101.15Y-52.15
M15
G01X100.45Y-52.15
M16
G05
T3
G00X-7.62Y7.67
M15
G01X-7.62Y7.37
M16
G05
G00X-7.62Y5.17
M15
G01X-7.62Y4.87
M16
G05
G00X-7.62Y2.67
M15
G01X-7.62Y2.37
M16
G05
T5
G00X92.93Y-1.59
M15
G01X92.93Y-2.09
M16
G05
G00X97.13Y6.91
M15
G01X97.13Y6.41
M16
G05
G00X97.13Y3.91
M15
G01X97.13Y3.41
M16
G05
G00X97.13Y-0.09
M15
G01X97.13Y-0.59
M16
G05
T0
M30
