%TF.GenerationSoftware,KiCad,Pcbnew,7.0.8*%
%TF.CreationDate,2024-10-11T08:32:43+09:00*%
%TF.ProjectId,cool642,636f6f6c-3634-4322-9e6b-696361645f70,rev?*%
%TF.SameCoordinates,Original*%
%TF.FileFunction,Copper,L1,Top*%
%TF.FilePolarity,Positive*%
%FSLAX46Y46*%
G04 Gerber Fmt 4.6, Leading zero omitted, Abs format (unit mm)*
G04 Created by KiCad (PCBNEW 7.0.8) date 2024-10-11 08:32:43*
%MOMM*%
%LPD*%
G01*
G04 APERTURE LIST*
%TA.AperFunction,SMDPad,CuDef*%
%ADD10R,1.300000X0.950000*%
%TD*%
%TA.AperFunction,ComponentPad*%
%ADD11O,2.200000X1.500000*%
%TD*%
%TA.AperFunction,ComponentPad*%
%ADD12C,2.000000*%
%TD*%
%TA.AperFunction,ComponentPad*%
%ADD13O,1.700000X2.500000*%
%TD*%
%TA.AperFunction,ComponentPad*%
%ADD14O,1.000000X1.300000*%
%TD*%
%TA.AperFunction,ComponentPad*%
%ADD15C,2.850000*%
%TD*%
%TA.AperFunction,ComponentPad*%
%ADD16C,1.524000*%
%TD*%
%TA.AperFunction,ComponentPad*%
%ADD17R,1.524000X1.524000*%
%TD*%
%TA.AperFunction,ViaPad*%
%ADD18C,0.800000*%
%TD*%
%TA.AperFunction,Conductor*%
%ADD19C,0.250000*%
%TD*%
G04 APERTURE END LIST*
D10*
%TO.P,D14,1,K*%
%TO.N,row1*%
X62005000Y-27590000D03*
%TO.P,D14,2,A*%
%TO.N,Net-(D14-A)*%
X65555000Y-27590000D03*
%TD*%
D11*
%TO.P,SW21,*%
%TO.N,*%
X5550000Y-33100000D03*
%TD*%
%TO.P,SW15,*%
%TO.N,*%
X81750000Y-14050000D03*
%TD*%
D10*
%TO.P,D35,1,K*%
%TO.N,row3*%
X81042500Y-65700000D03*
%TO.P,D35,2,A*%
%TO.N,Net-(D35-A)*%
X84592500Y-65700000D03*
%TD*%
%TO.P,D15,1,K*%
%TO.N,row1*%
X80215000Y-27520000D03*
%TO.P,D15,2,A*%
%TO.N,Net-(D15-A)*%
X83765000Y-27520000D03*
%TD*%
D11*
%TO.P,SW33,*%
%TO.N,*%
X43650000Y-52150000D03*
%TD*%
D10*
%TO.P,D21,1,K*%
%TO.N,row2*%
X4875000Y-46720000D03*
%TO.P,D21,2,A*%
%TO.N,Net-(D21-A)*%
X8425000Y-46720000D03*
%TD*%
%TO.P,D13,1,K*%
%TO.N,row1*%
X42975000Y-27660000D03*
%TO.P,D13,2,A*%
%TO.N,Net-(D13-A)*%
X46525000Y-27660000D03*
%TD*%
D11*
%TO.P,SW4,*%
%TO.N,*%
X62700000Y5000000D03*
%TD*%
%TO.P,SW36,*%
%TO.N,*%
X100800000Y-52150000D03*
%TD*%
%TO.P,SW3,*%
%TO.N,*%
X43650000Y5000000D03*
%TD*%
D12*
%TO.P,SW41,1,1*%
%TO.N,Net-(U2-BOOT(RST))*%
X86490000Y-26300000D03*
%TO.P,SW41,2,2*%
%TO.N,GND*%
X92990000Y-26300000D03*
%TD*%
D11*
%TO.P,SW31,*%
%TO.N,*%
X5550000Y-52150000D03*
%TD*%
D10*
%TO.P,D25,1,K*%
%TO.N,row2*%
X81085000Y-46680000D03*
%TO.P,D25,2,A*%
%TO.N,Net-(D25-A)*%
X84635000Y-46680000D03*
%TD*%
%TO.P,D31,1,K*%
%TO.N,row3*%
X4825000Y-65680000D03*
%TO.P,D31,2,A*%
%TO.N,Net-(D31-A)*%
X8375000Y-65680000D03*
%TD*%
%TO.P,D34,1,K*%
%TO.N,row3*%
X62015000Y-65750000D03*
%TO.P,D34,2,A*%
%TO.N,Net-(D34-A)*%
X65565000Y-65750000D03*
%TD*%
D11*
%TO.P,SW1,*%
%TO.N,*%
X5550000Y5000000D03*
%TD*%
D10*
%TO.P,D24,1,K*%
%TO.N,row2*%
X48650000Y-46760000D03*
%TO.P,D24,2,A*%
%TO.N,Net-(D24-A)*%
X52200000Y-46760000D03*
%TD*%
%TO.P,D12,1,K*%
%TO.N,row1*%
X23835000Y-27550000D03*
%TO.P,D12,2,A*%
%TO.N,Net-(D12-A)*%
X27385000Y-27550000D03*
%TD*%
D11*
%TO.P,SW25,*%
%TO.N,*%
X81750000Y-33100000D03*
%TD*%
%TO.P,SW23,*%
%TO.N,*%
X43650000Y-33100000D03*
%TD*%
D10*
%TO.P,D11,1,K*%
%TO.N,row1*%
X4855000Y-27610000D03*
%TO.P,D11,2,A*%
%TO.N,Net-(D11-A)*%
X8405000Y-27610000D03*
%TD*%
D11*
%TO.P,SW2,*%
%TO.N,*%
X24600000Y5000000D03*
%TD*%
D10*
%TO.P,D5,1,K*%
%TO.N,row0*%
X81085000Y-8570000D03*
%TO.P,D5,2,A*%
%TO.N,Net-(D5-A)*%
X84635000Y-8570000D03*
%TD*%
D11*
%TO.P,SW11,*%
%TO.N,*%
X5550000Y-14050000D03*
%TD*%
%TO.P,SW5,*%
%TO.N,*%
X81750000Y5000000D03*
%TD*%
%TO.P,SW32,*%
%TO.N,*%
X24600000Y-52150000D03*
%TD*%
D10*
%TO.P,D1,1,K*%
%TO.N,row0*%
X4905000Y-8660000D03*
%TO.P,D1,2,A*%
%TO.N,Net-(D1-A)*%
X8455000Y-8660000D03*
%TD*%
D11*
%TO.P,SW12,*%
%TO.N,*%
X24600000Y-14050000D03*
%TD*%
D10*
%TO.P,D33,1,K*%
%TO.N,row3*%
X42975000Y-65700000D03*
%TO.P,D33,2,A*%
%TO.N,Net-(D33-A)*%
X46525000Y-65700000D03*
%TD*%
%TO.P,D36,1,K*%
%TO.N,row3*%
X100137500Y-65740000D03*
%TO.P,D36,2,A*%
%TO.N,Net-(D36-A)*%
X103687500Y-65740000D03*
%TD*%
%TO.P,D23,1,K*%
%TO.N,row2*%
X42275000Y-46660000D03*
%TO.P,D23,2,A*%
%TO.N,Net-(D23-A)*%
X45825000Y-46660000D03*
%TD*%
%TO.P,D32,1,K*%
%TO.N,row3*%
X23915000Y-65670000D03*
%TO.P,D32,2,A*%
%TO.N,Net-(D32-A)*%
X27465000Y-65670000D03*
%TD*%
D11*
%TO.P,SW22,*%
%TO.N,*%
X24600000Y-33100000D03*
%TD*%
%TO.P,SW14,*%
%TO.N,*%
X62700000Y-14050000D03*
%TD*%
D10*
%TO.P,D3,1,K*%
%TO.N,row0*%
X42370000Y-8600000D03*
%TO.P,D3,2,A*%
%TO.N,Net-(D3-A)*%
X45920000Y-8600000D03*
%TD*%
%TO.P,D4,1,K*%
%TO.N,row0*%
X48565000Y-8630000D03*
%TO.P,D4,2,A*%
%TO.N,Net-(D4-A)*%
X52115000Y-8630000D03*
%TD*%
D11*
%TO.P,SW24,*%
%TO.N,*%
X62700000Y-33100000D03*
%TD*%
D10*
%TO.P,D22,1,K*%
%TO.N,row2*%
X11695000Y-46740000D03*
%TO.P,D22,2,A*%
%TO.N,Net-(D22-A)*%
X15245000Y-46740000D03*
%TD*%
D11*
%TO.P,SW35,*%
%TO.N,*%
X81750000Y-52150000D03*
%TD*%
D13*
%TO.P,J1,A*%
%TO.N,unconnected-(J1-PadA)*%
X92930000Y-1840000D03*
%TO.P,J1,B*%
%TO.N,data*%
X97130000Y6660000D03*
%TO.P,J1,C*%
%TO.N,GND*%
X97130000Y3660000D03*
%TO.P,J1,D*%
%TO.N,VCC*%
X97130000Y-340000D03*
%TD*%
D10*
%TO.P,D2,1,K*%
%TO.N,row0*%
X11645000Y-8590000D03*
%TO.P,D2,2,A*%
%TO.N,Net-(D2-A)*%
X15195000Y-8590000D03*
%TD*%
D11*
%TO.P,SW13,*%
%TO.N,*%
X43650000Y-14050000D03*
%TD*%
%TO.P,SW34,*%
%TO.N,*%
X62700000Y-52150000D03*
%TD*%
D14*
%TO.P,SW42,1,1*%
%TO.N,Net-(U2-BAT)*%
X-7620000Y7520000D03*
%TO.P,SW42,2,2*%
%TO.N,BAT+*%
X-7620000Y5020000D03*
%TO.P,SW42,3*%
%TO.N,N/C*%
X-7620000Y2520000D03*
%TD*%
D15*
%TO.P,BT1,1,+*%
%TO.N,BAT+*%
X86950000Y-36900000D03*
X103850000Y-36900000D03*
%TD*%
D16*
%TO.P,U2,1,PIN1*%
%TO.N,data*%
X87497200Y5680000D03*
%TO.P,U2,2,PIN2*%
%TO.N,unconnected-(U2-PIN2-Pad2)*%
X87497200Y3140000D03*
%TO.P,U2,3,GND*%
%TO.N,GND*%
X87497200Y600000D03*
%TO.P,U2,4,GND*%
X87497200Y-1940000D03*
%TO.P,U2,5,PIN5*%
%TO.N,row0*%
X87497200Y-4480000D03*
%TO.P,U2,6,PIN6*%
%TO.N,row1*%
X87497200Y-7020000D03*
%TO.P,U2,7,PIN7*%
%TO.N,col0*%
X87497200Y-9560000D03*
%TO.P,U2,8,PIN8*%
%TO.N,col1*%
X87497200Y-12100000D03*
%TO.P,U2,9,PIN9*%
%TO.N,col2*%
X87497200Y-14640000D03*
%TO.P,U2,10,PIN10*%
%TO.N,col3*%
X87497200Y-17180000D03*
%TO.P,U2,11,PIN11*%
%TO.N,col4*%
X87497200Y-19720000D03*
%TO.P,U2,12,PIN12*%
%TO.N,unconnected-(U2-PIN12-Pad12)*%
X87497200Y-22260000D03*
%TO.P,U2,13,PIN13*%
%TO.N,unconnected-(U2-PIN13-Pad13)*%
X102717200Y-22260000D03*
%TO.P,U2,14,PIN14*%
%TO.N,row3*%
X102717200Y-19720000D03*
%TO.P,U2,15,PIN15*%
%TO.N,row2*%
X102717200Y-17180000D03*
%TO.P,U2,16,PIN16*%
%TO.N,col5*%
X102717200Y-14640000D03*
%TO.P,U2,17,PIN17*%
%TO.N,unconnected-(U2-PIN17-Pad17)*%
X102717200Y-12100000D03*
%TO.P,U2,18,PIN18*%
%TO.N,unconnected-(U2-PIN18-Pad18)*%
X102717200Y-9560000D03*
%TO.P,U2,19,PIN19*%
%TO.N,unconnected-(U2-PIN19-Pad19)*%
X102717200Y-7020000D03*
%TO.P,U2,20,PIN20*%
%TO.N,unconnected-(U2-PIN20-Pad20)*%
X102717200Y-4480000D03*
%TO.P,U2,21,+4.3V*%
%TO.N,unconnected-(U2-+4.3V-Pad21)*%
X102717200Y-1940000D03*
%TO.P,U2,22,BOOT(RST)*%
%TO.N,Net-(U2-BOOT(RST))*%
X102717200Y600000D03*
%TO.P,U2,23,GND*%
%TO.N,GND*%
X102717200Y3140000D03*
%TO.P,U2,24,+5V*%
%TO.N,VCC*%
X102717200Y5680000D03*
D17*
%TO.P,U2,25,BAT*%
%TO.N,Net-(U2-BAT)*%
X102717200Y8220000D03*
D16*
%TO.P,U2,26*%
%TO.N,N/C*%
X87497200Y8220000D03*
%TD*%
D18*
%TO.N,BAT+*%
X66720000Y-34920000D03*
X65860000Y5270000D03*
%TO.N,row0*%
X11640000Y-10860000D03*
X92670000Y-11013000D03*
X42370000Y-10860000D03*
X81070000Y-11013000D03*
X48590000Y-11013000D03*
X4930000Y-10810000D03*
%TO.N,row1*%
X80280000Y-29150000D03*
X89650000Y-29150000D03*
X42970000Y-29150000D03*
X23890000Y-29150000D03*
X4900000Y-29090000D03*
X62030000Y-29150000D03*
%TO.N,row2*%
X99150000Y-48080000D03*
X81080000Y-48080000D03*
X11610000Y-48210000D03*
X48610000Y-50470000D03*
X4860000Y-48020000D03*
%TO.N,Net-(D36-A)*%
X100950000Y-63050000D03*
X102948231Y-63080000D03*
%TO.N,col0*%
X-8300000Y-9550000D03*
%TO.N,col1*%
X10750000Y-12530000D03*
%TO.N,col2*%
X29610000Y-15180000D03*
%TO.N,col3*%
X50280000Y-16240000D03*
%TO.N,col4*%
X67900000Y-27250000D03*
%TO.N,col5*%
X94520000Y-25170000D03*
X94600000Y-27120000D03*
%TD*%
D19*
%TO.N,BAT+*%
X-7620000Y5020000D02*
X-6565000Y6075000D01*
X46770604Y7150000D02*
X47845604Y6075000D01*
X-6565000Y6075000D02*
X40495000Y6075000D01*
X40495000Y6075000D02*
X41570000Y7150000D01*
X47845604Y6075000D02*
X65055000Y6075000D01*
X41570000Y7150000D02*
X46770604Y7150000D01*
X65055000Y6075000D02*
X65860000Y5270000D01*
%TO.N,Net-(U2-BAT)*%
X-7620000Y7520000D02*
X-6867000Y6767000D01*
X-6867000Y6767000D02*
X40447000Y6767000D01*
X40447000Y6767000D02*
X41280000Y7600000D01*
X41280000Y7600000D02*
X46957000Y7600000D01*
X46957000Y7600000D02*
X47790000Y6767000D01*
X47790000Y6767000D02*
X101264200Y6767000D01*
X101264200Y6767000D02*
X102717200Y8220000D01*
%TO.N,BAT+*%
X86950000Y-36900000D02*
X103850000Y-36900000D01*
X66720000Y-34920000D02*
X84970000Y-34920000D01*
X84970000Y-34920000D02*
X86950000Y-36900000D01*
%TO.N,row0*%
X43313000Y-11013000D02*
X43160000Y-10860000D01*
X68257572Y-12185428D02*
X69430000Y-11013000D01*
X41044572Y-12185428D02*
X42370000Y-10860000D01*
X20840000Y-10860000D02*
X22165428Y-12185428D01*
X22165428Y-12185428D02*
X41044572Y-12185428D01*
X4980000Y-10860000D02*
X4930000Y-10810000D01*
X69430000Y-11013000D02*
X81070000Y-11013000D01*
X48590000Y-11013000D02*
X43313000Y-11013000D01*
X11640000Y-10860000D02*
X20840000Y-10860000D01*
X65485428Y-12185428D02*
X68257572Y-12185428D01*
X92670000Y-11013000D02*
X89280000Y-11013000D01*
X64313000Y-11013000D02*
X65485428Y-12185428D01*
X11640000Y-10860000D02*
X4980000Y-10860000D01*
X43160000Y-10860000D02*
X42370000Y-10860000D01*
X89280000Y-11013000D02*
X81070000Y-11013000D01*
X48590000Y-11013000D02*
X64313000Y-11013000D01*
%TO.N,unconnected-(U2-PIN20-Pad20)*%
X102717200Y-4480000D02*
X102717200Y-3718000D01*
%TO.N,row1*%
X23890000Y-29150000D02*
X4960000Y-29150000D01*
X4960000Y-29150000D02*
X4900000Y-29090000D01*
X80280000Y-29150000D02*
X62030000Y-29150000D01*
X62030000Y-29150000D02*
X42970000Y-29150000D01*
X42970000Y-29150000D02*
X23890000Y-29150000D01*
X89650000Y-29150000D02*
X80280000Y-29150000D01*
%TO.N,row2*%
X48940000Y-50470000D02*
X48610000Y-50470000D01*
X99150000Y-48080000D02*
X81080000Y-48080000D01*
X4860000Y-48020000D02*
X11420000Y-48020000D01*
X78530000Y-50630000D02*
X81080000Y-48080000D01*
X13870000Y-50470000D02*
X11610000Y-48210000D01*
X48610000Y-50470000D02*
X24600000Y-50470000D01*
X51330000Y-48080000D02*
X48940000Y-50470000D01*
X64580000Y-50630000D02*
X78530000Y-50630000D01*
X24600000Y-50470000D02*
X13870000Y-50470000D01*
X11420000Y-48020000D02*
X11610000Y-48210000D01*
X62030000Y-48080000D02*
X51330000Y-48080000D01*
X62030000Y-48080000D02*
X64580000Y-50630000D01*
%TO.N,Net-(D36-A)*%
X100950000Y-63050000D02*
X102918231Y-63050000D01*
X102918231Y-63050000D02*
X102948231Y-63080000D01*
%TO.N,col0*%
X87497200Y-9560000D02*
X71070000Y-9560000D01*
X58158350Y-9560000D02*
X58148350Y-9550000D01*
X62200000Y-9560000D02*
X58158350Y-9560000D01*
X69090000Y-7580000D02*
X64180000Y-7580000D01*
X71070000Y-9560000D02*
X69090000Y-7580000D01*
X33470000Y-9550000D02*
X31270000Y-7350000D01*
X31270000Y-7350000D02*
X24880000Y-7350000D01*
X58148350Y-9550000D02*
X33470000Y-9550000D01*
X22680000Y-9550000D02*
X-8300000Y-9550000D01*
X24880000Y-7350000D02*
X22680000Y-9550000D01*
X64180000Y-7580000D02*
X62200000Y-9560000D01*
%TO.N,col1*%
X86961772Y-12635428D02*
X10855428Y-12635428D01*
X10855428Y-12635428D02*
X10750000Y-12530000D01*
X87497200Y-12100000D02*
X86961772Y-12635428D01*
%TO.N,col2*%
X29614572Y-15175428D02*
X29610000Y-15180000D01*
X86961772Y-15175428D02*
X29614572Y-15175428D01*
X87497200Y-14640000D02*
X86961772Y-15175428D01*
%TO.N,col3*%
X87497200Y-17180000D02*
X86492200Y-16175000D01*
X86492200Y-16175000D02*
X50345000Y-16175000D01*
X50345000Y-16175000D02*
X50280000Y-16240000D01*
%TO.N,col4*%
X78900380Y-27250000D02*
X67900000Y-27250000D01*
X86430380Y-19720000D02*
X78900380Y-27250000D01*
X87497200Y-19720000D02*
X86430380Y-19720000D01*
%TO.N,col5*%
X94600000Y-25250000D02*
X94520000Y-25170000D01*
X94600000Y-27120000D02*
X94600000Y-25250000D01*
%TO.N,VCC*%
X97130000Y92800D02*
X97130000Y-340000D01*
X102717200Y5680000D02*
X97130000Y92800D01*
%TD*%
M02*
